<?xml version="1.0" encoding="UTF-8" standalone="no"?>
<svg width="612px" height="612px" viewBox="0 0 612 612" version="1.1" xmlns="http://www.w3.org/2000/svg" xmlns:xlink="http://www.w3.org/1999/xlink" xmlns:sketch="http://www.bohemiancoding.com/sketch/ns">
    <title>al</title>
    <description>Created with Sketch (http://www.bohemiancoding.com/sketch)</description>
    <defs></defs>
    <g id="Page 1" stroke="none" stroke-width="1" fill="none" fill-rule="evenodd">
        <path d="M358.6,494.3 L358.6,494.2 L358.7,492.7 L358.6,492.4 L357.7,491.9 L357.1,491.8 L356.6,491.6 L356.3,491.6 L355.7,491.9 L355.3,490.9 L355.3,490.3 L355.4,488.3 L355.6,487.7 L355.3,487.4 L354.7,487 L354.2,486.5 L356.3,481.9 L357.2,480.2 L357.2,479.8 L357.4,479.2 L357.5,478.7 L358.3,478.1 L358.7,478.3 L358.9,479.2 L358.7,479.9 L359.2,480.7 L359.5,480.8 L359.8,481 L361,480.1 L362.3,479.2 L362.6,479.2 L362.9,479.6 L363.7,479.9 L364.6,481.1 L365,482.2 L365.2,482.8 L366.4,482.8 L366.8,482.9 L367.7,483.2 L368.5,484 L368.6,484.1 L369.8,486.8 L370.4,488.2 L370.3,488.6 L370,488.9 L370.1,489.5 L370,489.7 L369.7,491.3 L369.7,491.9 L370.1,493.7 L369.4,495.1 L369.4,495.7 L369.7,496 L370.1,496.6 L370.9,497.3 L370.9,497.9 L370.6,498.4 L370.3,498.5 L370.4,499.1 L370.7,500 L371.6,501.4 L372.1,502.4 L372.8,502.4 L374.2,505.1 L375.1,505.3 L375.2,505.1 L375.4,504.7 L376.6,504.7 L376.9,504.8 L377.2,505 L377.3,505.6 L377.5,506.6 L378.1,508 L378.5,508.4 L378.7,509.3 L378.7,510.4 L377.8,512 L377.5,512.2 L376.4,512.3 L376,512.9 L376,513.5 L375.8,514.9 L375.5,515 L375.4,515.6 L375.5,516.4 L375.2,518.6 L374.6,518.8 L374.5,519.1 L374.2,519.2 L373.9,519.2 L373,519.4 L372.7,519.4 L372.5,519.4 L372.4,519.5 L371.2,520.9 L371.6,521.9 L372.1,522.4 L372.7,523.1 L372.7,523.6 L372.7,523.9 L372.4,524.2 L371.5,523.9 L371.3,523.9 L371.5,524.5 L371.8,525.1 L370.7,526.7 L370.4,526.7 L370.1,526.7 L369.7,526.7 L369.1,526.4 L368.2,526.1 L368,526.3 L367.7,526.3 L367.6,525.1 L367.4,523.4 L366.7,522.4 L365.5,520.7 L365.2,520.7 L365,520.7 L364.1,520.3 L363.7,520 L362.2,519.4 L360.8,518.8 L360.1,518.5 L359.3,517.6 L357.7,515.5 L358,515.2 L358.3,515.2 L359,515.9 L359.2,516.2 L359.3,516.5 L359.6,516.8 L359.9,516.7 L360.2,516.2 L360.1,514.9 L359.5,512.9 L359,512.8 L358.6,512.8 L357.8,512.2 L357.5,511.7 L358,510.8 L358.3,508.7 L358.3,508 L358.7,507.7 L359,507.7 L359.5,507.1 L359.5,506.6 L359.2,506.2 L358.6,505.6 L358.3,505.4 L358.4,504.8 L358.7,501.5 L358.6,501.1 L358.4,500.9 L358.1,500.6 L357.8,500.6 L357.5,499.1 L358.1,496.3 L358.7,496 L358.9,495.7 L358.9,495.1 L358.6,494.3 L358.6,494.3 Z M358.6,494.3" id="al" stroke="#FFFFFF" fill="#DCDCDC"></path>
    </g>
</svg>