<?xml version="1.0" encoding="UTF-8" standalone="no"?>
<svg width="612px" height="612px" viewBox="0 0 612 612" version="1.1" xmlns="http://www.w3.org/2000/svg" xmlns:xlink="http://www.w3.org/1999/xlink" xmlns:sketch="http://www.bohemiancoding.com/sketch/ns">
    <title>al</title>
    <description>Created with Sketch (http://www.bohemiancoding.com/sketch)</description>
    <defs></defs>
    <g id="Page 1" stroke="none" stroke-width="1" fill="none" fill-rule="evenodd">
        <path d="M249.2,415.1 L249.4,414.1 L248.8,413.2 L248.3,412.9 L247.9,413 L247.6,413.6 L247.6,414.1 L246.5,415 L245.9,415.4 L245.6,415.4 L245.5,415.4 L245.3,415.4 L244.7,415.1 L243.4,414.4 L242.8,413.9 L242.8,413.5 L242.9,412.9 L242.8,412.6 L241.1,412.1 L240.1,412 L239.8,411.8 L239.9,411.8 L240.2,411.4 L240.2,410.8 L240.1,410.5 L239.5,408.8 L239,408.4 L239.2,408.2 L239.9,406.9 L240.2,406.7 L240.5,406.4 L240.4,405.2 L239.8,405.1 L239.3,404.5 L239.5,403.9 L239.6,403.9 L239.9,404 L240.4,404 L240.8,404 L241.3,403.9 L241.4,403.4 L241.7,403 L242,403 L243.7,403.9 L244.6,404.6 L246.7,406.7 L246.4,407.5 L245.9,408.4 L246.5,408.4 L247.1,408.1 L247.7,407.8 L248.8,406.3 L249.2,405.5 L249.1,404.8 L248.8,404 L248.8,403.3 L249.2,403.1 L250.3,403.9 L251.5,403.6 L253.9,404.2 L254.6,406.1 L254.9,406.3 L255.2,406.3 L256,406.3 L258.1,405.7 L259.7,404.2 L260.2,404.3 L260.8,404.2 L261.1,404 L262.1,403 L264.7,402.4 L265.6,402.2 L266.2,402.2 L266.6,402.4 L267.1,402.4 L267.7,402.4 L267.7,401.9 L267.7,401.6 L270.4,401.3 L271,401.9 L271.6,401.8 L271.6,401.6 L271.9,401.2 L272.6,401 L273.4,401 L274.3,401.9 L274.1,402.1 L274,402.7 L274.1,403.1 L275.8,404.3 L276.4,404.5 L276.8,404 L277.3,401.5 L277,400.7 L276.7,400.4 L276.4,400.1 L276.1,400.3 L275.2,400.1 L275.5,399.1 L275.8,398.8 L276.1,398 L275.6,397.1 L275,396.2 L274.4,395.6 L274.4,395.5 L274.1,395.2 L273.8,394.7 L273.4,394.3 L273.2,393.7 L274.4,392.2 L275.9,391.1 L277.4,390.5 L278.5,390.4 L278.8,390.4 L279.1,390.1 L279.2,389.9 L279.8,389.2 L280.1,388.9 L280.3,388.1 L280.4,386.6 L280.1,385.9 L281,385.6 L281.9,385.7 L282.4,386 L282.7,386.3 L283.1,386.6 L283.9,385.4 L284.2,384.5 L283.9,382.7 L284,382.1 L284.3,382.3 L284.6,382.3 L285.8,383 L286.4,383.8 L287.9,385 L289,385.1 L290,385 L290.6,384.4 L291.2,384.2 L292.4,384.2 L292.9,384.5 L293.3,384.8 L293.5,384.5 L293.5,383.6 L293.5,383 L294.4,381.4 L294.7,381.4 L295,381.4 L295.7,381.1 L295.9,378.7 L295.9,378.1 L296,377.5 L296.3,377.3 L296.6,377.3 L297.7,377.6 L299.2,377.6 L299.8,377.6 L300.1,377.8 L300.7,378.2 L301.4,378.7 L301.7,378.8 L302,378.8 L302.2,379 L303.2,379.4 L304,379.4 L305,379.4 L306.2,380.2 L306.8,380.6 L307.3,380.9 L307.6,380.9 L307.7,381.1 L310.1,381.1 L310.7,381.1 L311,380.8 L311.2,380.2 L311.3,379.7 L312.2,379.6 L313.4,380 L314,380.6 L314.9,380.9 L315.4,380.9 L315.8,380.8 L316,380.8 L316.3,381.1 L316.7,382.4 L316.7,383.2 L316.7,383.9 L316.4,384.4 L316.1,385.1 L316,385.4 L316.1,386.9 L317,388.1 L317.3,388.1 L317.3,388.6 L317.6,389.6 L317.9,389.9 L318.4,390.4 L318.8,390.4 L319,391.3 L319.4,392 L320,392.3 L319.7,392.6 L319.4,393.1 L319.1,394.7 L319,395.3 L319.1,396.2 L319.3,396.5 L319.4,397.3 L319.3,397.6 L318.2,397.9 L317.8,398 L316.9,398.2 L316.3,398.3 L315.8,398 L315.7,397.6 L314.8,397.1 L314.5,397.1 L313.9,397.3 L312.8,398.3 L312.7,398.9 L313.4,399.2 L314.5,399.4 L314.9,399.2 L315.2,399.5 L315.8,400.7 L315.8,401 L315.4,402.2 L314.8,402.8 L313.6,403 L313.3,403.1 L313.4,403.9 L313.9,405.2 L313.7,405.7 L313.4,406 L313.3,406.6 L313.7,407.5 L314.3,408.1 L314.5,409.9 L313.7,409.9 L313.4,409.9 L312.7,409.9 L312.2,409.9 L311.9,410.3 L311.8,410.9 L310.6,412.3 L310.4,412.4 L309.4,413.2 L309.1,413.2 L309.2,414.5 L307.9,415.1 L307.6,415.1 L307.3,415.3 L305,416 L302.9,416.6 L300.1,416.8 L299.6,416.8 L299.3,417.1 L299.2,416.9 L297.2,417.7 L296.9,418.4 L296.8,419 L296.6,419.5 L293.9,421.4 L293.2,421.3 L289.6,421.1 L289.3,420.7 L289.1,420.5 L288.7,420.4 L287.2,419.9 L286.1,419.9 L285.4,419.9 L284.8,419.9 L283.6,419.6 L283,419.5 L281.5,419.5 L279.7,419.5 L274.9,418.6 L274.4,418.3 L274.1,418.3 L274.1,418.4 L274,418.4 L273.5,418.1 L272.3,418.1 L271.9,418.1 L271.1,417.8 L270.7,417.7 L270.2,417.5 L270.1,417.2 L269.2,415.3 L268.3,414.5 L267.8,414.2 L267.5,413.8 L267.2,413.2 L267.2,412.4 L267.8,412.1 L268.1,411.5 L268.3,411.4 L268.1,411.2 L267.7,411.1 L267.2,411.2 L266.5,411.7 L263.2,413 L262.9,413 L262.6,412.9 L261.7,412.6 L260.2,412.6 L256.9,413.5 L256.3,414.1 L256,414.2 L256,414.7 L255.8,415.9 L255.2,416.6 L253.7,416.8 L253.1,416.5 L252.7,416.2 L252.4,415.7 L251.5,415 L251.2,415.1 L250.6,415.3 L250.3,415.4 L249.5,415.4 L249.2,415.1 L249.2,415.1 Z M249.2,415.1" id="at" stroke="#FFFFFF" fill="#DCDCDC"></path>
    </g>
</svg>