<?xml version="1.0" encoding="UTF-8" standalone="no"?>
<svg width="612px" height="612px" viewBox="0 0 612 612" version="1.1" xmlns="http://www.w3.org/2000/svg" xmlns:xlink="http://www.w3.org/1999/xlink" xmlns:sketch="http://www.bohemiancoding.com/sketch/ns">
    <title>al</title>
    <description>Created with Sketch (http://www.bohemiancoding.com/sketch)</description>
    <defs></defs>
    <g id="Page 1" stroke="none" stroke-width="1" fill="none" fill-rule="evenodd">
        <path d="M333.7,477.1 L332.8,476.2 L333.8,475.7 L333.7,474.8 L333.4,474.5 L333.2,474.1 L332.6,473.6 L332.3,473.5 L330.7,472.6 L329,471.1 L328.7,470.6 L328.6,470.2 L328.3,468.7 L328.3,468.2 L328.1,468.1 L327.7,467.8 L326.9,467.6 L326.3,467.5 L325.9,467.2 L325.7,467 L324.7,466.3 L324.5,466 L324.2,465.7 L322.9,464.2 L321.2,462.5 L321.1,462.1 L320.5,461.2 L319,459.7 L318.7,459.5 L318.2,459.5 L317.8,459.4 L316.7,458.6 L316.4,458 L316.3,457.6 L315.8,457.1 L315.4,456.8 L315.1,457 L314.6,457 L314.3,457 L314.8,455 L314.8,454.3 L313.7,452 L313.6,451.9 L313.1,451.4 L312.5,450.8 L312.2,450.1 L311.6,448.9 L311.3,448.7 L310.4,448.7 L309.2,447.7 L308.9,447.1 L309.1,445.3 L308.9,443 L308.9,442.7 L309.1,441.1 L309.2,440.8 L309.4,440.5 L310,440.2 L310.6,440 L311.6,440.2 L312.7,441.5 L313.7,442.9 L314,443 L314.5,443.3 L314.9,443.5 L315.5,443.3 L315.7,442.7 L316.1,441.4 L316.7,440.2 L317,439.7 L317.3,439.6 L317.9,439.4 L318.4,439.4 L318.8,439.6 L319,439.7 L320.5,439.9 L320.8,439.7 L321.5,438.5 L323,439.3 L323.3,439.6 L324.7,440.2 L325.3,440 L325.7,439.6 L328.1,440.3 L328.4,440.5 L329.3,440.3 L330.4,440 L331.1,440.5 L332,440.9 L332.3,441.1 L332.9,440.6 L333.2,440.5 L334.6,439.9 L335.2,440.2 L335.8,440.2 L336.2,440 L336.2,439.7 L336.2,439.3 L336.7,439.1 L338.5,439.4 L341,439.6 L343,440.8 L343.1,441.7 L342.8,441.7 L342.8,442.1 L343.1,442.4 L343.7,442.9 L345.1,442.9 L345.8,442.7 L346,442.7 L346.7,442 L347.3,441.5 L348.8,441.5 L349.6,441.8 L349.7,442.1 L349.6,443.8 L349.6,444.2 L349.3,445 L348.2,447.5 L347.6,448.1 L347.6,450.7 L347.6,451 L348.1,451.6 L348.5,452 L349.4,452.3 L350.9,453.1 L352.4,454.3 L353.9,455.2 L354.1,455.3 L354.2,455.8 L353.3,457 L352.9,457 L352.1,457.1 L351.4,457 L350.8,456.7 L349.9,456.5 L350.2,457.3 L351.7,458.8 L352.6,459.7 L353,460.1 L353.3,460.3 L353.5,460.6 L353.6,461 L353.6,461.5 L353.6,463.1 L353.6,463.4 L352.7,463.3 L351.4,464.2 L350.8,464.8 L350.6,464.6 L348.2,464.3 L347.6,465.2 L347.8,466 L348.1,466.1 L348.4,466.1 L348.7,466.3 L349.6,468.4 L349.6,469.1 L349.4,469.6 L348.8,469.6 L348.1,468.7 L348.1,468.2 L347.5,467.8 L347,467.8 L346.6,467.9 L345.2,469.7 L344.8,471.5 L344.8,471.8 L345.1,472.6 L344.9,473.3 L344.2,473.6 L343.9,473.8 L343.7,473.9 L343.4,474.2 L343.3,474.8 L343.1,477.1 L343.7,478.1 L344.2,478.7 L344.6,478.9 L344.9,479.6 L344.9,480.1 L344.6,480.5 L343.7,481.3 L343.6,481.4 L343,480.7 L342.4,480.5 L342.2,480.5 L341.8,480.7 L341.5,480.8 L340.9,480.4 L340,479.6 L337.9,478.7 L337.4,478.6 L336.4,478 L335.9,477.4 L335.3,476.6 L334.7,476.5 L334.3,476.3 L334,476.5 L333.7,477.1 L333.7,477.1 Z M333.7,477.1" id="ba" stroke="#FFFFFF" fill="#DCDCDC"></path>
    </g>
</svg>