<?xml version="1.0" encoding="UTF-8" standalone="no"?>
<svg width="612px" height="612px" viewBox="0 0 612 612" version="1.1" xmlns="http://www.w3.org/2000/svg" xmlns:xlink="http://www.w3.org/1999/xlink" xmlns:sketch="http://www.bohemiancoding.com/sketch/ns">
    <title>al</title>
    <description>Created with Sketch (http://www.bohemiancoding.com/sketch)</description>
    <defs></defs>
    <g id="Page 1" stroke="none" stroke-width="1" fill="none" fill-rule="evenodd">
        <path d="M184.7,360.7 L184.7,360.1 L185.2,358 L185.5,356.3 L185.2,355.6 L184,354.2 L183.5,354.4 L182.5,354.4 L181.4,354.1 L180.5,353.3 L180.5,352.6 L180.4,352.3 L179.9,351.5 L179,351.1 L178.4,351.1 L177.5,351.4 L176.9,350.8 L176.8,350.5 L176.5,348.4 L176.2,347.3 L176,346.9 L176,346.7 L175.9,346.3 L175.4,346.1 L174.7,346.3 L174.5,346.4 L174.4,346.4 L173.8,346.6 L173.6,346.7 L173.2,347.3 L172.9,347.2 L172.1,346.4 L170.9,345.2 L170.5,343.4 L170.6,342.2 L170.2,340.6 L170.3,340.6 L173.6,338.8 L174.5,338.3 L175.3,337.9 L176.2,337.3 L176.5,337.1 L176.9,337 L178.9,336.5 L178.7,337.6 L178.7,338.2 L178.9,338.3 L179.3,338.8 L179.6,338.9 L180.2,338.6 L180.2,338.2 L181,337.9 L181.7,338.2 L182.8,338.8 L182.8,339.4 L183.8,339.8 L184.3,339.7 L185.5,339.2 L186.1,338.8 L186.5,338.5 L187.1,337.9 L187.3,337.6 L187.4,337.9 L187.6,338.2 L187.7,338.5 L188,338.8 L187.9,339.1 L187.9,339.2 L188.2,338.8 L187.7,338.3 L187.7,337.7 L187.6,337.6 L187.4,337.3 L187.7,337.3 L188.5,337.6 L188.8,337.6 L189.1,337.6 L189.2,337.4 L189.2,337 L188.9,336.7 L189.1,336.1 L190,335.6 L190.4,335.6 L190.4,336.1 L190.4,336.5 L191.5,336.7 L191.6,336.5 L192.1,336.1 L192.7,335.5 L193,335.5 L193.3,335.6 L193.4,335.9 L193.3,336.7 L193.4,337 L194.3,337.3 L194.9,336.7 L195.1,336.2 L195.4,335.9 L195.7,336.2 L196,336.8 L195.7,337.4 L196.1,338.8 L196.4,338.9 L196.7,338.8 L197,339.1 L197,339.8 L197.9,339.8 L198.7,339.8 L199.4,339.5 L199.7,339.4 L200.2,339.8 L200.3,340.7 L201.1,341 L202.1,341.3 L203,342.1 L202.7,342.7 L202.1,344.2 L202,344.6 L202,345.2 L200.8,346.6 L200.6,347 L200.8,347.5 L201.1,347.6 L201.1,347.8 L201.2,347.8 L201.2,348.2 L201.1,348.5 L201.5,348.5 L202.1,348.4 L202.9,348.7 L203.2,348.7 L203.5,348.7 L204.2,348.7 L204.7,349.3 L205.7,350.5 L206.8,351.2 L206.5,351.7 L206.6,353.2 L207.1,353.3 L207.4,353.5 L207.7,354.2 L207.8,356.2 L207.2,356.5 L206.6,356.9 L205.4,357.8 L205,359 L205,359.5 L204.8,359.3 L203.9,358.7 L203.9,358.4 L203.8,358.4 L203.3,358.6 L202.4,359.8 L202.4,360.1 L201.8,361.6 L201.2,362 L200.8,362.9 L200.6,364.1 L200.8,364.9 L201.1,365 L201.8,366.1 L202,366.2 L202.1,367.1 L202.1,367.4 L201.7,368.6 L201.4,368.9 L201.1,369.1 L200.9,369.1 L200,368.9 L199.3,369.1 L198.8,369.2 L198.2,369.4 L197.6,369.4 L197.6,368.9 L197.3,367.9 L197,367.6 L196.9,367.4 L196.3,366.8 L193,364.1 L192.7,364.1 L192.5,364.3 L192.2,364.4 L191.8,364.1 L191.5,360.8 L191.8,359.6 L191.9,359.2 L192.4,358.6 L191.8,358 L191,358.4 L190.3,359.3 L190.3,359.8 L190.1,360.7 L188.3,361.4 L187.7,361.6 L187.4,361.4 L187.3,361.3 L186.4,361 L185.6,361 L185.3,361 L185,360.7 L184.7,360.7 L184.7,360.7 Z M184.7,360.7" id="be" stroke="#FFFFFF" fill="#DCDCDC"></path>
    </g>
</svg>