<?xml version="1.0" encoding="UTF-8" standalone="no"?>
<svg width="612px" height="612px" viewBox="0 0 612 612" version="1.1" xmlns="http://www.w3.org/2000/svg" xmlns:xlink="http://www.w3.org/1999/xlink" xmlns:sketch="http://www.bohemiancoding.com/sketch/ns">
    <title>al</title>
    <description>Created with Sketch (http://www.bohemiancoding.com/sketch)</description>
    <defs></defs>
    <g id="Page 1" stroke="none" stroke-width="1" fill="none" fill-rule="evenodd">
        <path d="M399.4,494 L399.5,493.7 L399.7,493.4 L399.2,491.8 L398.8,489.8 L398.8,489.2 L399.1,488.6 L399.4,488 L399.4,487.6 L399.1,487 L398.5,486.8 L398.2,486.4 L397.4,485.3 L397,484.4 L396.1,483.1 L394.4,482.8 L393.4,482.2 L392.2,481.7 L390.5,479.8 L389.9,479 L390.5,478.9 L391,478.3 L391.6,477.5 L391.7,477.1 L391.7,476.2 L391.6,475.7 L391.3,475.4 L390.5,475 L390.2,474.4 L389.5,470.8 L390.2,469.7 L391.1,469.3 L391.3,469.3 L391.9,469.4 L392.8,469.1 L394.7,465.2 L395,464.6 L395,463.6 L394.1,463.4 L393.7,463.3 L392.9,462.4 L392.6,461.6 L391.7,460.9 L391.1,460.7 L390.5,460.6 L389.9,460.4 L388.9,459.8 L386.8,456.2 L385.9,454.4 L386,451.4 L387.4,450.2 L388,449.2 L387.8,448.3 L388.1,447.5 L388.4,447.4 L388.6,447.5 L391.4,448.7 L391.7,448.7 L392.3,448.7 L392.5,448.7 L392.9,449.2 L392.9,449.5 L392.5,450.2 L392.2,450.2 L391.7,450.5 L391.4,450.8 L391.1,452.5 L391.4,452.9 L391.6,453.2 L391.9,453.2 L392.8,453.5 L394,453.5 L394.9,453.2 L395,453.1 L395.3,452.8 L395.6,452.6 L396.1,452.3 L396.2,452.3 L397.9,451.9 L398.2,452 L398.9,452 L399.2,452.3 L399.7,452.5 L400.1,452.5 L400.4,452.5 L402.1,452.3 L404.6,452.6 L405.5,452.8 L406.1,453.1 L406.7,453.1 L407,453.1 L407.5,452.9 L407.8,452.8 L408.1,452.8 L408.4,452.6 L408.5,452.6 L408.8,452.6 L409.4,452.2 L409.7,451.7 L409.9,451.6 L410.3,451.3 L410.6,451.1 L411.1,451.1 L411.5,451.1 L412.6,451.6 L412.9,451.6 L413.8,451.4 L414.8,451.1 L416.5,450.8 L418.7,450.8 L419.3,451 L419.9,451.1 L420.4,451.4 L420.7,451.4 L421.3,451.3 L421.6,451 L422.5,450.8 L423.2,450.4 L424,449.6 L424.6,449.5 L424.9,449.3 L425,449 L425.9,447.5 L426.4,446.5 L427.6,444.5 L427.9,444.1 L428,443.9 L429.7,442.7 L430.6,442.3 L430.9,442.1 L431.2,442.1 L431.6,442 L433.7,441.1 L435.1,440.5 L435.5,440 L436,439.6 L436.3,439.4 L437.5,439 L438.4,438.8 L439.1,438.8 L439.4,439 L439.9,438.8 L440,438.8 L440.2,438.5 L440.5,439 L440.6,439.3 L442.1,440 L442.9,439.9 L444.5,439.4 L444.8,439.1 L445.1,439.1 L445.6,439.7 L445.9,440 L446.2,440.2 L446.9,439.9 L447.1,439.7 L447.4,439.6 L448,439 L448.4,439.4 L448.6,439.9 L449.3,441.1 L449.9,441.4 L451.1,441.7 L451.7,441.8 L452.3,442 L452.6,442 L454.4,441.8 L455.3,441.7 L456.4,441.4 L456.4,441.5 L456.5,442.3 L457,443.8 L457.3,444.2 L457.4,444.7 L457.4,445.3 L457.3,446.2 L457.1,446.5 L457,446.6 L456.7,447.4 L456.4,447.5 L456.1,447.5 L455.8,447.4 L455.5,447.2 L454.9,447.2 L454.4,447.4 L452.9,448.1 L452.6,448.3 L452.3,449 L452.3,449.6 L452.3,450.4 L452,451.3 L451.4,452.5 L451.3,454.7 L451.4,455 L451.9,456.5 L452,457 L452.2,457.6 L452,457.9 L452.5,458.8 L452.6,460.1 L451.7,460.3 L451.3,460.3 L450.8,460.4 L449.9,461.9 L448.9,463.6 L448.7,463.9 L448.4,465.1 L448.7,465.4 L449.3,465.4 L449.8,465.1 L450.5,464.9 L451.3,465.2 L451.6,465.5 L451.7,466 L452.8,467.8 L453.2,468.1 L454.3,468.8 L454.9,469.3 L455.5,469.6 L455.9,470 L456.5,470.5 L456.8,471.2 L456.8,471.4 L456.4,471.5 L455.5,471.5 L455,471.4 L454.7,471.5 L453.2,472.3 L452.5,472.9 L452.2,473.3 L452,473.8 L450.2,473 L449.8,472.9 L449.6,472.6 L449.2,472.1 L449,471.8 L448.3,471.5 L448,471.4 L447.4,471.4 L445.6,472.1 L445.1,472.4 L444.5,473.9 L444.2,473.9 L440.8,475.3 L440.2,476 L440.5,476.6 L440.5,477.1 L440.5,477.4 L440.2,477.8 L439.6,478.1 L439.3,478.1 L438.5,478.3 L438.2,479 L438.1,479.6 L438.5,480.1 L438.7,480.2 L437.9,480.4 L437.5,480.4 L437,480.1 L436.3,480.1 L436,480.2 L435.2,480.8 L435.2,481.3 L435.4,481.7 L435.8,482.2 L436.1,482 L437.2,483.4 L437.6,485 L437.3,486.5 L435.5,487.4 L434.6,487.7 L434.3,487.9 L433.4,487.6 L431.6,488.3 L430.6,488.5 L430,489.1 L428.2,490.1 L427.4,490.4 L427,490.3 L426.2,489.7 L425.8,489.5 L424.4,489.1 L424.1,488.9 L422.5,488.6 L421.4,488.9 L421.4,489.4 L421.6,489.8 L421,489.5 L418.9,488.9 L418.3,488 L416.9,487.3 L415,487.7 L414.4,487.4 L413.9,487.9 L413.8,488 L413.3,488.2 L412.4,488.2 L412.3,488.6 L412.3,489.2 L411.4,490.3 L410.3,490.3 L409.3,490.7 L408.7,491.2 L407.5,491.9 L407.2,491.9 L406.4,491.9 L405.2,491.9 L403.4,492.2 L402.8,492.8 L402.8,493.3 L402.7,493.6 L402.4,493.7 L401.6,494 L401.3,494 L399.8,494 L399.4,494 L399.4,494 Z M399.4,494" id="bg" stroke="#FFFFFF" fill="#DCDCDC"></path>
    </g>
</svg>