<?xml version="1.0" encoding="UTF-8" standalone="no"?>
<svg width="612px" height="612px" viewBox="0 0 612 612" version="1.1" xmlns="http://www.w3.org/2000/svg" xmlns:xlink="http://www.w3.org/1999/xlink" xmlns:sketch="http://www.bohemiancoding.com/sketch/ns">
    <title>al</title>
    <description>Created with Sketch (http://www.bohemiancoding.com/sketch)</description>
    <defs></defs>
    <g id="Page 1" stroke="none" stroke-width="1" fill="none" fill-rule="evenodd">
        <path d="M394.4,314.8 L393.5,314.9 L392.6,315.1 L392.2,314.9 L391.7,314.8 L391.4,314.8 L390.8,314.9 L390.1,315.4 L389.8,315.5 L389.2,316 L388.3,316.4 L386.9,316.9 L386.5,316.9 L383.6,317.6 L383,318.7 L383,319.1 L383,319.7 L383,320.2 L381.2,322.4 L381.1,322.7 L380.6,323.2 L380.3,323.3 L380.2,323.2 L379.9,322.9 L379.6,322.6 L378.1,322.6 L377.2,323 L376.9,323.6 L377.2,324.1 L377.5,325 L377,325 L376.7,324.8 L376.3,323.9 L376,323 L376.3,322.7 L376.1,322.4 L376,321.2 L376,318.5 L376,317.8 L376.1,316.9 L375.8,315.7 L375.2,315.2 L372.7,314 L372.1,314 L371.3,314 L371,313.9 L370.7,313.1 L371.2,311.5 L372.1,309.2 L372.2,308.9 L372.4,308.6 L373,307.9 L373.1,307.7 L373.9,307.1 L374.2,307 L374.3,306.8 L374.6,306.7 L374.9,306.7 L375.2,306.7 L376.3,305.3 L376.4,305 L376.6,304.6 L376.6,304.1 L376.6,303.7 L376.4,303.7 L376.1,302.3 L375.8,300.8 L375.7,299.8 L374.5,296.8 L373.4,295 L372.2,292.7 L371.8,292.1 L371.3,291.1 L371,290.3 L370.9,289.9 L370.6,289.1 L370.4,289 L370.3,288.4 L369.5,286.6 L369.1,285.7 L369.1,285.4 L368.9,284.9 L369.1,284.9 L369.4,284.9 L369.5,284.9 L369.8,285.1 L370.9,284.9 L371.5,284.6 L372.5,284.3 L373.4,284.3 L373.6,284.2 L374.3,284.2 L374.6,283.9 L374.8,283.6 L375.1,283.4 L375.4,283.4 L375.7,283.7 L375.8,283.9 L376,284.3 L377.2,284.3 L377.8,283.7 L378.1,283.1 L379,282.2 L379.7,282.1 L380,282.4 L380.9,282.1 L380.9,281.6 L380.8,281.2 L380.6,280.7 L380.2,280.1 L380.6,279.4 L381.7,278.9 L382,279.1 L382.3,279.2 L382.7,279.1 L382.9,278.9 L383.3,278.3 L383.5,278 L383.6,277.6 L384.7,276.7 L385,276.5 L385.1,276.5 L385.3,276.2 L385.4,275.9 L385.6,275.6 L385.9,275.5 L386.8,276.4 L386.6,277.1 L386.3,277.4 L386.8,278 L388,278 L388.9,277.4 L389,277.3 L388.9,275.9 L387.7,274.7 L387.5,274.7 L387.2,275 L386.9,275.2 L386.6,275.2 L386.3,275 L386.2,274.4 L386.6,271.6 L387.1,271.1 L387.2,270.7 L387.4,270.4 L387.2,269.9 L386.8,269.3 L386.6,269 L386.3,267.1 L386.6,265.6 L387.1,264.2 L387.4,264.1 L387.5,263.9 L388.7,263.6 L389.5,263.2 L389.8,262.3 L389.9,261.4 L389.8,260.6 L389.9,260.2 L391.7,259.6 L392,259.6 L392.9,258.7 L394,257.3 L394.1,257 L394.1,256.7 L393.7,256.4 L392.5,256.4 L392.3,256.4 L391.9,256.9 L391.6,256.9 L391.3,256.7 L390.8,256.6 L391,254.8 L391.4,252.1 L391.1,251.2 L391,250.7 L391,250.6 L391.1,250.3 L391.3,250.1 L391.6,250.1 L392,250.3 L392.2,250.3 L392.9,249.7 L393.1,249.2 L393.1,248.6 L393.7,247.4 L395,247 L395.6,247.1 L396.5,247.3 L398.5,247.1 L398.8,247 L399.1,246.8 L399.1,246.4 L399.1,245.9 L398.9,244.7 L399.4,244 L400,243.1 L400.6,241.7 L400.6,241.1 L402.1,239.6 L402.4,239.8 L402.5,239.9 L402.8,240.1 L404.2,241.1 L404.5,241 L404.6,240.4 L405.8,239.8 L406.6,239.8 L406.9,239.8 L407.6,240.7 L407.8,241.1 L408.1,241.7 L408.2,241.9 L409.1,241.7 L409.3,241.3 L410.2,240.1 L410.5,240.1 L410.6,239.9 L411.4,239.9 L411.7,239.9 L413.9,240.4 L414.5,240.8 L414.2,241.3 L414.2,243.1 L414.5,243.7 L415.7,244.6 L416,244.4 L416.9,242.9 L418.7,241 L418.9,240.8 L419.2,240.7 L421.6,240.1 L423.7,240.4 L424,240.5 L425.3,241.4 L425.9,242.3 L427.1,243.1 L427.4,243.1 L427.9,242.6 L428.2,242.5 L428.5,242.5 L428.5,242.6 L428.6,242.9 L429.2,244.3 L429.5,245.9 L429.5,246.2 L429.2,246.4 L429.1,246.8 L428.9,247.3 L428.9,247.7 L430.3,249.1 L430.6,249.2 L431,249.8 L431.9,251.3 L431.6,253 L431.3,253.1 L431,253.4 L430.9,253.9 L430.9,255.2 L431,256 L431.5,256.1 L431.9,256.3 L432.4,256.4 L433.4,256.9 L434.5,257.8 L435.1,258.7 L434.9,259.3 L434.9,259.9 L435.1,260.2 L435.5,260.3 L436.1,260.5 L436.4,260.5 L437.8,262.1 L437.9,262.7 L438.4,263.6 L440.5,264.7 L440.8,264.7 L442.1,265 L442.6,264.8 L442.7,264.8 L443.8,265.3 L444.2,266.2 L444.4,266.8 L444.5,268.1 L444.4,268.7 L444.2,269 L444.2,269.6 L445.6,269.8 L445.9,269.5 L446.2,269.2 L446.3,269 L447.4,268.4 L449.5,268.9 L450.8,269.2 L451.1,269.2 L451.4,269.6 L451,270.4 L451.1,271.1 L451.4,271.6 L451.9,271.9 L453.4,272.3 L453.7,272.2 L453.8,272.2 L454.7,272.6 L454.7,272.9 L455,274.3 L454.3,275.3 L453.2,277.4 L453.1,277.7 L452.3,279.1 L451.7,279.7 L451.1,280.3 L450.8,280.3 L449.5,280.6 L449,280.7 L447.8,280.4 L447.5,279.8 L447.2,279.5 L445.7,279.5 L444.1,280.1 L443.9,280.6 L443.9,281.2 L443.9,281.8 L444.2,281.9 L443.8,283 L443.5,283.6 L445.1,285.1 L445.4,285.4 L445.7,285.5 L446.2,285.7 L446.5,285.7 L446.8,285.7 L447.4,286.3 L447.5,286.7 L447.8,287.3 L447.5,288.1 L447.2,288.4 L448.4,289.7 L449,291.4 L449.8,293.3 L449.8,293.9 L449.8,294.2 L451.3,295.4 L452,296 L452.3,296.3 L452.5,296.8 L452.5,297.1 L452,297.2 L451,297.5 L450.1,297.7 L449.9,297.7 L449,297.8 L448.6,298 L448.4,298.1 L448.3,298.4 L448.1,298.7 L446.5,299.2 L446.3,299.2 L445,299.8 L444.8,300.1 L445,300.5 L445.3,301 L444.8,301.6 L444.4,302.2 L443.8,303.2 L443.3,304.7 L443.5,305 L443.5,306.7 L443.2,307.9 L443.6,309.5 L444.1,310.3 L445.3,312.1 L445.4,312.7 L445.1,313 L444.8,313.4 L444.8,314.3 L443.8,313.7 L442.4,313.1 L442.3,312.4 L440.6,311.3 L440.3,311.3 L440,311.3 L439,311.8 L438.7,311.8 L438.4,311.9 L437.8,312.4 L437.6,312.7 L437.2,313 L436.6,313.3 L436.3,313 L435.8,312.5 L435.4,312.5 L434.9,312.8 L433.3,314.8 L432.8,315.4 L432.4,315.2 L431.3,313.4 L431.2,312.8 L430.3,311.8 L430,311.6 L429.5,311.6 L429.2,311.6 L428.9,311.9 L427.3,313.7 L427.1,314 L427,314.3 L426.8,315.1 L427,315.5 L427,316.1 L426.1,315.8 L425.8,315.5 L425.5,314.8 L425.3,314.3 L425.2,314 L423.8,314 L423.7,314.2 L423.4,314.5 L422.2,314.3 L421.3,313.3 L420.8,313.4 L420.7,313.9 L420.5,314.3 L420.4,314.8 L420.2,315.1 L419.9,315.2 L419.3,315.5 L419,315.5 L418.7,315.4 L418.4,315.2 L418,314.9 L417.7,314.8 L417.4,315.1 L417.4,315.4 L417.4,315.8 L417.5,316.4 L417.2,317.6 L416.5,317.3 L416.5,316.3 L416.5,315.8 L416,315.5 L415.1,315.5 L414.2,315.5 L413.8,316 L413.5,316.3 L412.3,316.6 L411.1,315.4 L411.1,314.8 L410.9,314.2 L410.5,314 L409.6,314.2 L409.1,314.3 L408.7,314.6 L408.5,314.8 L408.2,314.8 L407.9,314.8 L407.2,314.6 L406.6,314.5 L406.1,314.3 L405.5,314.3 L405.2,314.2 L404.9,314.3 L404.6,314.5 L404.2,314.6 L403.9,314.6 L403.6,314.8 L403.3,314.6 L403.1,314 L402.5,314.2 L402.2,314.3 L401.9,314.5 L401,314.5 L400.7,314.5 L400.3,314.3 L399.1,314 L397,314 L396.5,314 L396.2,314.3 L395.8,314.5 L395,314.8 L394.6,314.8 L394.4,314.8 L394.4,314.8 Z M394.4,314.8" id="by" stroke="#FFFFFF" fill="#DCDCDC"></path>
    </g>
</svg>