<?xml version="1.0" encoding="UTF-8" standalone="no"?>
<svg width="612px" height="612px" viewBox="0 0 612 612" version="1.1" xmlns="http://www.w3.org/2000/svg" xmlns:xlink="http://www.w3.org/1999/xlink" xmlns:sketch="http://www.bohemiancoding.com/sketch/ns">
    <title>al</title>
    <description>Created with Sketch (http://www.bohemiancoding.com/sketch)</description>
    <defs></defs>
    <g id="Page 1" stroke="none" stroke-width="1" fill="none" fill-rule="evenodd">
        <path d="M205.6,414.7 L205.7,413.8 L206.5,412.6 L206.9,412.4 L207.7,412.1 L208.1,411.5 L208.4,411.1 L209.5,410 L210.1,409.4 L211.6,407.5 L211.9,406.1 L211.7,406.3 L211.1,406.3 L210.7,406.1 L211.9,404 L212.3,403.9 L213.5,404 L214,404.9 L214.6,405.4 L214.9,405.2 L215.2,405.1 L215.6,405.1 L215.8,405.2 L216.1,405.2 L216.4,405.1 L216.5,404.8 L216.8,404.6 L217.3,404.2 L217.4,404.2 L217.4,403.3 L217.6,403.1 L217.9,403 L218,402.8 L218.2,402.7 L218.3,402.7 L218.9,402.4 L219.2,402.4 L219.2,403 L218.6,403.1 L219.1,403.3 L219.5,403.4 L220.3,403.3 L221.8,403.4 L223.1,403.4 L223.9,403.1 L224.8,402.4 L225.4,402.4 L225.8,402.5 L226.9,403 L227.3,403.1 L227.8,402.5 L228.4,402.2 L228.8,402.4 L228.8,402.8 L229.1,402.7 L229.4,401.8 L229.3,401.6 L229,401.6 L228.5,401.6 L228.4,401.9 L227.9,401.9 L227.2,401.5 L227.2,401 L227.9,399.8 L228.8,399.2 L229.3,399.4 L229.9,399.4 L230.2,399.7 L230.6,400.1 L230.6,401 L230.5,401.2 L230.8,401.2 L231.4,401.5 L231.1,400.9 L231.4,400.6 L231.7,400.9 L232,401.2 L232.1,401.9 L232.4,401.9 L232.6,401.9 L232.9,401.8 L233.2,401.6 L233.5,401.5 L233.8,401.3 L234.4,401.3 L236.2,401.8 L238.6,403.3 L239.5,403.9 L239.3,404.5 L239.8,405.1 L240.4,405.2 L240.5,406.4 L240.2,406.7 L239.9,406.9 L239.2,408.2 L239,408.4 L238.7,409.1 L238.6,409.6 L238.6,410 L238.7,410.5 L238.9,411.2 L238.4,412 L238.6,412 L238.7,411.8 L239.2,411.8 L239.8,411.8 L240.1,412 L241.1,412.1 L242.8,412.6 L242.9,412.9 L242.8,413.5 L242.8,413.9 L243.4,414.4 L244.7,415.1 L245.3,415.4 L245.5,415.4 L245.6,415.4 L245.9,415.4 L246.5,415 L247.6,414.1 L247.6,413.6 L247.9,413 L248.3,412.9 L248.8,413.2 L249.4,414.1 L249.2,415.1 L248.9,416.9 L249.2,419 L249.4,419.3 L249.4,419.8 L249.2,420.4 L249.1,420.7 L247.7,420.5 L247.4,420.4 L246.8,419.8 L246.8,419.3 L246.8,419 L246.1,419.2 L245.5,419.5 L244.7,420.7 L244.6,421.3 L244.7,422.2 L245.2,422.6 L245.8,423.2 L246.1,425.3 L245.6,425.8 L244.9,425.9 L244.1,424.9 L244,424.1 L244,423.8 L243.5,423.4 L243.1,423.2 L242.5,423.5 L242,423.7 L241.6,424 L241,424.7 L239.9,424.7 L239.5,424.7 L239.2,424.6 L238.9,424.3 L238.1,423.2 L238.1,422.5 L238.1,421.7 L237.2,421.1 L236.3,421.3 L235.9,422.2 L236.2,422.5 L236.5,423.8 L236.3,424.3 L236.2,424.7 L235.7,425.8 L235.1,426.7 L234.7,426.8 L234.5,427 L234.1,427.6 L233.5,428.6 L233.3,429.2 L233,430 L233.3,430.6 L233.9,431 L233.9,431.3 L233.5,432.4 L233,432.5 L232.4,432.2 L232.3,431.8 L232.3,431.3 L232,430.4 L231.1,429.8 L231.1,429.1 L231.4,428.6 L231.4,428.2 L231.1,427.9 L230.3,427.6 L230.2,427.7 L230,427.9 L229.7,427.9 L228.8,427.6 L227.2,425.6 L227,425.3 L226.9,424.6 L227,424.1 L227.3,423.2 L227.3,422 L227,421.7 L226.3,421.9 L226.1,422 L225.5,422.5 L223.7,425.8 L223.9,426.4 L223.7,427 L222.1,429.2 L221.8,429.5 L221.5,429.5 L221,429.5 L220.7,429.8 L220.6,430.3 L220.4,430.7 L219.7,430.6 L219.2,430.4 L218.8,430.3 L218.2,429.7 L217,429.5 L216.1,430.3 L215.6,430.4 L215.2,430.6 L214.7,430.6 L214.3,430.4 L213.5,430.9 L213.1,431.2 L212,431 L211.7,430.7 L211.4,430.1 L211.3,429.7 L211.1,429.1 L210.2,428 L209.6,427.6 L208.7,426.4 L209,422.6 L209.2,422.2 L209,421.7 L208.4,421.4 L208,421.3 L207.2,421.1 L206,421.1 L205.7,421.3 L203.8,422 L203.5,422.2 L203,422.8 L202.7,423.1 L202.9,423.4 L203.2,424.3 L202.9,425 L202.1,425.8 L201.5,426.1 L200,426.1 L199.7,425 L200,424.9 L200.3,424.6 L200.5,424.6 L200.9,424.4 L201.5,424.3 L201.4,423.7 L201.5,423.4 L202,422.3 L201.5,421.7 L201.1,421.4 L201.4,421.1 L202,419.6 L201.8,418.7 L203.5,417.2 L204.5,416.8 L205.4,416 L205.6,415.7 L205.6,414.7 L205.6,414.7 Z M230.3,401.2 L230.3,400.9 L230,401 L230,401.2 L230.3,401.2 L230.3,401.2 Z M230.3,401.2" id="ch" stroke="#FFFFFF" fill="#DCDCDC"></path>
    </g>
</svg>