<?xml version="1.0" encoding="UTF-8" standalone="no"?>
<svg width="612px" height="612px" viewBox="0 0 612 612" version="1.1" xmlns="http://www.w3.org/2000/svg" xmlns:xlink="http://www.w3.org/1999/xlink" xmlns:sketch="http://www.bohemiancoding.com/sketch/ns">
    <title>al</title>
    <description>Created with Sketch (http://www.bohemiancoding.com/sketch)</description>
    <defs></defs>
    <g id="Page 1" stroke="none" stroke-width="1" fill="none" fill-rule="evenodd">
        <path d="M553,568.3 L552.4,568.7 L551.5,568.9 L551.3,569 L551,569 L550.9,569.2 L550.4,569.6 L550.1,570.1 L547.9,570.7 L547.6,570.7 L546.7,571.1 L546.7,571.3 L546.5,571.4 L546.2,571.6 L545.9,571.6 L545.3,571.6 L545.2,571.6 L543.1,571.4 L542.6,571.4 L541.7,571.1 L540.4,569.6 L539.9,568.9 L538.6,567.1 L538.4,566.8 L538.4,566.5 L538.4,566.2 L538.6,566.2 L538.9,566.3 L539.2,566.5 L539.5,566.6 L539.6,566.8 L539.9,566.8 L540.2,566.6 L540.5,566.5 L540.7,566.3 L540.8,566 L541.1,565.4 L541.3,565.1 L541.3,564.7 L541.3,564.5 L541.6,563.9 L541.7,563.9 L542.5,563.5 L542.8,563.3 L543.7,563.2 L544.4,563.3 L545,563.3 L545.2,563.3 L545.3,563.3 L545.6,563.2 L545.8,562.9 L545.9,562.7 L546.1,562.6 L546.1,562.3 L546.1,562.1 L545.9,561.1 L545.8,560 L546.4,559.3 L550,558.5 L551,558.4 L551.2,558.4 L551.5,558.2 L551.9,558.1 L552.5,557.9 L554.5,556.9 L554.8,556.7 L555.4,556.1 L555.8,555.7 L556,555.5 L556.4,555.4 L557,555.2 L557.2,555.1 L558.4,554.2 L561.8,550.9 L562,550.6 L562.3,550.3 L562.3,550.1 L562.3,550 L562.4,549.8 L562.7,549.5 L564.5,548 L564.8,547.7 L564.8,548.5 L563.2,551 L562.1,552.4 L561.8,552.5 L561.5,552.8 L560.5,554.2 L558.8,556.1 L558.7,556.3 L558.7,556.4 L558.5,556.9 L558.5,557.3 L558.5,557.5 L558.5,557.9 L558.7,558.2 L558.8,558.7 L560.2,559.6 L561.1,560 L561.5,560.3 L561.7,560.5 L562,560.6 L562.1,561.1 L562,561.1 L561.5,561.1 L561.4,561.1 L560.8,561.2 L560.5,561.4 L560.2,561.5 L559.9,561.7 L559.9,561.8 L559.9,562 L559.7,562.1 L559.4,562.3 L559.3,562.3 L559,562.1 L558.7,562.1 L558.4,562.1 L558.1,562.3 L557.3,562.4 L557,562.6 L556.9,562.9 L556.7,563.2 L556.7,563.6 L556.7,563.9 L556.9,564.2 L557,564.4 L556.7,565.3 L555.8,566.2 L554.2,567.7 L553.6,568 L553,568.3 L553,568.3 Z M553,568.3" id="cy" stroke="#FFFFFF" fill="#DCDCDC"></path>
    </g>
</svg>