<?xml version="1.0" encoding="UTF-8" standalone="no"?>
<svg width="612px" height="612px" viewBox="0 0 612 612" version="1.1" xmlns="http://www.w3.org/2000/svg" xmlns:xlink="http://www.w3.org/1999/xlink" xmlns:sketch="http://www.bohemiancoding.com/sketch/ns">
    <title>al</title>
    <description>Created with Sketch (http://www.bohemiancoding.com/sketch)</description>
    <defs></defs>
    <g id="Page 1" stroke="none" stroke-width="1" fill="none" fill-rule="evenodd">
        <path d="M328.3,372.4 L328.4,372.8 L328.1,373.6 L327.7,374.2 L326.2,375.4 L325.6,376.4 L324.8,377.3 L324.4,377.8 L323.9,377.8 L323.6,377.9 L322.1,378.2 L321.2,378.5 L320.9,378.5 L320.3,378.2 L319.4,377.9 L318.8,378.1 L318.1,378.7 L317.5,379.9 L317.3,380.3 L317,381.4 L316.7,382.4 L316.3,381.1 L316,380.8 L315.8,380.8 L315.4,380.9 L314.9,380.9 L314,380.6 L313.4,380 L312.2,379.6 L311.3,379.7 L311.2,380.2 L311,380.8 L310.7,381.1 L310.1,381.1 L307.7,381.1 L307.6,380.9 L307.3,380.9 L306.8,380.6 L306.2,380.2 L305,379.4 L304,379.4 L303.2,379.4 L302.2,379 L302,378.8 L301.7,378.8 L301.4,378.7 L300.7,378.2 L300.1,377.8 L299.8,377.6 L299.2,377.6 L297.7,377.6 L296.6,377.3 L296.3,377.3 L296,377.5 L295.9,378.1 L295.9,378.7 L295.7,381.1 L295,381.4 L294.7,381.4 L294.4,381.4 L293.5,383 L293.5,383.6 L293.5,384.5 L293.3,384.8 L292.9,384.5 L292.4,384.2 L291.2,384.2 L290.6,384.4 L290,385 L289,385.1 L287.9,385 L286.4,383.8 L285.8,383 L284.6,382.3 L284.3,382.3 L284,382.1 L283.9,382.1 L283.9,381.7 L283.4,381.2 L283.3,380.9 L283.1,380.6 L283,380.5 L282.7,380.5 L282.4,380.3 L282.1,380 L281.8,379.4 L281.5,379.3 L281.2,379 L280.6,379 L279.4,378.5 L279.4,377.8 L278.5,376.9 L277,375.8 L275.3,373.9 L274.6,373.1 L273.8,373.1 L272.9,373.1 L271.6,371.8 L270.8,370 L270.5,369.5 L270.2,368.6 L269.9,367.6 L269.5,367.3 L269.2,367.3 L269.3,365.8 L270.1,363.7 L269.5,362.5 L269.2,362.3 L268.9,362.3 L267.5,361.4 L267.1,361.1 L266.5,360.4 L266.3,359.9 L266.5,359.5 L265.6,357.1 L265.3,356.8 L266.2,356.9 L267.2,358.6 L267.7,358.7 L267.7,358.3 L268.3,356.9 L269.2,355.9 L269.5,355.6 L270.5,355.1 L271,355.1 L271.7,354.8 L272,354.5 L272.5,354.4 L272.9,354.5 L273.2,354.8 L273.5,355 L273.8,355.1 L274.1,355 L274.3,354.8 L274.4,354.5 L275,353.5 L276.1,353.5 L276.4,353.2 L276.5,352.6 L276.7,352 L278,351.2 L278.3,351.5 L278.6,351.5 L278.8,351.7 L279.4,350.9 L279.2,350.8 L279.5,350.2 L280,349.7 L280.4,349.6 L280.9,349.4 L281.5,349.3 L283,348.7 L283.1,348.2 L283.9,347.8 L285.5,347.2 L287,346.4 L287.6,345.5 L287.2,345.4 L286.4,344.6 L286.7,343.9 L286.9,343.6 L288.7,343.7 L289.6,344.2 L289.9,344.6 L290.2,345.5 L290.3,346.3 L290.2,346.7 L290.5,346.9 L291.2,347.2 L291.4,347.2 L291.7,347.3 L292,347.2 L292.3,346.6 L292.3,346.4 L293.6,346.4 L293.9,346.3 L294.1,344.9 L293.9,344.5 L295.6,343.7 L296.2,344 L296.6,344.3 L296.8,344.8 L296.6,345.2 L296.8,345.7 L297.1,346.3 L297.5,346.6 L297.8,347.5 L298.9,347.3 L300.1,347.5 L301.9,347.8 L303.5,348.7 L304.4,349.6 L304.9,349.4 L305.3,349 L305.5,349 L306.5,348.7 L307.4,348.7 L307.9,349 L308.5,349.7 L308.8,350 L308.5,351.1 L308,351.5 L307.6,351.4 L306.5,352.6 L306.7,353 L307.1,353.3 L307.6,353.6 L308.3,353.8 L309.1,354.5 L309.2,354.7 L310.3,355.9 L310.4,356.2 L310.6,356.8 L310.7,357.4 L311,357.7 L311.3,357.8 L312.1,357.8 L312.8,357.1 L313,356.6 L313,356.5 L313.3,356 L313.9,355.6 L314.5,355.6 L314.8,355.6 L314.5,354.1 L314,353.6 L313.3,352.6 L313.4,352 L313.6,352 L313.9,352 L315.1,352.3 L315.7,352.6 L316.7,353 L316.9,353.3 L317.5,353.6 L318.5,354.2 L319.1,354.4 L321.1,354.2 L321.4,354.1 L321.7,353.6 L321.7,353.2 L322,353.2 L322.3,353.6 L322.4,354.7 L322.6,355 L321.8,355.6 L321.4,355.7 L321.1,356 L321.7,356.8 L323.6,358.6 L324.1,358.7 L324.5,358.7 L325.3,358.1 L325.7,357.2 L326.2,357.5 L328.1,358.7 L328.9,358.9 L331,359 L331.3,359.2 L331.4,360.7 L332.2,362 L333.8,362.8 L334.1,362.8 L334.6,364.1 L334.7,364.7 L334.9,365.2 L334.9,365.5 L334.3,365.5 L332.8,365.9 L331.9,366.1 L331.7,366.7 L330.4,369.1 L329.6,369.5 L329.3,369.7 L328.7,370 L328.4,370.7 L328.4,371.3 L328.4,372.1 L328.3,372.4 L328.3,372.4 Z M328.3,372.4" id="cz" stroke="#FFFFFF" fill="#DCDCDC"></path>
    </g>
</svg>