<?xml version="1.0" encoding="UTF-8" standalone="no"?>
<svg width="612px" height="612px" viewBox="0 0 612 612" version="1.1" xmlns="http://www.w3.org/2000/svg" xmlns:xlink="http://www.w3.org/1999/xlink" xmlns:sketch="http://www.bohemiancoding.com/sketch/ns">
    <title>al</title>
    <description>Created with Sketch (http://www.bohemiancoding.com/sketch)</description>
    <defs></defs>
    <g id="Page 1" stroke="none" stroke-width="1" fill="none" fill-rule="evenodd">
        <path d="M219.5,403.4 L219.1,403.3 L218.6,403.1 L219.2,403 L219.2,402.4 L218.9,402.4 L218.3,402.7 L218.3,402.5 L218,401.8 L217.7,401.5 L217.6,400.9 L217.7,399.4 L218.2,398 L218.5,397.4 L218.9,396.2 L218.9,395.8 L218.5,395.3 L218.3,395 L218.3,394.3 L218.5,393.8 L218.8,393.1 L219.8,391.1 L220.4,390.2 L220.4,389.6 L220.3,389.2 L220.4,388.7 L221,386.2 L221.9,384.7 L222.8,383.8 L224.2,382.4 L224.3,382.1 L224.5,381.8 L224.6,381.4 L224.8,380.9 L225.4,379.9 L225.7,379.7 L224.9,379.6 L223.9,379 L222.7,378.2 L221.5,378.2 L220.6,378.4 L220,378.2 L219.8,378.2 L219.5,377.9 L218.2,376.1 L217.4,376 L217,376 L216.8,376.1 L216.8,376.3 L216.1,377 L214.6,376.7 L214,376.7 L213.2,375.7 L212.3,375.1 L211.6,375.1 L211.6,375.7 L211.4,376.1 L210.2,375.8 L210.2,375.5 L209.9,374.5 L209,372.5 L208.6,371.5 L208.3,371.2 L207.8,370.7 L207.2,370.6 L206.8,370.7 L206.8,370.3 L206.8,369.7 L207.5,367.3 L208,366.8 L208.4,366.7 L208.6,365 L208.3,364.9 L207.7,364.9 L207.4,364.7 L206.6,364.1 L205.9,363.5 L205.7,363.4 L205.3,362.3 L205,361.7 L204.8,361.3 L204.7,360.5 L204.8,360.1 L204.8,359.5 L205,359.5 L205,359 L205.4,357.8 L206.6,356.9 L207.2,356.5 L207.8,356.2 L207.7,354.2 L207.4,353.5 L207.1,353.3 L206.6,353.2 L206.5,351.7 L206.8,351.2 L205.7,350.5 L204.7,349.3 L204.2,348.7 L204.2,347.9 L204.4,347.3 L204.8,347.2 L205.1,346.9 L205.1,346.1 L204.5,345.1 L203.8,344.9 L203.3,345.1 L203,344.3 L203,343.9 L203.5,343.6 L204.5,343.3 L205.4,342.5 L205.3,341.8 L205.3,341 L205.3,340.6 L206,339.8 L206.9,338.6 L206.9,337 L206.8,336.1 L206.5,335.3 L206.2,335.2 L205.9,334.6 L205.3,332.8 L204.5,332 L204.8,331.7 L204.7,331.1 L205.1,330.7 L206.3,329.8 L206.9,329.6 L208.6,330.5 L209.6,330.5 L210.2,330.2 L211,329.9 L211.9,329.6 L212.2,329.9 L212.5,329.8 L212.8,329.5 L213.2,328.6 L212.9,328 L212.3,327.5 L212.5,326.9 L212.8,326.2 L213.7,326.2 L213.8,325.9 L214.1,325.3 L214.7,325 L215.5,324.4 L215.6,324.2 L215.5,323.6 L215.5,323.2 L215.8,322.6 L215.9,322.3 L215.8,321.7 L215.2,320.6 L214.9,320.9 L212.9,320.5 L212.5,319.9 L212.3,318.8 L212.6,318.7 L213.1,318.7 L212.8,317.8 L212.6,317.6 L212.8,317.5 L213.1,317.2 L214.4,317.3 L215.8,317.6 L215.9,317.3 L216.1,316.1 L216.1,315.5 L216.1,314.9 L216.2,314.5 L216.4,314.2 L216.8,313.3 L217.3,312.5 L217.4,312.1 L217.6,311.3 L217.7,308.5 L217.7,307.4 L218.2,306.2 L218.9,306.2 L219.1,306.4 L219.1,306.1 L218,305.8 L217.6,305.8 L217,305.8 L216.7,305.8 L216.4,305.6 L216.1,305 L216.1,304.6 L216.1,304 L216.2,303.2 L216.8,301.6 L217.7,300.7 L218.2,300.2 L218.8,299.9 L219.2,299.9 L220.4,300.1 L220.9,300.2 L221.5,300.1 L222.7,299.8 L224,299.6 L224.3,299.6 L224.6,299.6 L224.9,299.6 L225.2,299.6 L225.5,299.8 L225.7,300.1 L225.8,301.1 L226.6,301.9 L226.9,302.3 L226.9,302.8 L226.6,303.2 L226.3,303.2 L226,303.2 L226,303.8 L226.3,304.3 L227.3,305 L227.5,305 L227.6,305 L227.9,304.7 L228.2,304.1 L228.4,303.2 L228.2,302.9 L227.9,303.1 L227.5,302.9 L227.6,302.3 L227.6,301.9 L227.9,301.6 L228.2,301.4 L228.5,301.4 L230,302.5 L230.2,303.2 L230,303.5 L229.9,304 L229.9,304.9 L229.9,305.5 L230,305.8 L230,304.6 L230,304.1 L230,303.7 L230.6,303.1 L230.6,302.9 L230.2,301.4 L230,300.8 L229.9,300.2 L230.6,298 L230.9,297.4 L231.1,297.1 L231.7,296.8 L231.8,296.8 L232.1,297.2 L232.6,297.5 L232.7,297.7 L232.9,297.8 L233.5,297.8 L233.9,298 L235,297.7 L235.7,297.4 L236,297.4 L236.8,297.4 L237.4,297.5 L237.8,298 L238.1,298.4 L238.3,299.2 L238.6,299.6 L239.9,301.7 L240.2,302 L241,302.6 L241.3,302.6 L241.9,302.8 L242.3,302.9 L242.5,302.8 L242,302.5 L241.7,302.5 L241.6,302.5 L241.3,302.3 L241,302.3 L240.1,301.6 L239.9,301.4 L238.9,299.3 L238.7,298.9 L238.6,298.6 L238.4,298.1 L238,297.5 L237.4,297.2 L236.9,296.9 L236.8,296.9 L235.4,296.8 L234.7,296.9 L234.4,296.6 L234.1,296.3 L233.9,296.2 L233.8,295.7 L233.5,294.8 L233.3,294.4 L233.8,294.2 L234.2,294.4 L234.4,294.5 L234.7,294.7 L234.8,294.5 L235,294.2 L235,293.6 L234.5,292.9 L233.5,292.9 L233.3,292.4 L233.2,292.1 L233.2,291.7 L233.5,290.8 L233.8,290 L233.3,290 L232,290.5 L231.8,290.5 L231.5,290.3 L231.4,289.9 L231.2,289.4 L231.4,288.5 L231.7,288.2 L232.7,288.1 L233.3,288.1 L233.5,288.2 L233.9,288.1 L234.8,287.5 L235.1,287 L235,286.6 L234.7,285.8 L234.4,285.8 L234.2,285.5 L233.6,284.5 L233.2,283.6 L232.7,283 L232.6,282.8 L232.3,282.4 L231.8,281.3 L231.8,280.9 L231.2,280.6 L230.9,280.3 L229.4,280.3 L228.7,280.4 L228.7,281 L228.7,281.8 L228.5,282.4 L228.5,281.8 L228.5,281 L228.7,279.7 L228.8,279.2 L229.4,277.4 L229.6,277.3 L229.7,277.1 L230.2,277.3 L230,277.7 L229.7,277.9 L229.4,278.2 L229.1,278.6 L229.7,279.4 L230.2,279.8 L230.5,279.8 L231.4,279.7 L232,279.5 L232.3,279.8 L232.4,280 L232.9,279.8 L233,279.7 L233.5,279.5 L234.4,279.7 L234.5,279.7 L236.6,280.4 L237.1,280.7 L237.1,281 L237.2,281.3 L238.3,281.3 L238.4,281.2 L238.7,281 L239,281.2 L239,281.5 L240.2,281.2 L241,281.3 L242.2,281.8 L243.2,281.8 L243.5,281.9 L243.8,282.2 L244.4,283.9 L244.4,284.5 L244.4,285.7 L244.1,286.3 L243.8,286.6 L243.1,287 L242.9,287 L242.6,287 L242.9,287.3 L243.1,287.5 L244.1,287 L245,286.9 L245.3,286.9 L247.4,287.8 L249.7,289 L250.1,289.4 L250.4,289.9 L251.2,289.9 L251.5,289.7 L251.8,289.4 L252.2,289 L252.8,288.5 L253.1,288.7 L253,288.7 L253.1,288.8 L253.4,288.8 L253.7,288.8 L254,288.7 L254.2,291.5 L253.9,292 L252.2,293.5 L251.8,293.5 L251.5,293.5 L251.2,294.1 L251.2,294.5 L251.3,295 L251.5,295.1 L251.8,295.1 L252.1,295.1 L252.2,295.3 L252.4,295.9 L252.1,296.5 L251.8,296.9 L252.5,296.2 L252.5,295.7 L253.1,295.4 L253.6,295.1 L253.9,295 L254.3,294.8 L255.1,294.8 L255.7,296 L257.2,296.3 L257.9,295.6 L257.9,295.1 L258.2,294.4 L258.4,294.5 L258.5,294.5 L258.7,294.4 L259.1,293.5 L259.1,293 L259.7,292.3 L260.3,292.3 L262.4,292 L263.8,291.5 L265.6,289.9 L265.7,289.6 L266.5,288.1 L266.9,287.2 L267.2,286.7 L267.4,287 L268.3,287.2 L268.6,287.2 L268.7,287.2 L269.9,287.2 L270.7,287.2 L271,287.3 L270.5,287.6 L269.5,287.6 L269.2,287.5 L268.9,287.5 L268.6,287.6 L268.4,287.6 L266.8,288.1 L266.5,288.5 L265.9,289.6 L266,290.3 L266.3,290.5 L266.8,290.5 L266.5,290.3 L266.5,290 L266.9,289.1 L267.5,288.7 L267.8,288.5 L268.3,288.4 L268.7,288.4 L269.5,288.4 L271.9,287.8 L272.9,289.9 L273.7,290.2 L274.4,290.5 L275.3,291.5 L276.1,292.7 L276.4,292.9 L276.5,292.9 L276.4,292.3 L278.3,291.4 L279.2,292.4 L279.2,292.7 L279.2,293.3 L279.7,294.4 L280,295.9 L279.7,296.3 L279.5,296.6 L281,298 L283.6,299 L283.9,299 L284,299 L284.5,301.4 L285.7,305 L285.7,305.6 L285.7,308.3 L285.5,308.9 L285.4,310 L284.9,310.6 L284.2,311 L284,311.2 L283.7,311.3 L283.6,311.6 L283.6,313.3 L284.2,313.9 L285.7,315.1 L286,315.4 L286.7,316.3 L287,316.6 L287.3,316.7 L287.8,317 L288.1,317.3 L288.7,317.8 L288.7,319.3 L288.2,320 L288.1,320.2 L287.8,320.5 L287.8,320.9 L288.4,322.7 L288.5,322.9 L289.1,323 L289.4,323.2 L289.6,323.3 L290.3,326.2 L290,328.4 L289.7,329.2 L289.4,329.8 L289.1,330.1 L289,330.5 L289.7,332.2 L290,332.5 L290.3,332.6 L290.6,333.1 L290.8,334 L290.3,334.9 L290.6,335.3 L291.7,335.8 L292.4,336.1 L292.9,336.2 L293,336.7 L293.2,337.9 L293.2,338 L293.3,338.5 L293.5,338.8 L293.8,339.2 L293.8,340 L293.6,342.1 L293.5,342.8 L293.3,343.3 L293.2,344 L292.9,344.8 L292.1,346.1 L292.3,346.4 L292.3,346.6 L292,347.2 L291.7,347.3 L291.4,347.2 L291.2,347.2 L290.5,346.9 L290.2,346.7 L290.3,346.3 L290.2,345.5 L289.9,344.6 L289.6,344.2 L288.7,343.7 L286.9,343.6 L286.7,343.9 L286.4,344.6 L287.2,345.4 L287.6,345.5 L287,346.4 L285.5,347.2 L283.9,347.8 L283.1,348.2 L283,348.7 L281.5,349.3 L280.9,349.4 L280.4,349.6 L280,349.7 L279.5,350.2 L279.2,350.8 L279.4,350.9 L278.8,351.7 L278.6,351.5 L278.3,351.5 L278,351.2 L276.7,352 L276.5,352.6 L276.4,353.2 L276.1,353.5 L275,353.5 L274.4,354.5 L274.3,354.8 L274.1,355 L273.8,355.1 L273.5,355 L273.2,354.8 L272.9,354.5 L272.5,354.4 L272,354.5 L271.7,354.8 L271,355.1 L270.5,355.1 L269.5,355.6 L269.2,355.9 L268.3,356.9 L267.7,358.3 L267.7,358.7 L267.2,358.6 L266.2,356.9 L265.3,356.8 L265.6,357.1 L266.5,359.5 L266.3,359.9 L266.5,360.4 L267.1,361.1 L267.5,361.4 L268.9,362.3 L269.2,362.3 L269.5,362.5 L270.1,363.7 L269.3,365.8 L269.2,367.3 L269.5,367.3 L269.9,367.6 L270.2,368.6 L270.5,369.5 L270.8,370 L271.6,371.8 L272.9,373.1 L273.8,373.1 L274.6,373.1 L275.3,373.9 L277,375.8 L278.5,376.9 L279.4,377.8 L279.4,378.5 L280.6,379 L281.2,379 L281.5,379.3 L281.8,379.4 L282.1,380 L282.4,380.3 L282.7,380.5 L283,380.5 L283.1,380.6 L283.3,380.9 L283.4,381.2 L283.9,381.7 L283.9,382.1 L284,382.1 L283.9,382.7 L284.2,384.5 L283.9,385.4 L283.1,386.6 L282.7,386.3 L282.4,386 L281.9,385.7 L281,385.6 L280.1,385.9 L280.4,386.6 L280.3,388.1 L280.1,388.9 L279.8,389.2 L279.2,389.9 L279.1,390.1 L278.8,390.4 L278.5,390.4 L277.4,390.5 L275.9,391.1 L274.4,392.2 L273.2,393.7 L273.4,394.3 L273.8,394.7 L274.1,395.2 L274.4,395.5 L274.4,395.6 L275,396.2 L275.6,397.1 L276.1,398 L275.8,398.8 L275.5,399.1 L275.2,400.1 L276.1,400.3 L276.4,400.1 L276.7,400.4 L277,400.7 L277.3,401.5 L276.8,404 L276.4,404.5 L275.8,404.3 L274.1,403.1 L274,402.7 L274.1,402.1 L274.3,401.9 L273.4,401 L272.6,401 L271.9,401.2 L271.6,401.6 L271.6,401.8 L271,401.9 L270.4,401.3 L267.7,401.6 L267.7,401.9 L267.7,402.4 L267.1,402.4 L266.6,402.4 L266.2,402.2 L265.6,402.2 L264.7,402.4 L262.1,403 L261.1,404 L260.8,404.2 L260.2,404.3 L259.7,404.2 L258.1,405.7 L256,406.3 L255.2,406.3 L254.9,406.3 L254.6,406.1 L253.9,404.2 L251.5,403.6 L250.3,403.9 L249.2,403.1 L248.8,403.3 L248.8,404 L249.1,404.8 L249.2,405.5 L248.8,406.3 L247.7,407.8 L247.1,408.1 L246.5,408.4 L245.9,408.4 L246.4,407.5 L246.7,406.7 L244.6,404.6 L243.7,403.9 L242,403 L241.7,403 L241.4,403.4 L241.3,403.9 L240.8,404 L240.4,404 L239.9,404 L239.6,403.9 L239.5,403.9 L238.6,403.3 L236.2,401.8 L234.4,401.3 L233.8,401.3 L233.5,401.5 L233.2,401.6 L232.9,401.8 L232.6,401.9 L232.4,401.9 L232.1,401.9 L232,401.2 L231.7,400.9 L231.4,400.6 L231.1,400.9 L231.4,401.5 L230.8,401.2 L230.5,401.2 L230.6,401 L230.6,400.1 L230.2,399.7 L229.9,399.4 L229.3,399.4 L228.8,399.2 L227.9,399.8 L227.2,401 L227.2,401.5 L227.9,401.9 L228.4,401.9 L228.5,401.6 L229,401.6 L229.3,401.6 L229.4,401.8 L229.1,402.7 L228.8,402.8 L228.8,402.4 L228.4,402.2 L227.8,402.5 L227.3,403.1 L226.9,403 L225.8,402.5 L225.4,402.4 L224.8,402.4 L223.9,403.1 L223.1,403.4 L221.8,403.4 L220.3,403.3 L219.5,403.4 L219.5,403.4 Z M274.3,290.2 L274.1,290.2 L273.2,289.3 L272.8,288.8 L272.9,288.2 L273.1,288.2 L273.5,288.2 L273.7,288.2 L273.8,288.2 L274.1,288.1 L273.8,287.5 L273.5,287.3 L273.2,287.2 L273.7,286.6 L273.8,286.3 L273.1,285.8 L272.9,285.2 L273.7,285.1 L274,285.2 L274.4,285.2 L274.7,284.9 L274.9,284.6 L275,284.9 L275.2,285.2 L275.5,285.5 L275.8,286.1 L276.1,286.3 L276.2,286 L276.4,285.7 L276.2,285.1 L275.8,285.1 L275.5,284.8 L275,284.6 L275,284.2 L274.7,284.2 L274.6,284.6 L274.4,284.8 L274.1,284.9 L273.8,285.1 L273.5,283.7 L273.7,283.4 L274,283.3 L274,283.1 L274.1,283.1 L274.9,283 L275,283 L275.3,282.8 L275.5,283 L275.3,283.3 L275.2,283.4 L275,283.6 L275.2,284.2 L275.3,284.5 L275.5,284.6 L275.8,284.8 L275.9,284.6 L276.2,284.6 L277,284.5 L277.3,284.5 L277.4,284.5 L277.7,284.8 L277.7,285.1 L277.7,285.4 L277.7,285.5 L277.6,285.7 L277,286.1 L277,286.4 L277,286.6 L277,286.9 L277.4,287.5 L277.6,287.5 L277.9,287.5 L278.2,287.8 L278.5,288.2 L278.6,288.7 L278.5,289.6 L278.3,289.7 L278.2,289.6 L278.3,289.3 L278.3,288.8 L278,288.4 L276.4,288.5 L276.1,288.8 L275,289.9 L275,290 L275.5,289.9 L275.6,290 L275.8,290.2 L275.8,290.5 L275.5,290.6 L274.7,290.2 L274.3,290.2 L274.3,290.2 Z M283.3,295.7 L283.4,296.2 L283.1,296.2 L282.1,296.2 L281.6,296.3 L281.3,296.6 L280.9,296.8 L280.3,296.9 L279.7,296.6 L280.1,296.2 L280.6,295.9 L280.7,295.6 L280.9,295.1 L281,294.8 L281.3,295 L281.6,295.1 L281.8,294.4 L281.6,294.1 L281.3,293.9 L281.2,293.6 L281,293.2 L280.7,293.2 L280.4,293.2 L280.4,293.6 L280.3,293.9 L280,294.2 L279.5,293.6 L279.4,293 L279.4,292.4 L278.9,291.8 L278.9,291.4 L279.4,291.4 L279.5,291.8 L279.8,292.4 L280.1,292.7 L280.4,292.9 L280.9,292.9 L281.2,293 L282.2,294.1 L283,295 L283.3,295.1 L283.4,295.3 L283.3,295.7 L283.3,295.7 Z M255.5,286.7 L255.8,287.3 L256.1,287.8 L256.1,288.1 L254.6,288.2 L254.5,288.2 L253.4,287.6 L253.4,287.5 L253.4,287.3 L253.4,287 L253.4,286.7 L253.6,286.6 L253.7,286.3 L253.9,286 L254.9,286.3 L255.4,286.6 L255.5,286.7 L255.5,286.7 Z M231.1,283.4 L230.3,283.4 L230.2,283.4 L229.6,283 L229.6,282.5 L229.7,282.4 L229.9,282.4 L230,282.2 L230.8,282.2 L230.9,282.2 L231.1,282.4 L231.2,282.4 L231.2,282.8 L231.1,283.4 L231.1,283.4 Z M230,401.2 L230,401 L230.3,400.9 L230.3,401.2 L230,401.2 L230,401.2 Z M253.1,288.7 L253.3,288.5 L253.4,288.7 L253.3,288.7 L253.1,288.7 L253.1,288.7 Z M253.1,288.7" id="de" stroke="#FFFFFF" fill="#DCDCDC"></path>
    </g>
</svg>