<?xml version="1.0" encoding="UTF-8" standalone="no"?>
<svg width="612px" height="612px" viewBox="0 0 612 612" version="1.1" xmlns="http://www.w3.org/2000/svg" xmlns:xlink="http://www.w3.org/1999/xlink" xmlns:sketch="http://www.bohemiancoding.com/sketch/ns">
    <title>al</title>
    <description>Created with Sketch (http://www.bohemiancoding.com/sketch)</description>
    <defs></defs>
    <g id="Page 1" stroke="none" stroke-width="1" fill="none" fill-rule="evenodd">
        <path d="M240.7,271.6 L240.5,271.9 L241.1,273.5 L241.4,273.8 L241.6,274.1 L241.3,275 L240.8,275.2 L240.7,275 L240.2,275 L239.5,275.6 L239.3,276.1 L239.6,277.4 L240.1,277.7 L240.8,277.9 L241.6,278.3 L241.9,279.1 L242,280 L241.7,281 L240.7,280.7 L240.7,280.1 L240.8,279.8 L240.8,279.5 L240.5,279.4 L239.6,280.4 L239.2,281 L239,281.2 L238.7,281 L238.4,281.2 L238.3,281.3 L237.2,281.3 L237.1,281 L237.1,280.7 L236.6,280.4 L234.5,279.7 L234.4,279.7 L233.5,279.5 L233,279.7 L232.9,279.8 L232.4,280 L232.3,279.8 L232,279.5 L232,278.5 L232.1,276.2 L231.1,276.5 L230.5,277 L230.3,276.7 L230.2,275.9 L230.3,275 L230.6,274.7 L231.2,274.9 L231.4,275 L231.1,275.5 L231.2,275.6 L231.8,275.9 L232.3,275.8 L232.3,275.5 L232.1,274.7 L232,273.8 L232.1,272.8 L232,271.3 L231.7,270.8 L231.5,270.7 L230.9,270.5 L230.5,270.4 L230.2,270.4 L229,268.7 L228.5,269.8 L227,268.6 L227.3,268 L227.5,267.5 L227.9,265.9 L227.9,265.4 L227.9,265.3 L227.9,263.8 L227.8,262.9 L227.6,262.1 L227.6,261.8 L227.6,261.4 L227.8,261.5 L227.8,262 L227.9,262.4 L227.9,262.9 L227.9,263.9 L228.1,264.4 L228.8,263.9 L229.3,263.6 L229.9,263 L229.9,262.4 L229.3,260.9 L229.3,260.3 L228.8,259.9 L228.5,259.6 L227.8,259.3 L227.8,259.9 L227.6,261.2 L227.5,260.8 L227.3,260 L227.5,259.1 L227.6,255.2 L227.6,253.6 L227.8,251.9 L228.1,250.3 L228.2,249.8 L228.4,249.5 L228.7,249.2 L228.8,249.5 L228.7,250 L228.5,250.4 L228.8,251 L229.6,251.5 L230.2,251.3 L230.3,251.5 L230.8,251.8 L231.2,252.1 L231.8,252.7 L232.3,253.3 L233.2,253 L233.3,252.1 L233.3,251.8 L232.9,251.3 L232.6,250.9 L234.1,249.1 L234.2,248.5 L235.1,247.7 L236,247.7 L236.5,247.9 L236.6,249.5 L235.9,250.7 L235.7,251.3 L236,251.8 L236.2,251.6 L236.3,251.2 L236.9,250.7 L237.4,250.6 L237.5,250.6 L237.8,251 L237.5,251.5 L237.8,251.9 L238.1,252.5 L238.7,251.9 L238.4,251.8 L238.3,250 L238.3,249.8 L238,249.5 L237.8,249.5 L236.9,250 L236.9,246.2 L237.1,245.9 L238.1,244.4 L238.6,244.3 L239,244.1 L239.6,244.1 L239.9,244.3 L240.2,244.4 L241.4,243.8 L242.2,243.5 L242.5,243.7 L242.9,243.7 L243.7,243.5 L243.8,243.2 L245.2,244.1 L245.5,244.4 L245.6,244.6 L245.9,244.7 L246.2,244.7 L246.8,244.7 L246.5,245.2 L246.4,245.9 L246.5,247.4 L246.5,247.9 L246.8,248.8 L246.2,249.2 L245.5,249.2 L242.9,250.4 L243.1,250.6 L243.5,250.6 L244.1,250.3 L244.7,249.8 L245.6,249.7 L246.8,249.7 L247.1,249.7 L247.3,250 L247.3,250.4 L247,250.9 L246.8,251 L246.5,251.3 L246.2,251.6 L245.9,252.2 L245.8,253.4 L246.1,253.3 L246.1,252.8 L246.1,252.1 L246.8,251.6 L247,251.8 L247.3,251.9 L247.7,252.5 L248.6,252.7 L248.8,252.8 L249.2,252.7 L249.8,252.5 L250.7,252.4 L251,252.4 L251.5,252.5 L251.6,252.7 L252.5,253.9 L252.2,255.5 L252.1,255.8 L250.7,258.5 L250.1,258.1 L250.1,257.6 L249.8,257.5 L249.5,257.5 L249.2,257.8 L248.9,258.7 L249.2,259.3 L248.9,259.6 L248.6,259.7 L247.6,258.7 L247.3,258.1 L248,257.6 L248.3,257.6 L248.5,256.7 L248,256.4 L247.6,256.4 L246.2,258.4 L246.1,259 L246.2,259.3 L246.4,259.9 L246.5,261.1 L246.4,262.7 L245.8,264.2 L245.3,264.1 L245.3,263.6 L245,263.5 L244.6,263.3 L244.3,263.5 L244,263.5 L242.9,263.9 L243.1,264.1 L243.4,264.2 L243.7,264.2 L244.1,264.4 L244.6,264.5 L244.6,265.6 L244.1,266.3 L242.6,266.9 L242.3,266.9 L241.7,266.6 L241.3,266.3 L241,266.2 L240.2,266.3 L240.4,266.5 L240.7,266.5 L241,266.6 L241.6,267.2 L242.5,268 L241.4,269.3 L240.4,271.1 L240.5,271.4 L240.7,271.6 L240.7,271.6 Z M265,268 L264.4,268.4 L264.2,268.6 L264.2,268.7 L263.8,269.5 L263.8,269.8 L263.8,270.1 L263.8,270.4 L263.9,270.5 L264.1,270.7 L264.7,271.1 L265.1,271.1 L265.3,271.1 L265.4,271.3 L265.6,271.4 L266,271.9 L266,272 L266.2,272.2 L266.3,272.9 L266.2,273.2 L265.9,273.5 L265.1,274 L265,274 L264.8,274 L264.5,274 L264.4,274 L263.9,274.1 L263.8,274.3 L262.4,275 L262.4,275.2 L262.3,275.3 L262.7,275.8 L262.9,275.8 L263,275.8 L263.2,275.8 L263.3,275.6 L263.5,275.8 L263.8,275.9 L263.8,277.9 L263.6,278 L262.9,278.5 L262.6,278.5 L262.4,278.5 L262.1,278.5 L262,278.3 L261.8,278 L261.7,278 L261.4,277.9 L261.2,278.2 L261.4,278.3 L260.9,277.7 L260.8,277.6 L259.7,277 L260.2,275.8 L260.3,275.3 L259.9,274.7 L259.7,274.6 L259.6,274.6 L259.4,274.6 L259.3,274.6 L259.1,274.9 L258.7,274.9 L258.1,274.9 L257.8,274.7 L257.2,274.6 L257,274.4 L256.9,274.4 L256.7,274.6 L256.3,274.7 L256,274.9 L255.8,274.9 L255.5,274.9 L255.4,274.7 L254.8,272.5 L255.1,271.4 L254.9,270.5 L254.3,268.6 L254.3,268.4 L253.7,266.9 L253.7,266.8 L253,266.5 L251.9,265.7 L252.1,265.7 L252.5,265.7 L254.2,266 L254.2,266.2 L254.3,266.2 L254.5,266.3 L254.8,266.3 L254.9,266.3 L256.1,265.6 L257.3,263.9 L257.5,263.6 L257.5,263.5 L257.5,263.2 L257.5,263 L257.5,262.6 L257.3,262.4 L257.2,262.3 L256.9,262.1 L256.3,262.1 L256.1,262.1 L255.4,261.7 L255.4,261.4 L255.7,261.5 L256.6,261.8 L258.4,262.3 L258.8,262.1 L259.3,262 L259.6,261.8 L259.7,261.8 L259.9,262 L259.6,262.4 L259,263 L259,264.4 L259.4,264.7 L259.6,264.7 L259.6,264.8 L259.9,265.3 L260.2,266.5 L260.2,266.9 L260.3,266.6 L260.5,266 L260.5,265.1 L260.9,262.4 L261.1,262.3 L261.2,262.3 L261.4,262.4 L261.5,262.6 L261.7,262.7 L261.8,262.9 L262.1,264.4 L262.3,264.5 L262.4,265.4 L262.4,265.6 L262.3,265.7 L262.1,265.9 L262,265.9 L261.7,265.9 L261.4,266.6 L261.4,266.9 L262.4,266.9 L262.7,266.2 L262.7,266 L262.7,265.7 L262.7,265.4 L262.6,265.1 L262.1,262.4 L262,261.8 L261.7,261.8 L261.2,262 L260.8,262.3 L260.6,262.3 L260.5,262.1 L260.5,262 L260.6,261.7 L261.1,261.2 L263.3,259.3 L263.5,259.1 L264.2,259 L264.2,258.8 L264.4,258.8 L264.5,258.8 L264.7,259 L266.3,259.6 L266.5,259.6 L267.2,260.3 L267.1,260.9 L266.9,260.9 L266.8,261.1 L266.5,261.8 L266.3,262.3 L266.5,262.4 L266.8,263.2 L266.9,263.3 L266.9,263.5 L267.2,264.4 L267.2,264.8 L267.2,265.1 L267.1,265.4 L267.2,266 L266.9,266.6 L266.8,266.8 L266.8,266.9 L266.6,267.1 L266.5,267.2 L266.3,267.7 L265.9,267.7 L265.9,267.5 L265.7,267.5 L265.6,267.5 L265.4,267.5 L265,267.8 L265,268 L265,268 Z M230.3,249.8 L230.6,249.8 L230.9,250 L231.2,250 L231.5,249.8 L231.8,249.7 L232,250.6 L232,251 L231.5,251.3 L230.9,250.6 L230.6,250.3 L230.2,249.8 L229.9,249.8 L228.8,249.2 L228.8,248.6 L228.8,248.2 L229,247.6 L229.1,247.3 L229.3,246.7 L229.7,245.9 L230.2,245.3 L230.8,244.3 L231.8,242.8 L232.3,242.3 L232.4,242.3 L233,242.6 L233.3,242.6 L233.5,242.6 L233.8,242.6 L234.2,242.6 L234.7,242.3 L235.7,241.9 L236.2,242 L236.9,242.2 L237.2,242.2 L237.7,242.2 L237.8,242.2 L238.9,241.9 L239.5,241.4 L239.8,241.3 L240.2,240.8 L240.5,240.4 L241.1,239.3 L241.6,238.3 L241.7,238 L242.2,237.1 L242.3,236.6 L243.8,234.7 L244.1,234.5 L244.4,234.5 L245,234.5 L245.2,234.5 L245.5,234.5 L245.6,234.5 L245.9,234.4 L246.4,234.2 L246.7,233.9 L247.6,233.2 L248,232.7 L248.5,232.3 L248.6,232 L248.9,232 L249.2,232 L249.5,232 L249.5,232.1 L249.4,232.3 L248.9,232.6 L248.6,233 L248.3,233.2 L248.2,233.6 L248,233.9 L247.9,234.2 L247.7,234.7 L247.9,235.1 L247.9,235.6 L248.6,237.5 L248.6,240.7 L248,241.4 L247.7,241.9 L247,244.6 L246.2,244.7 L246.1,244.6 L245.8,244.4 L245.5,244.1 L245.2,243.8 L244.3,243.1 L244.1,242.9 L239.8,243.7 L238,244.4 L237.8,244.4 L237.7,244.6 L237.5,244.4 L237.2,244.3 L237.1,244 L236.9,243.8 L236.8,243.7 L236.5,243.5 L236.5,243.8 L235.7,244.1 L234.5,244.4 L234.1,244.9 L233.5,245.2 L233.2,245.2 L232.7,245.3 L232.1,246.4 L232.1,246.8 L231.7,247.4 L231.4,247.7 L231.2,247.7 L231.1,248 L230.8,249.4 L230.3,249.8 L230.3,249.8 Z M244.1,269 L244.7,268.9 L245.2,268.6 L245.5,268.6 L245.6,268.4 L246.1,268.1 L246.7,267.8 L247,267.8 L247.7,268.3 L248.5,269.2 L248.3,269.5 L248.2,270.1 L247.9,270.4 L247.9,270.8 L248.3,270.8 L249.5,269.9 L249.7,269.5 L249.7,268.7 L249.7,267.8 L250,268.3 L250.7,269.9 L251.2,272 L251.6,273.1 L251.5,274.9 L251.2,276.1 L250.7,277.1 L250.1,277.1 L249.7,277.1 L249.5,277.3 L248.9,277.7 L248.8,277.7 L248.6,277.7 L245.5,276.8 L245.3,276.2 L245.5,276.1 L245.2,275.2 L244.1,275 L243.2,273.4 L243.1,272.5 L242.5,270.8 L242,270.4 L241.7,270.2 L241.3,269.8 L241.9,269 L242.6,269 L242.8,269.5 L242.9,269.6 L243.2,269.6 L243.5,269.6 L244.1,269 L244.1,269 Z M253.1,281.6 L253.4,281.3 L253.3,280 L253.4,279.7 L253.6,279.5 L253.7,279.2 L253.9,279.1 L254.3,278.9 L254.5,278.9 L254.6,278.9 L254.9,278.9 L255.4,278.9 L255.7,278.9 L255.8,279.1 L256.3,279.5 L256.4,280 L256.4,280.1 L256.7,280.3 L256.9,280.4 L257.9,281 L258.4,281 L259,280.1 L259,279.7 L259.1,279.7 L259.6,280.1 L259.9,280.4 L260.9,281.9 L261.1,282.4 L261.1,283.3 L260.9,283.6 L260.9,283.7 L260.3,284 L260,284 L259.9,283.9 L259.6,283.9 L259.1,283.7 L258.5,283.7 L258.1,284.2 L257.5,284.5 L256.7,284 L256.4,283.9 L256.1,283.6 L255.8,283.1 L255.7,283.1 L255.5,283 L254.9,282.8 L254.5,282.5 L254.3,282.5 L254.2,282.5 L253.4,282.2 L253.1,281.8 L253.1,281.6 L253.1,281.6 Z M289.7,276.8 L288.8,276.5 L288.2,276.4 L287,275.8 L286.9,275.6 L286.4,275.2 L286.4,273.2 L286.7,271.9 L286.9,271.7 L287.3,272.2 L287.3,272.3 L287.5,272.5 L287.6,272.6 L288.1,272.9 L289.1,273.5 L289.9,274 L290,274.1 L290.3,274.1 L290.5,274.3 L290.6,274.4 L290.6,275.2 L290.3,276.2 L290,276.7 L289.9,276.8 L289.7,276.8 L289.7,276.8 Z M260.9,278.8 L261.1,278.9 L262.3,279.7 L262.4,279.7 L262.6,279.8 L262.9,279.8 L263,279.8 L263.2,279.8 L263.3,279.8 L263.3,280 L263.5,280.1 L263.8,280.7 L263.8,280.9 L263.5,281.2 L263.3,281.3 L263.2,281.5 L263,281.5 L262.9,281.8 L262.1,282.8 L262.1,283.1 L262,283.4 L262,283.7 L262,283.9 L262.1,284.2 L262.1,284.6 L262.1,284.9 L262.3,285.2 L262.1,285.4 L262,285.2 L261.7,285.2 L261.2,283.9 L261.2,283.6 L261.2,283.3 L261.4,283 L261.4,282.8 L261.1,281.8 L260.5,280.7 L260.5,280.6 L260.3,280.6 L260,280.4 L259.6,279.1 L259.9,278.8 L260,278.8 L260.2,278.6 L260.9,278.8 L260.9,278.8 Z M232.4,249.8 L232.3,249.5 L232,248.9 L231.7,248.8 L231.5,248.8 L231.2,248.9 L231.2,248.8 L231.5,247.9 L232.1,247.3 L232.4,246.2 L232.6,246.2 L232.9,246.2 L233.2,246.2 L233.9,245.9 L233.9,245.8 L234.1,245.5 L234.2,245.2 L234.7,245.2 L234.7,245.3 L234.8,245.8 L234.4,247.9 L233.9,248.8 L233.5,249.5 L233.2,249.7 L232.4,249.8 L232.4,249.8 Z M244.1,278.5 L244.1,278.6 L244.6,279.2 L244.7,280 L244.7,280.1 L244.7,280.3 L244,280.6 L243.7,280.6 L243.5,280.6 L243.2,280.4 L242.3,280 L242.2,279.7 L242,279.4 L241.9,278.9 L241.9,278.6 L242.2,278.8 L242.5,279.1 L242.6,279.2 L242.6,278.6 L242.3,278 L242.2,278 L241.7,278 L241.6,278 L241.4,278 L241.1,277.9 L240.8,277.4 L240.8,277.3 L241.1,277.1 L241.6,276.8 L241.9,276.8 L242,276.8 L242.2,277 L243.8,278 L244.1,278.5 L244.1,278.5 Z M250.6,282.8 L250.4,282.7 L250.3,282.4 L250.1,281.5 L250,280.9 L250.3,279.7 L250.4,279.5 L250.7,278.9 L251,278.6 L251.3,278.3 L251.8,277.4 L252.1,276.4 L252.4,275.8 L252.5,275.5 L252.7,275.5 L252.8,275.6 L252.5,276.7 L252.5,276.8 L252.4,277.7 L252.2,278.2 L252.1,278.3 L252.1,278.5 L251.9,278.8 L251.8,279.1 L251.3,280.9 L251,281.9 L250.6,282.8 L250.6,282.8 Z M263.9,280 L263.8,280 L263.6,279.8 L263.3,279.5 L263.5,278.8 L263.8,278.2 L265,277.3 L265.7,277.3 L266.3,277.4 L266.8,277.6 L267.1,277.7 L267.2,278.5 L267.2,278.8 L267.1,278.8 L266.9,278.8 L266.8,278.8 L266.5,278.6 L265.9,278.5 L265.7,278.5 L265.6,278.5 L265.3,278.6 L265.1,278.8 L264.7,279.2 L263.9,280 L263.9,280 Z M250,263.2 L250,263.5 L249.5,265.3 L249.5,265.4 L249.4,265.4 L248.9,265.4 L248.8,265.3 L248.6,264.7 L248.6,261.8 L248.8,261.7 L248.9,261.4 L249.1,261.4 L249.1,261.5 L249.1,261.8 L249.1,262.1 L249.7,263.5 L249.7,263.6 L250,263.6 L250,263.5 L250,263.2 L250,263.2 Z M252.5,240.7 L252.4,240.4 L252.2,240.2 L252.1,240.2 L251.9,240.2 L251.8,240.4 L251.6,240.2 L251.5,240.2 L251.5,239.9 L251.9,239.3 L252.8,239 L253.9,238.9 L254.3,238.9 L254.3,239.2 L253.4,240.2 L253.1,240.4 L252.8,240.5 L252.7,240.7 L252.5,240.7 L252.5,240.7 Z M247.9,281.2 L247.7,281.2 L246.4,279.8 L245.8,278.9 L245.8,278.6 L246.7,279.2 L246.8,279.4 L248.2,280.6 L248,280.9 L247.9,281.2 L247.9,281.2 Z M249.2,279.1 L249.1,279.1 L248.8,278.5 L248.6,278 L249.8,277.4 L250.3,278.3 L250.1,278.6 L249.7,279.1 L249.2,279.1 L249.2,279.1 Z M249.2,279.1" id="dk" stroke="#FFFFFF" fill="#DCDCDC"></path>
    </g>
</svg>