<?xml version="1.0" encoding="UTF-8" standalone="no"?>
<svg width="612px" height="612px" viewBox="0 0 612 612" version="1.1" xmlns="http://www.w3.org/2000/svg" xmlns:xlink="http://www.w3.org/1999/xlink" xmlns:sketch="http://www.bohemiancoding.com/sketch/ns">
    <title>al</title>
    <description>Created with Sketch (http://www.bohemiancoding.com/sketch)</description>
    <defs></defs>
    <g id="Page 1" stroke="none" stroke-width="1" fill="none" fill-rule="evenodd">
        <path d="M388.1,185.8 L388.3,185.8 L388.7,186.1 L389,186.2 L389.8,186.8 L389.9,187.1 L390.1,187.9 L390.1,188.3 L389.9,188.5 L389.5,188.8 L389.2,188.9 L389,188.9 L388.7,188.9 L388.4,188.9 L388.1,189.2 L388.1,190.1 L388,191.3 L388,192.4 L388,193 L387.7,194.3 L387.5,194.5 L386.9,195.4 L386.6,196 L386.3,196.4 L386.2,197 L386,197.3 L386,197.6 L386.2,198.2 L386.8,199.7 L387.5,201.5 L387.7,201.8 L388,202.6 L388.3,203.5 L388.6,204.1 L388.6,204.4 L388.7,204.8 L388.6,205.1 L388.4,205.6 L388.3,206 L388.7,207.4 L389.6,208.6 L389.9,208.7 L390.2,208.9 L390.5,209 L390.8,209.3 L391.4,211.1 L392.5,212 L392.8,212.2 L392.9,212.5 L392.6,212.8 L392.3,213.1 L392,213.2 L391.9,213.4 L391.4,213.4 L391.1,213.7 L390.8,213.8 L390.2,216.2 L390.1,217.9 L390.4,218.6 L390.5,218.8 L389.9,218.9 L388,218.8 L387.5,218.3 L387.4,218.2 L387.1,218 L386.8,218 L386.2,218 L386,218 L384.7,219.4 L384.2,220 L384.2,220.3 L383.5,220.6 L383.3,220.4 L381.4,219.5 L381.1,219.4 L380.2,218.3 L378.4,216.5 L377.5,216.1 L377,216.2 L376.6,216.2 L376.3,216.2 L374.6,215.6 L373,214.4 L372.7,214.1 L371.5,213.4 L371.2,213.7 L371.5,214.1 L371.6,214.6 L371.2,215 L371,214.9 L370.9,214.6 L370.7,214.3 L370.6,214 L370.4,213.8 L370.1,213.8 L369.8,214 L369.5,214.1 L369.4,214.4 L369.2,214.6 L367.1,216.4 L365.6,216.8 L365,217.9 L364.9,218.2 L364.7,218.3 L364.4,218.5 L364.1,218.5 L364,218.5 L364,217.4 L364.1,217 L364.3,216.2 L364.3,215.9 L364.4,215.5 L364.6,214.9 L364.4,214.1 L364.4,213.7 L364.1,213.2 L364.1,212.2 L364.1,211.9 L364.6,211.4 L364.6,211.1 L364.6,210.7 L364.1,210.2 L363.5,209.9 L363.2,209.8 L362.9,209.8 L362.6,209.9 L362.5,209.9 L362.3,210.7 L362.3,211.3 L362.2,212 L361.1,212.8 L360.7,212.3 L360.2,211.9 L359.9,211.9 L359.8,211.7 L359.5,211.6 L358.4,211.3 L358.1,211.4 L357.7,211.1 L357.1,210.4 L356.3,208.7 L355.4,208.4 L355.1,208.1 L354.8,206.2 L355,205.3 L355.3,205.4 L355.4,205.4 L356.5,205 L357.5,204.4 L357.2,204.1 L356.9,203.9 L355.3,204.5 L354.4,204.2 L353.5,202.7 L353.6,202.1 L353.9,202.1 L354.2,202.1 L354.7,201.8 L355.1,201.4 L354.8,200.8 L354.5,200.3 L354.4,200.3 L354.7,200.8 L354.4,201.2 L354.1,201.4 L353.6,201.4 L353.5,201.4 L353.2,200.9 L353.2,200.2 L353.5,199.6 L353,197.8 L353.3,197.3 L354.1,197 L355,197 L355.1,196.9 L355.1,196.7 L355,196.6 L355,196.3 L355.7,195.8 L355.9,195.8 L356.3,196 L356.6,196 L357.2,195.5 L356.9,194.3 L357.1,193.9 L357.4,193.7 L357.5,193.9 L357.8,194 L358,194.2 L358.3,194.3 L358.6,194.3 L359.2,192.8 L359.2,192.2 L359.3,192.1 L359.6,191.9 L360.8,192.1 L362.3,191.8 L362.6,190.6 L362.3,190 L362.5,189.8 L363.1,190.1 L363.4,190.4 L363.7,190.6 L364.7,190.3 L365,190 L365.5,189.8 L366.4,190 L366.5,190 L366.8,190.1 L367.1,190.1 L367.6,190.1 L368,188.8 L367.6,187.3 L368.8,188 L369.1,188.5 L369.4,188.5 L369.7,188.3 L369.7,187.9 L369.4,187.6 L369.1,186.8 L369.4,186.7 L370,187.1 L370.9,187.6 L371.6,186.8 L372.1,186.8 L372.5,187.1 L374,187.1 L375.1,187.3 L375.7,187.4 L376,187.6 L376.3,187.4 L376.6,187.1 L376.9,187 L377.2,187 L377.3,187 L377.9,187.3 L378.2,187.6 L378.7,187.9 L379.1,188 L379.3,188 L379.7,188.2 L380,188.2 L380.6,188.2 L380.9,188 L381.7,187.7 L383.3,187.4 L383.6,187.3 L383.8,187.3 L384.1,187.3 L384.4,187.4 L384.7,187.4 L387.1,187.1 L387.4,187.1 L387.7,186.8 L387.8,186.7 L388,186.4 L388.1,186.1 L388.1,185.8 L388.1,185.8 Z M345.1,221.2 L344.8,221.2 L344.6,221 L344.3,220.3 L344.9,218.3 L345.1,218.2 L345.5,218.2 L345.7,217.1 L345.2,217 L344.6,216.8 L342.8,215.6 L342.4,215.2 L342.5,214.3 L343.1,214.1 L343.6,213.8 L343.4,213.4 L342.5,212.2 L342.2,212 L342.1,211.9 L341.8,211.6 L342.5,211.3 L343,211.1 L344,211.4 L344.6,210.4 L345.5,209.8 L347,209 L347.9,209 L349.1,208.7 L349.4,208.4 L349.9,208.3 L350.2,208.3 L350.9,208.4 L351.8,208.9 L353.5,209.8 L353.6,209.9 L354.1,210.5 L353.6,210.8 L353.3,210.8 L353.2,210.7 L352.6,210.8 L352.1,211.4 L352.1,211.9 L352,212.3 L350,214.7 L349.1,215 L348.7,215 L348.1,215 L347.8,215 L346.9,215.6 L346.3,216.4 L346.3,216.8 L346.4,217.7 L346.1,219.7 L345.5,220.7 L345.2,221 L345.1,221.2 L345.1,221.2 Z M347.2,207.5 L347,207.5 L346.9,207.5 L346.6,207.5 L346.4,207.4 L346.3,206.5 L345.8,205.3 L345.7,205 L345.4,204.7 L345.2,204.5 L345.1,204.5 L344.8,204.5 L344.3,204.7 L344.2,204.8 L344,204.8 L343.6,204.7 L343.4,204.7 L342.5,204.4 L342.4,204.2 L342.4,204.1 L342.4,203.9 L342.5,203.8 L343.4,203.8 L344.9,203.5 L345.4,203.2 L345.7,202.9 L345.8,202.6 L346,202.1 L346.3,201.2 L347.3,201.4 L347.5,202 L347.6,202.1 L347.8,202.1 L347.9,202.1 L348.2,202.1 L348.7,202 L348.8,202 L349.4,202.1 L349.6,202.4 L350.6,204.2 L350.8,204.4 L350.6,204.7 L350.5,204.5 L350,204.4 L349.9,204.4 L349.4,204.7 L349.3,205 L349.4,205 L349.6,205.6 L349.3,205.7 L349,205.9 L348.8,205.9 L348.7,205.7 L348.7,205.6 L348.8,205.4 L348.8,205.3 L349,205 L348.8,205 L348.7,205 L348.5,205.1 L348.4,205.4 L348.2,205.7 L348.2,206.3 L348.1,206.6 L348.1,206.9 L348.1,207.1 L347.9,207.2 L347.8,207.4 L347.5,207.5 L347.2,207.5 L347.2,207.5 Z M352.9,206.9 L353,206.9 L353.5,207.1 L353.6,207.2 L354.4,208.4 L354.4,208.7 L354.2,209 L353,209.3 L353,209.2 L351.8,208.6 L351.5,208.4 L351.5,208.3 L351.5,208 L352,207.1 L352.3,206.9 L352.4,206.8 L352.6,206.8 L352.9,206.9 L352.9,206.9 Z M351.4,200.8 L352.4,200.8 L352.6,200.8 L352.7,200.9 L353,201.2 L353,201.5 L353,201.7 L352.9,201.7 L352.3,202 L351.4,202.1 L351.2,202.1 L351.1,202 L350.8,201.2 L350.8,201.1 L350.9,200.9 L351.2,200.8 L351.4,200.8 L351.4,200.8 Z M351.4,200.8" id="ee" stroke="#FFFFFF" fill="#DCDCDC"></path>
    </g>
</svg>