<?xml version="1.0" encoding="UTF-8" standalone="no"?>
<svg width="612px" height="612px" viewBox="0 0 612 612" version="1.1" xmlns="http://www.w3.org/2000/svg" xmlns:xlink="http://www.w3.org/1999/xlink" xmlns:sketch="http://www.bohemiancoding.com/sketch/ns">
    <title>al</title>
    <description>Created with Sketch (http://www.bohemiancoding.com/sketch)</description>
    <defs></defs>
    <g id="Page 1" stroke="none" stroke-width="1" fill="none" fill-rule="evenodd">
        <path d="M42.22,577 L41.92,576.5 L41.92,575.9 L41.92,575.8 L42.38,575.8 L42.98,576.4 L42.22,577 L42.22,577 Z M72.38,592 L72.08,592.1 L71.78,591.8 L71.78,591.2 L72.08,591.1 L72.22,591.7 L72.38,592 L72.38,592 Z M76.58,457.1 L76.72,457.1 L77.62,457.3 L78.08,457.4 L78.82,457.7 L79.28,457.7 L80.02,457.7 L81.08,457.7 L81.98,457.4 L83.32,457.3 L84.98,457.1 L85.12,457.1 L85.28,457.6 L87.52,457.3 L87.98,457.4 L88.88,458.3 L90.22,459.2 L91.28,459.8 L92.02,460.7 L93.52,460.9 L93.82,460.6 L94.7,459.8 L95.6,460 L96.2,460.1 L97,460.3 L98.8,461.2 L99.4,461.6 L99.7,461.9 L100,462.4 L101,463 L101.6,463.3 L103.1,463.6 L103.7,463.6 L105.5,463.3 L107.2,462.7 L107.8,462.7 L107.8,463.1 L107.8,463.4 L108.2,464.3 L108.5,464.2 L109.1,464.2 L110.8,464.9 L111.8,465.2 L112,465.7 L112,466.4 L111.2,467.8 L110.6,468.1 L110.9,468.8 L111.4,469.1 L112,469.3 L112.6,468.8 L113.6,469.4 L115,470.2 L115.9,470.9 L116.5,471.4 L117.8,471.7 L118.3,471.5 L118.6,471.5 L118.9,472.1 L118.9,472.3 L118.7,472.6 L118.9,472.9 L120.5,474.8 L122.5,474.8 L123.4,474.4 L123.5,474.1 L123.5,474.2 L124,474.7 L124.6,475.1 L124.9,475.3 L125.2,475.6 L125.5,475.9 L126.1,476.9 L126.8,477.2 L128.2,477.1 L128.5,476.9 L128.9,476.8 L130,477.2 L131.8,477.8 L132.7,477.8 L133.3,478 L133.7,478 L134.5,478.1 L134.6,478.1 L134.8,478 L134.8,477.7 L134.6,477.1 L134.6,476.6 L134.9,475.7 L135.2,475.4 L135.5,475.4 L136.7,476 L137.5,476.5 L139.7,477.2 L140,477.5 L140.2,478.1 L140.5,478.6 L142.3,478.6 L142.7,478.7 L143,479.2 L143.3,479.8 L143.5,480.7 L143.3,481.1 L143.2,481.6 L143,482.5 L143.3,483.2 L143.9,483.5 L144.2,483.5 L145.7,483.1 L146.5,482.6 L146.6,482.6 L147.2,482.9 L148,483.4 L148.6,483.8 L149.2,484.4 L149.3,485 L149.5,485.3 L149.8,485.5 L150.4,485.5 L150.7,485.5 L151.1,484.9 L151.4,484.6 L152.9,484.4 L153.5,484.9 L154.9,485.6 L155.2,486.2 L155.8,486.5 L157.4,486.4 L157.4,485.8 L157.6,485.5 L158.2,485.3 L161,484.4 L162.1,484.9 L162.5,485.3 L162.7,485.5 L163.4,485.5 L163.6,485.5 L163.4,485.6 L163.3,486.4 L163.4,486.7 L163.7,487 L164,487 L164.6,487.1 L165.1,487.6 L164.6,488.5 L164.3,488.8 L163.7,488.9 L163.4,488.5 L163,488.3 L162.5,488.9 L162.4,489.4 L162.4,490.3 L162.7,490.7 L163.1,490.9 L163.4,491.6 L163.4,493.6 L163.1,494.5 L162.7,494.9 L162.1,495.1 L160.6,496.3 L159.7,497 L156.8,498.4 L156.4,498.5 L155.5,498.8 L154.9,499 L154.6,499 L151.3,500.5 L151,500.8 L149.8,502.3 L149.6,502.9 L149.2,503.2 L148.6,503.3 L148.3,503.5 L147.7,503.5 L146.3,503.5 L144.7,503.9 L143.9,504.1 L143.6,504.1 L143.3,504.1 L143,504.1 L142,504.1 L141.5,504.2 L139.3,504.8 L137.8,505 L135.8,505.4 L135.2,505.6 L134.8,505.9 L134.5,506.2 L134.2,506.5 L133.9,506.6 L131.2,509.3 L131.5,509.8 L132.8,510.7 L133.1,510.7 L133.4,510.8 L133.3,511.1 L132.8,511.4 L130.6,512.9 L130.3,513.1 L130,513.1 L129.8,512.6 L130.9,512.6 L131.3,511.9 L130.7,511.9 L129.7,512 L129.4,512.2 L128.8,512.8 L128.5,513.4 L127.6,514.7 L125.9,517 L124.9,517.9 L124,518.6 L121.6,520.9 L121.4,521.2 L120.2,523 L119.6,523.6 L119.2,524 L118.3,525.2 L116,528.7 L115.9,529 L115.6,529.9 L116.2,534.8 L116.5,536.3 L116.6,536.8 L116.9,537.7 L117.5,538.6 L117.8,539 L118.1,539.3 L118.6,539.8 L119.2,539.9 L119.5,540.1 L120.4,540.7 L120.8,541.1 L121,541.9 L120.8,542.3 L120.2,542.8 L119.9,542.9 L118.6,543.5 L117.8,543.7 L117.2,544.1 L116,544.9 L114.1,545.5 L113.6,545.6 L112.9,546.1 L110.9,547.7 L109.6,549.8 L108.5,551.9 L106.9,554.3 L106.7,554.8 L106.7,555.1 L106.1,555.7 L105.4,556.4 L105.2,556.9 L105.7,557.9 L106,558.2 L106.7,558.4 L106.9,558.7 L106.6,559 L106.3,559.1 L104,559.4 L103.6,559.4 L103.3,559 L102.4,558.8 L100,558.5 L98.8,558.7 L98.5,558.7 L97.1,559.4 L96.8,559.7 L96.5,560.3 L96.2,560.5 L95.3,560.8 L94.4,560.9 L94.3,561.1 L93.68,561.4 L92.02,563 L91.72,563.6 L91.42,564.2 L91.42,564.7 L90.98,565.3 L90.08,566.9 L89.48,567.4 L88.58,568.1 L87.52,569.3 L87.52,569.8 L86.62,570.4 L85.58,570.4 L85.42,569.9 L85.28,569.6 L84.68,568.6 L83.92,568.1 L82.12,568 L81.22,568.1 L80.78,568.6 L80.48,568.9 L80.32,569.3 L79.72,569.8 L79.12,569.9 L78.68,569.9 L78.08,569.9 L76.88,569.2 L76.58,568.7 L76.28,568.4 L73.72,568 L72.38,567.7 L71.92,567.7 L70.88,567.7 L70.58,567.8 L69.68,568.1 L69.22,568.1 L68.92,568 L68.48,567.5 L67.58,566.9 L67.12,566.9 L66.68,566.9 L66.38,566.9 L65.92,566.9 L65.18,566.5 L64.88,566.3 L64.42,566.2 L62.18,566 L60.22,566 L59.32,565.9 L58.12,565.7 L57.82,565.6 L57.22,565.4 L56.78,565.7 L56.32,566.3 L55.72,566.9 L53.48,568.3 L52.58,568.4 L51.98,568.3 L51.52,568.1 L51.08,568 L50.78,567.8 L50.48,567.7 L50.02,567.7 L49.58,567.7 L47.62,568.1 L46.42,568.4 L45.68,568.9 L44.02,571 L43.72,571.4 L43.58,571.9 L43.42,572 L43.28,571.9 L42.82,571.6 L42.38,571.6 L41.92,572 L42.08,573.1 L41.62,573.4 L39.38,573.7 L37.12,572 L36.98,571.7 L36.82,571.4 L36.68,571.1 L36.38,570.5 L36.08,570.1 L34.58,569.8 L34.42,569.6 L33.38,567.5 L32.78,565.7 L32.62,564.5 L32.92,564.7 L33.08,564.7 L33.82,564.1 L33.38,562.9 L32.62,562.1 L32.18,562 L31.72,562 L31.42,561.7 L31.12,560.5 L31.12,560 L31.28,559.7 L32.78,558.1 L30.38,554.9 L28.88,553.3 L26.78,551.6 L26.32,550.6 L26.02,550.7 L26.02,551.3 L25.72,551 L25.12,550.4 L24.82,550.3 L24.22,550.1 L23.62,550.1 L22.58,550 L22.12,550 L21.52,550.1 L21.22,550.3 L20.78,550.1 L20.62,549.7 L20.48,548.8 L20.92,547 L20.92,546.1 L20.92,545.5 L20.92,545 L20.78,544.7 L20.62,544.3 L20.48,544.1 L20.48,543.7 L21.98,541.6 L22.42,541 L23.02,540.7 L23.92,540.1 L24.68,539.5 L25.28,538.4 L25.42,538 L25.42,537.7 L26.02,537.5 L27.08,537.5 L28.72,537.5 L29.78,536 L29.92,535.6 L30.22,535 L30.08,534.8 L29.48,534.8 L29.18,535 L28.28,535 L28.12,534.8 L27.82,534.1 L27.68,533.8 L27.52,533 L27.38,532.4 L26.78,530.6 L26.48,530.3 L26.32,530 L27.98,526.1 L28.12,525.8 L28.88,525.5 L29.48,525.1 L30.68,524.5 L30.98,524.2 L32.92,521.9 L32.92,521.3 L32.78,520.7 L32.48,520.3 L32.02,520 L31.42,520.1 L31.12,520.1 L30.98,519.8 L30.08,518 L29.78,515.8 L29.78,515 L29.48,513.1 L28.42,511 L28.28,510.4 L28.28,509.9 L29.62,510.5 L30.52,510.8 L30.98,510.7 L31.58,510.7 L32.18,510.8 L32.78,511.1 L33.98,511.3 L34.58,511.3 L35.02,510.5 L37.58,506.2 L37.42,505.7 L37.12,504.7 L36.98,504.4 L36.52,504.2 L36.22,503.9 L36.22,503 L36.68,502.4 L37.42,502 L37.88,502.1 L38.32,502.1 L38.48,502.1 L39.08,501.4 L39.52,500.3 L40.28,498.2 L40.72,494.8 L41.32,492.8 L41.02,491.2 L40.72,490.7 L40.42,490 L40.58,489.7 L41.48,490 L42.08,489.8 L42.52,489.4 L42.82,488.9 L42.98,488.5 L44.02,487.4 L44.62,487 L44.92,487 L45.22,487.1 L45.68,487.3 L46.28,487 L47.32,486.4 L48.52,485.5 L49.42,484.7 L50.78,483.4 L51.22,482.8 L50.62,481.6 L50.18,481.1 L49.58,480.8 L48.68,480.5 L48.38,480.5 L47.78,480.7 L47.32,480.1 L47.62,478.9 L48.08,477.7 L48.22,476.3 L47.62,475.7 L46.58,475.7 L44.02,475 L43.72,474.8 L43.28,474.4 L42.98,474.5 L42.38,474.5 L42.22,474.2 L42.08,473.8 L41.62,473.6 L41.02,473.8 L40.88,474.5 L40.72,475 L40.42,475.1 L39.52,475.3 L38.78,475.4 L37.72,475.6 L35.48,474.8 L35.78,474.4 L34.88,473.5 L33.98,473.5 L32.78,473.8 L32.48,473.8 L32.02,473.3 L30.52,473.8 L30.22,473.9 L30.08,473.9 L29.78,473.9 L29.32,473.8 L29.02,473.6 L29.02,473.5 L29.18,472.9 L28.88,472.6 L28.72,472 L28.88,471.7 L29.62,471.1 L30.08,470.8 L30.52,470.6 L30.68,470.5 L30.82,469.9 L29.92,468.1 L29.18,468.2 L28.42,468.5 L26.78,468.5 L26.48,468.4 L25.88,468.4 L24.68,468.5 L24.38,468.5 L22.88,469.6 L22.72,469.7 L22.42,470 L22.28,470.2 L21.82,470 L21.38,470.3 L20.92,470.6 L21.08,469.7 L21.68,466.7 L23.02,465.8 L23.62,465.5 L24.22,465.2 L25.28,464.6 L26.32,463.9 L26.02,463.7 L25.72,463.9 L25.28,464.5 L24.82,464.6 L23.78,464.8 L23.48,464.8 L22.58,464.6 L22.88,463.9 L23.48,463.6 L23.78,463.4 L25.28,462.7 L25.42,462.5 L25.72,462.4 L25.28,462.1 L24.68,462.4 L24.22,462.5 L23.48,462.4 L23.18,461.8 L23.02,460.9 L23.32,460.6 L23.62,460.9 L23.48,461.3 L23.78,461.3 L24.22,460.9 L24.38,460.4 L24.22,460 L24.52,459.5 L24.98,459.4 L25.58,458.8 L26.02,458.2 L26.02,457.9 L24.38,458 L23.48,458.5 L23.18,458.8 L22.28,459.7 L21.82,459.8 L21.68,458.8 L21.82,458.3 L22.42,457.4 L22.58,457 L22.88,456.7 L24.22,455.8 L23.18,455.8 L22.12,456.1 L21.98,455.9 L21.82,455.5 L21.82,455 L22.12,454.4 L22.12,453.5 L21.98,452.9 L21.82,452.5 L20.78,452.8 L20.48,452.6 L21.38,450.7 L22.42,449 L23.02,448.7 L23.48,448.6 L23.92,448.9 L24.52,448.9 L25.72,448.6 L25.58,447.8 L25.88,447.5 L26.78,447.4 L27.38,447.4 L27.82,448 L28.42,448.3 L28.72,448.4 L28.88,448.4 L29.18,448.3 L32.32,447.7 L33.38,447.5 L34.58,445.3 L38.18,443.6 L39.52,442.9 L39.98,443 L39.98,443.8 L40.58,443.8 L41.48,443.6 L41.92,443.8 L43.72,444.4 L44.32,444.7 L45.22,445.7 L45.52,446.5 L45.68,447.2 L46.12,448 L46.58,448 L48.52,448.6 L48.22,449.6 L48.68,448.9 L48.98,448.6 L49.58,448.4 L51.52,449 L53.48,449.6 L54.82,449.9 L56.32,450.2 L56.92,450.2 L59.02,450.8 L59.48,450.8 L60.98,450.7 L61.72,450.4 L62.18,449.9 L62.92,450.7 L63.08,451.1 L63.38,451.4 L63.82,452 L64.28,452.2 L64.58,452.2 L65.32,452.3 L66.38,452.5 L66.98,452.6 L68.32,453.2 L68.48,453.5 L68.78,454 L69.08,454.3 L70.58,454.7 L71.48,455 L72.52,455.5 L73.88,456.1 L74.18,456.2 L75.08,456.7 L75.68,456.8 L76.58,457.1 L76.58,457.1 Z M149.5,532.4 L149.2,532 L149.6,531.1 L151.6,529.7 L153.5,528.4 L154.9,527.6 L157.6,526.9 L158.5,526.7 L158.8,527.2 L159.1,528.7 L159.2,529 L159.7,529.6 L160.4,530 L160.7,530 L161,529.9 L161.5,529.6 L162.2,529.6 L162.8,530 L163.3,530.6 L163,531.5 L162.8,531.8 L161.8,533.2 L161.2,533.5 L161,533.6 L160.9,533.9 L160.6,534.4 L160.3,535.3 L159.8,536 L157.7,537.4 L157.4,537.5 L157.1,537.2 L156.5,536.5 L154.7,535.7 L154.3,535.6 L153.8,535 L153.7,533.8 L154,533.3 L153.8,532.9 L153.4,532.4 L153.1,532.1 L151.4,532.7 L150.1,532.6 L149.5,532.4 L149.5,532.4 Z M173.3,529.9 L173,529.9 L172.7,529.7 L171.4,528.7 L171.2,528.5 L171.1,528.4 L170.9,528.2 L170.5,527.9 L170.3,527.8 L169.9,527.6 L169.6,527.5 L169.3,527.5 L169.1,527.5 L169,527.6 L168.5,527.6 L167.9,527.5 L167.6,526 L168.1,525.4 L168.5,525.4 L169.4,525.4 L171.7,525.7 L172.3,525.8 L173,526.7 L173.5,527.3 L173.8,528.7 L173.8,529.3 L173.8,529.6 L173.5,529.9 L173.3,529.9 L173.3,529.9 Z M135.7,542.5 L135.7,542.2 L135.5,541.9 L135.4,541.7 L134.5,541.6 L134.2,541.7 L133.9,541.6 L133.7,541.1 L134,540.4 L134.3,540.1 L135.1,539 L135.2,539 L135.5,538.7 L136,538.4 L137.3,538.1 L137.9,538 L138.4,538 L139,538.4 L139,538.7 L139,539.6 L137.8,540.7 L136.1,542.2 L135.7,542.5 L135.7,542.5 Z M135.5,545.5 L135.5,545.3 L135.5,544.9 L135.5,544.7 L135.5,544.3 L135.8,544 L136.4,544 L137.9,545 L138.1,545.3 L137.8,545.6 L137.6,545.6 L137.2,545.5 L137,545.3 L136.9,545.2 L136.4,544.9 L136.3,545 L135.5,545.5 L135.5,545.5 Z M135.5,545.5" id="es" stroke="#FFFFFF" fill="#DCDCDC"></path>
    </g>
</svg>