<?xml version="1.0" encoding="UTF-8" standalone="no"?>
<svg width="612px" height="612px" viewBox="0 0 612 612" version="1.1" xmlns="http://www.w3.org/2000/svg" xmlns:xlink="http://www.w3.org/1999/xlink" xmlns:sketch="http://www.bohemiancoding.com/sketch/ns">
    <title>al</title>
    <description>Created with Sketch (http://www.bohemiancoding.com/sketch)</description>
    <defs></defs>
    <g id="Page 1" stroke="none" stroke-width="1" fill="none" fill-rule="evenodd">
        <path d="M346.9,183.5 L347,183.2 L346.9,183.1 L346.4,183.4 L346,183.2 L345.7,183.1 L345.5,182.5 L345.7,181.9 L345.8,181.6 L346.1,181.1 L346.4,180.5 L346.7,179.5 L346.6,179.3 L345.5,180.4 L344.8,181.3 L344.5,181.6 L344.3,181.7 L344,181.9 L343.7,182 L343,182.3 L342.1,182 L342.1,181.6 L342.2,181.3 L342.5,180.7 L343.1,179.5 L341.9,179.5 L340.3,179.8 L340.1,179.6 L340,179.5 L339.4,179.2 L338.9,179 L338.6,179 L338,178.9 L337.7,178.6 L337.4,178.1 L336.8,178 L336.7,178.1 L336.8,178.9 L336.4,178.9 L336.2,177.4 L336.4,177.1 L336.2,176.5 L335.8,176.9 L335.2,177.8 L334.7,178.6 L334.4,177.8 L334.3,177.7 L333.8,177.7 L333.7,177.8 L333.5,177.8 L333.2,177.7 L332.5,176.5 L332.5,176 L332.6,175.9 L332.5,174.8 L332,173.8 L331.7,173 L332,171.7 L331.9,170.2 L331.9,167.9 L332.2,166.7 L332.3,166 L332.3,165.4 L331.9,163.1 L331.6,162.1 L331.1,161.5 L331.3,161.2 L332.2,161.5 L332.6,161.5 L332,160.6 L331.4,159.8 L330.7,158 L330.7,157.4 L329.8,155.9 L329.3,155.5 L328.9,155.3 L328.7,155.2 L328.4,154.3 L328.4,153.2 L328.6,152.5 L328.6,151.7 L328.9,151.3 L328.9,150.8 L328.6,149.9 L328.1,148.6 L327.5,148.1 L326.6,147.7 L326.3,147.1 L326.2,146.5 L326.2,145.4 L325.6,144.7 L325.4,141.8 L325.6,141.5 L326.6,140.2 L326.9,140.2 L327.2,140 L327.2,139.6 L327.4,138.7 L327.4,138.2 L327.4,137.6 L327.2,137.2 L327.5,136.6 L327.8,136.6 L328,136.9 L328.6,137.2 L329,137.2 L329,137 L328.9,136.9 L328.7,136.7 L328.4,136.4 L328,136.3 L327.5,135.5 L327.4,135.1 L327.2,134.3 L327.4,133.9 L327.7,133.9 L328.3,134.3 L328.6,134 L329.8,133 L330.1,133.9 L330.7,134.2 L331.4,133.3 L332,133.1 L332.3,133 L333.1,132.2 L333.2,131.5 L332.9,131.2 L332.6,130.7 L332.5,130.6 L332.3,130.4 L331.7,130 L331.6,129.5 L332,128.2 L332.3,128.2 L332.8,128.6 L332.9,128.9 L333.1,128.5 L333.4,127.3 L333.4,127 L333.4,126.5 L333.7,125 L334.3,124.9 L334.6,125 L334.6,125.5 L335,126.1 L335.2,125.9 L335.5,125.6 L335.9,124.6 L335.9,123.5 L335.8,122.9 L336.7,121.9 L337.1,121.4 L337.4,121.1 L338.3,120.8 L338.5,120.1 L338.3,119.3 L338.3,118.4 L338.6,118.3 L339.2,118.3 L339.7,117.8 L339.7,117.2 L339.8,116.5 L340.1,116.2 L340.3,116 L340.3,115.7 L341,114.5 L341.3,114.1 L341.3,113.6 L341.5,112.1 L342.2,111.1 L342.7,110.3 L343.1,109.9 L343.4,109.4 L343.6,109 L343.4,108.4 L343.4,107.8 L343.6,106.9 L344,105.5 L344,104.6 L345.1,103.6 L345.5,103.1 L346.7,102.5 L347.3,102.1 L347.5,102.2 L348.1,102.7 L348.2,103 L348.5,103.4 L348.8,103.4 L349.1,103.4 L349.1,103.3 L349.3,103.3 L349.4,103.1 L349.3,101.9 L349.1,101.8 L348.8,101.9 L348.2,101.6 L347.8,101.2 L347.9,100.7 L348.7,100.7 L349.1,101 L349.4,101.2 L349.6,101 L349.1,99.69 L348.7,99.09 L348.5,98.94 L348.1,98.64 L347.6,97.74 L347.5,96.09 L347.5,95.64 L347.5,94.89 L347.5,93.69 L347.3,93.09 L347.2,92.64 L346.7,92.19 L346.1,91.59 L345.8,91.59 L345.7,91.74 L345.5,91.74 L345.2,91.59 L345.2,91.14 L345.1,90.99 L343.6,90.54 L343,90.54 L342.8,90.54 L342.7,90.69 L342.2,90.69 L341.2,89.64 L341,89.19 L341,88.74 L341.3,87.54 L341.5,86.79 L341.2,87.09 L340.9,88.14 L340.9,88.59 L340.3,88.74 L340.1,89.19 L338.8,89.34 L338.5,89.19 L338.3,88.74 L338.3,88.44 L336.8,85.59 L336.2,84.84 L336.1,84.39 L335.9,84.09 L335.8,83.79 L335.5,83.64 L335.3,83.64 L335,83.49 L334.6,83.34 L334.3,83.19 L333.8,82.14 L333.5,81.39 L333.1,79.44 L333.1,79.14 L333.4,78.24 L333.8,77.64 L334,77.49 L334.3,77.34 L334.3,76.89 L334.1,75.24 L334,74.79 L333.8,74.19 L334,73.44 L334.3,73.14 L333.7,71.94 L333.1,71.34 L332.5,70.59 L332.2,70.44 L332,70.14 L331.6,69.69 L330.5,68.04 L330.5,66.69 L330.5,66.24 L330.7,66.24 L331,65.94 L331.1,65.94 L331.3,65.79 L331.4,65.04 L331,63.69 L330.8,63.54 L329.8,63.39 L329.6,63.39 L329.5,63.54 L329.3,63.69 L329.2,63.54 L329,63.39 L328.7,63.09 L328.9,61.74 L328.7,59.94 L328.4,59.19 L328.1,57.54 L328,56.79 L328.1,56.49 L328.3,56.34 L328.7,56.19 L328.9,55.74 L328.9,55.44 L328.7,55.14 L328,54.84 L326.9,54.09 L326.8,53.94 L326.6,53.49 L324.2,50.64 L323.6,50.19 L323.5,50.19 L323.2,50.19 L322.9,49.74 L322.6,49.29 L321.5,48.84 L320.9,48.84 L320.5,48.84 L320,48.69 L319.6,48.54 L318.4,48.69 L317.6,48.54 L317.5,48.24 L317.2,47.94 L316.9,47.64 L316.7,47.49 L316.4,47.34 L316.3,47.34 L316,47.34 L315.7,47.34 L315.4,47.19 L315.2,46.74 L314.8,46.44 L314.6,46.29 L314.5,46.29 L314.2,46.14 L313.7,46.14 L313.6,45.84 L313.3,45.39 L311.8,44.04 L310.9,43.44 L310.7,43.29 L310.4,43.29 L310.3,43.29 L310.1,43.29 L309.7,43.14 L309.5,42.69 L309.8,42.24 L309.7,41.94 L309.5,41.64 L309.4,41.49 L309.1,41.34 L308.8,41.19 L308.5,41.04 L307.9,40.89 L307.6,40.89 L307.4,40.74 L307.6,40.59 L307.9,40.29 L308,40.14 L308.3,40.14 L308.5,40.14 L308.9,40.14 L309.5,40.44 L309.8,40.59 L310.1,40.74 L310.4,40.74 L310.4,40.44 L310.4,39.69 L310.3,39.39 L310.1,39.09 L310,38.79 L309.8,38.04 L309.8,37.74 L311.2,35.94 L313.4,36.24 L315.8,39.24 L316.1,39.54 L317.3,41.19 L317.9,42.09 L318.5,42.54 L318.7,43.29 L319.1,44.64 L319.7,44.19 L320,44.04 L321.7,44.49 L322,44.49 L323.2,44.19 L323.5,44.49 L323.8,44.79 L323.9,44.94 L324.1,45.09 L324.5,44.94 L324.7,44.79 L324.8,44.49 L325.3,44.04 L325.6,43.89 L325.9,43.59 L326.2,43.44 L326.8,43.29 L326.9,43.14 L327.1,42.69 L327.2,42.39 L327.2,41.94 L327.4,41.34 L327.5,41.19 L327.8,41.19 L328.3,41.04 L328.6,41.04 L328.7,41.19 L329,41.34 L329.2,41.64 L329.8,42.09 L330.8,42.54 L331.3,42.69 L331.4,42.69 L331.9,42.54 L332.2,42.54 L332.5,42.54 L332.9,42.69 L333.4,42.84 L333.5,42.99 L333.7,43.14 L334,43.44 L334.1,43.74 L334.7,43.89 L335.5,43.14 L335.5,42.84 L335.5,42.24 L335.5,40.74 L335.5,40.44 L335.5,40.14 L335.6,39.84 L335.8,39.69 L336.4,38.79 L336.4,38.64 L336.5,38.49 L336.7,38.49 L337,38.34 L337.1,38.34 L337.4,38.49 L337.6,38.49 L337.9,38.34 L337.9,38.19 L337.9,37.89 L338,37.89 L338,37.44 L338.3,36.54 L338.2,35.64 L337.7,34.74 L337.3,33.24 L337.1,32.49 L337.1,31.44 L337.1,31.14 L337.1,30.84 L337.4,30.54 L337.4,30.24 L337.3,28.59 L337.4,27.09 L337.4,26.49 L337.4,26.19 L337.1,25.74 L337.1,25.44 L337.3,25.14 L337.4,24.99 L337.9,24.69 L338,24.54 L338.2,24.39 L338.2,24.24 L338.9,22.44 L339.1,22.14 L339.1,21.69 L339.2,21.24 L339.4,20.94 L340,20.64 L341.2,20.34 L341.5,20.49 L341.8,20.64 L342.7,20.64 L342.8,20.64 L343.4,20.04 L343.9,19.74 L343.9,19.44 L343.7,19.14 L344.3,18.54 L345.1,17.64 L345.2,17.49 L346.7,16.89 L346.9,16.74 L347,16.89 L347.3,17.34 L347.5,17.94 L347.6,18.09 L348.5,18.84 L349,19.14 L349.1,19.14 L349.4,19.14 L349.7,19.29 L349.9,19.29 L350.2,19.44 L350.3,19.89 L350.5,20.19 L350.6,20.19 L352.6,20.64 L352.9,20.64 L353.9,20.79 L354.1,20.79 L354.4,20.94 L355.1,20.94 L355.3,21.24 L355.9,21.99 L357.1,24.09 L357.1,24.39 L357.1,24.54 L356.5,26.04 L356.3,26.64 L356.2,26.79 L356,27.09 L355.7,27.69 L355.6,27.84 L355.3,28.59 L355.3,29.34 L355.4,29.94 L355.6,30.39 L355.7,30.69 L355.9,30.84 L356.2,30.84 L356.3,30.99 L356.8,31.29 L356.6,31.44 L356.3,31.59 L356.3,31.74 L355.7,32.34 L354.4,33.99 L354.4,34.29 L354.4,34.59 L354.7,34.74 L354.8,34.59 L355.1,34.59 L356,34.29 L356.2,34.29 L356.6,34.44 L356.8,34.59 L356.8,35.19 L356.8,36.09 L356.8,36.39 L356.5,37.44 L356,39.09 L355.9,39.99 L357.1,42.09 L358.3,44.19 L358.6,44.94 L359.5,45.09 L361.7,45.39 L363.1,45.69 L363.2,45.84 L364.7,47.64 L366.1,49.29 L366.4,49.44 L367.7,50.04 L368.6,50.64 L368.9,52.59 L368.9,53.19 L368.8,53.49 L368.8,53.94 L368.6,54.09 L368,55.44 L367.3,57.69 L366.1,62.34 L365.9,62.64 L365.8,63.39 L365.9,63.69 L366.1,64.44 L366.1,64.89 L366.4,65.34 L366.7,65.79 L367.4,66.39 L367.7,66.69 L367.9,66.84 L368.3,67.29 L368.6,67.59 L369.1,68.34 L369.4,68.79 L370.9,70.59 L371,71.19 L371.2,71.64 L371.3,71.79 L371.9,72.69 L373.3,74.34 L373.6,74.49 L373.7,74.79 L374,74.94 L374.2,75.09 L374.5,75.24 L374.6,75.54 L375.1,76.44 L376.1,78.39 L376.9,79.59 L377,79.89 L377.8,81.54 L377.8,82.29 L377.5,82.14 L377.2,81.99 L376.9,82.14 L376,83.04 L376.3,83.94 L376.3,84.84 L376.1,85.14 L376,85.29 L376.1,85.89 L376.3,86.19 L376.4,86.94 L376.7,87.99 L376.6,88.44 L376.4,88.74 L376.1,89.34 L376.3,89.79 L376.4,90.09 L376.7,90.09 L377.2,89.94 L377.5,89.79 L377.8,89.79 L377.9,89.79 L378.1,90.09 L378.5,91.29 L378.4,91.59 L378.2,91.74 L377.9,91.89 L377.6,92.04 L377.3,92.34 L377.2,92.49 L377.2,92.94 L377.2,93.69 L377.8,94.89 L377.9,95.19 L378.2,95.34 L378.5,95.94 L378.8,96.09 L379,96.24 L379.1,96.39 L379.4,96.69 L379.7,96.54 L380,96.54 L380.2,96.39 L380.5,96.39 L381.1,96.24 L381.2,96.24 L381.5,96.24 L381.8,96.39 L382.7,98.04 L382.6,98.64 L382.4,98.79 L382,99.24 L381.8,99.39 L381.5,99.84 L381.7,100.1 L382,100.7 L382.3,100.9 L382.4,100.9 L382.7,101.2 L382.7,101.5 L382.9,102.4 L383.5,102.8 L383.8,103 L383.9,103 L385,103.1 L385.1,103.1 L385.4,103.3 L386.9,104 L387.1,104.3 L388,106.3 L388,106.7 L388,107 L387.8,107.6 L387.7,107.9 L387.5,108.5 L387.2,109.3 L386.8,111.2 L386.5,111.7 L386,112.3 L385.9,112.3 L385.6,112.6 L385.4,112.7 L385.3,112.9 L385.1,113 L385.3,113.2 L387.2,114.7 L387.5,115 L388.1,115.1 L388.4,115.3 L388.9,115.4 L389.5,116 L389.6,116.3 L391,116.6 L391.6,116.8 L393.2,117.5 L395.6,118.9 L395.9,119 L396.2,119.3 L397.9,121.1 L399.2,122.2 L400,123.4 L399.8,124.3 L399.7,124.6 L399.7,125 L399.5,125.9 L399.5,128.5 L399.5,128.8 L399.5,129.4 L399.5,129.8 L399.5,130.3 L398.8,132.2 L398.2,133.6 L397.6,134.9 L397.3,135.4 L397,136.3 L396.5,137 L395.5,140 L395.2,141.1 L394.7,142.4 L394.4,143 L394.4,143.2 L393.8,145.3 L392.9,147.8 L392.5,149.2 L392.3,149.5 L391.4,151.1 L390.7,152.6 L390.7,152.9 L390.5,153.4 L390.4,153.7 L390.4,153.8 L390.2,154.1 L390.1,154.6 L389.9,155 L389.3,155.8 L388.7,156.5 L387.8,157.7 L387.2,158.9 L387.1,159.7 L387.1,160.3 L386.9,160.4 L386.6,160.6 L386.2,160.7 L385.9,161.3 L385.4,162.1 L385.3,162.7 L385.1,163 L385,163.3 L384.8,163.6 L384.7,163.9 L383.9,165.5 L382.7,167.8 L382.4,168.7 L382.1,168.4 L381.8,168.5 L381.8,169 L382,169.4 L381.5,169.6 L380.9,169.7 L380,170 L380,170.5 L378.7,170.3 L378.4,169.9 L377.8,169.1 L376.4,170.3 L376.3,171.8 L375.7,171.4 L375.1,171.7 L374.6,172.1 L374.2,172.6 L373.3,172.7 L372.8,172.6 L372.5,172.1 L372.8,170.3 L373,170 L373.1,169.7 L373.4,169.7 L373.7,169.9 L374.2,170 L373.9,169.4 L373.6,169.1 L373.1,169.1 L373,169.3 L372.7,170.3 L372.5,170.6 L372.2,171.8 L372.5,172.4 L372.7,172.9 L372.4,173.6 L370.3,174.1 L369.4,173.8 L370.1,175.3 L370,175.7 L369.7,175.7 L369.2,175.1 L368.3,174.5 L367.9,174.5 L368.2,174.7 L368.6,175 L369.1,176.9 L368.8,176.9 L368.5,176.5 L367.4,176.2 L367.9,176.6 L368.3,176.6 L367.9,177.2 L367.4,177.1 L367,176.8 L366.7,176.5 L366.7,175.7 L366.8,175.6 L366.5,175.4 L366.1,176 L365.9,176.3 L365.6,177.5 L364.7,177.5 L363.4,178.1 L363.1,178.4 L363.5,178.6 L363.5,179 L362.6,179.6 L361.9,180.2 L361.1,180.4 L360.2,180.5 L359.2,181 L359.3,181.4 L359.3,182 L358.6,183.4 L358.1,183.4 L358.1,182.8 L357.5,182.2 L357.2,182.2 L356.9,182.3 L356.5,182.9 L355.4,183.5 L353.3,184.7 L352.7,185 L352.1,185.2 L351.5,185 L351.1,185 L350.6,185.5 L350.8,184.6 L351.1,184.3 L351.2,184 L351.1,183.4 L350.8,183.7 L350,185.8 L349.4,187.6 L349,187.9 L346.7,188.6 L347,188 L348.1,187.1 L348.2,187 L348.7,187 L349.3,186.2 L349.4,185.5 L349.6,184.9 L349.6,184.4 L349.4,184.6 L349.4,184.9 L349.3,185.2 L349.1,185.8 L349,186.1 L348.1,186.4 L347.9,185.6 L348.4,185.3 L348.7,185 L348.8,184.9 L349,184.3 L348.4,184.3 L348.1,184.3 L347.9,184.4 L347.8,184.4 L347.6,184.6 L347.3,184.6 L346.9,184.3 L346.7,183.8 L346.9,183.5 L346.9,183.5 Z M322.9,188.2 L322.9,187.9 L322.7,187.4 L322.6,187.4 L322.6,187.3 L322.4,187.3 L322.3,187.6 L322.1,187.7 L321.5,187.7 L321.2,187.6 L320.9,187 L320.8,186.5 L320.2,184.9 L320.8,184 L321.1,184.1 L321.1,184.7 L321.1,185 L321.4,185.9 L321.5,185.9 L322.3,184.3 L322.3,184 L322.3,183.8 L321.8,183.2 L321.8,183.4 L321.7,183.5 L321.7,183.7 L321.5,183.7 L320.9,183.2 L321.1,182.8 L321.2,182.5 L321.4,182.3 L321.5,182.3 L321.8,182.3 L323.3,182.9 L325,184 L324.7,185.2 L324.4,185.9 L323.8,185.8 L323.8,185 L323.9,184.9 L323.9,184.7 L323.3,183.8 L323.2,183.7 L323,183.7 L322.3,185.3 L322.4,185.8 L322.6,185.9 L323,186.1 L323.3,186.2 L323.6,187.1 L323.6,187.3 L323.5,187.4 L323.2,187.3 L323,187.4 L322.9,187.4 L322.9,187.6 L322.9,188.2 L322.9,188.2 Z M343.9,186.1 L343.9,185.8 L343.6,185.3 L343.3,185.8 L343.1,185.9 L342.8,185.9 L342.7,184.7 L342.2,184.3 L342.1,183.5 L342.1,182.8 L342.1,182.5 L342.2,182.3 L342.4,182.3 L343.3,182.5 L343.7,182.2 L344.3,182 L345.1,181.7 L345.2,182.3 L345.5,183.4 L345.5,184 L344.9,185.6 L344.5,185.6 L344.2,185.6 L343.9,186.1 L343.9,186.1 Z M346.4,100.4 L346.1,100.4 L345.4,101 L345.4,101.6 L344.8,102.1 L344.6,102.1 L343.9,101.9 L343.7,101.8 L343.6,101.5 L343.3,101 L343.4,100.9 L343.7,100.4 L343.9,100.3 L344,100.1 L344.2,100.1 L344.9,99.84 L345.1,99.84 L345.2,99.84 L346.4,100.1 L346.6,100.1 L346.6,100.3 L346.4,100.4 L346.4,100.4 Z M325.6,135.5 L325.6,135.4 L325,134.9 L325,135.1 L324.8,135.2 L324.8,135.1 L324.7,134.9 L324.2,134.2 L324.1,133.6 L325.7,133.9 L326,133.6 L326.2,133.6 L326.5,133.6 L326.8,134.5 L326,135.4 L325.7,135.4 L325.6,135.5 L325.6,135.5 Z M338.2,181.3 L338,181.3 L337.9,181.3 L337.6,181.1 L336.8,180.8 L336.7,180.7 L336.5,180.5 L336.5,180.4 L336.5,179.2 L336.5,179 L336.7,179 L337.3,179.3 L337.6,179.8 L338.2,180.7 L338.3,181 L338.2,181.3 L338.2,181.3 Z M335.5,123.5 L335.3,123.4 L335,123.4 L334.7,123.4 L334.6,123.5 L334.3,123.5 L334,123.4 L334,123.1 L334.1,122.8 L334.7,121.9 L335.2,121.7 L335.3,121.7 L335.3,121.9 L335.6,122.5 L335.6,122.6 L335.5,122.8 L335.5,122.9 L335.5,123.5 L335.5,123.5 Z M324.1,187.3 L324.2,187.4 L324.5,187.6 L324.8,187.6 L325,187.6 L325.3,188.6 L325.1,188.9 L324.5,188.8 L323.3,187.9 L323.3,187.7 L323.9,187.1 L324.1,187.1 L324.1,187.3 L324.1,187.3 Z M319.9,187.3 L319.7,187.3 L319.6,187.1 L319.4,186.8 L319.3,186.4 L319.3,185.5 L319.6,185.2 L319.6,185 L319.7,185 L319.9,185 L320,185.2 L320.5,185.9 L320.5,186.2 L320.5,186.7 L320,186.7 L319.9,187.3 L319.9,187.3 Z M347.6,186.8 L347.5,186.8 L346.9,187 L346.7,187 L346.4,187 L346.1,186.8 L345.7,186.4 L345.7,185.9 L345.8,185.9 L345.8,186.1 L345.8,186.2 L346.7,186.1 L347,185.9 L347.2,185.9 L347.6,185.9 L347.8,185.9 L347.8,186.8 L347.6,186.8 L347.6,186.8 Z M340.3,182.3 L340.1,181.9 L340.1,181.7 L339.5,181.7 L339.8,181.9 L339.8,182 L339.7,182.2 L339.5,182.2 L339.1,182 L338.9,181.6 L339.1,181.3 L340,181.1 L340.1,181.1 L340.3,181.1 L340.9,181.3 L341,181.4 L341,181.7 L341,181.9 L340.9,181.7 L340.7,181.7 L340.3,182.2 L340.3,182.3 L340.3,182.3 Z M336.8,185 L336.5,185 L336.4,184.1 L336.5,184 L336.5,183.8 L337.3,183.7 L337.6,183.5 L337.7,183.7 L337.9,183.8 L337.7,184.1 L337.1,184.9 L337,185 L336.8,185 L336.8,185 Z M350.5,186.4 L350.3,186.4 L350.2,186.2 L350.3,185.9 L351.2,185.2 L351.4,185.2 L351.5,185.2 L352.9,185.3 L352.7,185.5 L352.4,185.6 L352.1,185.6 L352,185.6 L351.2,185.9 L350.5,186.4 L350.5,186.4 Z M350.5,186.4" id="fi" stroke="#FFFFFF" fill="#DCDCDC"></path>
    </g>
</svg>