<?xml version="1.0" encoding="UTF-8" standalone="no"?>
<svg width="612px" height="612px" viewBox="0 0 612 612" version="1.1" xmlns="http://www.w3.org/2000/svg" xmlns:xlink="http://www.w3.org/1999/xlink" xmlns:sketch="http://www.bohemiancoding.com/sketch/ns">
    <title>al</title>
    <description>Created with Sketch (http://www.bohemiancoding.com/sketch)</description>
    <defs></defs>
    <g id="Page 1" stroke="none" stroke-width="1" fill="none" fill-rule="evenodd">
        <path d="M119.2,148 L118.9,147.7 L118.3,146.6 L117.8,145.7 L117.5,144.5 L116.9,144.2 L116.3,143.2 L116.5,142.9 L116.9,141.4 L117.1,141.1 L117.5,141.2 L117.8,141.5 L118,141.7 L118,141.8 L118,142.1 L118,142.4 L118,142.6 L118.1,143.3 L118.3,143.5 L118.4,143.8 L118.6,144.1 L119,144.7 L119.5,146.2 L119.5,146.3 L119.5,147.2 L119.3,147.8 L119.2,148 L119.2,148 Z M120.1,146 L119.5,145.3 L118.6,143.8 L118.4,143.5 L118.4,143.3 L118.1,142.7 L118.1,142.4 L118,141.5 L118.1,141.2 L119,140.9 L119,141.1 L119.9,142 L120.2,142.6 L121,143.9 L120.8,145 L120.2,145.4 L120.1,146 L120.1,146 Z M117.7,157 L117.2,156.5 L116.6,155.3 L116.2,153.1 L116.3,152.6 L116.5,152.5 L116.6,152.3 L116.8,152.3 L116.9,152.3 L117.8,153.8 L118,154.1 L117.8,156.2 L117.8,156.8 L117.7,157 L117.7,157 Z M116,145.7 L116.2,145.6 L116.2,145.3 L116,145.1 L115.9,145 L115.7,145.3 L115,145 L114.8,144.7 L114.7,143.6 L114.8,143.3 L116.3,143.5 L116.6,144.1 L117.4,144.7 L117.4,145 L117.2,145.3 L117.1,145.6 L116.3,145.7 L116,145.7 L116,145.7 Z M119,151.1 L118.7,150.5 L118,149.6 L117.8,149.3 L117.7,148.1 L118.1,148.1 L118.6,148.4 L119.3,149.3 L119.5,149.3 L119.6,149.9 L119.2,151 L119.2,151.1 L119,151.1 L119,151.1 Z M121.6,144.5 L121.4,144.4 L121.3,143.9 L121.3,143.6 L121.3,143.5 L121.3,143.2 L121.6,143 L121.7,142.3 L121.7,141.4 L122,141.4 L122,141.7 L122,142 L122.2,142.6 L122.5,143 L122.8,143.2 L122.8,143.5 L122.3,144.4 L121.6,144.5 L121.6,144.5 Z M121.6,144.5" id="fo" stroke="#FFFFFF" fill="#DCDCDC"></path>
    </g>
</svg>