<?xml version="1.0" encoding="UTF-8" standalone="no"?>
<svg width="612px" height="612px" viewBox="0 0 612 612" version="1.1" xmlns="http://www.w3.org/2000/svg" xmlns:xlink="http://www.w3.org/1999/xlink" xmlns:sketch="http://www.bohemiancoding.com/sketch/ns">
    <title>al</title>
    <description>Created with Sketch (http://www.bohemiancoding.com/sketch)</description>
    <defs></defs>
    <g id="Page 1" stroke="none" stroke-width="1" fill="none" fill-rule="evenodd">
        <path d="M147.4,481.6 L146.9,480.8 L146.5,480.7 L145,479.9 L144.1,479.9 L143.5,480.7 L143.3,479.8 L143,479.2 L142.7,478.7 L142.3,478.6 L140.5,478.6 L140.2,478.1 L140,477.5 L139.7,477.2 L137.5,476.5 L136.7,476 L135.5,475.4 L135.2,475.4 L134.9,475.7 L134.6,476.6 L134.6,477.1 L134.8,477.7 L134.8,478 L134.6,478.1 L134.5,478.1 L133.7,478 L133.3,478 L132.7,477.8 L131.8,477.8 L130,477.2 L128.9,476.8 L128.5,476.9 L128.2,477.1 L126.8,477.2 L126.1,476.9 L125.5,475.9 L125.2,475.6 L124.9,475.3 L124.6,475.1 L124,474.7 L123.5,474.2 L123.5,474.1 L123.4,474.4 L122.5,474.8 L120.5,474.8 L118.9,472.9 L118.7,472.6 L118.9,472.3 L118.9,472.1 L118.6,471.5 L118.3,471.5 L117.8,471.7 L116.5,471.4 L115.9,470.9 L115,470.2 L113.6,469.4 L112.6,468.8 L112,469.3 L111.4,469.1 L110.9,468.8 L110.6,468.1 L111.2,467.8 L112,466.4 L112,465.7 L111.8,465.2 L110.8,464.9 L109.1,464.2 L108.5,464.2 L108.2,464.3 L107.8,463.4 L107.8,463.1 L108.4,463 L109.1,463 L110.2,462.2 L111.1,461.2 L111.7,460.3 L112.3,459.2 L112.4,458.8 L112.4,458.3 L112.9,456.8 L114.5,452.3 L114.7,451.9 L115.3,450.2 L116.2,447.1 L116.5,446.2 L116.6,445.1 L116.9,444.4 L117.4,443.3 L118.1,442.9 L118.4,443 L118.9,443 L119.5,442.7 L119.3,442.1 L118.7,441.2 L118.3,440.9 L117.4,442 L117.1,442.4 L117.4,441.1 L118.4,436.9 L119.3,433.7 L119.9,431.2 L119.9,430.7 L120.1,430.1 L120.2,429.1 L121,428.2 L121.3,428 L121.4,428.3 L121.3,428.8 L121.9,429.7 L122,429.8 L122.5,430 L122.6,430.1 L123.7,431.8 L124,432.5 L124.1,432.8 L124.1,434.2 L124.1,434.8 L124.1,435.8 L124.3,436.3 L125.5,439.9 L125.8,438.4 L125.6,437.8 L125.2,437.2 L124.9,436.9 L124.7,436.6 L124.6,435.8 L124.7,432.7 L124.6,432.1 L124.4,430.9 L124.1,430.1 L124,429.8 L123.4,428.9 L122.2,427.3 L121.3,426.5 L120.5,425.9 L119.8,425.5 L120.1,424.1 L120.5,424 L121,424 L121.1,422.9 L122,422.5 L122.5,420.7 L122.6,420.2 L122,418.7 L121.9,418.1 L122.5,416.5 L122.6,415.6 L122,415.3 L121.6,415.4 L121.4,415.7 L121,415.4 L118.9,413.6 L117.1,412.6 L115.7,411.5 L115.6,410 L115.3,409 L114.8,408.1 L114.1,406.7 L113.8,406.4 L113.6,406.1 L113.3,406 L113.2,405.7 L113,405.4 L112.9,405.1 L113.2,404.2 L113.6,403.6 L114.4,403 L115,402.2 L114.8,401.8 L114.7,401.5 L114.4,401 L113.9,400.6 L113.3,400.4 L113.6,398.6 L114.1,397.9 L115.1,397.9 L115.6,398 L116.2,398.3 L116.3,398.5 L116.5,398.8 L117.4,399.5 L117.7,399.7 L118.1,399.7 L116.6,398.2 L116.3,398 L115.4,397.4 L115.3,397.4 L114.2,397.4 L113.5,397.7 L112.4,398.3 L110.8,397.7 L110.3,397.3 L109.9,396.8 L110.2,395.5 L110.8,395 L111.1,395.3 L111.5,395.2 L111.1,394.4 L110.8,394.4 L110.9,393.7 L111.7,393.8 L112.1,393.8 L112,393.7 L110.8,393.1 L110,392.9 L109.1,393.1 L107.6,393.2 L107.3,393.1 L107,392.2 L107.6,392.3 L108.1,392.3 L108.4,392.5 L109.1,391.7 L109.1,391.4 L109.1,391 L107,391.3 L106.6,391.6 L104.8,391.1 L104.5,391 L104.2,392 L104.2,392.5 L104.3,392.9 L104,392.9 L104,391.9 L104.2,391.6 L104.3,391.1 L104.2,390.7 L103.9,390.2 L103.7,389.8 L100.9,387.5 L99.7,386.9 L98,386.3 L97.6,386.2 L97.1,385.6 L97,385.3 L96.4,384.4 L95,384.5 L94.4,385 L94.1,385.3 L93.98,385.4 L93.68,385.4 L93.22,385.4 L93.08,385.4 L92.02,385 L92.18,384.7 L92.48,384.5 L92.48,384.1 L92.32,383.5 L92.18,382.9 L92.02,382.4 L91.72,382.1 L91.42,381.5 L90.98,381.2 L90.38,381.1 L89.32,380.8 L89.02,380.5 L89.32,380 L93.22,380 L93.38,380.2 L93.68,380.3 L93.98,380.2 L94.1,379.6 L93.82,378.7 L92.62,377.8 L92.32,377.6 L92.02,377.8 L91.72,378.2 L91.28,378.7 L90.98,376.7 L91.58,376 L92.02,376 L91.72,376.4 L91.88,376.7 L93.08,377.2 L94.6,377.3 L95.5,377.3 L94.4,376.7 L93.38,376.4 L92.92,376 L91.28,375.7 L90.22,375.7 L89.62,375.5 L89.48,375.1 L89.62,374 L90.08,372.7 L90.38,372.2 L90.68,371.9 L90.98,371.8 L91.72,371.8 L92.02,372.1 L92.18,372.2 L92.18,371.9 L92.62,371.2 L92.92,371 L94.9,370.7 L96.8,370.9 L98.8,370.7 L98.9,370.9 L98.9,371.3 L99.1,371.9 L100,372.4 L100,372.1 L100,371.6 L100.4,371 L100.7,371 L101.5,371.3 L101.9,371.8 L102.2,372.1 L102.8,372.2 L103.6,371.3 L103.3,370.7 L103.3,370.4 L103.7,369.8 L104,369.7 L104.5,369.7 L105.4,370.1 L107,369.7 L108.1,370 L108.7,370.7 L110.2,373.4 L110.6,374.6 L111.4,376.1 L111.5,376.6 L111.7,376.7 L114.2,374.9 L114.8,374.6 L116,374.5 L116.2,374.6 L117.7,375.4 L118.6,376.3 L119,377.8 L119.3,377.5 L119.3,376.6 L119,376.3 L118.9,375.5 L119.3,374.8 L119.9,374.8 L120.8,374.6 L120.8,375.1 L120.5,375.5 L120.5,376.1 L120.7,376.3 L121,376.4 L121.1,376.4 L121.9,376.6 L122.8,376.6 L123.1,376.4 L123.4,376.3 L124,376.4 L124.6,376.4 L125.6,376.6 L124.9,375.8 L124.4,375.5 L123.8,374.5 L124,373 L124,372.5 L124.3,371.8 L124.6,370 L124.3,370.1 L124.3,369.5 L124.3,368.8 L124.6,366.7 L124,365.2 L123.8,364.7 L123.5,364.1 L123.2,363.7 L122.9,363.7 L122.9,361.6 L123.2,360.2 L123.2,359.6 L123.2,359 L122.9,358.7 L122.6,358.6 L122.3,358.4 L122.5,357.7 L122.8,357.7 L123.5,358 L124.7,358.7 L125.2,359.2 L125.6,359.3 L126.5,359.5 L126.8,359.3 L127.1,359 L127.9,358.9 L128.2,358.9 L128.8,359 L129.1,359.2 L129.2,359.3 L129.5,359.9 L129.5,360.5 L129.1,360.8 L128.6,361.1 L128.5,361.4 L128.6,361.9 L128.8,362.6 L128.9,362.9 L129.5,364.1 L130.1,364.9 L130.4,364.6 L131.5,364.6 L132.1,364.7 L132.2,365 L132.7,365.3 L133,365.3 L133.9,365.8 L134.9,365.9 L135.4,366.1 L136.1,366.1 L137,366.4 L137.5,366.7 L138.2,367.1 L138.8,367.6 L140.2,367.4 L140.5,367.4 L140.9,367.3 L141.2,367.1 L142.1,366.7 L142.3,366.5 L142.6,366.2 L142.9,365.9 L143.2,365.9 L143.9,365.8 L144.2,365.8 L144.5,365.8 L145.4,365.8 L145.9,365.6 L146.3,365.3 L146.6,365.2 L146.2,365.3 L145.4,365.5 L145.1,365.5 L144.8,365.5 L144.2,365.3 L143.2,365 L142.7,364.6 L142.4,364 L143.8,361.3 L144.1,361.1 L144.2,360.8 L144.8,360.7 L145.4,360.5 L146.6,359.9 L148.1,359.2 L148.4,359.2 L148.9,359 L149.5,358.9 L149.8,358.9 L153.4,358.4 L154.9,357.8 L155.2,357.7 L156.7,356.5 L157.1,356.3 L157.4,356 L157.7,355.6 L158.3,354.4 L158.8,352.9 L159.1,351.8 L159.5,351.7 L159.7,351.7 L159.2,351.1 L159.7,349 L159.8,346.3 L159.8,346 L160.4,344.3 L160.7,343.1 L162.1,342.2 L162.4,342.1 L162.7,341.9 L164.2,341.6 L167.2,341.2 L168.4,341 L168.7,341 L169,341 L169.7,340.7 L170,340.7 L170.2,340.6 L170.6,342.2 L170.5,343.4 L170.9,345.2 L172.1,346.4 L172.9,347.2 L173.2,347.3 L173.6,346.7 L173.8,346.6 L174.4,346.4 L174.5,346.4 L174.7,346.3 L175.4,346.1 L175.9,346.3 L176,346.7 L176,346.9 L176.2,347.3 L176.5,348.4 L176.8,350.5 L176.9,350.8 L177.5,351.4 L178.4,351.1 L179,351.1 L179.9,351.5 L180.4,352.3 L180.5,352.6 L180.5,353.3 L181.4,354.1 L182.5,354.4 L183.5,354.4 L184,354.2 L185.2,355.6 L185.5,356.3 L185.2,358 L184.7,360.1 L184.7,360.7 L185,360.7 L185.3,361 L185.6,361 L186.4,361 L187.3,361.3 L187.4,361.4 L187.7,361.6 L188.3,361.4 L190.1,360.7 L190.3,359.8 L190.3,359.3 L191,358.4 L191.8,358 L192.4,358.6 L191.9,359.2 L191.8,359.6 L191.5,360.8 L191.8,364.1 L192.2,364.4 L192.5,364.3 L192.7,364.1 L193,364.1 L196.3,366.8 L196.9,367.4 L197,367.6 L197.3,367.9 L197.6,368.9 L197.6,369.4 L198.2,369.4 L198.8,369.2 L199.3,369.1 L200,368.9 L200.9,369.1 L201.1,369.1 L201.4,369.5 L201.5,369.8 L202.7,370.7 L203.9,370.7 L204.2,370.4 L204.7,369.8 L205.4,369.8 L205.6,370 L206.2,370.4 L206.3,370.6 L206.8,370.7 L207.2,370.6 L207.8,370.7 L208.3,371.2 L208.6,371.5 L209,372.5 L209.9,374.5 L210.2,375.5 L210.2,375.8 L211.4,376.1 L211.6,375.7 L211.6,375.1 L212.3,375.1 L213.2,375.7 L214,376.7 L214.6,376.7 L216.1,377 L216.8,376.3 L216.8,376.1 L217,376 L217.4,376 L218.2,376.1 L219.5,377.9 L219.8,378.2 L220,378.2 L220.6,378.4 L221.5,378.2 L222.7,378.2 L223.9,379 L224.9,379.6 L225.7,379.7 L225.4,379.9 L224.8,380.9 L224.6,381.4 L224.5,381.8 L224.3,382.1 L224.2,382.4 L222.8,383.8 L221.9,384.7 L221,386.2 L220.4,388.7 L220.3,389.2 L220.4,389.6 L220.4,390.2 L219.8,391.1 L218.8,393.1 L218.5,393.8 L218.3,394.3 L218.3,395 L218.5,395.3 L218.9,395.8 L218.9,396.2 L218.5,397.4 L218.2,398 L217.7,399.4 L217.6,400.9 L217.7,401.5 L218,401.8 L218.3,402.5 L218.3,402.7 L218.2,402.7 L218,402.8 L217.9,403 L217.6,403.1 L217.4,403.3 L217.4,404.2 L217.3,404.2 L216.8,404.6 L216.5,404.8 L216.4,405.1 L216.1,405.2 L215.8,405.2 L215.6,405.1 L215.2,405.1 L214.9,405.2 L214.6,405.4 L214,404.9 L213.5,404 L212.3,403.9 L211.9,404 L210.7,406.1 L211.1,406.3 L211.7,406.3 L211.9,406.1 L211.6,407.5 L210.1,409.4 L209.5,410 L208.4,411.1 L208.1,411.5 L207.7,412.1 L206.9,412.4 L206.5,412.6 L205.7,413.8 L205.6,414.7 L205.6,415.7 L205.4,416 L204.5,416.8 L203.5,417.2 L201.8,418.7 L202,419.6 L201.4,421.1 L201.1,421.4 L201.5,421.7 L202,422.3 L201.5,423.4 L201.4,423.7 L201.5,424.3 L200.9,424.4 L200.5,424.6 L200.3,424.6 L200,424.9 L199.7,425 L200,426.1 L201.5,426.1 L202.1,425.8 L202.9,425 L203.2,424.3 L202.9,423.4 L202.7,423.1 L203,422.8 L203.5,422.2 L203.8,422 L205.7,421.3 L206,421.1 L207.2,421.1 L208,421.3 L208.4,421.4 L209,421.7 L209.2,422.2 L209,422.6 L208.7,426.4 L209.6,427.6 L210.2,428 L211.1,429.1 L211.3,429.7 L211.4,430.1 L210.7,431.2 L210.2,431.3 L210.1,431.5 L209.8,431.5 L209.5,431.3 L208.9,431.8 L208.6,432.5 L208.7,433.4 L210.4,435.8 L210.7,437 L211.6,437.8 L212.3,438.7 L212.3,439.6 L211.9,441.5 L211.3,442 L209.8,442.7 L208.4,443.2 L207.8,442.9 L206.9,443.2 L206.3,443.5 L206.2,443.6 L206.6,445 L207.5,446.9 L207.7,447.2 L208.6,447.8 L209.2,448 L209.6,447.8 L209.9,448 L210.4,448.3 L210.5,448.6 L210.5,450.1 L209.9,451 L209.6,451.3 L208.4,453.4 L208.4,453.7 L208.6,456.1 L209.6,457.7 L210.2,458.3 L213.8,460.4 L214.6,460.4 L215.2,460.3 L215.8,460 L216.8,459.7 L217.4,459.8 L217.3,460.4 L217.9,461.2 L217.9,461.5 L217.3,462.5 L216.5,463.3 L215.3,464.6 L215.5,465.5 L215.6,466.3 L215.5,466.1 L215.2,466.3 L214.6,466.6 L214.4,466.4 L214,466.7 L214,467.2 L213.2,467.3 L212.3,467.5 L211.3,468.1 L210.2,469.6 L208,471.8 L207.5,472 L206.9,472 L205,473.6 L205,474.1 L205.7,474.2 L205,475.7 L204.5,475.6 L203.6,475.7 L202.3,476 L199.4,476.6 L199.3,477.5 L199.3,477.8 L199,477.7 L198.7,477.5 L198.2,476.8 L196.9,476.5 L196.6,477.1 L195.8,477.4 L195.5,477.4 L194.9,476.8 L195.4,476.5 L193.7,475.1 L191.9,474.7 L190.6,474.5 L190.1,474.4 L190.1,473.9 L190.3,473.6 L190.3,472.6 L190,472.1 L189.7,472 L189.1,472.3 L188.6,472.3 L187.1,472.3 L186.5,472.1 L186.7,471.4 L187.1,471.2 L187.9,470.9 L188.3,470.8 L188.8,470.2 L188.8,469.7 L186.5,468.7 L186.4,469.3 L186.5,469.7 L186.8,470 L186.5,470.5 L186.4,470.8 L186.1,470.8 L185.6,470.8 L185.3,470.5 L184.7,470.6 L184.4,470.8 L184.1,471.1 L184,471.1 L183.7,470.8 L183.2,470.3 L183.4,469.4 L183.4,469 L182.9,468.1 L183.1,470.5 L183.1,470.9 L183.2,471.4 L182,471.5 L181.6,471.5 L181.3,471.4 L181.1,471.1 L181.4,470.3 L181.3,470 L180.8,469.9 L180.5,469.7 L180.1,469.7 L179.8,469.7 L179.5,469.9 L178.3,469.6 L178.3,469 L178,468.8 L177.5,469 L177.4,469.1 L178,469.6 L176.9,469.4 L176.5,469.3 L176.2,468.7 L176.2,468.1 L175.9,467.8 L175.4,467.6 L174.2,467.9 L173.6,468.2 L172.9,469 L171.4,469.9 L169.1,471.2 L167.6,471.7 L166.6,472 L166.4,472.1 L165.7,472.4 L164.2,473.8 L163.4,475 L163.3,475.4 L162.8,476.8 L162.2,478 L161.6,478.6 L161.8,479 L161.8,479.2 L162.2,479.3 L162.4,480.5 L162.2,482.5 L162.4,483.5 L163,484 L163.3,484.1 L163.4,484.7 L163.6,485.3 L163.6,485.5 L163.4,485.5 L162.7,485.5 L162.5,485.3 L162.1,484.9 L161,484.4 L158.2,485.3 L157.6,485.5 L157.4,485.8 L157.4,486.4 L155.8,486.5 L155.2,486.2 L154.9,485.6 L153.5,484.9 L152.9,484.4 L151.4,484.6 L151.1,484.9 L150.7,485.5 L150.4,485.5 L149.8,485.5 L149.5,485.3 L149.3,485 L149.2,484.4 L148.6,483.8 L148,483.4 L147.2,482.9 L146.6,482.6 L146.6,482.3 L146.9,481.7 L147.2,481.6 L147.4,481.6 L147.4,481.6 Z M120.2,423.8 L120.1,422.9 L120.1,422.6 L119.8,422 L119.5,421.7 L119.2,421.4 L118.9,421.1 L118.9,421 L118.9,419.5 L119,419.5 L119.2,419.6 L120.1,420.5 L120.4,421.1 L121,422.5 L120.7,423.2 L120.5,423.5 L120.2,423.8 L120.2,423.8 Z M120.4,418 L120.2,417.8 L119.9,417.8 L118,416.8 L117.8,416.6 L117.8,416.5 L117.7,416 L118.3,415.9 L118.4,415.9 L120.4,417.2 L120.7,417.8 L120.4,418 L120.4,418 Z M104,396.1 L103.7,395.9 L103.1,395.6 L103,395.6 L102.7,395.6 L102.5,395.3 L102.4,394.4 L102.5,394.1 L104.3,395.6 L104,396.1 L104,396.1 Z M103.3,370.1 L103.3,370 L103.4,370 L103.4,370.1 L103.3,370.1 L103.3,370.1 Z M228.1,496 L229.1,495.4 L228.4,494.5 L227.9,494.2 L227.6,494 L227.3,493.3 L227.2,492.5 L227.8,491.9 L228.1,491.9 L228.5,491.8 L227.9,490.6 L227.6,490.4 L227.5,490.3 L227.3,489.8 L228.4,487.7 L229,486.7 L231.1,485.8 L233,484.9 L233.3,484.4 L233.8,484.1 L234.1,484.1 L235.3,484.3 L235.6,484.7 L235.7,485 L236,484.7 L236.3,484 L236.3,483.1 L236,482.5 L236.5,479.6 L236.9,479.5 L237.4,479.5 L237.8,479.9 L238.1,482.9 L237.8,483.5 L237.7,484.4 L237.7,485 L237.7,485.6 L238,486.7 L238.3,486.8 L238.1,486.4 L238,486.1 L237.8,485.8 L238.1,486.1 L238.3,486.4 L238.4,486.8 L238.6,487.3 L238.9,491.8 L238.9,493.1 L238.7,494.3 L237.5,496.3 L237.2,496.7 L237.1,497.2 L236.9,498.4 L236.9,498.8 L236.9,499.3 L236.9,501.2 L236.6,502 L236,502.9 L235.4,504.2 L235,505.3 L235.1,505.9 L234.7,506.8 L234.2,506.8 L233.6,506.3 L233.5,505.7 L231.8,504.8 L231.4,504.7 L231.1,504.5 L229.6,503.5 L229.6,502.6 L229.9,502.3 L230.6,502 L231.1,501.4 L230.6,501.2 L230.3,501.2 L229.7,500.9 L228.8,500.6 L228.7,500.2 L229.1,499.3 L229.6,498.7 L229.9,497.8 L229.6,497.5 L229.1,497.3 L228.7,497.6 L228.2,497.6 L227.8,497.8 L227.3,496.7 L227.6,496.6 L227.9,496.7 L228.2,496.4 L228.1,496 L228.1,496 Z M228.1,496" id="fr" stroke="#FFFFFF" fill="#DCDCDC"></path>
    </g>
</svg>