<?xml version="1.0" encoding="UTF-8" standalone="no"?>
<svg width="612px" height="612px" viewBox="0 0 612 612" version="1.1" xmlns="http://www.w3.org/2000/svg" xmlns:xlink="http://www.w3.org/1999/xlink" xmlns:sketch="http://www.bohemiancoding.com/sketch/ns">
    <title>al</title>
    <description>Created with Sketch (http://www.bohemiancoding.com/sketch)</description>
    <defs></defs>
    <g id="Page 1" stroke="none" stroke-width="1" fill="none" fill-rule="evenodd">
        <path d="M611.6,419 L609.8,417.2 L609.5,416.9 L609.4,416.5 L609.1,415.9 L608.5,415.1 L607.6,414.1 L606.7,413.5 L606.2,412.9 L605.9,412.4 L605.8,411.8 L605.5,411.5 L604.7,410.5 L604.3,409.9 L604,409.6 L603.7,409.3 L603.4,409.1 L603.1,409 L602.5,409 L600.5,409.1 L600.2,409.3 L599.9,409.6 L598.9,409 L598.6,408.4 L598.1,407.9 L597.4,407.3 L596.9,407.2 L596.6,407.6 L596.3,407.8 L595.9,407.5 L595.3,406.9 L595,406.9 L594.7,406.7 L594.2,406.7 L593.3,407 L592.6,407.2 L589,407.5 L587.5,406.6 L587,406.3 L586.4,405.8 L585.1,405.7 L584.3,405.7 L583.7,405.8 L583.6,405.2 L583.6,404.8 L583.4,402.8 L583.6,402.5 L583.9,402.2 L584.2,401.9 L584.6,401.6 L585.1,401.5 L585.5,401.5 L586,401.5 L586.3,401.5 L588.1,401.5 L588.4,401.5 L588.7,401.3 L589,401.2 L589.3,400.7 L589.6,400.4 L589.9,400.1 L590,400.1 L590.5,400.4 L590.8,400.4 L591.7,400.4 L592,400.4 L592.3,400.4 L592.7,400.4 L593.6,400.7 L594.5,401 L594.8,401.2 L595.1,401 L595.7,400.6 L596.2,400.4 L596.5,400.3 L596.6,400.3 L599.6,400.6 L601.4,400.9 L601.9,400.9 L606.7,399.4 L607.4,398.8 L607.9,398 L608,397.9 L608.9,397.4 L609.8,397 L610,397 L610.4,396.7 L610.9,396.7 L611.8,396.8 L611.6,419 L611.6,419 Z M611.6,419" id="ge" stroke="#FFFFFF" fill="#DCDCDC"></path>
    </g>
</svg>