<?xml version="1.0" encoding="UTF-8" standalone="no"?>
<svg width="612px" height="612px" viewBox="0 0 612 612" version="1.1" xmlns="http://www.w3.org/2000/svg" xmlns:xlink="http://www.w3.org/1999/xlink" xmlns:sketch="http://www.bohemiancoding.com/sketch/ns">
    <title>al</title>
    <description>Created with Sketch (http://www.bohemiancoding.com/sketch)</description>
    <defs></defs>
    <g id="Page 1" stroke="none" stroke-width="1" fill="none" fill-rule="evenodd">
        <path d="M382.7,534.8 L382.4,535.6 L380.9,535 L379.4,534.4 L378.8,534.8 L378.8,536 L379.3,536.3 L379.7,536.8 L378.7,537.1 L378.2,536.5 L378.2,536.2 L377.9,535.6 L377.8,535.3 L375.7,533.6 L374.6,532.3 L373.6,532.3 L373.1,532.3 L372.4,531.8 L371.2,530 L371.5,530 L371,528.7 L370.1,527 L368.6,526.4 L368,526.3 L368.2,526.1 L369.1,526.4 L369.7,526.7 L370.1,526.7 L370.4,526.7 L370.7,526.7 L371.8,525.1 L371.5,524.5 L371.3,523.9 L371.5,523.9 L372.4,524.2 L372.7,523.9 L372.7,523.6 L372.7,523.1 L372.1,522.4 L371.6,521.9 L371.2,520.9 L372.4,519.5 L372.5,519.4 L372.7,519.4 L373,519.4 L373.9,519.2 L374.2,519.2 L374.5,519.1 L374.6,518.8 L375.2,518.6 L375.5,516.4 L375.4,515.6 L375.5,515 L375.8,514.9 L376,513.5 L376,512.9 L376.4,512.3 L377.5,512.2 L377.8,512 L378.7,510.4 L378.7,509.3 L378.5,508.4 L378.1,508 L377.5,506.6 L377.3,505.6 L379,505.4 L379.3,505.3 L381.2,504.8 L381.7,504.7 L381.8,504.5 L382.3,503.9 L383.6,503.8 L383.9,504.1 L384.4,504.2 L384.7,504.2 L386.8,503 L387.8,500.5 L387.8,500 L388.4,499.3 L391.1,498.4 L391.7,498.1 L392.3,498.4 L392.9,498.5 L394.1,498.5 L394.6,498.5 L395.8,498.4 L397.6,497.5 L397.6,496.3 L397.6,495.8 L397.4,494.9 L397.6,494.6 L397.9,494.2 L399.2,494 L399.4,494 L399.8,494 L401.3,494 L401.6,494 L402.4,493.7 L402.7,493.6 L402.8,493.3 L402.8,492.8 L403.4,492.2 L405.2,491.9 L406.4,491.9 L407.2,491.9 L407.5,491.9 L408.7,491.2 L409.3,490.7 L410.3,490.3 L411.4,490.3 L412.3,489.2 L412.3,488.6 L412.4,488.2 L413.3,488.2 L413.8,488 L413.9,487.9 L414.4,487.4 L415,487.7 L416.9,487.3 L418.3,488 L418.9,488.9 L421,489.5 L421.6,489.8 L421.4,489.4 L421.4,488.9 L422.5,488.6 L424.1,488.9 L424.4,489.1 L425.8,489.5 L426.2,489.7 L427,490.3 L427.4,490.4 L428.2,490.1 L430,489.1 L430.6,488.5 L431.6,488.3 L433.4,487.6 L434.3,487.9 L434.6,487.7 L435.5,487.4 L437.3,486.5 L437.6,485 L437.2,483.4 L436.1,482 L435.8,482.2 L435.4,481.7 L435.2,481.3 L435.2,480.8 L436,480.2 L436.3,480.1 L437,480.1 L437.5,480.4 L437.9,480.4 L438.7,480.2 L439.1,480.4 L440.8,481 L441.4,481.3 L442,482.2 L442.9,484.3 L443,485 L443,485.5 L442.9,485.6 L440.8,487.3 L440.3,487.6 L439.9,488 L440.3,490.3 L441.1,491.2 L441.2,492.4 L440.6,493.4 L440.2,493.7 L439.7,494 L439.6,495.1 L439.1,496.3 L438.8,496.6 L438.4,496.7 L438.2,496.7 L438.1,496.6 L437.9,495.8 L437.9,495.5 L437.6,495.2 L436.3,495.2 L435.1,495.5 L434.6,495.5 L434.3,495.7 L434,495.8 L433.6,495.8 L432.2,495.7 L431.3,495.7 L430.3,495.5 L429.4,495.2 L428.8,495.2 L427.9,495.5 L427.3,495.5 L426.7,495.2 L427,494.8 L426.5,494.5 L425.8,494.8 L425.3,494.9 L423.8,496.7 L423.5,497 L423.1,497.9 L422.8,497.9 L421,498.2 L420.5,497.6 L419.9,496.9 L419.2,496.9 L418.3,497.3 L418,497.5 L417.4,498.2 L417.2,498.7 L417.2,499.3 L415.6,501.2 L415,501.7 L414.7,501.8 L413.8,501.7 L413.5,501.7 L412.7,501.5 L412.3,501.2 L411.8,501.1 L410.5,502.1 L410.2,502.7 L410.3,503.2 L411.8,504.5 L412.4,505.9 L412.6,506.5 L413,507.1 L413.5,507.4 L413.9,507.5 L414.4,507.5 L415,507.2 L417.1,507.5 L418,508 L420.1,509.8 L420.4,510.2 L419.5,511 L419.2,510.7 L419,510.4 L417.2,508.7 L416.6,508.6 L416.3,508.7 L415.7,508.7 L415.4,508.6 L415.1,508.4 L414.7,508.3 L414.4,508 L414.1,507.8 L413.8,507.8 L413,507.8 L411.7,508.4 L411.4,509 L411.4,509.5 L411.7,509.9 L412,510.2 L412.9,511 L414.1,511 L414.4,511.1 L415.3,511.6 L415.6,511.7 L416.2,513.2 L416,514.3 L415.6,514.6 L415.4,514.6 L415,514.3 L413.9,513.5 L413.2,512.6 L412.7,512 L412.3,511.4 L411.8,511.1 L411.4,510.7 L411.1,510.5 L407.9,510.4 L407.6,510.7 L407.5,511 L407.3,511.6 L407.9,512.6 L409.6,514 L409.9,514.1 L411.2,514.4 L412.1,514.7 L413.2,515.3 L412.9,515.6 L412,515.6 L411.5,515.8 L409.3,515.3 L408.5,515 L407.5,513.1 L407.3,512 L407,511.6 L406.7,511.3 L406.4,511.1 L405.2,511 L404.3,510.7 L401.6,509.5 L400.7,508.3 L400.9,507.8 L401.2,507.8 L401.5,507.5 L401.8,507.4 L402.1,506.8 L401.5,505.6 L400.9,505.4 L400.4,505.7 L400.4,506.3 L400.1,506.9 L398.9,507.8 L398.3,508.1 L397.6,509 L398.2,509.9 L398.3,510.2 L398.3,511.9 L398,514.3 L398.5,515.6 L398.9,516.4 L399.2,516.5 L399.4,516.7 L400.4,517 L402.7,519.5 L402.8,520 L403,520.4 L403.9,522.1 L404.2,522.5 L404.3,522.7 L405.5,523.3 L406.9,524.3 L407.2,524.5 L409,526.1 L409.3,526.3 L410,527.6 L410.5,528.2 L410.2,528.8 L409,529.7 L408.4,530 L407.9,530.2 L407.5,530.3 L407,530.2 L407.2,529.4 L407.6,529.4 L407.6,530 L408.5,529.4 L408.8,529 L408.8,528.5 L408.2,527.5 L407.9,527.2 L407.3,526.7 L405.7,526.3 L404.9,526.3 L403.7,527.9 L403.7,528.4 L403.9,528.8 L404,529.3 L404.5,529.7 L404.6,529.4 L405.2,529.6 L406,530.2 L406.4,530.8 L406.4,531.2 L407,531.2 L407.5,531.2 L407.3,531.5 L406.9,532.3 L406.1,533.2 L404.9,534.1 L403.9,534.5 L403,534.5 L402.7,534.4 L402.1,534.2 L401.2,535.1 L401.6,535.6 L401.9,535.6 L402.4,535.6 L403,535.4 L403.6,535.4 L404.3,535.9 L406.7,536 L408.4,536.8 L408.8,537.4 L409.1,537.7 L409.4,537.5 L410,537.1 L411.2,536.9 L411.7,536.9 L412,537.5 L411.7,538.3 L412.1,538.7 L413,539 L413.9,539 L414.7,538.9 L415.6,539.5 L415.7,539.8 L416.6,540.8 L416.9,541 L418.6,541.1 L419.2,541.1 L420.2,541.3 L420.7,541.4 L422.3,542.5 L422.3,543.2 L421.9,544.7 L422.2,546.2 L422.8,547.9 L423.2,548.2 L423.7,548.9 L423.8,549.2 L423.8,550.7 L423.5,551.3 L422.3,551.2 L421.9,550.6 L421.6,549.8 L421.3,549.5 L420.8,549.2 L420.2,549.1 L419.6,549.1 L416.6,547.1 L416.9,546.7 L416.8,546.4 L416.6,546.1 L415.7,546.4 L415.1,546.7 L414.8,547.1 L414.7,547.4 L413.6,547.7 L412.4,548 L411.8,548.5 L411.5,548.9 L411.4,549.1 L411.1,549.2 L410.5,549.4 L409.9,549.4 L409.7,550 L410,550.6 L410.6,550.6 L410.9,550.6 L411.2,550.4 L412,551.6 L412.6,553.9 L413,554.2 L414.2,554.6 L415,554.9 L415.3,554.5 L415,554 L414.7,553.7 L415.7,553.9 L416.2,554.8 L416.5,555.1 L417.2,555.4 L417.5,555.7 L417.5,556.1 L417.4,556.3 L416.3,556.7 L416,556.7 L415.6,556.7 L414.5,557.2 L414.1,557.6 L413.9,558.8 L413.8,559.1 L413.3,559.1 L412.1,558.4 L412,557.6 L412.4,557.6 L412.7,557 L412.6,556.7 L410.5,556 L409.9,555.7 L407.8,555.2 L407.5,555.2 L407.2,555.7 L407.5,557 L408.1,558.1 L408.8,559 L410.5,561.5 L410.5,562.3 L410.8,562.6 L410.9,562.6 L411.1,562.4 L411.4,562.4 L412.3,563.8 L412.4,564.4 L412.6,565.1 L413.3,566.2 L413.9,566.8 L414.4,567.7 L414.1,568 L413.6,568.3 L413.3,568.6 L413.5,569.6 L413.6,570.1 L414.4,570.8 L414.8,571 L416.3,572.8 L415.6,573.1 L415,572.9 L413.2,571.9 L412.9,571.6 L411.7,570.1 L410,567.8 L409.3,567.8 L408.1,568.1 L407.6,568.4 L407.3,568.7 L406.9,570.5 L406.6,571.7 L406.9,573.1 L407.2,573.5 L407.3,574 L407.3,575.2 L407,574.9 L405.8,574 L405.5,572.9 L404.8,570.4 L403.7,568.7 L402.8,567.8 L402.1,567.7 L401.5,566.8 L401.3,565.7 L400.9,565.6 L400.1,565.7 L399.7,565.9 L399.1,566.2 L398.8,566.5 L398.6,566.9 L398.8,568.7 L399.1,569.5 L399.4,569.6 L399.2,570.2 L398.5,571 L398,570.5 L397.7,569.9 L397,570.1 L396.8,570.2 L396.1,569.9 L395.8,569.5 L395.6,568.9 L395.8,568.1 L395.8,567.8 L394.7,566.9 L394.3,566.6 L393.8,566.2 L393.4,564.7 L393.5,563.9 L393.8,563.5 L394.1,563.3 L394.6,562.6 L394.7,561.8 L394.4,560.9 L394,560.2 L393.8,559.9 L393.1,559 L392.6,558.5 L392.3,558.4 L392,558.1 L390.1,557 L388.3,555.1 L387.4,554.6 L386.8,554.6 L386.5,554.6 L386,554.5 L385.9,553.7 L386,552.8 L386.3,553 L386.8,552.8 L387.1,552.7 L387.8,551.6 L388.1,551 L388.6,549.5 L388.6,548.9 L388.6,547.9 L389.3,548 L389.8,548.2 L390.5,548.5 L391.4,548.5 L391.9,548.3 L392.3,548 L392.8,547.1 L392.8,546.7 L392.9,546.2 L393.2,545.6 L394.1,545 L395.5,544.9 L396.4,545.3 L396.7,545.6 L398.5,546.5 L399.1,546.8 L401.2,547 L402.2,547.1 L403.3,547.3 L404.9,547.6 L405.8,548 L406.4,548.5 L407,548.9 L407.9,549.4 L408.5,549.2 L409,549.1 L409.3,548.5 L408.8,548.2 L408.1,547.9 L407.6,547.9 L407.8,547.6 L408.7,546.8 L409.3,547 L409.6,547.1 L409.9,547 L410.5,547 L410.8,546.8 L411.4,546.5 L411.8,545.9 L411.8,545.2 L410.3,544.4 L409.1,544.6 L408.4,544.7 L408.2,544.9 L408.2,545.2 L407.9,545.2 L406.7,544.7 L406,544.7 L404.6,543.5 L403.4,543.7 L402.7,543.5 L402.2,543.1 L401.5,542.3 L400.9,542.2 L400.6,543.1 L400.9,543.7 L400.7,544 L398.5,544.3 L398,544.3 L397.4,544 L396.4,543.7 L395.5,543.7 L395.2,543.7 L392.3,545 L391.7,545 L391.4,545.2 L390.8,545.3 L390.2,545.9 L389.2,545.3 L387.7,544.4 L387.5,545.2 L386.8,546.1 L386.5,546.4 L385.6,547 L384.7,546.1 L384.8,545.8 L385,545.5 L384.5,544.9 L384.5,544.7 L384.1,543.8 L382.4,541.3 L381.2,540.4 L380,540.1 L379.6,540.2 L379,539.5 L379,537.8 L379.3,537.4 L381.7,536.9 L382.4,537.1 L382.4,537.4 L382.7,537.7 L383.2,538 L383.8,536.8 L383.9,535.9 L383.6,535.4 L383,534.8 L382.7,534.8 L382.7,534.8 Z M421.6,539.8 L421.6,539.6 L420.8,539.3 L420.5,539.6 L420.1,539.8 L419.6,539.9 L418.4,540.1 L418,540.1 L416.8,539.9 L416.3,539.9 L415.9,539.2 L416,538.4 L415.7,538 L415.3,537.5 L413.8,536.8 L411.5,535.4 L409.6,534.2 L409,534.1 L408.7,534.1 L408.4,534.4 L405.1,535 L405.1,534.5 L406.1,533.8 L407.9,532 L408.2,531.5 L410,530.8 L410.3,530.6 L411.2,531.1 L412.6,533 L412.9,533.3 L413.6,533.9 L414.7,534.4 L416.9,535 L418.1,535.1 L419.5,535.3 L420.1,535 L422,535.1 L422.2,536.2 L423.2,539 L424.6,541.7 L425.2,542 L425.8,542.5 L427,542.5 L427.4,542.5 L428.6,542.2 L429.2,543.4 L429.2,543.8 L429.2,544.4 L429.2,544.7 L428.6,545.3 L428.2,545.3 L427,545 L425.9,544.3 L424.1,542.8 L423.2,542 L422.6,541 L421.6,539.8 L421.6,539.8 Z M447.7,518.5 L447.4,518.9 L447.4,519.2 L447.4,519.5 L447.8,519.7 L448.7,520 L449.6,520.9 L451,522.4 L451,522.5 L451.1,522.8 L451.1,523 L450.2,523.9 L449.3,524.2 L448.6,524.2 L447.7,524.3 L445.9,524 L445.3,523.9 L444.5,523.4 L444.7,523.1 L445.4,522.7 L446.5,521.6 L446.6,521.3 L446.6,521.2 L446.2,520.9 L445.9,520.9 L445.4,521 L445.1,521.2 L445,521.3 L445,521.6 L445,521.9 L444.7,522.7 L444.4,523.1 L444.2,523.3 L443.9,523.3 L443.2,523.1 L441.8,522.8 L441.5,522.7 L441.1,522.4 L441.1,521.2 L441.2,520.7 L441.5,520.4 L441.8,520.3 L441.8,520.6 L442.1,520.6 L442.6,520.4 L444.7,519.1 L444.5,518.8 L444.4,518.5 L444.5,518.3 L445.1,518 L446.3,517.9 L447.4,518.3 L447.7,518.5 L447.7,518.5 Z M480.7,559.3 L480.7,559.1 L481,559.3 L481,559.4 L481,560.8 L480.8,561.5 L480.7,563.2 L480.5,563.6 L480.1,565 L479.5,565.7 L478.9,566.3 L478.9,566.5 L478.7,566.8 L478.4,567.4 L478.4,567.7 L478.4,567.8 L478.1,568.4 L478,568.7 L477.5,569.2 L477.2,569.3 L477.1,569.3 L476.5,569.2 L476.3,568.9 L476.3,568.6 L476.3,568.1 L475.9,566 L475.4,565.1 L476,563.6 L476.2,563.3 L476.8,562.3 L477.1,562 L477.2,561.8 L479,560.3 L479.5,560 L480.7,559.3 L480.7,559.3 Z M377.8,545.3 L378.4,546.4 L379.6,548.2 L381.5,550.6 L381.4,551.5 L380.8,551.6 L378.4,551.5 L377.8,551.3 L376,550.7 L375.5,550.4 L375.4,550 L375.5,549.5 L375.8,547.9 L376.4,547.7 L376.9,548 L377.2,547.7 L377.3,547.6 L377.6,547.3 L377.6,547.1 L377.6,546.5 L377.5,546.2 L377.3,545.9 L377.3,545.3 L377.6,545.2 L377.8,545.3 L377.8,545.3 Z M446.8,538.4 L446.5,538.4 L446.2,538.3 L445.4,538 L444.5,537.4 L444.5,537.2 L444.5,536.9 L445,536.5 L445.1,536.3 L445.3,536.2 L445.9,535.4 L445.6,534.7 L444.8,533.6 L444.4,533.6 L444.1,533.5 L443.6,533.3 L443.6,533.2 L443.5,533 L443,532.6 L443.2,532.1 L443.3,532 L443.5,531.8 L443.6,531.7 L445.1,531.2 L446.9,531.4 L447.1,531.5 L447.2,531.7 L447.4,533.6 L447.4,533.9 L447.7,534.7 L448,535.1 L448.1,535.6 L447.5,536.6 L446.9,537.7 L446.8,538 L446.8,538.4 L446.8,538.4 Z M365.9,524.5 L366.8,524.8 L367.1,524.9 L367.1,525.2 L367.1,525.5 L367,525.8 L366.8,526 L366.4,526.1 L365.9,526.4 L365.9,526.9 L366.1,527.3 L367.1,527.6 L367.6,530 L368.6,530.5 L368.8,530.5 L369.1,530.3 L369.2,530.2 L369.4,530 L370.1,531.4 L370,531.5 L369.5,531.5 L367,530.5 L366.5,529.9 L366.4,529.4 L366.4,529 L366.2,528.8 L365.9,528.4 L365.8,528.2 L364.9,527.8 L364,527 L363.4,526 L363.4,525.8 L363.4,525.5 L363.7,525.2 L364,525.1 L365.2,525.1 L365.3,524.9 L365.9,524.5 L365.9,524.5 Z M433.4,510.1 L433.1,511 L432.8,511.9 L432.7,512.3 L432.8,512.8 L433,513.1 L433.1,513.1 L433.3,513.4 L433.1,513.8 L433,513.8 L432.7,513.7 L432.4,513.7 L431.8,512.6 L431.9,512.2 L431.6,512 L431.3,512 L431,512.5 L430.9,513.2 L431.2,513.5 L431.5,513.8 L430.9,514 L429.4,513.5 L429.2,513.4 L428.8,511.7 L428.8,511.3 L429.8,510.8 L430.9,510.7 L431.5,510.7 L432.7,510.2 L433.6,509.6 L433.6,509.9 L433.4,510.1 L433.4,510.1 Z M458.6,544.4 L457.6,543.7 L457,543.5 L456.7,543.7 L456.2,544 L455.9,544.1 L455.9,544.3 L455.6,544.4 L455.5,544.3 L455.2,543.5 L455.5,543.1 L456.2,542.3 L456.8,541.9 L457.1,541.9 L460.3,541.6 L460.7,541.7 L461.5,542.3 L461.5,542.6 L461.2,542.8 L459.5,543.7 L458.6,544.4 L458.6,544.4 Z M382.9,558.1 L382.6,558.1 L381.2,557 L381.1,557 L379.9,555.8 L379.7,555.2 L379.7,555.1 L379.7,554.8 L379.9,554.3 L380.3,554 L380.6,553.7 L382,554.9 L382.9,555.1 L383.2,555.2 L383.3,555.4 L384.8,556.6 L384.8,556.7 L384.8,557 L384.1,556.7 L383.8,556.6 L383.5,556.6 L383.2,556.7 L382.9,557.5 L382.9,558.1 L382.9,558.1 Z M443.8,559.6 L443.6,559.6 L441.8,557.3 L442,557.2 L443.6,555.1 L444.1,554.9 L444.4,555.1 L444.5,555.2 L444.7,555.4 L445,555.7 L445,556 L445,556.1 L445.1,557 L445.1,557.2 L445.1,557.6 L445,558.7 L444.2,559.3 L443.9,559.6 L443.8,559.6 L443.8,559.6 Z M435.1,548.6 L434.9,548.5 L434.5,548.2 L433.7,547.4 L433,546.8 L432.1,546.1 L431.9,545.9 L431.6,545.9 L431.5,546.2 L431,545.3 L430.9,544.9 L430.9,544.7 L431,544.6 L431.3,544.3 L431.8,544 L431.9,544 L434.5,545.6 L435.4,547.3 L435.2,547.7 L435.1,548.6 L435.1,548.6 Z M422,502.9 L422,502.7 L421.4,502.3 L421.3,502.3 L421,502.1 L420.5,502.3 L420.2,502 L420.2,501.7 L420.2,501.1 L420.2,500.8 L420.4,500.6 L420.5,500 L420.8,499.6 L421.1,499.3 L421.3,499.1 L421.4,499.1 L422,499.3 L422.5,499.4 L422.9,499.7 L422.9,499.9 L423.4,501.5 L423.4,501.8 L422.3,502.6 L422,502.9 L422,502.9 Z M378.5,539 L378.7,539.2 L379,539.5 L379.3,542.5 L378.4,543.4 L377.2,543.7 L377,543.4 L377,541.7 L377.3,540.2 L377.8,539.3 L377.9,539.2 L378.5,539 L378.5,539 Z M470.8,579.1 L470.5,578.6 L469.1,576.1 L469.1,575.9 L469.6,574.9 L469.9,573.8 L469.7,573.5 L469.7,573.1 L469.6,572.6 L470.2,572 L470.3,572 L470.5,572.2 L470.6,573.7 L470.5,575.8 L471.2,577.6 L470.8,578.2 L470.8,579.1 L470.8,579.1 Z M448.6,548.8 L448.4,548.8 L448.4,548.5 L448.4,548.2 L449,546.8 L449.2,546.5 L449.3,546.5 L452.2,545.2 L452.6,544.9 L452.6,545.2 L452.5,545.8 L452.2,546.2 L451.9,546.7 L451.3,547.3 L449,548.6 L448.6,548.8 L448.6,548.8 Z M413.3,574.3 L413.6,574.6 L413.9,575 L414.2,575.3 L414.4,575.3 L415.4,575.9 L415.7,576.1 L415.7,576.2 L415.3,577.7 L415.1,578 L414.5,578 L414.4,577.9 L413.6,577.6 L413.5,577.4 L413.3,577.3 L413.2,576.8 L412.7,575.3 L413,574.3 L413.3,574.3 L413.3,574.3 Z M464,559.3 L463.9,559.3 L463.7,559.3 L463.3,558.8 L463,558.1 L464.6,556.4 L465.5,555.5 L465.8,555.4 L467.2,554.8 L467.9,554.9 L468.2,555.2 L468.1,555.4 L467.9,555.5 L467.6,555.7 L467.3,555.8 L466.9,556.1 L466.6,556.3 L464.5,557.6 L464,558.1 L463.7,558.2 L463.9,558.8 L463.9,559.1 L464,559.3 L464,559.3 Z M426.8,532.3 L426.5,532.1 L426.4,532 L425,530.6 L424.9,530.3 L424.7,529.4 L424.9,529.3 L425,529 L425.3,529 L426.4,529.6 L427.9,530.9 L428,531.4 L428.2,531.7 L427.9,532 L427.7,532 L427.4,532 L427.3,532 L427.1,531.7 L426.8,532 L426.8,532.3 L426.8,532.3 Z M436.3,548.5 L436.7,548.8 L437.5,548.8 L438.1,548.6 L438.5,548.8 L438.8,548.9 L439,548.9 L439.1,549.4 L439,550.3 L438.7,550.4 L438.5,550.6 L438.2,550.4 L437.5,550.3 L435.7,549.2 L435.4,548.9 L435.4,548.8 L435.7,548.6 L436.1,548.5 L436.3,548.5 L436.3,548.5 Z M440.3,559.4 L439.9,559.4 L439.7,559.3 L439.3,559.3 L439.1,559 L439,558.7 L439,558.2 L439.1,557.6 L439.3,557.3 L439.4,557 L440.2,556.6 L440.8,556.6 L440.9,556.7 L441.1,557.9 L441.1,558.1 L440.9,558.7 L440.3,559.4 L440.3,559.4 Z M430.3,566.8 L430.3,566.6 L430.1,566.5 L430.1,565.3 L430.3,565.1 L432.2,564.4 L432.5,564.4 L432.8,564.4 L433,565.4 L432.8,565.7 L432.1,566.2 L431.3,566.3 L430.3,566.8 L430.3,566.8 Z M434.5,501.7 L434.9,502 L435.1,502.6 L434.8,502.9 L434.2,503.3 L433.6,503.3 L433,503.2 L432.7,503 L432.2,502.7 L431.9,502.4 L432.5,502 L432.8,501.7 L433,501.7 L433.1,501.5 L433.4,501.5 L434.5,501.7 L434.5,501.7 Z M457.9,562.3 L457.1,562.6 L456.7,563.6 L456.5,563.8 L456.2,563.9 L456.1,563.8 L455.8,563.6 L455.5,563.2 L455.3,562.6 L456.7,561.5 L457,561.5 L457.7,562 L458,562.3 L457.9,562.3 L457.9,562.3 Z M463.1,555.4 L462.8,555.4 L462.7,555.4 L462.4,555.1 L461.5,553.1 L462.5,553.3 L462.8,553.4 L463.9,554 L464,554.8 L463.1,555.4 L463.1,555.4 Z M427.1,552.8 L427,552.8 L426.7,551.8 L426.7,551.5 L426.7,551 L426.8,550.6 L427.1,550.3 L427.4,550.1 L427.6,550.1 L428,550.1 L428.3,550.4 L428.2,551 L428,551.5 L427.9,551.6 L427.4,552.5 L427.3,552.7 L427.1,552.8 L427.1,552.8 Z M380,547.6 L379.9,547.6 L379.7,547.4 L379.3,547 L378.8,546.2 L378.2,545.2 L378.7,544.6 L379,544.7 L379.4,545.5 L380.2,546.5 L380.5,547.3 L380.2,547.6 L380,547.6 L380,547.6 Z M443.5,564.2 L443.2,564.1 L442,563.2 L441.8,562.6 L442,562.3 L442.3,562 L442.7,562.1 L443.9,562.9 L443.8,563.9 L443.5,564.2 L443.5,564.2 Z M415.7,547 L415.9,547 L416,547 L416.3,547.1 L416.5,548 L416.5,548.2 L415.6,549.1 L415.4,549.1 L414.8,548.9 L414.8,548.6 L414.8,548.3 L415,547.3 L415.6,547 L415.7,547 L415.7,547 Z M429.2,553.3 L429.2,553.7 L429.4,553.9 L429.7,553.9 L430,554.2 L430,554.3 L429.7,555.2 L429.4,555.7 L429.2,555.8 L428.9,556.1 L428.8,556 L428.5,554.2 L428.6,553.6 L428.8,553.4 L429.2,553.1 L429.2,553.3 L429.2,553.3 Z M415.4,529.1 L415.3,529.1 L414.5,529 L413.5,527.3 L413.6,527.3 L416,528.2 L415.9,528.7 L415.7,529 L415.6,529.1 L415.4,529.1 L415.4,529.1 Z M426.1,591.1 L424.9,591.1 L423.8,590.3 L423.7,586.4 L423.8,585.8 L423.8,585.4 L424,585.1 L424.1,585.7 L424.4,586.4 L425,586.7 L425.8,586.4 L425.8,585.8 L425.8,585.4 L425.3,584.9 L425.2,584.2 L425.5,583.6 L426.1,583.9 L426.1,584.6 L426.4,585.4 L426.5,585.7 L427.4,585.8 L429.1,585.7 L429.4,585.7 L430,585.4 L430.3,584.9 L430.3,584.5 L430.7,584 L431.5,584 L432.1,584.8 L431.9,585.2 L431.6,585.5 L431.2,585.5 L430.9,585.8 L431.9,586.3 L433.4,587.3 L434.2,587.5 L434.6,587.3 L436,586.9 L436.3,586.9 L437.6,586.3 L437.9,586 L440,585.4 L442.4,584.9 L443.5,585.2 L443.8,585.7 L445.7,585.5 L446.8,585.2 L447.1,585.2 L448,585.1 L448.4,585.4 L448.9,585.5 L449.2,585.5 L449.6,585.2 L450.5,584.8 L451.1,584.3 L451.7,584.2 L453.1,584 L452.8,584.6 L452.8,585.2 L453.1,585.1 L453.1,585.7 L452.8,586 L452.9,586.7 L453.1,586.9 L453.2,587.2 L453.7,587.3 L454,587.5 L454.4,587.3 L455,586.6 L455.3,586.1 L457,584.9 L457.7,584.9 L458,585.1 L459.2,584.2 L460.3,583.3 L460.6,585.7 L460.6,586.4 L460.3,587.3 L459.8,587.6 L459.1,588.2 L458.6,588.2 L457,588.1 L451.9,589.6 L451.4,589.9 L450.8,590.3 L448.6,590.6 L446.8,591.5 L444.5,592.4 L443.3,592.6 L442,592.7 L441.1,592.9 L440.9,591.7 L440.8,591.4 L440.5,590.8 L440.2,590.6 L439.7,590.6 L439.1,590.8 L438.4,590.8 L438.1,590.9 L437.8,590.6 L437.5,590.3 L435.5,589.9 L433,590.2 L432.2,590.3 L431.6,590.5 L431.2,590.6 L430.9,590.8 L429.5,590.5 L428.8,590.5 L427.9,590.3 L426.2,590.9 L426.1,591.1 L426.1,591.1 Z M426.1,591.1" id="gr" stroke="#FFFFFF" fill="#DCDCDC"></path>
    </g>
</svg>