<?xml version="1.0" encoding="UTF-8" standalone="no"?>
<svg width="612px" height="612px" viewBox="0 0 612 612" version="1.1" xmlns="http://www.w3.org/2000/svg" xmlns:xlink="http://www.w3.org/1999/xlink" xmlns:sketch="http://www.bohemiancoding.com/sketch/ns">
    <title>al</title>
    <description>Created with Sketch (http://www.bohemiancoding.com/sketch)</description>
    <defs></defs>
    <g id="Page 1" stroke="none" stroke-width="1" fill="none" fill-rule="evenodd">
        <path d="M332.8,476.2 L332,476.2 L331.6,475.7 L331.4,475.6 L331.3,475.1 L331.1,475 L329.5,473.6 L328.6,473.2 L328.3,473 L327.7,472.9 L327.1,472.6 L326.3,472 L326,471.4 L324.7,470 L323.9,469.4 L323.6,469.4 L323.5,469.4 L323.2,469.4 L322.6,469.4 L322.3,469.4 L321.1,469 L320.8,469 L319.3,468.1 L319,467.6 L318.5,467.5 L317.6,467.5 L317.2,467.6 L315.8,468.4 L315.5,468.7 L314.8,469 L314,469 L313.4,468.7 L312.5,467.6 L312.5,466.6 L313,466.6 L312.7,465.7 L310.7,464.6 L309.7,464.3 L308.5,463.3 L307.7,462.7 L307.6,462.5 L307.3,462.2 L306.8,462.1 L306.2,461.5 L304.6,459.8 L304,459.1 L302.9,457.9 L302.5,456.7 L302.8,456.4 L303.5,456.8 L304.6,456.8 L304.3,455.9 L304.9,455.9 L305,456.2 L305.6,456.4 L305.9,456.5 L307.1,456.4 L307,456.2 L306.7,456.2 L306.2,456.1 L304.1,454.9 L303.1,453.8 L302.6,453.2 L302,452.5 L301,451.7 L300.7,451.6 L300.5,451.3 L299.9,450.4 L299.5,449.8 L299.5,449.3 L299.2,447.8 L299.2,447.1 L299.3,446.5 L299.5,446.2 L299.5,445.1 L298.4,442.7 L298,442.7 L297.5,442.4 L297.1,442.3 L296.5,441.8 L295.4,440.6 L294.2,439.7 L293.9,439.6 L292.4,439.1 L292.1,439.7 L291.8,441.2 L291.8,441.8 L291.7,442.3 L291.7,442.7 L291.5,443 L290.9,443.8 L290.9,444.5 L291.1,445.3 L290.8,445.7 L290.2,445.9 L289.1,447.1 L289,447.8 L289,448.1 L289.3,448.3 L289.3,448.4 L288.2,449 L287.2,447.7 L287.5,447.4 L286.4,445.7 L285.5,444.5 L284.6,442.9 L284.3,441.2 L284.2,440.5 L283.6,438.8 L283.1,437.2 L283.7,437.2 L284.2,437.5 L284.3,437.6 L284.8,437.9 L285.1,437.9 L285.4,437.9 L287.8,437.8 L288.2,437.6 L288.7,437.5 L290.3,437.2 L293,436.9 L293.3,436.7 L294.2,435.8 L294.5,434.6 L294.8,433.7 L295.3,433.7 L295.4,434.3 L295.6,434.6 L296.8,436 L298,436.9 L298.4,436.9 L298.9,436.6 L299.6,436.3 L300.8,436.6 L301.7,437.3 L301.9,437.3 L302.9,436.6 L303.2,435.4 L303.1,434.5 L303.1,433.9 L303.5,433.4 L303.5,432.4 L302.8,432.7 L302.8,432.1 L303.1,431.8 L303.2,431.5 L305,430.3 L306.2,430 L306.4,430.1 L306.7,430.3 L307.1,430 L307.4,428.3 L307.1,426.4 L306.5,426.2 L306.2,425.9 L305.8,425.5 L305.8,425 L305.8,424.6 L306.2,423.7 L306.5,423.5 L307.7,423.4 L310.1,422.2 L310.7,421.4 L310.7,421.1 L310.6,420.7 L311.3,420.2 L312.7,419.9 L312.4,418.6 L312.5,418.3 L312.8,418 L313.3,417.8 L313.7,417.8 L314.6,418 L315.1,418.3 L315.4,418.4 L315.8,418.6 L316.1,418.6 L316.3,418.6 L316.6,418.6 L316.9,418.7 L318.5,419.8 L319,420.1 L319.4,420.5 L319.6,421.1 L319.7,421.6 L320,421.9 L320.2,422 L320.6,422.3 L321.4,422.5 L322.7,422.9 L323,423.4 L323.8,424.4 L324.1,425 L324.1,425.5 L324.8,426.2 L325.3,426.5 L325.7,426.8 L326.2,426.7 L326.5,426.4 L327.8,426.5 L328.3,427.1 L328.6,427.4 L328.7,427.9 L328.9,428.2 L331.4,428.8 L332.8,428.6 L334.4,428.5 L334.9,428.5 L335.2,428.5 L335.5,428.6 L336.4,428.8 L337.3,428.8 L337.6,428.6 L338.8,427.7 L339.2,427.3 L339.4,426.8 L340.4,425.6 L341,425.9 L341.3,425.8 L341.5,425.5 L341.6,426.1 L342.4,426.8 L342.7,427 L343.3,427.6 L343.6,429.5 L343.3,430.1 L343,430.3 L343,431 L343.4,431.5 L343.6,431.6 L343.9,431.5 L344.2,431.2 L345.4,431.8 L345.4,432.1 L344.9,432.2 L344.5,432.2 L344.3,432.4 L344.3,434.2 L346,435.4 L346.3,435.5 L346.9,435.7 L347.6,436 L347.9,436 L348.4,436.1 L348.7,436.1 L349.1,436 L349.3,436 L349.6,436.3 L349.6,436.9 L348.8,437 L347.6,437 L347.2,436.7 L346.9,436.6 L346.7,436.7 L346.3,438.7 L346.4,439.7 L345.8,441.5 L345.5,442 L345.8,442.4 L346,442.7 L345.8,442.7 L345.1,442.9 L343.7,442.9 L343.1,442.4 L342.8,442.1 L342.8,441.7 L343.1,441.7 L343,440.8 L341,439.6 L338.5,439.4 L336.7,439.1 L336.2,439.3 L336.2,439.7 L336.2,440 L335.8,440.2 L335.2,440.2 L334.6,439.9 L333.2,440.5 L332.9,440.6 L332.3,441.1 L332,440.9 L331.1,440.5 L330.4,440 L329.3,440.3 L328.4,440.5 L328.1,440.3 L325.7,439.6 L325.3,440 L324.7,440.2 L323.3,439.6 L323,439.3 L321.5,438.5 L320.8,439.7 L320.5,439.9 L319,439.7 L318.8,439.6 L318.4,439.4 L317.9,439.4 L317.3,439.6 L317,439.7 L316.7,440.2 L316.1,441.4 L315.7,442.7 L315.5,443.3 L314.9,443.5 L314.5,443.3 L314,443 L313.7,442.9 L312.7,441.5 L311.6,440.2 L310.6,440 L310,440.2 L309.4,440.5 L309.2,440.8 L309.1,441.1 L308.9,442.7 L308.9,443 L309.1,445.3 L308.9,447.1 L309.2,447.7 L310.4,448.7 L311.3,448.7 L311.6,448.9 L312.2,450.1 L312.5,450.8 L313.1,451.4 L313.6,451.9 L313.7,452 L314.8,454.3 L314.8,455 L314.3,457 L314.6,457 L315.1,457 L315.4,456.8 L315.8,457.1 L316.3,457.6 L316.4,458 L316.7,458.6 L317.8,459.4 L318.2,459.5 L318.7,459.5 L319,459.7 L320.5,461.2 L321.1,462.1 L321.2,462.5 L322.9,464.2 L324.2,465.7 L324.5,466 L324.7,466.3 L325.7,467 L325.9,467.2 L326.3,467.5 L326.9,467.6 L327.7,467.8 L328.1,468.1 L328.3,468.2 L328.3,468.7 L328.6,470.2 L328.7,470.6 L329,471.1 L330.7,472.6 L332.3,473.5 L332.6,473.6 L333.2,474.1 L333.4,474.5 L333.7,474.8 L333.8,475.7 L332.8,476.2 L332.8,476.2 Z M333.7,477.1 L334,476.5 L334.3,476.3 L334.7,476.5 L335.3,476.6 L335.9,477.4 L336.4,478 L337.4,478.6 L337.9,478.7 L340,479.6 L340.9,480.4 L341.5,480.8 L341.8,480.7 L342.2,480.5 L342.4,480.5 L343,480.7 L343.6,481.4 L343.7,482.2 L343.7,482.6 L344,482.9 L344.3,483.2 L344.5,483.2 L344.6,483.5 L344.6,484.1 L342.5,482.6 L340.7,481.4 L338.8,480.2 L336.5,478.9 L334.9,478.4 L332.6,478 L331.3,477.5 L330.2,476.9 L328.3,476 L328,476.2 L327.7,476.2 L326.8,476.2 L326,475.9 L325.9,475.1 L329,475.4 L329.3,475.6 L331.1,476.2 L332.2,476.8 L333.7,477.2 L333.7,477.1 L333.7,477.1 Z M297.5,445.7 L297.4,445.7 L297.1,445.6 L296.3,445.4 L294.5,444.4 L294.4,444.1 L293.9,443.8 L293.9,443.5 L295,440.9 L295.1,440.8 L295.6,440.9 L296.5,442.7 L296.9,443.6 L298,444.5 L298.3,444.8 L298.3,445 L298.3,445.3 L297.7,445.7 L297.5,445.7 L297.5,445.7 Z M295,451.4 L294.5,451.1 L293.8,450.1 L293,447.5 L293,446.5 L293.3,446.5 L293.6,446.5 L293.6,445.7 L293,444.2 L292.9,444.1 L292.7,443.9 L292.6,443.8 L292.1,443.3 L292.1,443 L292.4,442.3 L292.6,442.1 L293,442.3 L293.2,442.6 L293,442.7 L293,443 L293,443.3 L293.3,444.1 L293.8,444.8 L293.9,445.1 L293.9,445.3 L294.5,447.8 L294.7,449.3 L295.1,450.4 L295.4,451 L295.3,451.3 L295.1,451.4 L295,451.4 L295,451.4 Z M321.8,472 L321.2,472 L320.6,472 L319.9,471.8 L319.6,471.8 L318.7,471.4 L318.5,471.2 L318.7,470 L320.6,470.2 L321.8,470.2 L322.4,470.2 L322.7,470.2 L323.2,470.3 L324.1,470.8 L324.1,471.2 L323.8,471.7 L323.5,471.7 L323,471.7 L322.1,471.8 L321.8,472 L321.8,472 Z M297.8,449.8 L299.3,451.1 L299.8,451.1 L300.1,451.3 L300.4,451.6 L301.4,452.5 L301.7,453.2 L301.6,453.2 L301,452.6 L300.7,452.6 L301,453.1 L301.4,453.4 L301.4,453.2 L301.6,453.2 L301.9,453.5 L302.3,453.8 L303.8,455.2 L304,455.5 L303.7,455.9 L303.1,456.2 L302.8,456.1 L302.6,455.9 L302.3,455.8 L302.3,455.6 L301.3,454.1 L301.1,453.8 L299.9,452.9 L297.8,450.2 L297.7,449.9 L297.7,449.8 L297.8,449.8 L297.8,449.8 Z M326.3,474.1 L324.4,474.1 L321.8,474.4 L321.7,474.4 L320.3,474.1 L319.4,473.9 L319,473.8 L318.4,473.3 L319.3,473 L319.4,473 L320.5,472.9 L321.1,472.9 L321.7,473 L323.5,473.5 L325.3,473.5 L327.1,473.6 L326.9,473.9 L326.3,474.1 L326.3,474.1 Z M324.5,477.8 L324.1,477.7 L322.7,477.5 L322.1,477.5 L321.7,476.6 L321.8,476.6 L322.3,476.5 L322.7,476.5 L322.9,476.6 L323,476.6 L323.3,476.8 L323.9,476.8 L324.4,476.8 L324.5,476.8 L324.7,476.8 L325,476.6 L325.3,476.5 L325.6,476.3 L326.2,476.3 L326.5,476.3 L327.5,476.5 L328.1,477.1 L327.5,477.2 L325.3,477.5 L324.5,477.8 L324.5,477.8 Z M335,480.2 L334.9,480.1 L334.6,480.1 L334.4,480.1 L333.8,479.9 L333.5,479.9 L332.8,479.8 L330.7,479.6 L330.4,479.5 L330.1,479.3 L329.9,479 L330.4,478.9 L330.7,478.9 L330.8,478.9 L334.1,479.6 L334.9,479.9 L335,480.1 L335,480.2 L335,480.2 Z M303.8,463.1 L303.7,463.1 L303.4,463 L303.2,462.8 L302.8,462.4 L302.6,462.4 L302.3,461.9 L302.2,461.6 L302,461.3 L301.9,461.2 L301.7,461 L301.3,460.3 L301.1,460.1 L300.4,459.4 L299.9,459.1 L299.9,458.9 L299.8,458.6 L299.6,458.5 L301.3,459.8 L301.9,460.7 L302,460.9 L302.5,461.3 L303.2,461.9 L304.1,462.5 L304.1,462.7 L304.1,462.8 L303.8,463.1 L303.8,463.1 Z M315.4,476.8 L314.9,476.8 L314.8,475.9 L314.9,475.7 L315.1,475.6 L315.4,475.6 L315.5,475.4 L315.8,475.4 L316.3,475.4 L316.9,475.4 L317,475.7 L316.6,476.3 L315.4,476.8 L315.4,476.8 Z M295.4,453.7 L293.6,451.9 L293.3,450.8 L293.2,449.9 L293.8,450.1 L293.8,450.2 L293.9,450.4 L293.9,450.7 L293.9,451.3 L294.1,451.6 L294.2,451.7 L294.4,451.9 L295,452.6 L295.1,452.8 L295.3,452.9 L295.4,453.1 L295.6,453.4 L295.6,453.7 L295.4,453.7 L295.4,453.7 Z M295.4,453.7" id="hr" stroke="#FFFFFF" fill="#DCDCDC"></path>
    </g>
</svg>