<?xml version="1.0" encoding="UTF-8" standalone="no"?>
<svg width="612px" height="612px" viewBox="0 0 612 612" version="1.1" xmlns="http://www.w3.org/2000/svg" xmlns:xlink="http://www.w3.org/1999/xlink" xmlns:sketch="http://www.bohemiancoding.com/sketch/ns">
    <title>al</title>
    <description>Created with Sketch (http://www.bohemiancoding.com/sketch)</description>
    <defs></defs>
    <g id="Page 1" stroke="none" stroke-width="1" fill="none" fill-rule="evenodd">
        <path d="M368.8,408.8 L368.5,408.8 L367.3,410.2 L367.1,410.6 L367.1,411.7 L367.1,412.9 L366.5,413.8 L366.4,414.1 L366.4,414.5 L366.4,415.3 L366.4,415.7 L365.5,416.8 L365.2,416.9 L364.4,416.8 L363.1,416.6 L362.8,416.6 L362.6,416.6 L362.3,416.9 L362.2,416.9 L361.9,417.4 L361.7,418.3 L361.7,418.4 L361.7,418.6 L361.4,419 L360.7,419.3 L360.2,419 L360.1,418.9 L359.6,418.9 L359.2,418.7 L357.5,419.3 L356.9,419.8 L356.8,420.2 L356.8,420.1 L356.2,419.6 L355.1,419.5 L353.5,419.6 L352.3,420.2 L351.1,420.1 L350.6,419.9 L350.2,419.9 L349.1,420.2 L348.5,420.8 L348.7,421.1 L348.2,422 L346.4,423.7 L344.9,423.8 L344.6,423.4 L344.2,423.4 L343.4,424.6 L341.9,425.5 L341.6,425.5 L341.5,425.5 L341.3,425.8 L341,425.9 L340.4,425.6 L339.4,426.8 L339.2,427.3 L338.8,427.7 L337.6,428.6 L337.3,428.8 L336.4,428.8 L335.5,428.6 L335.2,428.5 L334.9,428.5 L334.4,428.5 L332.8,428.6 L331.4,428.8 L328.9,428.2 L328.7,427.9 L328.6,427.4 L328.3,427.1 L327.8,426.5 L326.5,426.4 L326.2,426.7 L325.7,426.8 L325.3,426.5 L324.8,426.2 L324.1,425.5 L324.1,425 L323.8,424.4 L323,423.4 L322.7,422.9 L321.4,422.5 L320.6,422.3 L320.2,422 L320,421.9 L319.7,421.6 L319.6,421.1 L319.4,420.5 L319,420.1 L318.5,419.8 L316.9,418.7 L316.6,418.6 L316.3,418.6 L315.4,418.1 L313.9,415.7 L313.6,415 L313.4,414.7 L313.3,414.8 L312.8,414.2 L312.7,413.6 L312.8,413.3 L313,412.7 L312.4,412.3 L312.1,412.3 L311.6,412.3 L311.2,412.6 L310.7,412.6 L310.4,412.4 L310.6,412.3 L311.8,410.9 L311.9,410.3 L312.2,409.9 L312.7,409.9 L313.4,409.9 L313.7,409.9 L314.5,409.9 L314.3,408.1 L313.7,407.5 L313.3,406.6 L313.4,406 L313.7,405.7 L313.9,405.2 L313.4,403.9 L313.3,403.1 L313.6,403 L314.8,402.8 L315.4,402.2 L315.8,401 L315.8,400.7 L315.2,399.5 L314.9,399.2 L314.5,399.4 L313.4,399.2 L312.7,398.9 L312.8,398.3 L313.9,397.3 L314.5,397.1 L314.8,397.1 L315.7,397.6 L315.8,398 L316.3,398.3 L316.9,398.2 L317.8,398 L318.2,397.9 L319.3,397.6 L319.4,397.3 L319.3,396.5 L319.1,396.2 L319,395.3 L319.1,394.7 L319.4,393.1 L319.7,392.6 L320,392.3 L320.2,392.2 L320.8,392.2 L320.9,392.2 L321.1,392.3 L321.5,392.5 L321.8,392.5 L322.7,393.2 L323,393.8 L323.3,394.1 L323.6,394.3 L326.2,395.9 L326.9,396.2 L328.1,396.1 L328.3,395.9 L329,395.8 L330.1,395.6 L330.5,395.6 L331.3,395.8 L332.5,395.8 L332.8,395.6 L333.2,395.5 L333.7,395.3 L334,395.2 L334.9,395 L335.5,395 L335.9,395 L336.2,395 L336.4,394.9 L336.8,394.3 L337.1,394 L337.4,393.8 L338.2,393.8 L338.2,393.5 L337.7,393.2 L337.3,392.9 L337,392.3 L337,391.4 L337.4,390.2 L337.6,389.9 L338.2,389.8 L338.8,389.6 L339.1,389.5 L339.2,389.5 L339.7,389.3 L340.7,389.3 L341.5,389.3 L344.2,388.4 L344.3,387.7 L344.3,387.1 L344.5,386.3 L345.5,385.9 L345.7,385.9 L346.9,386 L347.2,386.2 L348.7,387.2 L349,387.1 L349.1,386.8 L349.6,386.3 L350,386.2 L350.3,385.9 L350.8,385.3 L351.7,384.4 L352.3,384.5 L352.6,384.4 L352.7,383.9 L353,383.6 L353.3,382.7 L353.3,382 L353.5,381.4 L353.6,381.1 L353.9,380.5 L353.9,380.2 L354.2,379.6 L355.4,379 L356,378.7 L357.1,378.5 L357.4,378.5 L357.7,378.8 L358.6,379.1 L359.9,379.1 L360.7,379.1 L361.7,378.7 L362.2,378.2 L363.5,377.5 L364.3,377.9 L365.6,378.7 L365.8,379.1 L367,380.8 L367.7,380.9 L368.2,380.8 L368.3,380.5 L369.2,380 L369.5,379.9 L370.1,379.7 L370.6,379.7 L370.9,379.7 L371.3,379.1 L371.5,379.1 L371.9,379 L372.5,379.1 L372.7,379.7 L373.7,381.1 L374.2,381.5 L374.9,381.4 L375.4,381.2 L376.3,382.1 L376.7,382.7 L376.9,383.2 L377.2,383.5 L377.3,383.5 L377.6,383.5 L378.2,383 L378.8,382.9 L379.4,383.3 L380,384.1 L379.9,384.8 L380.3,385.4 L379.4,387.5 L378.2,388.7 L378.1,388.9 L377.8,389 L377.3,389.2 L376.7,388.9 L376.4,388.7 L376.1,388.9 L374.9,389.8 L374.5,390.2 L374,391.1 L373.9,392 L373.9,392.5 L373.7,392.8 L373.1,392.9 L372.5,393.8 L372.2,394.3 L372.2,394.9 L372.5,395.3 L372.5,395.6 L372.5,396.2 L372.5,396.5 L372.1,396.7 L371.8,397 L371.3,398 L371.2,399.2 L371.3,399.7 L370.9,401.2 L370.4,401.6 L370.1,401.9 L369.7,402.8 L369.7,403 L370.1,403.1 L370,404 L369.7,405.4 L368.9,406.4 L368.6,407.6 L369.1,408.1 L368.8,408.8 L368.8,408.8 Z M368.8,408.8" id="hu" stroke="#FFFFFF" fill="#DCDCDC"></path>
    </g>
</svg>