<?xml version="1.0" encoding="UTF-8" standalone="no"?>
<svg width="612px" height="612px" viewBox="0 0 612 612" version="1.1" xmlns="http://www.w3.org/2000/svg" xmlns:xlink="http://www.w3.org/1999/xlink" xmlns:sketch="http://www.bohemiancoding.com/sketch/ns">
    <title>al</title>
    <description>Created with Sketch (http://www.bohemiancoding.com/sketch)</description>
    <defs></defs>
    <g id="Page 1" stroke="none" stroke-width="1" fill="none" fill-rule="evenodd">
        <path d="M66.08,287.2 L65.78,286.9 L66.38,287 L66.68,287.5 L67.12,285.4 L66.98,285.4 L66.22,285.1 L66.08,285.1 L65.62,285.2 L65.02,285.2 L64.58,285.1 L64.42,285.1 L63.68,284.9 L62.32,284.8 L62.02,284.8 L61.88,284.8 L60.82,284.3 L60.82,284.2 L60.82,284 L61.12,283.3 L61.42,283 L61.72,282.8 L61.88,282.1 L61.12,281.8 L60.98,281.8 L60.52,282.1 L60.38,282.4 L59.92,282.8 L59.48,283 L58.58,282.2 L58.88,281.8 L59.32,281.6 L59.48,281.6 L59.62,281.5 L59.92,281.3 L59.92,280.9 L59.78,280.9 L59.18,280.9 L58.72,281 L58.28,281.2 L57.82,281 L56.48,280.1 L56.78,277.9 L56.92,277.7 L58.58,277.3 L58.88,277.3 L60.08,277.6 L60.68,278 L60.82,278 L61.58,278.2 L60.98,278 L60.98,277.9 L60.68,277.9 L60.52,277.7 L60.22,277.3 L59.92,276.8 L59.92,276.1 L60.38,275 L60.52,275 L60.98,275 L62.48,275.2 L63.08,275.3 L63.22,275.5 L63.38,275.5 L63.68,275.3 L63.68,275.2 L63.52,275.2 L63.22,274.9 L63.38,274.6 L63.52,274.4 L63.68,274.4 L63.82,274.4 L63.98,274.3 L64.12,273.7 L62.92,273.4 L62.62,273.2 L62.32,273.2 L62.18,273.2 L62.02,273.4 L61.72,273.5 L61.42,273.5 L60.98,273.5 L60.82,273.5 L60.52,273.2 L61.28,271.9 L61.42,271.9 L61.72,272 L62.02,272.3 L62.02,272.6 L62.02,272.8 L62.18,272.8 L62.32,272.3 L62.02,271.7 L62.02,271.3 L61.42,270.1 L61.72,269.3 L61.88,269 L61.88,268.1 L61.42,267.4 L60.52,268.3 L60.52,268.7 L60.52,269.3 L60.22,269.3 L60.08,269.2 L59.92,269 L59.92,268.7 L60.68,266.9 L60.98,266.5 L61.28,266.3 L61.88,266 L62.78,266.9 L62.62,267.2 L62.48,267.4 L62.32,267.5 L62.02,267.5 L62.02,267.4 L61.88,267.2 L61.72,267.5 L61.88,267.5 L62.32,267.7 L62.48,267.8 L62.78,267.5 L63.08,266.9 L63.38,266.2 L63.52,266 L63.82,265.9 L64.28,266.2 L64.42,266.2 L65.62,266.8 L66.52,266.9 L67.88,267.4 L68.48,267.8 L68.92,268.3 L68.78,268.9 L69.08,270.1 L69.08,270.4 L69.08,270.1 L69.22,269.6 L70.28,268.6 L70.42,268.4 L70.58,268.6 L71.32,268.7 L71.48,268.9 L72.98,269.5 L74.02,269.9 L75.52,269.9 L75.22,269 L75.22,268.9 L74.78,268.6 L74.62,268.6 L74.32,268.7 L74.18,268.6 L74.02,268.4 L74.18,268.3 L74.18,268.1 L76.58,267.2 L76.88,267.1 L77.02,266.9 L77.32,267.1 L77.92,267.1 L78.38,266.3 L79.12,265.6 L79.42,265.4 L79.42,264.7 L77.62,264.4 L76.12,264.2 L75.82,264.2 L75.52,263.9 L75.08,263.8 L74.92,263.5 L74.48,263.2 L74.18,263 L74.32,262.3 L74.92,262 L75.68,261.5 L76.12,261.5 L77.02,261.5 L77.48,261.4 L78.68,261.1 L78.82,260.9 L79.28,260.5 L79.28,260 L79.12,259.9 L78.98,259.9 L78.82,260 L78.68,260.2 L78.38,259.9 L78.22,259.4 L78.22,259.1 L78.82,259.3 L78.98,259.3 L78.82,259 L78.68,258.7 L78.52,258.2 L80.18,256.6 L81.52,256.4 L83.02,256 L83.62,255.5 L83.78,256 L84.22,256.4 L84.52,256.1 L84.68,255.7 L85.28,255.5 L85.28,255.8 L84.98,256.1 L84.98,256.6 L85.28,256.6 L85.72,257 L85.72,257.3 L85.72,257.6 L85.58,257.9 L85.58,258.1 L86.02,257.5 L86.02,257 L86.02,256.1 L85.88,256.1 L85.72,256.4 L85.72,256.9 L85.58,256.7 L85.42,256.4 L85.28,256.3 L85.28,256 L85.58,255.8 L85.88,255.5 L86.18,255.4 L86.48,255.4 L86.62,255.2 L86.78,255.5 L87.22,258.1 L87.22,258.2 L87.08,258.5 L86.92,258.7 L86.78,258.7 L86.62,258.7 L86.32,259 L86.18,259 L85.88,259.3 L85.12,260.6 L85.42,260.5 L85.58,260.5 L86.02,260.2 L86.32,259.9 L86.48,259.7 L86.92,259.6 L87.08,259.6 L87.38,259.6 L87.52,259.4 L87.68,259.3 L87.82,258.1 L87.52,257.2 L87.52,257 L87.38,256.7 L87.38,256.4 L87.98,255.5 L89.02,255.5 L89.48,254.9 L89.32,254.2 L89.48,254.2 L90.52,254.9 L90.98,255.4 L92.02,256.6 L92.78,257.2 L92.92,257.3 L92.78,257.6 L92.62,257.8 L91.42,258.1 L90.68,258.4 L90.52,258.4 L90.22,258.5 L90.08,258.7 L89.48,259.4 L88.72,259.7 L87.68,261.1 L87.08,262.1 L86.78,262.6 L86.48,263 L85.58,263.9 L83.78,264.4 L83.02,263.8 L82.88,263.8 L81.98,264.1 L81.98,264.7 L82.12,264.8 L82.42,265.4 L83.02,265.7 L83.18,266.3 L82.28,266.8 L81.22,266.9 L80.18,267.1 L78.98,267.5 L78.98,268 L79.58,269.2 L79.58,269.3 L79.58,269.5 L79.72,269.6 L80.32,270.7 L80.62,270.8 L80.92,271.1 L80.78,271.6 L80.78,272 L80.78,272.2 L80.78,272.3 L81.08,272.6 L81.68,272.8 L82.12,272.8 L82.58,273.7 L82.58,273.8 L82.72,274 L83.02,274.3 L85.12,275 L85.28,275 L85.58,275 L87.22,273.5 L87.38,273.1 L87.22,272.5 L87.52,271.7 L88.72,270.7 L89.02,270.7 L89.32,271 L89.78,271.6 L90.08,272.2 L90.08,273.1 L90.68,275.2 L90.98,277.3 L91.12,277.7 L91.28,277.7 L91.42,277.7 L91.72,277.6 L92.92,277.7 L93.82,277.1 L93.98,277 L94.1,277 L94.4,277.3 L94.6,277.3 L94.7,277.4 L94.6,277.4 L94.9,277.9 L95.3,278.6 L95.5,278.8 L95.6,278.8 L95.8,279.5 L95.6,279.7 L95.3,279.7 L95.3,279.8 L95.2,279.7 L94.6,279.4 L94.1,278.9 L93.98,278.8 L93.82,278.8 L93.68,278.6 L93.52,278.8 L93.08,279.7 L92.92,280.3 L92.92,280.6 L93.08,280.7 L93.08,280.9 L93.22,281 L93.38,281.2 L93.68,281.3 L93.82,281.8 L93.82,282.7 L93.68,283.1 L93.52,283.7 L93.38,284.3 L93.38,284.5 L93.52,285.2 L93.98,286.1 L94.1,286.1 L94.3,286.3 L94.4,286.6 L94.4,287 L94.3,287.3 L93.22,289.4 L93.08,289.4 L92.32,289.9 L92.32,290 L92.62,290.6 L93.08,291.7 L93.22,294.2 L92.92,296.9 L92.02,298.1 L91.72,298.6 L91.58,298.7 L91.28,299 L91.12,299.3 L90.98,299.6 L90.98,300.1 L90.38,300.8 L90.08,301.3 L89.92,301.6 L89.78,301.7 L89.78,302 L89.92,302.2 L89.92,302.6 L89.78,302.9 L89.78,303.1 L89.62,303.2 L89.32,303.5 L89.18,303.8 L87.68,305.3 L86.62,305.5 L86.48,305.5 L86.32,305.8 L86.78,307.1 L87.08,307.3 L87.38,307.7 L87.52,308 L87.38,308.3 L86.92,308.9 L86.78,308.9 L86.62,308.9 L86.62,308.8 L86.02,308.5 L84.52,308.2 L83.02,307.4 L82.58,307.9 L82.42,308 L81.98,308.2 L81.82,308 L81.82,307.3 L81.38,306.1 L81.22,305.9 L81.22,306.1 L81.22,306.2 L81.38,306.7 L81.38,307 L81.08,307.7 L80.78,308.2 L80.32,308.2 L79.72,308.2 L79.28,307.7 L77.18,307.6 L76.58,307.4 L75.08,307.6 L74.62,308 L74.78,308.2 L75.08,308.3 L75.22,308.5 L74.62,309.4 L73.28,310 L73.12,310 L72.22,309.7 L72.22,309.5 L72.08,309.1 L71.92,309.2 L71.92,309.5 L71.32,310.3 L69.98,311 L69.22,311.2 L68.32,311.3 L67.72,311.2 L67.72,310.9 L68.02,310.6 L68.18,310.6 L68.48,310.3 L68.32,309.7 L67.58,309.5 L66.82,309.2 L66.68,309.2 L66.22,309.2 L66.52,309.4 L66.68,309.5 L66.82,309.5 L66.98,309.5 L66.98,309.7 L67.12,310.6 L67.12,310.9 L66.98,311.5 L66.82,311.8 L66.38,312.1 L65.62,312.1 L64.42,312.5 L64.28,312.8 L63.98,313 L62.48,313.7 L62.02,313.6 L60.68,313.3 L59.62,313.1 L58.42,313.1 L57.68,313.4 L56.92,313.9 L55.72,313.7 L55.58,313.7 L54.98,312.5 L53.18,312.4 L52.42,313 L52.28,313 L51.68,313 L51.38,313 L51.22,313 L51.38,312.5 L51.52,312.4 L51.82,312.2 L52.58,311.9 L52.72,311.9 L53.02,311.8 L53.18,311.8 L53.92,311.2 L54.08,310.9 L53.02,311.2 L51.98,311.5 L51.82,311.5 L51.52,311.5 L51.38,311.3 L52.12,310.9 L52.58,310.7 L54.08,310.3 L54.68,310.3 L54.98,310.3 L55.42,310.1 L55.58,310.1 L55.72,310 L55.88,309.5 L55.88,309.4 L55.12,308.8 L54.98,309.2 L54.08,309.5 L53.62,309.5 L52.58,309.7 L52.28,309.7 L50.92,309.8 L50.78,310 L49.88,310 L49.72,310 L48.82,309.8 L48.98,309.5 L49.72,309.2 L50.62,308.8 L50.78,308.3 L50.62,308.2 L50.92,308 L51.68,307.7 L53.18,307.3 L55.12,306.7 L55.28,306.7 L54.68,306.5 L54.22,306.5 L54.08,306.5 L51.52,307 L50.48,307.1 L49.88,307.3 L49.28,306.5 L49.42,306.1 L49.42,305.9 L49.28,305.5 L49.12,305.5 L48.82,305.5 L47.78,306.2 L47.92,305.2 L47.92,304.6 L49.42,303.1 L49.58,302.9 L50.78,302.8 L51.08,302.8 L51.22,302.8 L51.52,302.8 L52.28,302.8 L54.22,302 L54.82,301.7 L54.38,301.4 L54.08,301.4 L53.78,301.4 L53.62,301.3 L53.02,301.3 L52.28,301.3 L51.98,301.3 L51.52,301.3 L50.62,301.3 L49.72,301 L49.28,300.8 L48.98,300.8 L48.82,300.8 L48.08,300.8 L47.92,300.7 L48.08,300.2 L48.08,299.9 L48.38,299.3 L49.58,298.9 L50.62,298.4 L50.78,298.4 L51.22,298.4 L51.68,298.4 L51.68,298.7 L53.32,299.9 L53.62,299.9 L53.92,300.1 L55.42,300.1 L55.28,299.8 L55.12,299.8 L54.68,299.2 L55.12,297.7 L56.02,296.9 L57.08,295.9 L57.38,295.4 L57.52,295.3 L57.82,295.1 L57.98,295.1 L60.38,295.7 L60.38,295.9 L60.52,295.9 L61.72,295.9 L64.12,295.7 L65.78,295.6 L65.62,295 L64.88,294.2 L64.12,293.9 L63.98,294.1 L63.52,294.5 L63.22,294.8 L62.78,295.3 L62.48,295.4 L62.32,295.4 L62.18,295.4 L61.58,295.4 L59.48,294.7 L58.88,294.2 L57.38,294.5 L57.22,294.7 L57.22,294.8 L56.18,294.8 L55.42,294.8 L55.28,294.8 L54.98,294.7 L55.28,294.4 L55.88,294.2 L56.18,294.4 L56.18,294.2 L57.22,293.8 L59.18,292.4 L60.08,291.7 L61.28,290.5 L61.58,289.9 L60.82,289.7 L60.82,289.4 L63.52,286.7 L63.68,286.6 L63.82,286.6 L63.98,286.7 L64.12,287 L64.28,287.3 L64.42,287.5 L65.32,287.5 L66.08,287.2 L66.08,287.2 Z M59.62,270.7 L60.08,270.4 L60.98,270.7 L61.12,271.1 L61.12,271.9 L60.98,272.3 L60.68,272.9 L60.52,273.1 L60.38,272.9 L59.78,272.3 L59.78,272 L59.18,271.3 L58.88,271.1 L58.12,270.7 L59.02,270.4 L59.32,270.4 L59.48,270.5 L59.62,270.7 Z M59.62,270.7" id="ie" stroke="#FFFFFF" fill="#DCDCDC"></path>
    </g>
</svg>