<?xml version="1.0" encoding="UTF-8" standalone="no"?>
<svg width="612px" height="612px" viewBox="0 0 612 612" version="1.1" xmlns="http://www.w3.org/2000/svg" xmlns:xlink="http://www.w3.org/1999/xlink" xmlns:sketch="http://www.bohemiancoding.com/sketch/ns">
    <title>al</title>
    <description>Created with Sketch (http://www.bohemiancoding.com/sketch)</description>
    <defs></defs>
    <g id="Page 1" stroke="none" stroke-width="1" fill="none" fill-rule="evenodd">
        <path d="M26.78,74.19 L26.92,73.89 L27.52,73.14 L29.32,72.54 L30.08,72.24 L30.38,72.39 L30.22,72.69 L30.52,72.84 L30.52,73.14 L31.12,73.44 L30.68,73.14 L30.82,72.69 L30.68,72.54 L30.38,72.24 L30.22,72.24 L30.98,71.94 L31.12,72.24 L31.58,72.24 L30.98,71.94 L30.22,71.94 L28.12,72.39 L27.38,72.69 L26.62,73.29 L26.02,73.29 L26.02,73.14 L25.88,72.84 L25.58,71.19 L25.88,69.54 L26.62,69.24 L26.78,69.24 L26.92,69.09 L27.08,68.19 L26.92,67.14 L26.18,66.99 L25.12,66.54 L24.08,66.09 L23.92,66.09 L23.48,65.94 L22.88,65.64 L22.28,65.34 L22.12,65.19 L21.98,65.04 L21.68,64.59 L21.52,64.44 L20.92,64.14 L19.88,63.99 L18.98,64.29 L18.82,64.44 L18.68,64.59 L18.52,64.59 L17.48,64.29 L17.32,64.29 L17.02,63.84 L17.02,63.39 L17.02,62.34 L17.02,61.74 L17.18,61.14 L18.08,61.14 L18.52,61.29 L18.82,61.29 L18.98,61.44 L19.12,61.74 L19.28,61.89 L19.42,62.19 L19.58,62.34 L19.72,62.34 L19.88,62.34 L20.62,62.34 L20.78,62.19 L20.92,62.04 L21.08,62.04 L22.12,62.19 L23.02,62.19 L23.18,62.04 L23.32,61.89 L23.48,61.89 L24.82,62.64 L24.82,62.79 L27.08,63.39 L27.22,63.39 L27.52,63.24 L27.82,63.24 L29.02,63.69 L29.18,63.84 L29.32,63.99 L29.62,64.29 L29.92,64.59 L30.08,64.74 L31.28,65.34 L32.02,65.49 L32.48,65.19 L33.52,63.84 L33.68,63.69 L33.82,63.24 L33.68,63.09 L33.52,63.09 L33.38,62.94 L33.22,63.09 L33.08,63.24 L32.92,63.39 L32.62,63.54 L32.32,63.69 L31.58,63.84 L31.28,63.84 L30.98,63.69 L29.92,62.79 L28.42,61.59 L28.42,61.44 L29.18,60.69 L30.08,60.24 L30.52,60.24 L30.82,60.09 L31.12,60.24 L31.42,60.24 L31.58,60.24 L32.02,60.24 L32.92,59.94 L33.22,59.79 L33.52,59.64 L34.12,59.49 L34.42,59.64 L34.72,59.64 L35.02,59.79 L35.18,59.79 L35.62,59.64 L34.88,59.49 L34.58,59.19 L34.28,58.74 L34.12,57.99 L33.98,57.99 L33.22,57.99 L32.62,58.44 L32.48,58.44 L32.32,58.59 L32.18,58.59 L32.02,58.14 L32.02,57.39 L32.02,57.24 L32.18,57.24 L32.32,57.24 L32.48,57.24 L32.92,57.09 L33.08,57.09 L33.38,56.94 L33.52,56.79 L34.12,56.34 L33.98,56.34 L33.68,56.49 L33.52,56.64 L33.38,56.79 L33.22,56.79 L32.92,56.94 L32.78,56.94 L32.32,56.94 L31.28,56.64 L31.12,56.49 L30.82,56.04 L30.08,55.74 L29.62,56.04 L29.32,55.74 L29.32,54.84 L29.02,54.54 L28.12,54.54 L27.98,54.54 L27.68,54.39 L27.38,54.09 L26.78,54.69 L26.62,54.84 L26.48,54.84 L26.32,54.84 L26.02,54.69 L25.58,54.24 L23.92,53.94 L23.62,54.09 L23.02,54.39 L22.88,54.39 L21.98,54.09 L21.68,54.09 L21.52,53.79 L21.38,53.64 L21.52,53.34 L21.52,53.04 L21.52,52.74 L20.78,51.84 L20.18,51.54 L19.28,51.39 L18.98,51.24 L18.68,51.09 L18.52,50.79 L19.28,50.49 L19.72,50.49 L20.02,50.34 L20.32,49.89 L20.32,49.74 L20.48,49.74 L20.92,49.44 L21.68,50.34 L21.68,50.49 L21.82,50.64 L21.98,51.24 L22.12,51.39 L22.72,52.44 L22.88,52.59 L23.32,52.44 L22.72,51.84 L22.42,50.94 L22.42,50.34 L22.42,50.19 L22.42,50.04 L22.42,49.89 L23.18,50.34 L23.18,50.49 L23.32,50.79 L23.78,51.39 L23.78,51.24 L23.78,51.09 L23.62,50.64 L23.48,50.34 L23.32,50.19 L23.32,50.04 L23.02,49.89 L23.02,49.74 L22.88,49.59 L22.88,49.44 L22.88,49.14 L22.88,48.54 L22.88,48.39 L23.02,47.79 L23.18,47.64 L23.32,47.49 L23.78,47.94 L24.08,48.54 L24.68,49.29 L25.12,49.89 L25.28,50.19 L25.58,50.49 L25.58,50.64 L25.72,51.09 L25.58,51.54 L25.58,51.84 L26.48,51.84 L27.08,51.84 L26.92,51.69 L26.78,51.69 L26.48,51.39 L26.18,50.79 L26.18,50.49 L26.48,50.49 L26.62,50.49 L26.78,50.49 L26.92,50.64 L27.38,50.79 L28.12,50.94 L28.28,51.09 L28.72,50.64 L28.58,50.49 L28.42,50.49 L28.28,50.49 L27.82,50.49 L27.22,50.34 L26.48,50.04 L26.32,49.89 L26.18,49.74 L25.42,49.14 L25.42,48.99 L25.28,48.99 L25.28,48.84 L25.12,47.94 L25.12,47.79 L25.28,47.34 L25.28,47.19 L25.42,47.04 L25.72,46.74 L25.88,46.74 L26.02,46.74 L26.62,47.34 L26.78,47.64 L27.82,48.54 L28.72,49.44 L28.88,49.59 L29.02,49.59 L28.58,49.14 L28.28,48.69 L27.98,48.39 L27.38,47.64 L27.22,47.64 L27.22,47.49 L26.62,46.14 L26.62,45.54 L26.62,45.24 L26.78,45.09 L26.92,44.79 L27.08,44.64 L27.22,44.64 L27.52,44.79 L27.98,45.24 L27.98,45.39 L28.42,45.84 L28.88,46.74 L29.02,46.89 L29.02,46.29 L29.02,46.14 L28.72,45.54 L28.58,45.39 L28.42,44.94 L28.42,44.79 L28.12,44.34 L29.02,43.74 L29.48,43.59 L29.92,43.59 L30.08,43.59 L30.68,44.04 L30.98,44.49 L31.42,45.24 L32.02,46.14 L32.02,46.74 L32.02,46.89 L31.72,47.34 L32.48,48.39 L33.22,47.64 L33.38,47.64 L33.68,48.09 L33.82,48.69 L33.82,48.84 L33.82,49.14 L33.68,49.59 L33.38,50.04 L33.22,50.19 L33.08,50.34 L32.92,50.49 L32.62,50.94 L32.32,51.24 L32.32,51.39 L32.48,51.39 L33.38,50.34 L33.98,49.74 L34.28,49.74 L34.42,50.49 L34.28,50.79 L33.98,51.24 L33.82,51.39 L33.68,51.54 L33.52,51.84 L33.68,51.84 L33.82,51.69 L34.28,51.24 L34.42,50.94 L34.58,50.64 L34.72,50.19 L34.88,49.59 L35.02,48.09 L34.58,47.34 L34.58,47.19 L34.28,46.89 L33.98,46.74 L33.82,46.59 L33.68,46.44 L33.38,46.14 L33.38,45.99 L33.08,45.54 L33.08,45.09 L33.08,44.94 L33.08,44.79 L33.08,44.64 L33.22,44.49 L33.52,44.49 L33.98,44.49 L34.12,44.34 L34.42,44.49 L34.72,44.64 L35.18,45.09 L35.48,45.54 L35.62,45.69 L36.38,45.54 L36.68,45.39 L36.52,45.39 L36.22,45.24 L36.08,45.24 L35.92,45.09 L35.32,44.49 L35.18,44.19 L34.58,43.44 L33.82,43.59 L33.68,43.44 L33.38,43.29 L33.22,43.14 L33.08,42.99 L32.78,42.69 L32.78,42.54 L32.62,42.24 L32.62,42.09 L32.78,41.94 L33.08,42.09 L33.82,41.79 L33.98,41.19 L34.88,41.04 L35.32,41.19 L35.48,41.34 L35.92,42.09 L36.68,42.39 L37.88,42.99 L38.18,44.79 L38.02,45.99 L38.78,46.29 L39.38,46.59 L40.12,48.39 L40.12,48.54 L40.12,48.84 L40.12,50.49 L39.98,50.79 L39.68,51.24 L40.12,50.64 L40.88,50.94 L41.32,51.69 L41.02,52.44 L40.28,52.29 L40.12,52.29 L39.52,52.29 L39.52,52.59 L39.68,52.59 L39.82,52.59 L39.98,52.44 L40.42,52.59 L40.88,52.74 L41.02,52.89 L41.32,53.49 L41.32,53.64 L41.18,54.09 L40.88,54.69 L39.68,56.34 L39.22,56.64 L38.78,56.79 L38.62,56.64 L37.88,56.34 L37.88,55.59 L37.88,55.29 L37.88,54.99 L37.58,54.69 L37.28,54.69 L37.28,56.64 L37.42,56.94 L37.58,57.09 L37.88,57.24 L38.18,57.24 L38.18,57.39 L38.62,57.54 L38.62,57.69 L39.08,58.44 L38.92,58.89 L38.78,59.19 L38.62,59.49 L38.48,60.39 L38.62,61.29 L38.48,61.89 L38.18,62.64 L37.72,64.59 L37.58,65.64 L37.72,65.64 L37.88,65.34 L38.02,64.59 L39.38,61.44 L39.52,61.14 L39.68,61.29 L39.68,61.44 L39.98,61.89 L40.12,61.74 L40.12,61.29 L40.28,61.14 L40.58,60.54 L41.18,59.79 L41.32,59.64 L41.48,59.49 L42.08,59.19 L43.12,58.89 L43.58,58.74 L43.72,59.19 L43.42,59.79 L42.98,60.69 L42.82,60.99 L43.42,62.19 L43.58,62.34 L43.72,62.34 L45.38,60.54 L46.12,59.49 L46.28,59.34 L46.42,59.04 L46.58,58.59 L46.88,57.09 L46.88,56.04 L46.88,55.44 L47.18,54.54 L47.32,54.09 L47.62,53.49 L49.42,53.49 L49.88,53.79 L49.88,55.44 L49.72,56.64 L49.72,56.94 L49.88,57.54 L50.02,57.69 L50.32,58.14 L50.48,58.14 L50.62,58.29 L50.62,58.74 L50.48,59.79 L50.32,60.24 L50.32,60.39 L50.32,60.54 L50.48,60.69 L51.38,61.29 L51.52,61.29 L52.12,60.54 L52.42,59.94 L52.58,59.04 L52.58,58.44 L52.58,58.14 L52.42,57.99 L52.72,57.39 L53.32,56.34 L53.48,56.34 L53.92,56.19 L54.82,56.34 L54.98,56.34 L55.42,56.64 L55.88,56.94 L56.02,56.19 L56.18,56.04 L56.32,55.89 L56.48,55.74 L57.08,55.59 L57.22,55.59 L57.98,55.59 L58.28,55.89 L58.72,56.64 L58.88,56.94 L58.88,57.24 L59.18,58.14 L59.18,58.44 L58.88,59.19 L58.72,59.49 L58.58,59.79 L58.58,59.94 L59.02,60.39 L59.32,60.69 L59.48,60.69 L59.62,60.84 L59.62,60.99 L59.78,61.44 L59.62,63.09 L59.32,64.29 L59.48,65.79 L59.48,66.09 L59.62,66.09 L59.78,65.79 L60.68,63.24 L60.68,63.09 L60.82,62.19 L60.68,61.59 L60.52,61.59 L60.52,61.74 L60.38,61.74 L60.22,61.29 L60.22,59.94 L60.38,59.04 L60.82,57.69 L61.28,57.39 L61.58,57.39 L61.72,57.54 L62.02,57.84 L62.48,58.14 L62.92,58.29 L63.08,58.44 L63.22,58.59 L63.38,58.74 L63.98,60.09 L64.12,60.39 L64.12,60.54 L64.42,61.89 L65.62,62.34 L66.38,61.44 L66.68,60.69 L67.58,59.94 L67.88,59.64 L68.02,59.64 L68.62,59.64 L68.78,59.64 L69.22,59.79 L69.22,59.94 L69.38,60.09 L69.52,60.39 L69.52,61.44 L70.58,61.89 L71.32,62.64 L71.18,61.89 L71.18,61.29 L72.08,61.14 L72.38,61.14 L72.98,60.84 L73.12,60.69 L73.28,60.54 L73.42,60.24 L73.42,59.94 L73.58,58.14 L73.58,56.79 L73.72,56.49 L73.88,56.49 L74.02,56.34 L74.48,56.34 L74.62,56.49 L75.08,56.64 L75.82,56.94 L76.42,56.79 L77.32,57.09 L77.62,57.54 L77.78,58.14 L77.62,59.34 L77.78,59.34 L78.52,59.94 L78.52,60.09 L78.38,60.69 L78.22,60.99 L77.92,61.29 L77.78,61.29 L77.62,61.44 L77.62,61.89 L77.62,62.49 L78.38,62.94 L79.28,64.44 L79.42,64.44 L79.58,64.14 L79.72,63.84 L79.88,63.54 L80.92,62.94 L81.38,63.09 L81.52,63.09 L81.68,63.09 L82.58,62.34 L82.58,62.19 L82.88,61.89 L83.02,61.89 L83.18,61.74 L83.48,61.74 L83.78,61.89 L83.92,61.89 L84.52,62.49 L84.38,62.79 L83.78,62.94 L82.58,63.09 L82.42,63.24 L82.12,63.24 L82.28,63.54 L82.28,63.69 L82.28,63.99 L82.28,64.29 L82.28,64.44 L82.12,64.74 L81.98,64.89 L81.82,65.04 L81.52,65.04 L81.08,65.19 L80.62,65.04 L80.48,65.19 L80.32,65.34 L80.32,65.79 L80.92,66.69 L81.38,66.99 L82.12,67.14 L82.42,67.14 L82.72,66.99 L82.88,67.14 L83.02,67.29 L83.18,67.44 L83.18,67.59 L83.18,68.49 L83.18,68.79 L83.02,69.09 L82.72,69.69 L82.42,70.14 L81.68,70.44 L81.52,70.59 L81.38,70.59 L81.22,70.59 L80.92,70.74 L80.48,71.34 L80.32,71.64 L80.32,72.09 L80.48,72.24 L80.62,72.24 L81.08,72.09 L81.52,72.09 L81.82,72.09 L83.32,72.09 L83.62,72.09 L83.78,72.09 L83.92,72.24 L83.92,72.39 L83.48,74.19 L82.58,74.79 L81.52,75.54 L81.38,75.69 L81.22,75.69 L81.22,75.84 L80.92,76.29 L81.38,75.84 L83.18,74.49 L83.48,74.34 L84.08,74.94 L85.12,75.84 L85.28,75.84 L85.58,75.84 L85.72,75.84 L86.02,75.99 L86.92,77.34 L87.08,78.09 L87.08,78.39 L86.48,79.29 L86.02,80.04 L85.42,80.79 L85.72,81.24 L86.02,81.69 L86.18,81.84 L86.18,81.99 L85.72,82.44 L85.58,82.44 L85.42,82.59 L85.28,82.59 L84.98,82.59 L84.68,82.59 L84.52,82.44 L83.92,82.29 L82.88,82.14 L82.88,82.29 L83.18,82.29 L83.32,82.29 L83.48,82.29 L83.92,82.44 L84.08,82.44 L85.28,82.89 L85.42,83.04 L85.28,83.49 L85.28,84.09 L85.72,84.54 L85.72,85.14 L84.82,86.04 L84.68,86.04 L84.52,86.19 L84.38,86.19 L84.22,86.19 L84.08,86.19 L83.48,85.89 L83.48,85.74 L83.32,85.29 L83.18,84.99 L83.02,84.84 L82.42,84.24 L82.12,84.99 L82.72,85.89 L83.32,86.64 L83.48,86.64 L83.62,86.94 L83.62,87.09 L83.48,87.24 L83.18,87.09 L82.88,86.94 L81.98,86.64 L81.38,86.19 L81.38,86.34 L81.38,86.49 L81.52,86.64 L81.82,86.79 L81.98,86.94 L82.12,86.94 L82.42,87.09 L82.58,87.09 L82.72,87.54 L82.88,87.84 L82.88,87.99 L82.28,88.29 L81.82,88.59 L81.68,88.59 L80.92,88.44 L80.62,88.59 L80.62,89.04 L80.78,89.04 L80.78,89.34 L80.48,89.49 L80.18,89.64 L80.02,89.64 L78.82,89.64 L78.82,89.49 L78.38,89.04 L78.52,88.74 L78.38,88.29 L78.22,87.69 L78.08,87.54 L77.92,87.39 L77.78,87.24 L77.62,87.24 L77.92,87.69 L78.08,88.74 L77.92,89.49 L77.92,89.79 L77.18,90.39 L77.02,90.39 L76.58,90.54 L76.28,90.39 L76.12,90.39 L76.12,90.54 L76.12,90.84 L76.28,91.14 L76.42,91.29 L76.58,91.44 L76.72,91.44 L76.42,91.89 L75.38,93.39 L75.22,93.39 L75.08,93.39 L74.32,92.94 L72.82,93.69 L72.52,94.14 L72.52,94.59 L72.08,94.74 L71.78,94.74 L71.78,94.59 L71.18,93.99 L71.18,93.84 L70.28,93.54 L70.12,92.79 L69.68,92.04 L69.52,92.19 L69.52,92.49 L69.52,92.64 L69.38,92.94 L69.08,93.39 L68.62,93.69 L68.18,93.69 L67.12,93.69 L66.82,93.69 L66.68,93.69 L65.78,93.99 L64.12,94.29 L63.82,94.74 L62.62,95.34 L62.32,95.34 L62.32,95.49 L62.02,95.49 L61.88,95.49 L61.12,95.79 L60.22,96.54 L60.08,96.69 L59.92,96.69 L59.62,96.84 L58.72,96.99 L57.22,97.14 L56.92,96.24 L56.62,95.49 L56.62,95.34 L56.02,96.09 L55.72,96.69 L55.58,97.14 L54.82,96.84 L54.38,96.69 L54.08,96.39 L53.62,96.54 L53.48,96.54 L50.32,96.54 L49.72,95.94 L49.58,95.94 L48.52,96.69 L48.22,97.29 L48.22,97.59 L48.38,97.74 L48.82,98.04 L48.68,98.19 L48.08,98.79 L47.92,98.94 L47.78,98.94 L46.42,99.09 L46.12,99.24 L45.98,99.24 L44.92,99.09 L42.98,98.94 L41.92,98.94 L41.78,98.94 L41.48,98.79 L39.52,97.59 L38.32,96.84 L37.72,96.09 L36.68,94.89 L36.52,94.74 L35.92,94.14 L35.62,93.84 L35.32,93.54 L35.02,93.54 L33.82,93.09 L33.68,93.09 L33.52,93.09 L33.38,92.94 L33.22,92.94 L33.08,92.79 L32.92,92.64 L32.78,92.49 L31.72,89.94 L31.72,89.49 L31.72,89.34 L31.72,89.19 L31.72,88.89 L31.88,88.59 L32.48,88.44 L32.62,88.44 L32.78,88.59 L32.92,88.74 L33.08,89.04 L33.22,89.34 L33.22,89.49 L33.22,88.89 L33.08,88.74 L32.78,88.29 L32.18,88.29 L31.88,88.44 L31.58,88.59 L31.42,88.89 L31.12,88.59 L30.82,87.84 L30.98,87.84 L31.12,87.99 L31.28,88.14 L31.58,88.14 L31.72,86.64 L31.58,86.64 L30.98,87.09 L30.52,87.09 L30.22,87.09 L30.08,86.79 L29.92,86.49 L29.78,86.19 L29.32,85.89 L29.18,85.74 L29.02,85.59 L28.88,85.29 L28.72,84.99 L28.58,84.69 L28.88,84.09 L28.88,83.94 L29.18,83.94 L29.32,84.09 L29.32,84.24 L29.78,84.24 L29.18,83.64 L29.02,83.64 L28.88,83.49 L28.42,83.49 L28.12,83.79 L27.82,84.24 L27.22,84.39 L26.78,84.54 L25.42,84.39 L25.28,84.24 L25.12,84.24 L24.98,83.94 L24.98,83.79 L24.08,83.19 L23.48,83.19 L23.32,83.19 L22.72,82.89 L21.98,82.74 L21.52,82.14 L21.08,81.69 L20.32,81.69 L18.38,81.54 L18.22,81.09 L19.12,78.69 L19.88,77.49 L20.02,77.34 L20.18,77.34 L20.32,77.34 L20.32,77.49 L20.48,77.64 L20.48,77.79 L20.62,78.24 L20.62,78.54 L20.62,78.84 L20.48,79.14 L20.62,79.44 L20.92,79.59 L21.38,79.74 L21.52,79.74 L21.52,79.59 L21.82,79.29 L22.72,79.44 L22.88,79.59 L22.88,79.74 L23.02,79.74 L24.08,79.74 L24.68,79.59 L25.42,79.14 L25.28,78.84 L25.28,78.39 L25.28,78.24 L26.02,78.54 L26.32,78.69 L26.78,78.84 L27.22,78.69 L26.92,77.64 L26.78,77.49 L26.62,77.49 L26.48,77.49 L27.08,76.74 L27.98,76.14 L28.72,75.99 L29.02,75.99 L29.32,75.99 L29.32,76.29 L29.48,76.29 L29.78,76.59 L30.22,76.59 L30.82,76.59 L30.68,76.44 L30.08,76.14 L29.18,75.54 L29.02,75.54 L28.88,75.39 L28.42,75.54 L28.28,75.54 L27.82,75.84 L27.68,75.99 L27.52,75.99 L26.48,76.14 L26.18,76.14 L25.88,75.99 L25.58,75.54" id="is" stroke="#FFFFFF" fill="#DCDCDC"></path>
    </g>
</svg>