<?xml version="1.0" encoding="UTF-8" standalone="no"?>
<svg width="612px" height="612px" viewBox="0 0 612 612" version="1.1" xmlns="http://www.w3.org/2000/svg" xmlns:xlink="http://www.w3.org/1999/xlink" xmlns:sketch="http://www.bohemiancoding.com/sketch/ns">
    <title>al</title>
    <description>Created with Sketch (http://www.bohemiancoding.com/sketch)</description>
    <defs></defs>
    <g id="Page 1" stroke="none" stroke-width="1" fill="none" fill-rule="evenodd">
        <path d="M275.8,463 L275.9,463 L276.5,463.1 L277.4,463.7 L279.4,465.1 L280.1,465.8 L280.7,466.4 L281,466.7 L282.2,467.6 L282.8,468.1 L283.7,468.5 L284.3,468.7 L284.6,468.2 L285.2,468.8 L285.8,469.3 L286,469.7 L286.1,470.6 L287.2,472.9 L289,477.2 L289.3,478.4 L289.4,479.2 L289.6,479.5 L289.7,479.9 L289.9,480.2 L290.2,481.1 L290.3,481.7 L290.9,483.2 L291.4,484 L292,484.7 L292.1,485 L292.9,486.1 L293.6,487 L297.5,490.4 L298.3,491 L298.7,491.3 L299,491.3 L299.5,491.5 L300.1,491.8 L300.1,492.2 L300.2,492.8 L300.4,493.1 L300.7,493.3 L301.6,493.7 L302.3,494 L302.9,494.2 L303.7,494.3 L304,494.6 L304.4,495.1 L304.9,495.4 L305.5,495.4 L305.6,495.5 L308.2,495.7 L308.6,495.7 L309.2,495.5 L309.7,495.5 L310.9,495.1 L311.8,495.2 L312.8,495.1 L313.9,494.9 L314.6,494.6 L315.8,494.3 L316.3,494.3 L316.6,494.5 L317.3,494.8 L318.1,496.1 L318.1,496.7 L317.8,497.3 L317.5,497.6 L316.3,498.8 L315.8,499.3 L315.2,499.4 L315.1,499.7 L314.8,500 L314.8,500.3 L314.8,500.8 L314.9,501.4 L315.4,502.1 L316.1,502.7 L316.7,503 L317.3,503.2 L318.7,503.8 L322.4,505.4 L324.5,506.2 L326.2,506.6 L329.5,507.5 L331.1,508.3 L332,508.9 L332.5,509.2 L332.9,509.5 L334.9,511.3 L335.2,511.4 L338.6,512.5 L340.7,513.1 L341.8,513.7 L341.9,514.1 L342.2,514.7 L342.2,515 L342.8,515.5 L343.4,515.9 L345.4,517.1 L347.5,518.9 L347.6,519.2 L347.9,519.8 L348.8,521.3 L348.8,521.8 L348.5,523 L348.1,523.1 L347.9,523.7 L347.8,524.6 L347.8,525.2 L347.9,526.7 L347.6,527 L347.3,527.2 L347.2,526.9 L346.7,526.7 L346.1,526.6 L345.8,526.6 L345.5,526.6 L345.2,526.4 L344.9,526.3 L343.9,525.7 L343.3,525.1 L342.7,524.2 L343,524 L342.7,522.5 L341.2,520.1 L340.4,519.7 L339.5,519.7 L339.4,519.7 L338.2,519.7 L337.7,519.7 L336.7,519.8 L336.2,520 L334.7,519.5 L332.3,518.3 L332.8,517.6 L332.9,517.3 L333.2,517.3 L333.5,517 L330.5,516.8 L330.2,516.8 L329.9,517.1 L329.6,517.3 L329,517.7 L328.7,518 L328.3,518.9 L328.1,519.1 L327.4,520.6 L327.1,521.6 L326.9,522.1 L326.3,523.3 L325.9,523.9 L325.7,524 L325.4,524.5 L325.4,525.1 L325.6,525.8 L325.3,527.5 L325,528.1 L324.5,528.8 L324.4,529.3 L324.4,529.7 L324.5,530 L325.1,531.4 L325.4,531.7 L326,532 L326.3,532 L327.8,532 L328.9,532.7 L330.7,533.8 L331.7,534.1 L333.2,535.1 L333.1,535.6 L332.9,536.5 L332.9,537.4 L333.2,540.1 L333.7,540.7 L333.8,541 L334.1,541.6 L334.1,542.2 L333.7,542.9 L333.4,543.2 L331.7,542.8 L331.4,542.8 L331.1,542.9 L329.9,543.4 L328.7,544.1 L327.4,545.2 L327.2,545.5 L326.9,545.9 L326.6,546.5 L326.5,547 L326.8,548 L327.1,548.8 L327.2,549.5 L327.4,550.1 L327.4,551.3 L327.4,551.6 L326.9,552.2 L326.8,552.5 L326.5,552.8 L326.2,553 L326,553.3 L325.6,553.4 L324.8,553.7 L324.5,554 L322.6,556.9 L322.4,557.9 L322.4,558.4 L322.4,558.7 L322.1,559.4 L322,560 L321.5,560.3 L320.8,560.5 L320.2,560.5 L319.9,560.5 L319.1,560.5 L318.2,560.8 L318.1,560.8 L317.9,560.8 L317.8,560.8 L317.2,560.6 L316.6,560.2 L316.1,559.4 L316.1,558.5 L315.8,556.4 L315.7,555.8 L316,555.7 L316.7,555.2 L317,555.2 L317.3,555.1 L317.8,554.8 L317.9,554.5 L318.8,551.9 L319,551.6 L319.1,550.7 L319,550.3 L318.7,549.8 L318.4,549.7 L317.9,549.4 L317.8,549.1 L317.9,548.6 L319.6,547.4 L320,547.3 L320.3,547.3 L320.6,547.3 L321.1,547.4 L321.4,547.4 L322,546.8 L322.1,546.4 L322.3,545.9 L322.4,545.3 L322.4,544.7 L322.3,544 L322,543.8 L321.5,543.5 L320.6,542.3 L320,540.7 L319.9,539.8 L319.9,539.2 L319.7,538.6 L319.4,537.2 L318.7,535.4 L317.8,534.5 L317.5,534.2 L316.9,533 L316.1,531.8 L316,531.4 L315.8,530 L315.7,529 L315.2,528.1 L315.1,527.9 L314.8,527.5 L314.6,527 L314,526.3 L313.7,526.1 L313.4,525.7 L313,525.7 L312.7,525.7 L312.1,525.7 L311.5,526.4 L311,527.2 L310.1,527 L309.7,526.6 L308.9,526 L307.3,524.6 L307,524.5 L305.8,524.2 L304.9,523.6 L304.6,523 L305,521.8 L305.3,521.3 L305.3,520.9 L304.9,520 L304,518.2 L303.1,517.1 L302.3,516.4 L302,516.4 L300.5,517 L299.2,517.6 L297.8,517.9 L297.4,517.4 L297.7,517.3 L298.7,516.1 L298.4,515.5 L296.6,514.3 L296,514 L295.4,514.4 L294.8,514.7 L293.6,514.4 L293.3,513.8 L293,513.2 L292.9,512.9 L292.6,512.2 L291.4,510.4 L290.5,509.2 L290,508.6 L289.7,508.3 L289.3,507.8 L289,507.7 L288.1,507.5 L287.8,507.5 L287.2,508 L283.6,507.1 L282.8,507.4 L282.4,507.7 L282.1,507.8 L281.8,508.1 L280.7,507.8 L280.4,507.2 L280.1,506.8 L279.7,506.3 L279.4,506 L279.2,505.9 L278.9,505.7 L278.5,505.4 L276.1,504.7 L275,503.9 L274.3,503 L273.8,502.3 L273.5,502 L272.3,500.9 L270.7,499.4 L270.5,499 L270.1,498.1 L269.9,497.8 L269.5,497.2 L268.3,496.3 L266.9,495.4 L266.6,495.4 L266.3,495.5 L265.9,495.5 L265.6,495.1 L264.8,493.6 L264.7,493.1 L264.4,492.4 L263.5,491.2 L262.3,490.4 L261.8,490.3 L261.2,490 L260.3,489.5 L259,489.2 L258.7,489.2 L258.4,489.4 L258.4,489.7 L258.1,490.1 L257,489.7 L256.9,489.1 L257.2,488.9 L257.5,488.9 L257.9,488.8 L258.1,488.2 L258.1,487.7 L257.8,487 L256.9,485.8 L255.5,484.3 L254.9,483.8 L254.6,483.7 L254.2,483.5 L253.1,482.3 L253.3,481.3 L252.7,480.8 L252.1,480.5 L251,480.4 L250.3,478.9 L250.4,477.7 L250.4,477.2 L250.4,476.6 L250.3,476 L250.1,475.4 L249.1,473 L248.5,472.3 L248.3,472.1 L247.9,471.8 L247.6,470.6 L247.4,469.9 L247.3,468.2 L247.3,467.8 L247.3,467.3 L247.1,466.4 L247,465.7 L246.8,465.1 L246.5,464.6 L246.2,464 L245.3,463 L245.2,462.8 L244.7,462.5 L244.4,462.4 L244,462.2 L240.8,461.2 L240.2,460.7 L236.9,458.3 L236.5,457.9 L235.3,457.3 L230.6,455.9 L229.9,455.8 L228.7,456.5 L226.9,457.6 L226.3,458.5 L225.8,459.8 L225.1,460.3 L224.6,460.3 L224.3,460.6 L223.9,461.2 L223,463.1 L223,463.6 L221.9,464.6 L220.6,465.4 L220.1,465.4 L218.5,465.8 L218,466.1 L217.3,466.3 L216.7,466.1 L216.2,466.1 L215.6,466.3 L215.5,465.5 L215.3,464.6 L216.5,463.3 L217.3,462.5 L217.9,461.5 L217.9,461.2 L217.3,460.4 L217.4,459.8 L216.8,459.7 L215.8,460 L215.2,460.3 L214.6,460.4 L213.8,460.4 L210.2,458.3 L209.6,457.7 L208.6,456.1 L208.4,453.7 L208.4,453.4 L209.6,451.3 L209.9,451 L210.5,450.1 L210.5,448.6 L210.4,448.3 L209.9,448 L209.6,447.8 L209.2,448 L208.6,447.8 L207.7,447.2 L207.5,446.9 L206.6,445 L206.2,443.6 L206.3,443.5 L206.9,443.2 L207.8,442.9 L208.4,443.2 L209.8,442.7 L211.3,442 L211.9,441.5 L212.3,439.6 L212.3,438.7 L211.6,437.8 L210.7,437 L210.4,435.8 L208.7,433.4 L208.6,432.5 L208.9,431.8 L209.5,431.3 L209.8,431.5 L210.1,431.5 L210.2,431.3 L210.7,431.2 L211.4,430.1 L211.7,430.7 L212,431 L213.1,431.2 L213.5,430.9 L214.3,430.4 L214.7,430.6 L215.2,430.6 L215.6,430.4 L216.1,430.3 L217,429.5 L218.2,429.7 L218.8,430.3 L219.2,430.4 L219.7,430.6 L220.4,430.7 L220.6,430.3 L220.7,429.8 L221,429.5 L221.5,429.5 L221.8,429.5 L222.1,429.2 L223.7,427 L223.9,426.4 L223.7,425.8 L225.5,422.5 L226.1,422 L226.3,421.9 L227,421.7 L227.3,422 L227.3,423.2 L227,424.1 L226.9,424.6 L227,425.3 L227.2,425.6 L228.8,427.6 L229.7,427.9 L230,427.9 L230.2,427.7 L230.3,427.6 L231.1,427.9 L231.4,428.2 L231.4,428.6 L231.1,429.1 L231.1,429.8 L232,430.4 L232.3,431.3 L232.3,431.8 L232.4,432.2 L233,432.5 L233.5,432.4 L233.9,431.3 L233.9,431 L233.3,430.6 L233,430 L233.3,429.2 L233.5,428.6 L234.1,427.6 L234.5,427 L234.7,426.8 L235.1,426.7 L235.7,425.8 L236.2,424.7 L236.3,424.3 L236.5,423.8 L236.2,422.5 L235.9,422.2 L236.3,421.3 L237.2,421.1 L238.1,421.7 L238.1,422.5 L238.1,423.2 L238.9,424.3 L239.2,424.6 L239.5,424.7 L239.9,424.7 L241,424.7 L241.6,424 L242,423.7 L242.5,423.5 L243.1,423.2 L243.5,423.4 L244,423.8 L244,424.1 L244.1,424.9 L244.9,425.9 L245.6,425.8 L246.1,425.3 L245.8,423.2 L245.2,422.6 L244.7,422.2 L244.6,421.3 L244.7,420.7 L245.5,419.5 L246.1,419.2 L246.8,419 L246.8,419.3 L246.8,419.8 L247.4,420.4 L247.7,420.5 L249.1,420.7 L249.2,420.4 L249.4,419.8 L249.4,419.3 L249.2,419 L248.9,416.9 L249.2,415.1 L249.5,415.4 L250.3,415.4 L250.6,415.3 L251.2,415.1 L251.5,415 L252.4,415.7 L252.7,416.2 L253.1,416.5 L253.7,416.8 L255.2,416.6 L255.8,415.9 L256,414.7 L256,414.2 L256.3,414.1 L256.9,413.5 L260.2,412.6 L261.7,412.6 L262.6,412.9 L262.9,413 L263.2,413 L266.5,411.7 L267.2,411.2 L267.7,411.1 L268.1,411.2 L268.3,411.4 L268.1,411.5 L267.8,412.1 L267.2,412.4 L267.2,413.2 L267.5,413.8 L267.8,414.2 L268.3,414.5 L269.2,415.3 L270.1,417.2 L270.2,417.5 L270.7,417.7 L271.1,417.8 L271.9,418.1 L272.3,418.1 L273.5,418.1 L274,418.4 L274.1,418.4 L274.1,418.3 L274.4,418.3 L274.9,418.6 L279.7,419.5 L281.5,419.5 L283,419.5 L283.6,419.6 L284.8,419.9 L284.8,420.1 L284.6,420.5 L284.5,421.1 L284.2,421.3 L282.5,422.3 L281.8,423.1 L281.2,424 L281.6,425.3 L282.1,425.2 L282.4,424.9 L283.1,425.2 L284.5,425.8 L284.3,426.4 L283.7,427 L283.3,427.3 L283.1,427.4 L283,427.7 L282.5,428.6 L282.8,429.1 L283.3,429.4 L283.6,429.1 L283.7,428.9 L284.3,429.1 L284.3,429.7 L284,430.3 L283.9,430.6 L283.7,431.3 L284,431.9 L285.1,432.4 L286.1,432.8 L286.7,433.3 L287.6,434.6 L287,435.5 L286.7,435.5 L286.4,435.5 L285.5,435.4 L286.4,435.2 L285.7,433.7 L284.6,432.8 L284.3,432.5 L283.9,432.4 L283.4,432.4 L283.3,432.8 L283.3,433.3 L283,433.7 L282.2,434.2 L281.8,434.2 L282.1,433.9 L282.1,433.6 L281.5,433.3 L279.8,432.7 L279.5,432.7 L278.8,432.8 L278.2,433.9 L278.5,434.8 L278.5,435.1 L278.2,435.1 L277.4,435.2 L276.7,435.5 L275.9,435.8 L275.3,436.3 L274.3,437 L273.5,437.5 L273.4,437.6 L272.9,437.8 L271.1,438.7 L271.4,437.9 L272,437.8 L272.9,436.9 L271.9,436.4 L270.8,437 L269.6,438.1 L268.3,441.1 L268.3,441.7 L269.2,442.7 L270.7,445.1 L271.6,445.9 L272.2,446.2 L272.5,446.2 L272.8,446.6 L272.2,448.4 L271.7,449 L271.6,448.4 L271.6,448 L271.4,447.7 L271.1,448.1 L271.3,449.5 L270.7,449.3 L269.9,448.7 L269.6,449.8 L269.6,450.7 L269.6,451.1 L270.1,454.7 L270.2,455.2 L271,458 L271.1,458.6 L271.9,459.5 L272.2,459.8 L272.9,460.7 L273.2,461.2 L275,462.7 L275.3,463 L275.6,463 L275.8,463 L275.8,463 Z M273.2,497.5 L273.4,497.5 L273.4,497.3 L273.2,497.5 L273.2,497.5 Z M271.9,464 L272.5,464.3 L272.8,464 L272.8,463.9 L272.9,463.6 L272.9,462.8 L272.3,463 L271.9,463.3 L271.7,463.4 L271.9,464 L271.9,464 Z M249.1,484.6 L248.2,483.7 L247.6,483.7 L246.8,484 L246.5,484.1 L245.9,484.3 L245.8,484.1 L245.6,484 L245.5,484 L245.3,483.5 L245.3,483.2 L245.5,483.1 L245.6,482.9 L245.8,482.9 L246.2,482.8 L246.5,482.9 L246.7,483.1 L246.8,483.2 L248.3,482.9 L248.6,482.6 L248.8,482 L248.9,481.9 L249.2,482.2 L249.1,484.4 L249.1,484.6 L249.1,484.6 Z M270.1,440.3 L270.5,438.8 L270.8,438.8 L271.3,439 L270.7,439 L270.1,440.3 L270.1,440.3 Z M223.7,541.9 L224.5,541.1 L224.5,540.8 L224.3,540.1 L224.2,539.9 L223.7,539.5 L224,538.3 L224.3,537.5 L224.8,535.3 L224.8,534.4 L224.9,533.2 L225.5,533.8 L225.8,533.3 L226,532.9 L226.1,532.3 L226.3,531.7 L226.3,531.4 L225.8,530.8 L225.1,530.6 L224.6,530.9 L224.3,530.8 L224.3,530 L224.5,529 L225.2,526.9 L225.2,525.4 L225.2,523.9 L224.2,521 L223.4,519.4 L222.1,518.9 L221.6,519.4 L221.5,518.8 L221.9,518.6 L221.8,517.7 L221.6,517.1 L221.6,516.8 L222.2,514 L222.5,513.7 L222.7,514.1 L223.3,514.9 L223.6,515.2 L224.2,515.3 L225.4,515.6 L225.7,515.6 L226,515.6 L226.4,515.5 L226.9,515.3 L227.2,515.2 L227.3,514.9 L227.6,514.6 L228.4,514.1 L229,514.1 L229.3,514.1 L229.7,513.8 L230.2,513.4 L230.5,512.8 L232.1,510.8 L232.6,510.7 L233.9,509.6 L234.1,508.9 L234.8,508.6 L238.3,510.4 L238.9,510.8 L239.6,513.1 L238.1,514.1 L238.9,514.3 L239.5,514.1 L239.9,515.3 L241.1,518.3 L241,518.8 L241,518.9 L241.1,519.5 L241.7,520.4 L242,520.7 L241.7,521.6 L241.7,522.1 L241.1,523 L240.8,523.3 L240.5,523.6 L239.9,524.3 L239.6,524.6 L239.5,525.2 L239.5,526.1 L239.9,527 L240.4,527.6 L240.5,528.7 L240.4,530.5 L240.1,532.4 L240.1,533 L240.1,533.5 L240.1,533.8 L239.8,536.8 L239.6,537.8 L239.5,538.7 L239.2,540.4 L238.7,542 L238.7,542.6 L238.7,543.4 L238.1,543.8 L237.1,543.7 L236.8,543.5 L236.5,543.2 L236.2,542.9 L235.9,542.6 L235.6,542.3 L235.3,542.2 L233.5,542.8 L231.8,541.4 L231.7,543.7 L231.8,544.1 L231.8,544.4 L232.1,545 L231.7,545.9 L230.3,547.3 L229.6,547.7 L227.9,547 L227,547.4 L226.7,547 L226.1,545.5 L226,544.9 L225.4,544.6 L224.9,545 L224.6,545.6 L224.5,546.2 L224.2,546.2 L223.6,545 L223.4,544.4 L223.6,543.8 L224.3,543.8 L224.8,544.1 L224.8,543.7 L224.5,542.9 L224,542.3 L223.7,541.9 L223.7,541.9 Z M310.4,582.1 L310,581.5 L309.7,581.3 L308,581 L307.6,581 L307,581.2 L306.5,581.5 L305.8,581.2 L303.5,580.4 L302.2,579.5 L301.9,578.9 L301.6,578.3 L301.3,577.9 L301,577.4 L300.5,577.1 L299.6,576.2 L299.2,575.9 L297.8,575.5 L297.2,575.3 L295.9,575.3 L295.4,575.6 L295.1,575.6 L294.5,575.6 L292.6,574.7 L291.5,574.1 L291.4,573.8 L290.2,572.9 L289.9,572.9 L289.4,572.8 L288.2,572.3 L287.2,571.7 L286.3,571.1 L286.1,570.8 L285.7,570.2 L284.8,569.6 L283.9,569.6 L282.5,568.9 L282.2,568.7 L281.8,568.4 L280,568.4 L279.5,568.6 L279.2,568.7 L278.6,568.9 L278.3,568.9 L276.4,567.2 L275.8,566.6 L275.3,565 L275.5,564.8 L275.6,564.7 L275.8,563.8 L275.6,563 L276.2,561.4 L276.8,560.6 L278.9,559.3 L280.1,560.5 L281,561.1 L281.5,561.1 L281.9,560.9 L282.7,560.5 L283.3,559.9 L283.1,559.3 L283.6,558.4 L286.4,557.8 L286.9,558.2 L287,558.7 L287,559.3 L287.2,559.4 L291.5,561.4 L292.1,561.5 L292.6,561.5 L292.9,561.4 L293.8,560.9 L294.1,560.8 L294.5,560.5 L295.4,560.3 L296.9,560.3 L298.3,560.5 L299.2,560.5 L299.9,560.3 L301.7,559.7 L303.4,559.1 L305,557.8 L306.2,557.5 L307.4,557.6 L308.9,558.1 L309.7,557.6 L311.6,556.4 L314.2,554.9 L314.6,554.8 L316,555.2 L315.4,555.5 L315.1,555.7 L314.9,556.1 L314.5,557.5 L314.3,558.4 L313.4,559.7 L312.7,560.8 L311.2,563.5 L311,563.8 L311,564.7 L310.9,565.6 L310.6,567.1 L310.4,567.4 L310,567.8 L309.7,568.3 L309.7,568.7 L309.8,570.7 L311.3,573.2 L311.5,573.7 L311.9,574.1 L312.2,574.4 L312.8,574.4 L313.1,575.5 L313.1,575.9 L312.5,576.5 L311.9,577 L311.5,577.3 L311,577.7 L310.6,578.9 L310.6,579.8 L310.7,580.4 L311.2,581.6 L310.6,581.9 L310.4,582.1 L310.4,582.1 Z M310.4,582.1" id="it" stroke="#FFFFFF" fill="#DCDCDC"></path>
    </g>
</svg>