<?xml version="1.0" encoding="UTF-8" standalone="no"?>
<svg width="612px" height="612px" viewBox="0 0 612 612" version="1.1" xmlns="http://www.w3.org/2000/svg" xmlns:xlink="http://www.w3.org/1999/xlink" xmlns:sketch="http://www.bohemiancoding.com/sketch/ns">
    <title>al</title>
    <description>Created with Sketch (http://www.bohemiancoding.com/sketch)</description>
    <defs></defs>
    <g id="Page 1" stroke="none" stroke-width="1" fill="none" fill-rule="evenodd">
        <path d="M368.9,284.9 L368.9,284.6 L368.8,283.4 L368.3,282.1 L368.2,281.8 L367.9,281.2 L366.7,280.4 L366.5,280.3 L365.2,279.7 L364.3,279.5 L363.1,278.5 L361.7,278.3 L361.6,278.3 L361.3,278.5 L361.1,279.1 L361.1,278.9 L360.5,278.2 L360.2,277.9 L360.1,277.6 L359.9,277.1 L359.9,276.5 L359.6,273.7 L359.8,273.4 L360.2,272.3 L360.5,272.2 L360.7,271.6 L360.5,271.1 L360.4,270.4 L360.1,270.1 L358.9,269.3 L358.6,269.3 L358.3,269.3 L357.7,268.1 L356.8,267.8 L354.7,268.1 L354.5,268.3 L353.9,268.4 L353.5,268.6 L353.3,268.9 L353.2,269 L352.9,269.2 L349.6,267.8 L348.7,267.2 L347.9,267.1 L346.6,266.3 L346,265.7 L345.7,266.2 L345.5,266.3 L345.2,266.5 L345.2,265.9 L344.5,262.9 L343.7,261.2 L343,259.6 L342.7,259 L342.4,258.7 L342.1,257.9 L341.6,256.3 L341.6,255.7 L341.6,255.1 L341.6,254.5 L341.3,253.3 L341.3,253 L341.6,252.8 L341.9,252.7 L342.1,252.7 L342.5,252.7 L342.7,252.4 L342.7,251.8 L342.7,251.3 L342.8,251 L343.6,249.8 L343.7,249.8 L344,249.8 L344.3,249.7 L345.2,248.6 L346.6,248 L347.9,247 L349,246.1 L349.1,245.9 L349.9,245.8 L351.4,245.9 L352.9,245.6 L353.2,245.6 L353.5,245.6 L353.8,245.6 L354.1,245.8 L354.4,245.9 L354.5,246.1 L354.8,246.1 L355.9,245.5 L356,245.3 L356.3,244.9 L356.6,244.7 L356.8,244.7 L357.2,245 L357.4,245.3 L357.5,245.8 L357.8,246.1 L358.1,246.2 L358.4,246.4 L358.7,246.1 L358.9,245.5 L359.9,244.9 L360.2,244.7 L360.5,244.9 L361.3,245.2 L362,245.2 L362.3,245.2 L362.5,245 L362.6,244.7 L363.7,244.4 L365,244.6 L365.6,244.6 L366.2,244.7 L366.8,245.2 L367.6,245.5 L367.7,245.5 L368.5,244.9 L369.1,244.4 L369.4,244.4 L370,244.7 L370.1,244.9 L370.4,244.7 L371,244.3 L371.2,243.8 L371.3,243.5 L371.6,242.9 L373.4,241.1 L373.7,241.1 L374,241.7 L374.2,242.2 L374.5,242.6 L374.6,242.9 L374.8,243.4 L375.8,244.7 L376,244.9 L376.4,245 L376.6,245 L376.7,245 L377.5,244.9 L378.1,245 L379,244.9 L380.3,244.9 L381.7,245.5 L383.5,246.8 L384.1,247 L384.7,247.3 L385.1,247.4 L386.6,248.5 L386.9,248.8 L387.2,249.2 L387.5,249.8 L388.1,250.3 L388.4,250.4 L388.7,250.6 L389.9,250.9 L390.2,250.9 L390.7,250.9 L391,250.7 L391.1,251.2 L391.4,252.1 L391,254.8 L390.8,256.6 L391.3,256.7 L391.6,256.9 L391.9,256.9 L392.3,256.4 L392.5,256.4 L393.7,256.4 L394.1,256.7 L394.1,257 L394,257.3 L392.9,258.7 L392,259.6 L391.7,259.6 L389.9,260.2 L389.8,260.6 L389.9,261.4 L389.8,262.3 L389.5,263.2 L388.7,263.6 L387.5,263.9 L387.4,264.1 L387.1,264.2 L386.6,265.6 L386.3,267.1 L386.6,269 L386.8,269.3 L387.2,269.9 L387.4,270.4 L387.2,270.7 L387.1,271.1 L386.6,271.6 L386.2,274.4 L386.3,275 L386.6,275.2 L386.9,275.2 L387.2,275 L387.5,274.7 L387.7,274.7 L388.9,275.9 L389,277.3 L388.9,277.4 L388,278 L386.8,278 L386.3,277.4 L386.6,277.1 L386.8,276.4 L385.9,275.5 L385.6,275.6 L385.4,275.9 L385.3,276.2 L385.1,276.5 L385,276.5 L384.7,276.7 L383.6,277.6 L383.5,278 L383.3,278.3 L382.9,278.9 L382.7,279.1 L382.3,279.2 L382,279.1 L381.7,278.9 L380.6,279.4 L380.2,280.1 L380.6,280.7 L380.8,281.2 L380.9,281.6 L380.9,282.1 L380,282.4 L379.7,282.1 L379,282.2 L378.1,283.1 L377.8,283.7 L377.2,284.3 L376,284.3 L375.8,283.9 L375.7,283.7 L375.4,283.4 L375.1,283.4 L374.8,283.6 L374.6,283.9 L374.3,284.2 L373.6,284.2 L373.4,284.3 L372.5,284.3 L371.5,284.6 L370.9,284.9 L369.8,285.1 L369.5,284.9 L369.4,284.9 L369.1,284.9 L368.9,284.9 L368.9,284.9 Z M342.7,266.5 L342.2,266.3 L342.5,265.6 L342.5,265.1 L342.8,264.2 L342.8,263.5 L343,262.4 L343,262 L342.8,261.1 L342.7,259.7 L342.5,259 L342.7,259.3 L342.8,259.4 L343.1,260.3 L343.1,261.2 L343.3,263.9 L343,265.4 L342.7,266.5 L342.7,266.5 Z M342.7,266.5" id="lt" stroke="#FFFFFF" fill="#DCDCDC"></path>
    </g>
</svg>