<?xml version="1.0" encoding="UTF-8" standalone="no"?>
<svg width="612px" height="612px" viewBox="0 0 612 612" version="1.1" xmlns="http://www.w3.org/2000/svg" xmlns:xlink="http://www.w3.org/1999/xlink" xmlns:sketch="http://www.bohemiancoding.com/sketch/ns">
    <title>al</title>
    <description>Created with Sketch (http://www.bohemiancoding.com/sketch)</description>
    <defs></defs>
    <g id="Page 1" stroke="none" stroke-width="1" fill="none" fill-rule="evenodd">
        <path d="M206.8,369.7 L206.8,370.3 L206.8,370.7 L206.3,370.6 L206.2,370.4 L205.6,370 L205.4,369.8 L204.7,369.8 L204.2,370.4 L203.9,370.7 L202.7,370.7 L201.5,369.8 L201.4,369.5 L201.1,369.1 L201.4,368.9 L201.7,368.6 L202.1,367.4 L202.1,367.1 L202,366.2 L201.8,366.1 L201.1,365 L200.8,364.9 L200.6,364.1 L200.8,362.9 L201.2,362 L201.8,361.6 L202.4,360.1 L202.4,359.8 L203.3,358.6 L203.8,358.4 L203.9,358.4 L203.9,358.7 L204.8,359.3 L205,359.5 L204.8,359.5 L204.8,360.1 L204.7,360.5 L204.8,361.3 L205,361.7 L205.3,362.3 L205.7,363.4 L205.9,363.5 L206.6,364.1 L207.4,364.7 L207.7,364.9 L208.3,364.9 L208.6,365 L208.4,366.7 L208,366.8 L207.5,367.3 L206.8,369.7 L206.8,369.7 Z M206.8,369.7" id="lu" stroke="#FFFFFF" fill="#DCDCDC"></path>
    </g>
</svg>