<?xml version="1.0" encoding="UTF-8" standalone="no"?>
<svg width="612px" height="612px" viewBox="0 0 612 612" version="1.1" xmlns="http://www.w3.org/2000/svg" xmlns:xlink="http://www.w3.org/1999/xlink" xmlns:sketch="http://www.bohemiancoding.com/sketch/ns">
    <title>al</title>
    <description>Created with Sketch (http://www.bohemiancoding.com/sketch)</description>
    <defs></defs>
    <g id="Page 1" stroke="none" stroke-width="1" fill="none" fill-rule="evenodd">
        <path d="M364,218.5 L364.1,218.5 L364.4,218.5 L364.7,218.3 L364.9,218.2 L365,217.9 L365.6,216.8 L367.1,216.4 L369.2,214.6 L369.4,214.4 L369.5,214.1 L369.8,214 L370.1,213.8 L370.4,213.8 L370.6,214 L370.7,214.3 L370.9,214.6 L371,214.9 L371.2,215 L371.6,214.6 L371.5,214.1 L371.2,213.7 L371.5,213.4 L372.7,214.1 L373,214.4 L374.6,215.6 L376.3,216.2 L376.6,216.2 L377,216.2 L377.5,216.1 L378.4,216.5 L380.2,218.3 L381.1,219.4 L381.4,219.5 L383.3,220.4 L383.5,220.6 L384.2,220.3 L384.2,220 L384.7,219.4 L386,218 L386.2,218 L386.8,218 L387.1,218 L387.4,218.2 L387.5,218.3 L388,218.8 L389.9,218.9 L390.5,218.8 L391,218.6 L391.1,218.6 L391.3,218.6 L391.9,218.3 L392,219.1 L392.2,220 L392.6,220.3 L392.9,220.3 L393.7,220.7 L395,221.3 L395.3,221.6 L395.6,222.2 L395.8,223.6 L395.6,225.8 L395.6,228.2 L396.1,229 L396.2,228.8 L396.5,228.7 L396.8,228.7 L397.1,228.7 L398,229.3 L398,229.9 L398.3,230.9 L399.2,232 L400.6,233.9 L401.2,234.7 L401.6,235.6 L402.7,237.7 L402.7,239.3 L402.7,239.6 L402.5,239.9 L402.4,239.8 L402.1,239.6 L400.6,241.1 L400.6,241.7 L400,243.1 L399.4,244 L398.9,244.7 L399.1,245.9 L399.1,246.4 L399.1,246.8 L398.8,247 L398.5,247.1 L396.5,247.3 L395.6,247.1 L395,247 L393.7,247.4 L393.1,248.6 L393.1,249.2 L392.9,249.7 L392.2,250.3 L392,250.3 L391.6,250.1 L391.3,250.1 L391.1,250.3 L391,250.6 L391,250.7 L390.7,250.9 L390.2,250.9 L389.9,250.9 L388.7,250.6 L388.4,250.4 L388.1,250.3 L387.5,249.8 L387.2,249.2 L386.9,248.8 L386.6,248.5 L385.1,247.4 L384.7,247.3 L384.1,247 L383.5,246.8 L381.7,245.5 L380.3,244.9 L379,244.9 L378.1,245 L377.5,244.9 L376.7,245 L376.6,245 L376.4,245 L376,244.9 L375.8,244.7 L374.8,243.4 L374.6,242.9 L374.5,242.6 L374.2,242.2 L374,241.7 L373.7,241.1 L373.4,241.1 L371.6,242.9 L371.3,243.5 L371.2,243.8 L371,244.3 L370.4,244.7 L370.1,244.9 L370,244.7 L369.4,244.4 L369.1,244.4 L368.5,244.9 L367.7,245.5 L367.6,245.5 L366.8,245.2 L366.2,244.7 L365.6,244.6 L365,244.6 L363.7,244.4 L362.6,244.7 L362.5,245 L362.3,245.2 L362,245.2 L361.3,245.2 L360.5,244.9 L360.2,244.7 L359.9,244.9 L358.9,245.5 L358.7,246.1 L358.4,246.4 L358.1,246.2 L357.8,246.1 L357.5,245.8 L357.4,245.3 L357.2,245 L356.8,244.7 L356.6,244.7 L356.3,244.9 L356,245.3 L355.9,245.5 L354.8,246.1 L354.5,246.1 L354.4,245.9 L354.1,245.8 L353.8,245.6 L353.5,245.6 L353.2,245.6 L352.9,245.6 L351.4,245.9 L349.9,245.8 L349.1,245.9 L349,246.1 L347.9,247 L346.6,248 L345.2,248.6 L344.3,249.7 L344,249.8 L343.7,249.8 L343.6,249.8 L342.8,251 L342.7,251.3 L342.7,251.8 L342.7,252.4 L342.5,252.7 L342.1,252.7 L341.9,252.7 L341.6,252.8 L341.3,253 L341,252.4 L340.9,251.8 L340.7,251.5 L340.6,251.3 L340.1,250.4 L339.8,248.3 L339.7,245.9 L340,245.8 L340.3,246.7 L340.6,247 L340.3,245.8 L339.7,244.1 L339.8,243.5 L339.8,243.1 L339.8,242.8 L339.7,241.9 L339.7,241.3 L339.5,240.7 L339.5,240.2 L340.1,239.6 L340.7,238.9 L341,238.6 L341.6,237.4 L341.9,236.8 L341.9,236.3 L341.9,236 L341.9,235.6 L341.8,235.1 L341.5,233.2 L341.5,232.4 L341.5,232.1 L341.6,231.8 L341.8,231.5 L342.5,229.6 L342.8,228.7 L343,228.2 L343,227.9 L343.1,227.5 L343.3,227.2 L343.4,227 L344.3,226.6 L344.6,226.6 L344.9,226.6 L345.4,226.4 L345.7,226.3 L345.8,226 L346.3,225.7 L347.6,224.6 L349.1,223.4 L350,223 L350.2,223.1 L350.2,224.2 L350.3,224.9 L350.9,225.8 L351.2,226 L352,226.4 L353.5,227.6 L353.9,227.9 L354.5,228.4 L354.8,228.5 L355.3,228.7 L355.4,228.7 L355.7,228.7 L356.2,229.6 L357.1,231.8 L357.4,232.7 L357.5,232.9 L358,233.3 L358.1,233.5 L358.4,233.6 L360.7,234.5 L361.3,234.5 L362.2,234.4 L362.3,234.2 L362.8,233.9 L363.1,233.8 L363.7,233.3 L363.8,233.2 L365,231.5 L365.6,230.9 L366.5,229.3 L366.7,228.7 L366.7,228.2 L366.4,226.9 L365.3,223.3 L364.7,221.3 L364.3,220.9 L364,219.8 L363.8,219.2 L364,218.5 L364,218.5 Z M364,218.5" id="lv" stroke="#FFFFFF" fill="#DCDCDC"></path>
    </g>
</svg>