<?xml version="1.0" encoding="UTF-8" standalone="no"?>
<svg width="612px" height="612px" viewBox="0 0 612 612" version="1.1" xmlns="http://www.w3.org/2000/svg" xmlns:xlink="http://www.w3.org/1999/xlink" xmlns:sketch="http://www.bohemiancoding.com/sketch/ns">
    <title>al</title>
    <description>Created with Sketch (http://www.bohemiancoding.com/sketch)</description>
    <defs></defs>
    <g id="Page 1" stroke="none" stroke-width="1" fill="none" fill-rule="evenodd">
        <path d="M441.8,404.5 L441.8,403 L441.8,400.4 L442,398.8 L441.2,395.8 L440.9,394.9 L440.5,394.4 L440,393.8 L439,392.3 L439,392.2 L438.8,391.6 L438.5,391.1 L438.1,390.2 L437.5,389.8 L437,389.6 L436.4,389.5 L435.2,388.7 L434.5,388.1 L434,387.4 L433.4,386.5 L433.1,386.2 L432.7,386 L432.1,386 L431.3,385.1 L429.7,383.5 L429.1,382.3 L428,381.5 L427.7,381.4 L427.3,381.1 L427,380.5 L426.2,379.1 L425.6,378.2 L425.3,377.3 L424.6,376 L422.3,373.6 L421.7,373.3 L420.1,372.5 L418.9,372.5 L418.1,372.8 L418.1,372.5 L418.1,372.1 L418.6,371.3 L419.6,371.2 L421.4,370.4 L424,369.5 L425.9,367.9 L426.5,367.3 L426.8,367.3 L429.1,367 L430.3,367.6 L430.4,367.9 L430.7,368 L431,368.3 L431.2,368.5 L431.5,368.5 L432.1,368.6 L432.8,368.5 L433,368.8 L433.1,369.5 L434.6,369.8 L434.8,369.8 L435.1,369.5 L435.2,369.2 L435.8,368.9 L436.1,369.2 L436.3,369.7 L436.6,370.1 L437.2,370.3 L437.9,370.3 L438.4,369.7 L439.3,369.7 L440.3,369.7 L441.1,369.7 L441.2,369.8 L442.3,371.3 L442.3,371.5 L442.6,371.6 L443.3,372.2 L443.6,372.2 L443.9,372.2 L444.2,372.2 L444.4,371.8 L444.4,371.5 L444.7,371.2 L445.1,371.2 L445.6,371.5 L447.1,374.3 L447.2,377 L446.9,377.6 L446.8,378.2 L447.1,378.8 L447.8,379.9 L448.1,379.6 L448.3,379.4 L449,379.9 L449.8,380.3 L450.1,380.6 L450.2,381.1 L450.8,381.7 L451.4,381.4 L451.4,380.8 L451.4,380.5 L452.2,380.5 L452.5,380.8 L452.8,381.4 L453.1,383.6 L453.8,385.4 L453.8,386.8 L455.8,387.2 L457.3,387.4 L458.3,387.8 L458.9,389 L459.7,391.9 L459.2,392.2 L459.1,392.6 L459.5,392.9 L460.6,393.5 L460.9,393.7 L461.3,393.7 L461.6,393.7 L461.8,393.7 L462.1,394 L461.9,394.4 L461.3,394.7 L460.7,394.9 L460.4,394.9 L460,395 L459.5,395.6 L459.1,395.5 L457.7,394.6 L457.3,395.8 L457,395.9 L456.7,395.9 L455.2,395.2 L455,394.4 L453.5,395.2 L453.2,395.9 L453.4,396.4 L452.8,397.1 L452.6,397.1 L452.3,397 L452.5,396.5 L452.2,395.2 L452,394.7 L451.7,394.3 L451.4,394.4 L450.1,395.5 L449.8,395.9 L449.6,396.2 L449.3,397 L450.1,399.2 L451.1,400.1 L451.4,400.4 L451.4,403.7 L450.7,404.2 L450.1,404.5 L449.8,404.6 L449.3,404.9 L449.5,405.5 L449.8,406.6 L449.2,408.1 L448.4,408.5 L447.8,409.7 L447.7,410.5 L448.1,410.8 L448.6,412.6 L448.6,412.9 L448.3,413.2 L447.2,413.2 L446.9,413.2 L446.6,413.2 L446.3,413.2 L446,413.3 L445.9,413.5 L445.6,413.6 L445.6,413.9 L445.4,414.5 L445.6,414.8 L445.4,414.7 L445,414.5 L443.5,413 L444.1,412.1 L444.2,412 L444.2,411.4 L443.9,410.5 L442.7,407.3 L442.3,406.6 L442.1,406.3 L441.7,404.9 L441.8,404.5 L441.8,404.5 Z M441.8,404.5" id="md" stroke="#FFFFFF" fill="#DCDCDC"></path>
    </g>
</svg>