<?xml version="1.0" encoding="UTF-8" standalone="no"?>
<svg width="612px" height="612px" viewBox="0 0 612 612" version="1.1" xmlns="http://www.w3.org/2000/svg" xmlns:xlink="http://www.w3.org/1999/xlink" xmlns:sketch="http://www.bohemiancoding.com/sketch/ns">
    <title>al</title>
    <description>Created with Sketch (http://www.bohemiancoding.com/sketch)</description>
    <defs></defs>
    <g id="Page 1" stroke="none" stroke-width="1" fill="none" fill-rule="evenodd">
        <path d="M343.6,481.4 L343.7,481.3 L344.6,480.5 L344.9,480.1 L344.9,479.6 L344.6,478.9 L344.2,478.6 L343.7,478 L343.1,477.1 L343.3,474.8 L343.4,474.2 L343.7,473.9 L343.9,473.8 L344.2,473.6 L344.9,473.3 L345.1,472.6 L344.8,471.8 L344.8,471.5 L345.2,469.7 L346.6,467.9 L347,467.8 L347.5,467.8 L348.1,468.2 L348.1,468.7 L348.8,469.6 L349.4,469.6 L349.6,469.1 L349.6,468.4 L348.7,466.3 L348.4,466.1 L348.1,466.1 L347.8,466 L347.6,465.2 L348.2,464.3 L350.6,464.6 L350.8,464.8 L351.2,465.5 L351.5,465.7 L353.6,466.7 L354.5,467.5 L355.1,468.2 L355.4,468.8 L356.3,469.6 L356.5,469.7 L356.8,469.7 L358,469.9 L359.6,470.5 L360.2,470.6 L361.1,471.4 L361.4,471.8 L362.6,472.3 L362.8,472.3 L364,472.6 L364.3,472.7 L365,473.3 L365.5,474.1 L364,475.6 L362.5,475.7 L362,475.7 L361.7,475.9 L361.4,476.2 L361.1,476.6 L361.1,476.9 L361.6,477.2 L362,477.2 L362.3,477.4 L362.6,477.5 L362.6,479.2 L362.3,479.2 L361,480.1 L359.8,481 L359.5,480.8 L359.2,480.7 L358.7,479.9 L358.9,479.2 L358.7,478.3 L358.3,478.1 L357.5,478.7 L357.4,479.2 L357.2,479.8 L357.2,480.2 L356.3,481.9 L354.2,486.5 L354.7,487 L355.3,487.4 L355.6,487.7 L355.4,488.3 L355.3,490.3 L355.4,490.9 L355.7,491.9 L354.8,491.3 L354.7,491.2 L354.1,491.2 L353.3,490.9 L353,490.6 L352.7,490.1 L352.9,489.5 L352.7,489.1 L351.8,488 L351.4,487.7 L350.9,487.4 L350.3,487 L349.1,485.6 L348.8,485.5 L348.4,485.6 L346.3,484.3 L346,484.4 L345.4,484.1 L345.1,483.5 L345.4,483.5 L346,483.7 L346.9,483.8 L346.9,483.5 L346.4,482.8 L344.5,483.2 L344.3,483.2 L344,482.9 L343.7,482.6 L343.7,482.2 L343.6,481.4 L343.6,481.4 Z M343.6,481.4" id="me" stroke="#FFFFFF" fill="#DCDCDC"></path>
    </g>
</svg>