<?xml version="1.0" encoding="UTF-8" standalone="no"?>
<svg width="612px" height="612px" viewBox="0 0 612 612" version="1.1" xmlns="http://www.w3.org/2000/svg" xmlns:xlink="http://www.w3.org/1999/xlink" xmlns:sketch="http://www.bohemiancoding.com/sketch/ns">
    <title>al</title>
    <description>Created with Sketch (http://www.bohemiancoding.com/sketch)</description>
    <defs></defs>
    <g id="Page 1" stroke="none" stroke-width="1" fill="none" fill-rule="evenodd">
        <path d="M370,489.7 L370.1,489.5 L370.6,489.8 L371.6,489.7 L371.9,489.5 L372.2,488.3 L371.9,487.6 L371.9,486.5 L372.1,485.9 L373.4,485 L375.5,483.4 L375.8,483.4 L377,484.1 L377.9,483.8 L378.4,483.1 L379.7,481.7 L381.4,481.6 L382.1,481.7 L382.4,481.9 L382.7,481.7 L383.3,481.1 L383.5,480.5 L383.9,479.9 L386,479.9 L386.6,480.1 L388,479.5 L388.1,479.2 L389.3,478.6 L389.9,479 L390.5,479.8 L392.2,481.7 L393.4,482.2 L394.4,482.8 L396.1,483.1 L397,484.4 L397.4,485.3 L398.2,486.4 L398.5,486.8 L399.1,487 L399.4,487.6 L399.4,488 L399.1,488.6 L398.8,489.2 L398.8,489.8 L399.2,491.8 L399.7,493.4 L399.5,493.7 L399.4,494 L399.2,494 L397.9,494.2 L397.6,494.6 L397.4,494.9 L397.6,495.8 L397.6,496.3 L397.6,497.5 L395.8,498.4 L394.6,498.5 L394.1,498.5 L392.9,498.5 L392.3,498.4 L391.7,498.1 L391.1,498.4 L388.4,499.3 L387.8,500 L387.8,500.5 L386.8,503 L384.7,504.2 L384.4,504.2 L383.9,504.1 L383.6,503.8 L382.3,503.9 L381.8,504.5 L381.7,504.7 L381.2,504.8 L379.3,505.3 L379,505.4 L377.3,505.6 L377.2,505 L376.9,504.8 L376.6,504.7 L375.4,504.7 L375.2,505.1 L375.1,505.3 L374.2,505.1 L372.8,502.4 L372.1,502.4 L371.6,501.4 L370.7,500 L370.4,499.1 L370.3,498.5 L370.6,498.4 L370.9,497.9 L370.9,497.3 L370.1,496.6 L369.7,496 L369.4,495.7 L369.4,495.1 L370.1,493.7 L369.7,491.9 L369.7,491.3 L370,489.7 L370,489.7 Z M370,489.7" id="mk" stroke="#FFFFFF" fill="#DCDCDC"></path>
    </g>
</svg>