<?xml version="1.0" encoding="UTF-8" standalone="no"?>
<svg width="612px" height="612px" viewBox="0 0 612 612" version="1.1" xmlns="http://www.w3.org/2000/svg" xmlns:xlink="http://www.w3.org/1999/xlink" xmlns:sketch="http://www.bohemiancoding.com/sketch/ns">
    <title>al</title>
    <description>Created with Sketch (http://www.bohemiancoding.com/sketch)</description>
    <defs></defs>
    <g id="Page 1" stroke="none" stroke-width="1" fill="none" fill-rule="evenodd">
        <path d="M182.6,337.4 L183.7,337.6 L184.6,337.1 L187.1,337.3 L187.3,337.6 L187.1,337.9 L186.5,338.5 L186.1,338.8 L185.5,339.2 L184.3,339.7 L183.8,339.8 L182.8,339.4 L182.8,338.8 L181.7,338.2 L181,337.9 L180.2,338.2 L180.2,338.6 L179.6,338.9 L179.3,338.8 L178.9,338.3 L178.7,338.2 L178.7,337.6 L178.9,336.5 L179.2,336.4 L180.4,336.1 L180.7,336.1 L181.4,336.7 L182.3,337.3 L182.6,337.4 L182.6,337.4 Z M183.7,330.7 L183.8,330.7 L184.4,330.8 L185.2,331 L185.5,331.4 L186.1,332 L186.4,332.3 L186.4,332.5 L186.2,332.6 L186.1,332.8 L185.5,332.9 L185,333.1 L184.4,332.6 L183.1,331.9 L182.6,331.7 L182.5,331.6 L182.5,331.1 L182.8,330.8 L183.4,330.7 L183.7,330.7 L183.7,330.7 Z M201.2,321.7 L201.2,322.1 L200.9,322.7 L199.9,323 L199.7,323 L199.4,322.6 L199.1,322.3 L198.8,322.1 L198.5,322 L198.2,321.8 L197.9,321.7 L197.6,321.7 L197.3,321.5 L197.3,320.9 L197.6,320.6 L197.9,320.3 L198.8,319.9 L199.7,319.3 L200,319.1 L200.5,319 L200.5,318.7 L200.8,318.2 L201.7,317.6 L202.4,317.5 L204.2,318.2 L204.4,318.8 L204.2,319.6 L204.1,319.9 L203.6,320.5 L203.3,320.8 L202.9,320.8 L202.7,320.8 L202,321.2 L201.8,321.4 L201.4,321.4 L201.2,321.7 L201.2,321.7 Z M194.5,310.4 L194.3,310.4 L194.2,310.4 L194,310.3 L194,310.1 L193.9,309.8 L193.9,309.5 L194,309.2 L194,309.1 L194.3,308.8 L195.5,307.3 L195.7,307.1 L195.8,307.3 L196,308 L196,308.8 L195.8,308.9 L195.5,309.4 L195.4,309.7 L194.8,310.1 L194.6,310.3 L194.5,310.4 L194.5,310.4 Z M199,304.7 L198.8,304.6 L198.7,304.4 L198.7,304.1 L198.8,304.1 L199.1,304 L199.3,303.8 L202.3,303.2 L202.4,303.1 L202.6,303.2 L202.6,303.4 L202.4,303.5 L200.3,304.3 L200,304.3 L199,304.7 L199,304.7 Z M214.7,304.1 L214.9,305.5 L215.3,305.9 L216.7,307.1 L217.7,307.4 L217.7,308.5 L217.6,311.3 L217.4,312.1 L217.3,312.5 L216.8,313.3 L216.4,314.2 L216.2,314.5 L216.1,314.9 L216.1,315.5 L216.1,316.1 L215.9,317.3 L215.8,317.6 L214.4,317.3 L213.1,317.2 L212.8,317.5 L212.6,317.6 L212.8,317.8 L213.1,318.7 L212.6,318.7 L212.3,318.8 L212.5,319.9 L212.9,320.5 L214.9,320.9 L215.2,320.6 L215.8,321.7 L215.9,322.3 L215.8,322.6 L215.5,323.2 L215.5,323.6 L215.6,324.2 L215.5,324.4 L214.7,325 L214.1,325.3 L213.8,325.9 L213.7,326.2 L212.8,326.2 L212.5,326.9 L212.3,327.5 L212.9,328 L213.2,328.6 L212.8,329.5 L212.5,329.8 L212.2,329.9 L211.9,329.6 L211,329.9 L210.2,330.2 L209.6,330.5 L208.6,330.5 L206.9,329.6 L206.3,329.8 L205.1,330.7 L204.7,331.1 L204.8,331.7 L204.5,332 L205.3,332.8 L205.9,334.6 L206.2,335.2 L206.5,335.3 L206.8,336.1 L206.9,337 L206.9,338.6 L206,339.8 L205.3,340.6 L205.3,341 L205.3,341.8 L205.4,342.5 L204.5,343.3 L203.5,343.6 L203,343.9 L203,344.3 L203.3,345.1 L203.8,344.9 L204.5,345.1 L205.1,346.1 L205.1,346.9 L204.8,347.2 L204.4,347.3 L204.2,347.9 L204.2,348.7 L203.5,348.7 L203.2,348.7 L202.9,348.7 L202.1,348.4 L201.5,348.5 L201.1,348.5 L201.2,348.2 L201.2,347.8 L201.1,347.8 L201.1,347.6 L200.8,347.5 L200.6,347 L200.8,346.6 L202,345.2 L202,344.6 L202.1,344.2 L202.7,342.7 L203,342.1 L202.1,341.3 L201.1,341 L200.3,340.7 L200.2,339.8 L199.7,339.4 L199.4,339.5 L198.7,339.8 L197.9,339.8 L197,339.8 L197,339.1 L196.7,338.8 L196.4,338.9 L196.1,338.8 L195.7,337.4 L196,336.8 L195.7,336.2 L195.4,335.9 L195.1,336.2 L194.9,336.7 L194.3,337.3 L193.4,337 L193.3,336.7 L193.4,335.9 L193.3,335.6 L193,335.5 L192.7,335.5 L192.1,336.1 L191.6,336.5 L191.5,336.7 L190.4,336.5 L190.4,336.1 L190.4,335.6 L190,335.6 L189.1,336.1 L188.9,336.7 L189.2,337 L189.2,337.4 L189.1,337.6 L188.8,337.6 L188.5,337.6 L187.7,337.3 L187.4,337.3 L187,336.7 L185.6,336.2 L184.4,336.1 L184.1,336.7 L183.4,336.7 L181,335.5 L180.5,335.3 L179.8,334 L179.9,333.7 L180.2,333.5 L180.5,333.2 L181.1,332.9 L182.3,333.1 L183.7,333.1 L184.1,333.2 L184.3,333.7 L184,334.1 L183.7,334 L183.5,334 L184,334.3 L184.1,334.1 L184.6,334.1 L185.3,334.6 L185.6,334.9 L185.8,335.2 L185.9,335.5 L186.1,335.9 L186.4,336.1 L186.5,336.2 L187.6,336.2 L187.7,336.1 L187.9,336.1 L188,335.6 L188,335.3 L187.7,335 L187.4,334.9 L187.3,334.9 L186.1,334.6 L185.3,333.4 L185.8,333.2 L186.1,333.1 L187,333.4 L187.3,333.4 L187.3,333.7 L187.3,333.4 L187.1,333.1 L186.8,333.1 L186.7,333.1 L186.5,332.8 L186.5,332.6 L186.8,332.5 L187.1,332.5 L187.4,332.6 L187.4,332.2 L187.1,332 L186.7,331.6 L186.1,330.7 L185.8,330.1 L185.5,329.9 L185.2,329.8 L184.3,330.1 L184.3,329.6 L185.6,329.2 L185.8,329.3 L186.2,328.9 L185.9,326.9 L186.4,326.8 L186.7,326.9 L187,326.8 L187.3,326.6 L189.7,323.9 L190,323.3 L190.3,323 L190.4,322.6 L191,321.4 L191.3,320.9 L191.6,320.3 L191.6,319.9 L191.9,319.3 L192.8,319.4 L193.1,319.9 L194.5,320.2 L194.9,320.6 L195.1,320.9 L195.5,320.9 L195.8,321.2 L197.2,321.8 L198.2,322.1 L198.7,322.4 L199,322.9 L199.1,322.9 L199.4,322.9 L199.7,323.3 L199.9,323.3 L200.9,323 L201.1,322.9 L201.4,322.4 L201.5,322.1 L202,321.7 L202.4,321.4 L202.6,321.2 L203,321.1 L203.3,320.9 L203.8,320.5 L204.2,319.9 L204.5,319.1 L204.5,319 L204.4,318.1 L204.4,317.5 L203.5,317.5 L202.6,317.5 L202,316.6 L202.1,315.1 L202.3,314.5 L202.7,313.7 L203.3,313.6 L202.7,313.3 L202,313.4 L200.5,313.1 L200,312.7 L200.5,312.2 L200.6,311.3 L200.6,310.1 L200.2,309.5 L199.9,309.5 L199.6,309.8 L199.1,310 L198.5,310.6 L197.5,311.3 L197.3,312.4 L197.6,313.4 L198.2,314.6 L198.5,314.6 L199.1,314.9 L199.3,315.5 L198.7,315.8 L198.5,316.3 L198.1,316.6 L197.8,316.7 L197.6,316.9 L197.2,316.4 L196.7,316.4 L196.6,316.7 L196.6,317.8 L196.7,318.2 L197,318.7 L196.9,320 L196.7,320.3 L196.4,320.5 L196.1,320.9 L195.2,320.6 L194.8,320.2 L194.3,320 L193.3,319.6 L192.8,319.1 L192.1,319 L192.2,318.4 L192.5,317 L192.8,316.1 L192.8,315.5 L193.1,314.3 L194.2,311 L194.6,310.9 L194.8,311.2 L194.8,311.5 L194.9,311.8 L195.2,312.1 L195.5,312.1 L196,311.9 L197.5,311.2 L198.4,310.4 L198.8,310 L199.1,309.7 L199.6,309.4 L199.9,309.2 L200.2,309.2 L200.5,308.9 L200.6,308.6 L200.6,308.3 L200.8,307.7 L201.1,307.1 L201.2,306.8 L202.4,305.8 L202.6,305.8 L205.4,304.4 L206.3,304.3 L207.4,304.1 L208.1,304.1 L208.3,304.1 L209.3,304.3 L210.8,304 L213.1,303.5 L213.4,303.5 L213.5,303.5 L213.8,303.5 L214.7,304.1 L214.7,304.1 Z M214.7,304.1" id="nl" stroke="#FFFFFF" fill="#DCDCDC"></path>
    </g>
</svg>