<?xml version="1.0" encoding="UTF-8" standalone="no"?>
<svg width="612px" height="612px" viewBox="0 0 612 612" version="1.1" xmlns="http://www.w3.org/2000/svg" xmlns:xlink="http://www.w3.org/1999/xlink" xmlns:sketch="http://www.bohemiancoding.com/sketch/ns">
    <title>al</title>
    <description>Created with Sketch (http://www.bohemiancoding.com/sketch)</description>
    <defs></defs>
    <g id="Page 1" stroke="none" stroke-width="1" fill="none" fill-rule="evenodd">
        <path d="M137.8,4.291 L137.6,4.291 L137.5,3.391 L137.6,3.241 L138.8,2.791 L138.8,2.641 L139.1,2.641 L139.9,2.491 L140.9,2.191 L141.4,1.891 L141.5,1.741 L142,1.291 L142,1.141 L142.1,0.991 L142.6,0.541 L142.7,0.391 L142.7,0.241 L145,0.241 L145.1,0.691 L144.4,2.191 L144.2,2.341 L143.5,2.641 L142.4,2.791 L141.8,2.941 L141.8,2.791 L141.7,2.791 L141.5,2.641 L141.4,2.641 L140.9,2.641 L140.6,2.641 L138.5,3.991 L138.4,4.141 L138.2,4.291 L138.1,4.291 L137.9,4.291 L137.8,4.291 L137.8,4.291 Z M247.6,120.391 L247.7,120.191 L248.2,120.191 L248.6,120.391 L248.8,120.491 L249.5,121.091 L249.8,121.291 L250.1,121.291 L249.8,120.391 L249.7,120.091 L249.4,120.091 L249.1,120.191 L248.9,120.191 L248.8,120.091 L248.9,119.591 L249.8,118.991 L250,118.991 L250.4,119.291 L250.6,117.791 L250.9,117.391 L251.3,117.791 L251.5,117.991 L251.5,118.391 L251.5,118.691 L253,119.891 L253.1,121.091 L252.7,122.191 L253,121.891 L253.6,120.791 L254.2,119.591 L254.2,119.191 L254.6,118.291 L254.8,118.091 L254.9,118.091 L255.1,118.291 L255.4,118.091 L256.1,117.691 L255.8,117.491 L255.2,117.691 L254.8,117.991 L254.6,117.791 L254.3,117.491 L254.3,117.391 L253.9,116.291 L253.9,115.691 L254,115.591 L254.8,114.691 L255.2,114.491 L255.5,114.491 L255.7,114.491 L256.1,114.491 L256.6,114.391 L256.9,114.091 L256.6,113.891 L256.1,114.091 L255.8,113.891 L255.5,113.791 L255.5,113.291 L256.1,112.891 L257.6,111.791 L258.4,111.391 L258.5,111.391 L258.8,111.491 L259.1,111.691 L259.4,111.691 L259.1,111.391 L259,111.191 L258.7,111.191 L258.5,111.191 L258.1,111.191 L257.3,111.691 L257.2,111.691 L256.1,112.591 L254.2,114.391 L253.7,114.991 L253.4,115.091 L253.1,115.091 L252.7,115.291 L253.1,114.991 L253.6,114.091 L253.3,113.891 L252.7,113.791 L252.8,113.491 L253.6,113.291 L254,113.191 L254.3,113.191 L254.8,112.991 L255.8,112.391 L255.7,112.391 L255.4,112.391 L253.1,113.191 L252.8,113.191 L253.1,112.691 L253.4,112.391 L253.9,112.091 L254.8,111.691 L255.4,111.391 L255.7,111.491 L255.8,111.491 L256.3,111.191 L256.4,110.791 L257,110.191 L257.5,109.691 L257.6,109.691 L257.8,109.691 L257.9,109.891 L257.9,110.191 L257.9,110.291 L258.1,109.891 L258.8,109.991 L259.6,109.891 L260.6,109.291 L262.1,108.391 L264.1,105.191 L263.3,106.091 L262.6,106.991 L262.4,107.291 L261.1,108.391 L260.5,108.391 L260.3,108.091 L260.6,106.891 L261.2,106.691 L262,106.591 L262.3,106.391 L262.1,106.291 L260.6,106.091 L260.2,106.291 L260,106.391 L259.6,106.991 L259.4,106.891 L260,105.791 L260.9,104.791 L261.1,104.591 L261.4,104.491 L260.9,103.391 L261.4,103.291 L261.8,103.591 L262,103.691 L261.8,103.091 L261.4,102.391 L261.2,102.091 L261.1,102.191 L260.8,102.191 L260.5,101.891 L260.3,101.791 L260,100.991 L260,100.091 L260.5,99.231 L260.8,98.781 L261.1,98.781 L261.4,98.931 L261.7,99.831 L262,100.091 L262.7,100.291 L262.9,100.091 L262,99.381 L261.4,98.631 L261.2,98.331 L261.5,96.831 L261.8,95.931 L262,95.481 L262.1,95.331 L262.4,95.031 L262.6,94.881 L262.9,94.731 L263,94.731 L263.5,94.881 L263.5,95.031 L264.5,95.781 L265.3,96.531 L265.1,95.631 L264.8,95.031 L264.5,95.031 L264.1,94.881 L263.6,94.581 L263.6,94.431 L263.8,93.531 L263.5,93.231 L263.3,93.381 L262.3,93.531 L262.1,93.531 L261.8,93.231 L262.9,92.031 L263.3,92.031 L263.5,91.881 L263.6,92.031 L263.9,91.881 L264.4,91.731 L265,91.431 L265.4,91.131 L265.7,90.831 L265.9,90.531 L266.2,90.381 L267.7,90.231 L267.7,90.531 L267.4,90.831 L267.5,92.181 L267.7,92.331 L268,90.831 L268.3,90.231 L268.6,90.081 L268.9,90.081 L269,90.081 L269.2,90.081 L269.6,90.231 L269.8,90.231 L270.5,89.781 L271.3,88.581 L271.1,88.281 L270.2,88.881 L268.9,89.331 L268.6,89.781 L268.1,90.081 L268,90.081 L267.8,89.931 L267.1,89.931 L266.3,90.081 L265.3,90.831 L265.1,90.981 L264.8,90.981 L264.4,91.281 L264.1,90.981 L265.3,89.631 L266.2,89.181 L266.6,89.181 L267.1,89.181 L267.4,89.031 L266.9,88.881 L266,88.881 L265.6,89.181 L265.3,89.331 L265.1,89.331 L264.8,89.181 L264.1,89.031 L263.9,88.881 L263.9,88.431 L264.1,88.281 L264.4,88.131 L264.8,87.681 L264.8,87.081 L264.2,86.031 L263.9,86.031 L263.6,85.731 L264.2,85.431 L264.4,85.431 L264.5,85.431 L265.1,85.731 L265.6,85.581 L266.6,84.831 L266.9,84.531 L267.2,84.381 L267.4,84.231 L267.8,84.231 L268,84.231 L268.3,84.081 L267.8,83.931 L267.1,84.081 L266.8,84.381 L266.6,84.681 L266.5,84.981 L265.4,85.281 L265.3,85.131 L265.1,84.981 L264.8,83.481 L264.8,83.331 L266.2,83.331 L266.8,83.481 L267.1,83.631 L267.1,83.481 L266.8,83.181 L266.2,82.881 L265.7,82.881 L265.6,82.881 L265.1,82.581 L265.4,82.281 L266.2,82.431 L266.8,82.431 L267.2,82.581 L267.4,82.731 L268.1,82.731 L269.2,82.131 L269.3,81.981 L268.4,82.131 L268.1,82.131 L267.7,82.431 L267.4,82.431 L267.2,82.431 L267.1,81.981 L267.2,81.681 L267.5,81.531 L267.7,81.531 L268,81.531 L267.7,81.531 L267.4,81.381 L267.2,81.381 L267.1,81.531 L266.9,81.231 L267.2,80.931 L267.5,80.781 L268.4,80.931 L269.9,81.081 L269.8,80.931 L269.5,80.781 L269,80.781 L268.9,80.781 L268,80.481 L266.9,79.281 L267.1,78.831 L267.4,78.681 L268.3,78.681 L269.5,78.831 L269.6,78.831 L270.7,77.781 L271.1,77.931 L271.3,77.931 L271.6,77.031 L271.7,76.581 L272.3,76.431 L273.2,76.731 L273.4,77.031 L273.7,76.881 L273.5,76.581 L272.5,76.281 L272.2,76.281 L271.7,76.281 L271.6,76.281 L271.9,75.081 L272,75.081 L272.6,74.781 L273.5,74.781 L274,74.781 L274.3,74.931 L274.4,75.081 L274.6,75.381 L274.6,75.081 L274.4,74.781 L274.3,74.631 L273.5,74.481 L273.1,74.481 L273.2,74.331 L273.4,74.181 L274.7,73.881 L275.6,73.881 L275.6,74.331 L275.5,74.781 L276.1,75.681 L276.2,75.531 L276.1,75.231 L275.9,75.081 L275.8,74.931 L275.9,74.331 L276.2,73.881 L276.4,73.731 L277.7,74.031 L278.3,74.331 L278.5,74.481 L278.6,74.781 L278.6,75.231 L279.1,75.831 L279.4,75.981 L279.2,74.781 L278.5,73.881 L278.8,73.731 L279.1,73.581 L279.5,73.731 L279.8,73.881 L280,74.031 L280.7,74.181 L280.7,74.031 L280.6,73.581 L278.6,73.281 L277.7,73.131 L277.7,73.281 L277.4,73.281 L277.3,73.431 L276.5,73.131 L276.7,72.981 L276.8,72.831 L277,72.231 L276.2,72.381 L275,72.831 L274.9,73.131 L274.3,73.881 L274.1,73.881 L274,74.031 L273.7,74.031 L273.1,73.431 L271.7,73.581 L272.6,72.681 L273.1,71.781 L273.2,71.031 L273.4,70.581 L273.7,70.431 L274.3,70.581 L274.6,70.581 L274.7,70.881 L275.2,70.731 L275.3,70.281 L275,70.281 L274.7,70.131 L274.1,69.381 L274.6,68.781 L275.2,68.331 L275.5,68.181 L275.9,68.031 L276.1,68.031 L276.7,68.331 L275.8,69.381 L275.6,69.381 L275.5,69.531 L275.3,69.531 L275.8,69.681 L276.1,69.531 L276.4,69.231 L277.9,69.231 L278.3,69.231 L278.5,69.381 L278.8,69.531 L279.2,70.581 L279.7,71.781 L280,72.681 L280.1,72.531 L280.4,72.081 L279.8,71.181 L279.1,70.131 L279.1,69.531 L279.2,69.231 L279.5,68.781 L279.7,68.631 L280.1,68.181 L280.6,68.031 L280.7,67.881 L281,67.881 L281.3,67.881 L281,67.731 L280.3,67.881 L280.1,67.881 L279.8,68.181 L279.7,68.181 L279.5,68.481 L279.2,68.781 L278,68.781 L277.4,68.781 L277.3,68.631 L276.8,67.131 L277.4,65.481 L277.7,65.631 L278.5,65.931 L278.8,66.081 L279.7,66.081 L279.4,65.781 L279.1,65.631 L278.9,65.631 L278.8,65.631 L278.6,65.631 L278,65.181 L278.5,65.181 L278.9,65.181 L279.1,65.031 L279.4,65.181 L279.5,65.331 L280.3,65.781 L280.6,65.931 L280.7,65.931 L280.4,65.181 L279.8,64.731 L279.4,64.731 L279.2,64.581 L277.7,64.281 L276.7,65.631 L276.1,66.231 L275.6,66.531 L275,66.831 L274.6,66.981 L274.4,66.981 L274.1,66.981 L274,66.831 L274.1,65.631 L274.9,65.481 L275.5,65.481 L275.8,65.181 L275.6,64.731 L275.3,64.731 L274.7,64.881 L274.4,64.881 L274,64.581 L274,64.281 L274.1,63.981 L275.5,63.681 L275.8,63.681 L275.9,63.681 L276.1,63.381 L275.8,63.381 L275.5,63.381 L275,63.531 L274.9,63.681 L274.6,63.681 L274.4,63.681 L274.7,63.231 L275.2,62.931 L275.3,62.781 L275.5,62.781 L276.5,62.931 L276.8,63.081 L277,63.231 L277.4,62.781 L278.6,62.181 L279.7,61.581 L279.8,61.581 L280.1,61.581 L280.3,61.731 L280.4,61.881 L280.7,61.881 L280.9,61.581 L281.2,60.831 L281.2,60.381 L280.4,60.081 L280.1,60.231 L280,60.381 L279.1,60.381 L278.9,60.231 L278.3,60.081 L277.9,60.381 L277.9,60.831 L277.7,61.131 L277.3,60.981 L277,60.531 L277.3,59.781 L277.7,59.031 L278.2,58.881 L278.3,59.181 L278.8,59.031 L278.9,58.881 L279.2,58.431 L279.5,58.581 L279.7,59.331 L279.5,59.331 L279.1,59.481 L279.1,59.931 L279.2,60.081 L280.4,59.181 L280.6,59.031 L280.6,58.581 L280.7,57.681 L280.9,56.931 L281.2,56.781 L281.3,56.781 L281.9,58.131 L281.9,59.481 L282.7,60.831 L282.8,61.131 L283,61.731 L282.8,62.181 L284.2,63.231 L284.3,63.381 L284.6,63.681 L284.8,63.681 L284.8,63.531 L284.5,62.781 L284.3,62.781 L283.9,62.631 L283.6,62.481 L283.1,62.181 L282.7,60.531 L283,60.381 L283.6,60.381 L284,60.531 L284.2,60.831 L284.3,60.981 L284.5,61.131 L284.8,61.131 L284.5,60.231 L284,60.081 L283.9,60.081 L283.7,59.931 L283.9,59.481 L284.2,58.881 L284.5,59.181 L284.8,59.331 L285.5,59.481 L285.8,59.181 L284.6,58.881 L284.5,58.581 L284,58.581 L283.9,59.031 L283.4,59.331 L283.1,58.881 L283.1,58.581 L283.7,57.981 L284.2,57.531 L284,57.081 L283.7,57.081 L283.3,57.231 L283.1,57.231 L283,57.381 L282.7,57.531 L282.4,57.531 L282.2,57.381 L282.2,57.081 L282.5,57.081 L282.7,57.081 L283.1,56.781 L282.8,56.631 L282.7,56.481 L281.8,56.181 L281.9,55.731 L282.2,55.431 L284.3,56.331 L284.5,56.481 L284.6,56.931 L285.1,57.531 L285.7,57.981 L286,58.131 L286.3,58.131 L285.7,57.531 L285.1,57.231 L284.8,56.631 L283.9,55.731 L283.6,55.731 L282.5,55.281 L282.4,54.981 L282.8,54.681 L283,54.681 L284.3,54.081 L284.5,53.931 L285.2,53.931 L285.4,53.931 L286.3,54.231 L286.4,54.531 L286.3,54.831 L286.1,54.981 L286.6,54.981 L287,54.681 L287.2,54.381 L287.5,54.231 L287.9,54.231 L288.1,54.231 L289.3,55.881 L289.4,56.931 L289.4,57.231 L289.6,57.081 L289.9,56.031 L289.7,55.731 L289.3,55.281 L289.1,55.281 L289,55.131 L288.5,54.681 L288.4,54.081 L288.5,53.481 L289.1,53.481 L289.4,53.631 L289.6,53.781 L290,54.081 L290.5,54.231 L290.6,54.081 L290.3,53.781 L290,53.781 L289.3,53.331 L289.4,53.181 L290,53.031 L290.5,53.031 L290.5,52.581 L290.2,51.381 L290,51.381 L289.1,51.981 L288.8,52.131 L288.8,52.431 L288.5,52.731 L288.4,52.881 L288.1,52.881 L287.6,53.031 L287.3,53.181 L287,53.031 L287.3,52.881 L287.5,52.731 L287.3,52.281 L286.9,52.131 L286.7,52.131 L286.6,52.281 L286.4,52.581 L286.1,53.031 L286,53.031 L284.9,53.331 L284.2,53.481 L284,53.481 L283.6,52.281 L284,51.831 L284.3,51.831 L284.5,51.831 L284.6,51.681 L284.3,51.381 L284.2,51.231 L284.2,50.781 L284.5,50.181 L285.2,49.581 L285.7,49.281 L286.4,48.981 L287.6,48.681 L288.1,48.531 L288.8,48.531 L289,48.681 L289.1,48.981 L289.3,49.131 L289.6,49.281 L290.8,49.281 L290.5,48.831 L290.2,48.831 L289.9,48.981 L289.6,48.831 L288.4,48.231 L287.9,47.931 L289,47.031 L289.1,46.881 L289.4,46.881 L289.6,47.031 L290,47.181 L291.2,47.631 L291.4,47.631 L291.2,47.181 L290.9,47.181 L290.8,47.181 L290.5,47.181 L290.3,47.031 L289.3,46.581 L289.4,46.431 L290.2,45.831 L290.6,45.531 L290.8,45.681 L290.9,45.831 L291.4,45.831 L291.4,45.681 L290.6,44.931 L290.3,44.931 L290,44.931 L289.7,45.081 L289.4,45.231 L289.3,45.231 L289.1,45.531 L289,45.531 L289.1,44.031 L289.9,42.231 L290.2,41.931 L290.3,41.931 L291.4,41.631 L292.6,41.181 L292.7,41.181 L292,39.981 L291.7,39.981 L291.7,39.231 L291.7,38.931 L291.8,38.631 L292.1,38.481 L292.4,38.181 L292.6,37.431 L292.6,36.981 L292.4,36.681 L292.6,36.081 L292.9,35.781 L293,35.631 L293.2,35.781 L293.5,36.081 L294.5,37.431 L294.7,37.731 L294.8,38.481 L295.9,38.931 L295.9,38.631 L295.6,38.331 L296.2,37.881 L296.8,38.031 L296.9,38.031 L297.2,38.331 L297.5,38.481 L297.7,38.331 L297.2,37.881 L297.1,37.731 L296.5,37.731 L296.3,37.731 L296,37.581 L295.6,37.431 L295.3,37.281 L295.1,37.131 L294.1,36.231 L294.1,35.331 L294.2,35.031 L295.1,34.581 L296.2,34.281 L296.8,35.631 L297.5,36.681 L298,37.131 L298.1,37.281 L298.3,37.281 L298.4,37.281 L298.9,37.281 L299.2,37.281 L299.5,37.281 L299.6,37.431 L299.8,37.581 L299.8,38.181 L299.5,38.331 L299.3,38.331 L298.9,38.481 L298.7,38.631 L299.6,39.231 L299.8,39.231 L300.4,39.081 L300.4,38.631 L300.2,37.581 L299.9,37.131 L299.6,36.831 L299.2,36.681 L299,36.681 L298.7,36.831 L298.4,36.831 L298.1,36.831 L297.2,35.631 L297.2,34.881 L297.7,34.431 L298.1,34.131 L298.3,34.131 L298.4,34.281 L298.6,34.431 L298.4,33.831 L298.3,33.831 L297.7,34.131 L297.4,34.281 L297.2,34.581 L297.1,34.431 L296.8,34.131 L296.8,33.831 L296.6,33.381 L296.9,32.631 L297.4,31.581 L297.8,31.131 L298.1,30.531 L298.3,30.531 L300.7,29.631 L301,29.631 L301.1,29.631 L301.1,30.081 L301,31.281 L300.8,31.881 L301.1,32.181 L301.1,32.781 L301.1,33.081 L300.8,34.431 L300.5,36.231 L301.3,35.631 L301.4,34.881 L301.4,34.281 L301.6,31.131 L302.2,29.781 L302.3,29.931 L302.8,29.631 L302.8,28.881 L303.1,27.381 L303.8,26.631 L304,26.781 L304.4,27.531 L304.7,28.131 L304.7,28.881 L304.6,30.081 L304.6,30.681 L304.6,31.281 L304.6,32.931 L304.7,34.431 L304.7,34.731 L304.4,35.631 L304.3,35.781 L304,36.231 L303.7,36.531 L303.4,36.681 L303.4,36.831 L303.1,38.031 L303.2,38.181 L303.7,37.281 L304.4,36.231 L304.6,36.081 L305,35.331 L305.2,35.031 L305.2,34.431 L305.6,32.781 L305.8,32.781 L305.9,32.931 L306.2,33.081 L306.5,33.381 L307.1,33.531 L308,33.681 L307.9,33.531 L306.8,32.931 L305.8,32.031 L305.6,31.881 L305.8,29.781 L306.1,29.631 L306.7,29.331 L307,29.031 L307.1,28.881 L307.1,28.281 L307,27.981 L307.4,27.231 L308.3,26.481 L308.5,26.481 L308.3,26.781 L308.2,26.931 L308,27.081 L307.9,27.231 L307.6,28.131 L307.9,28.581 L308.3,29.031 L308.6,28.881 L308.9,27.681 L309.2,25.881 L309.2,25.581 L309.5,25.131 L309.7,24.981 L310,24.981 L310.1,24.981 L310.3,24.981 L311,25.431 L311.3,26.031 L311.3,26.331 L311.6,26.631 L311.9,26.781 L312.1,26.931 L312.4,26.781 L312.7,26.931 L313.3,27.531 L313.6,27.831 L313.9,28.431 L314,28.881 L314.3,28.881 L314.6,28.881 L314.8,28.731 L314,27.231 L313.1,25.881 L312.4,24.381 L312.5,24.231 L312.8,24.081 L313.3,23.931 L313.4,23.931 L313.9,23.031 L313.6,23.181 L313.3,23.481 L313.1,23.631 L311.9,24.231 L311.8,24.231 L310.3,23.631 L310,23.181 L309.4,22.881 L309.2,22.881 L308.9,22.731 L308.5,22.281 L308.8,22.131 L308.9,21.531 L310,20.481 L310.4,20.631 L310.7,21.081 L311.5,21.381 L311.8,21.231 L311.9,20.781 L312.7,19.881 L313.7,20.331 L314.2,20.181 L314.3,20.181 L314.6,20.181 L314.6,21.681 L315.1,22.281 L316.3,22.431 L316.1,22.131 L316,22.131 L315.4,21.981 L315.1,21.981 L315.1,20.631 L315.2,20.481 L315.8,20.481 L316.3,20.631 L316.7,20.781 L317.9,20.781 L318.4,20.781 L318.5,20.781 L318.5,20.931 L318.2,21.831 L317.9,22.281 L317.8,22.431 L317.5,22.581 L316.6,23.031 L316.4,23.031 L316.1,23.031 L315.8,23.181 L315.7,23.181 L315.2,23.631 L315.1,23.931 L315.2,23.931 L315.5,23.781 L315.7,23.631 L316,23.481 L316.3,23.331 L316.6,23.181 L316.7,23.181 L317,23.031 L317.9,22.581 L318.2,22.431 L319,22.431 L319.4,23.481 L320.3,24.381 L321.2,24.381 L322,23.631 L322.3,23.031 L322.1,23.031 L321.8,23.031 L321.7,23.031 L321.4,23.031 L321.2,23.031 L321.1,23.031 L320.6,22.881 L320.5,22.731 L320,22.281 L320.5,21.981 L320.9,21.681 L320.9,21.231 L320.6,20.631 L320.6,20.181 L320.8,20.031 L321.5,19.581 L321.2,19.581 L321.1,19.581 L320.9,19.281 L321.1,18.531 L321.5,17.331 L321.8,16.881 L321.8,16.731 L322.6,15.531 L322.7,15.381 L323,15.231 L323.5,15.081 L323.6,14.931 L325,15.081 L325.3,15.231 L325.4,15.381 L325.7,15.381 L325,14.631 L324.7,14.631 L324.2,13.881 L324.7,12.231 L324.8,12.081 L325,11.781 L325.7,11.931 L325.9,12.081 L326.6,12.531 L326.8,12.681 L327.1,12.681 L327.2,12.531 L327.2,12.381 L327.1,11.931 L326.9,11.781 L326,10.881 L325.9,10.881 L325.6,10.881 L325.1,10.881 L324.2,10.731 L324.1,9.682 L324.7,9.082 L324.8,9.232 L325.3,9.832 L326,10.131 L326.2,10.281 L326.3,9.832 L325.9,9.082 L325.4,7.882 L325.4,7.432 L325.9,7.132 L326.2,7.132 L326.5,7.132 L327.1,7.732 L327.2,7.882 L327.8,7.732 L327.7,7.282 L327.7,6.982 L327.7,6.832 L327.8,6.832 L328.1,6.982 L328.7,7.582 L329.2,8.032 L329.5,8.332 L329.6,8.632 L329.6,8.932 L330.1,8.932 L330.2,7.882 L329.9,7.282 L329.8,7.132 L329.6,6.682 L329.8,6.532 L329.9,6.532 L330.2,6.682 L330.4,6.682 L330.7,6.982 L330.8,7.132 L331.4,7.282 L332.8,6.982 L332.9,7.132 L333.1,7.432 L332.9,8.032 L332.5,8.482 L332.2,9.082 L332,9.832 L332,9.982 L331.6,10.881 L330.8,12.081 L330.2,12.981 L329.6,13.881 L329.9,13.731 L330.2,13.581 L330.7,13.881 L331,15.081 L331,15.381 L330.8,15.531 L330.5,15.531 L330.4,15.681 L330.1,16.131 L330.4,16.731 L330.5,16.731 L330.5,17.331 L330.1,18.081 L329.9,18.231 L329.9,18.831 L329.9,19.581 L330.1,20.331 L330.4,20.781 L330.5,20.781 L330.7,20.781 L330.7,20.331 L330.5,20.031 L330.7,19.431 L330.8,19.431 L330.8,19.731 L331,20.181 L331.1,20.481 L331.3,20.331 L331.7,20.031 L331.9,19.881 L332.3,18.231 L332.8,17.031 L332.8,16.581 L332.5,16.431 L332.3,16.431 L332.2,16.281 L332.2,15.831 L332.5,15.381 L332.8,14.781 L333.5,12.831 L334.3,11.631 L334.4,11.181 L334.4,10.581 L335.2,8.182 L335.5,7.132 L335.6,6.982 L336.2,5.782 L336.4,5.632 L336.5,5.482 L337,5.182 L337.4,5.632 L337.4,5.932 L337.7,8.482 L337.7,8.782 L337.7,8.932 L337.6,9.082 L337.4,9.232 L337.3,9.382 L337.1,9.382 L336.8,9.532 L336.7,9.682 L336.4,10.131 L336.2,10.281 L336.5,10.281 L336.7,10.131 L337,9.832 L337.3,9.832 L337.9,9.982 L338,11.631 L337.9,12.231 L337.9,13.431 L338,14.331 L338.3,14.481 L338.5,14.481 L338.6,14.031 L339.2,13.131 L339.4,12.681 L339.4,12.381 L339.5,12.231 L340,12.081 L340.3,12.381 L340.6,12.081 L340.3,11.331 L340,10.731 L340.1,10.281 L340.3,9.982 L340.4,9.982 L341.3,10.131 L341.5,10.131 L341.3,9.832 L341.2,9.832 L340.7,9.682 L340.1,8.482 L340.3,7.882 L340.9,7.582 L340.9,7.132 L340.9,6.382 L341,6.382 L341.6,6.382 L342.1,6.382 L342.4,6.382 L341.9,5.482 L341.5,5.332 L341.2,5.482 L340.7,5.482 L340.4,5.482 L340.1,5.482 L339.8,5.482 L339.5,5.182 L339.5,4.582 L339.8,3.532 L340,3.232 L341.2,3.382 L341.2,2.332 L341.3,2.032 L341.8,1.582 L342.2,1.882 L342.7,2.332 L343.3,2.482 L343.7,2.182 L343.9,1.882 L344,1.732 L344.9,1.282 L345.1,1.432 L345.2,1.432 L345.4,1.732 L346,2.332 L346.1,2.332 L346.7,2.332 L346.9,2.332 L347.2,2.482 L347.2,2.932 L347.2,3.232 L347,4.282 L346.7,5.032 L346.3,5.632 L346.1,5.782 L345.7,5.932 L344.9,5.932 L343.7,6.232 L343.6,6.382 L344,6.532 L344.3,6.532 L344.5,6.532 L345.7,6.682 L345.5,7.132 L345.4,7.432 L344.5,8.332 L343.6,9.232 L343.9,9.232 L344,9.082 L344.3,8.932 L344.6,8.782 L346,7.732 L346.1,7.432 L346.3,7.282 L346.3,7.132 L346.7,6.682 L346.9,7.132 L346.9,7.732 L346.7,8.182 L346.7,8.482 L346.6,8.632 L346.4,8.932 L346.3,9.082 L345.8,9.982 L345.7,10.131 L345.5,10.281 L345.4,10.431 L345.2,10.581 L345.1,10.881 L345.4,11.331 L345.5,11.331 L345.8,10.731 L346.3,10.431 L346.4,10.281 L346.7,10.131 L346.9,10.131 L346.7,10.431 L346.6,10.581 L346.4,10.731 L346.3,11.031 L346.9,11.181 L346.9,10.881 L347,10.581 L347.2,9.982 L347.6,9.832 L347.8,9.832 L347.6,10.281 L347.5,10.881 L347.3,11.481 L347.2,11.931 L347.2,12.231 L347.8,14.331 L347.9,14.631 L348.1,15.231 L348.2,15.831 L348.1,16.131 L347.9,16.431 L347.9,16.581 L347.8,17.031 L347.9,16.881 L348.1,16.731 L348.1,16.581 L348.2,16.281 L348.4,15.681 L348.4,15.231 L348.2,14.931 L348.1,14.481 L347.8,13.431 L347.5,11.631 L347.8,10.281 L348.1,7.732 L348.1,6.982 L347.9,6.382 L347.9,6.082 L348.7,3.982 L349,3.682 L349,3.532 L349.1,3.532 L349.4,3.382 L349.7,3.382 L350.2,3.232 L351.5,3.532 L352,4.132 L352.6,5.632 L352.7,6.082 L353.8,5.032 L353.9,4.732 L354.1,4.432 L354.2,4.432 L354.8,4.432 L355,4.882 L355,5.182 L355,5.482 L355,5.782 L354.8,6.232 L355.3,5.932 L355.6,5.782 L355.6,5.482 L355.9,4.582 L356,4.432 L356.2,4.432 L356.5,4.282 L356.6,4.282 L357.2,4.582 L358.4,5.482 L358.3,5.932 L358,6.382 L357.2,6.982 L356.8,6.982 L357.1,7.132 L357.7,7.132 L357.8,7.132 L358,6.982 L358.3,6.682 L358.4,6.532 L358.6,6.382 L358.7,6.232 L358.9,6.082 L359.2,6.082 L359.3,6.082 L360.1,6.082 L360.5,6.682 L361.7,7.282 L362.3,6.832 L362.9,7.582 L363.4,8.332 L363.8,9.232 L362.9,9.832 L362,10.131 L361,10.731 L360.2,12.081 L360.5,12.381 L360.4,12.681 L360.2,12.831 L359.3,13.881 L359.2,14.031 L358.3,14.331 L358.1,14.331 L358,14.331 L357.5,14.481 L357.4,14.481 L355.9,14.331 L354.4,14.481 L353,14.631 L351.7,14.331 L351.2,14.331 L350.9,14.331 L350.8,14.331 L350.5,14.481 L350.5,14.781 L350.8,14.631 L351.1,14.481 L351.4,14.481 L351.1,15.231 L350.9,15.231 L350.8,15.531 L352.1,15.681 L353.2,15.831 L354.4,16.131 L354.8,15.981 L355.6,15.981 L356.3,15.981 L357.1,16.131 L357.2,16.131 L356.9,16.731 L356.8,16.881 L356.5,17.181 L356.2,17.631 L356,18.231 L356.2,18.231 L356.3,18.231 L356.5,17.631 L356.8,17.181 L357.7,16.881 L357.8,16.881 L358.4,17.931 L358.3,18.531 L358.1,18.981 L357.8,19.131 L357.5,21.081 L357.7,20.931 L357.7,20.781 L357.8,20.481 L358.1,19.731 L358.3,19.581 L358.4,19.581 L359.6,18.981 L360.2,19.131 L361,19.581 L361.3,19.581 L361,19.131 L360.7,18.531 L361,18.381 L360.7,17.931 L360.5,17.181 L360.5,16.731 L361.1,16.581 L361.3,16.581 L362,17.181 L362.3,18.081 L362.5,18.681 L362.6,19.131 L362.5,19.431 L362.3,19.731 L362.6,19.581 L362.8,19.281 L362.6,18.381 L362.5,18.081 L362.3,17.331 L362.9,17.031 L363.1,17.031 L363.4,17.031 L363.8,17.031 L364.3,17.181 L364.6,17.031 L365.2,17.781 L365.6,18.381 L365.8,18.981 L365.9,19.581 L366.1,20.181 L366.1,20.631 L365.8,20.781 L365.6,20.931 L365.5,21.081 L365.3,21.081 L364,21.231 L363.8,21.231 L363.4,21.081 L362.9,20.781 L362.6,20.631 L362.5,20.481 L362.2,20.331 L361.4,19.881 L361.3,19.881 L361.1,20.031 L361,20.031 L360.8,20.481 L361,20.631 L361.3,20.631 L361.7,21.231 L361.6,22.581 L361.4,22.881 L360.7,23.931 L359.6,25.131 L359.3,25.581 L359.2,25.581 L359,25.731 L358.7,26.031 L358.3,26.181 L357.8,26.631 L357.8,26.931 L358,27.381 L358.1,27.681 L358.3,28.581 L358.3,29.781 L358.3,29.931 L358.1,30.381 L358,30.531 L357.8,30.981 L357.7,31.281 L357.5,31.431 L357.2,31.431 L357.1,31.431 L356.8,31.281 L356.3,30.981 L356.2,30.831 L355.9,30.831 L355.7,30.681 L355.6,30.381 L355.4,29.931 L355.3,29.331 L355.3,28.581 L355.6,27.831 L355.7,27.681 L356,27.081 L356.2,26.781 L356.3,26.631 L356.5,26.031 L357.1,24.531 L357.1,24.381 L357.1,24.081 L355.9,21.981 L355.3,21.231 L355.1,20.931 L354.4,20.931 L354.1,20.781 L353.9,20.781 L352.9,20.631 L352.6,20.631 L350.6,20.181 L350.5,20.181 L350.3,19.881 L350.2,19.431 L349.9,19.281 L349.7,19.281 L349.4,19.131 L349.1,19.131 L349,19.131 L348.5,18.831 L347.6,18.081 L347.5,17.931 L347.3,17.331 L347,16.881 L346.9,16.731 L346.7,16.881 L345.2,17.481 L345.1,17.631 L344.3,18.531 L343.7,19.131 L343.9,19.431 L343.9,19.731 L343.4,20.031 L342.8,20.631 L342.7,20.631 L341.8,20.631 L341.5,20.481 L341.2,20.331 L340,20.631 L339.4,20.931 L339.2,21.231 L339.1,21.681 L339.1,22.131 L338.9,22.431 L338.2,24.231 L338.2,24.381 L338,24.531 L337.9,24.681 L337.4,24.981 L337.3,25.131 L337.1,25.431 L337.1,25.731 L337.4,26.181 L337.4,26.481 L337.4,27.081 L337.3,28.581 L337.4,30.231 L337.4,30.531 L337.1,30.831 L337.1,31.131 L337.1,31.431 L337.1,32.481 L337.3,33.231 L337.7,34.731 L338.2,35.631 L338.3,36.531 L338,37.431 L338,37.881 L337.9,37.881 L337.9,38.181 L337.9,38.331 L337.6,38.481 L337.4,38.481 L337.1,38.331 L337,38.331 L336.7,38.481 L336.5,38.481 L336.4,38.631 L336.4,38.781 L335.8,39.681 L335.6,39.831 L335.5,40.131 L335.5,40.431 L335.5,40.731 L335.5,42.231 L335.5,42.831 L335.5,43.131 L334.7,43.881 L334.1,43.731 L334,43.431 L333.7,43.131 L333.5,42.981 L333.4,42.831 L332.9,42.681 L332.5,42.531 L332.2,42.531 L331.9,42.531 L331.4,42.681 L331.3,42.681 L330.8,42.531 L329.8,42.081 L329.2,41.631 L329,41.331 L328.7,41.181 L328.6,41.031 L328.3,41.031 L327.8,41.181 L327.5,41.181 L327.4,41.331 L327.2,41.931 L327.2,42.381 L327.1,42.681 L326.9,43.131 L326.8,43.281 L326.2,43.431 L325.9,43.581 L325.6,43.881 L325.3,44.031 L324.8,44.481 L324.7,44.781 L324.5,44.931 L324.1,45.081 L323.9,44.931 L323.8,44.781 L323.5,44.481 L323.2,44.181 L322,44.481 L321.7,44.481 L320,44.031 L319.7,44.181 L319.1,44.631 L318.7,43.281 L318.5,42.531 L317.9,42.081 L317.3,41.181 L316.1,39.531 L315.8,39.231 L313.4,36.231 L311.2,35.931 L309.8,37.731 L309.8,38.031 L310,38.781 L310.1,39.081 L310.3,39.381 L310.4,39.681 L310.4,40.431 L310.4,40.731 L310.1,40.731 L309.8,40.581 L309.5,40.431 L308.9,40.131 L308.5,40.131 L308.3,40.131 L308,40.131 L307.9,40.281 L307.6,40.581 L307.4,40.731 L307.1,40.881 L304.6,41.481 L305.6,42.531 L306.1,42.981 L306.7,45.231 L306.5,45.831 L306.2,46.881 L306.1,47.331 L305.9,47.631 L305.3,48.681 L304.7,49.431 L305.6,50.031 L306.5,50.331 L306.4,50.781 L305.8,51.381 L305.6,51.681 L305.5,51.981 L305.3,52.431 L305.2,52.581 L305,52.731 L304.9,52.731 L304.6,52.581 L303.7,52.281 L302.6,51.981 L301.7,51.831 L298.9,51.081 L296.8,51.531 L295.1,50.631 L293.9,51.231 L293.6,51.381 L293.5,51.531 L293.5,52.431 L293.5,53.031 L293.6,53.781 L293.8,54.381 L293.9,54.981 L294.5,56.781 L294.4,57.081 L293.5,59.631 L293.2,60.381 L293,60.381 L292.9,60.381 L292.7,60.231 L292.3,59.931 L291.8,59.631 L291.7,59.481 L291.2,59.331 L289.1,58.431 L289.1,58.731 L289,59.031 L288.8,59.481 L286.1,61.881 L286,62.931 L285.7,64.581 L285.5,65.481 L285.5,65.781 L285.1,66.681 L284.6,68.031 L284.5,68.181 L283.3,68.481 L282.7,70.131 L282.8,70.431 L283.1,70.731 L283.3,70.881 L283.6,71.181 L284,71.631 L284.5,72.381 L284.6,72.681 L285.1,73.731 L284.9,76.281 L283,78.531 L281.3,81.981 L280.7,83.331 L280.1,84.081 L279.2,85.431 L279.2,85.731 L279.5,86.631 L280,87.981 L280.1,88.581 L277.4,90.981 L277.1,90.981 L275.3,91.281 L274,91.581 L274.1,92.331 L274.3,93.381 L274.6,94.431 L274.6,94.731 L274.9,95.631 L275,96.531 L275,96.831 L274.9,97.281 L274.9,97.581 L274.7,97.881 L274.6,98.481 L274.4,100.391 L274.4,101.491 L274.6,102.691 L274.6,103.991 L274.6,104.891 L273.8,105.991 L273.8,106.591 L273.7,107.591 L273.7,107.891 L273.5,108.191 L273.5,108.391 L273.1,109.291 L272.2,110.891 L271.4,112.891 L271,113.891 L270.7,114.691 L269.9,115.991 L269.8,116.291 L269.6,116.791 L269.6,117.191 L270.7,117.991 L271.3,118.291 L272.2,118.591 L272.8,118.891 L273.2,120.991 L273.4,123.691 L272.3,126.391 L267.4,125.491 L266.9,125.291 L266.6,125.491 L266.3,125.591 L265.6,125.791 L265.3,125.891 L264.8,126.091 L264.2,126.491 L263.9,126.991 L263.2,127.591 L262.7,127.991 L262.1,129.191 L261.7,129.791 L260.9,131.591 L259.6,133.991 L259.7,135.191 L259.9,135.691 L259.6,136.391 L259.1,137.291 L258.5,138.391 L258.1,139.291 L258.8,140.791 L259,140.891 L259.7,142.991 L259.9,143.491 L259.9,143.791 L259.6,144.191 L259.1,145.091 L259,145.591 L259.1,146.491 L259.3,147.091 L259.4,147.991 L259.4,148.391 L259.3,149.291 L259.3,150.491 L259.6,151.591 L260,152.791 L260.3,153.191 L260.5,153.691 L260.8,154.691 L260.9,154.891 L261.1,155.191 L261.2,155.891 L261.2,156.091 L261.1,157.991 L260.8,160.291 L260.6,160.991 L260.6,161.791 L260.5,162.391 L260.5,162.991 L260.2,164.891 L260.3,165.091 L262.4,167.291 L262.7,167.491 L262.9,167.491 L263.3,167.491 L265.3,169.991 L266,170.791 L265.9,171.691 L265.6,172.891 L265.4,173.491 L264.7,175.391 L264.5,175.991 L264.4,175.991 L264.2,176.191 L263.9,176.191 L263.5,176.191 L263,175.991 L262.9,175.991 L262.7,175.991 L262.6,176.191 L261.8,176.491 L261.5,176.791 L261.2,177.091 L261.4,177.391 L261.7,177.991 L262,178.891 L262.3,179.791 L262.4,180.391 L262.6,180.691 L262.7,181.091 L263,181.891 L263.8,183.191 L264.4,184.991 L264.5,185.791 L264.5,186.391 L264.5,186.991 L264.4,187.391 L264.1,187.991 L263.9,190.291 L263.9,190.691 L263.9,191.291 L263.9,191.791 L263.8,192.491 L262.6,194.191 L261.5,195.191 L261.4,195.491 L261.1,195.691 L260.9,195.691 L260.3,195.691 L260,195.691 L259.7,195.491 L259.1,195.991 L259,196.091 L258.7,196.391 L259.1,197.191 L259.3,197.491 L259.3,197.591 L259.4,198.391 L259.3,198.791 L258.7,199.691 L258.2,199.891 L257.5,200.791 L258.2,203.491 L258.5,205.291 L258.7,205.591 L258.7,206.191 L258.7,206.591 L258.5,207.091 L258.4,207.191 L258.4,207.691 L258.4,208.591 L258.4,208.991 L257.5,212.191 L257.2,212.291 L257.2,212.491 L256.4,212.591 L256.1,212.591 L255.8,212.491 L255.8,211.991 L255.8,210.991 L255.8,210.791 L255.4,209.491 L255.2,208.891 L254.6,208.891 L253.9,208.991 L252.8,208.891 L252.5,208.691 L251.8,207.991 L251.5,208.391 L250.6,207.691 L250.3,207.091 L249.5,204.691 L249.5,203.491 L249.7,202.991 L249.7,202.691 L249.5,202.391 L249.4,202.091 L249.2,201.491 L249.2,200.491 L249.1,199.991 L248.6,198.691 L248.8,197.491 L248.9,197.191 L249.2,196.391 L249.4,196.591 L249.7,197.491 L250,197.291 L250.1,196.691 L250,195.791 L249.7,195.691 L249.5,195.991 L249.4,195.991 L248.8,196.091 L248.6,196.091 L248.3,196.091 L248,196.291 L247.9,196.591 L248,197.291 L248,197.791 L248,198.091 L248,198.491 L248.3,199.391 L248.6,199.591 L248.8,199.891 L248.9,200.191 L249.1,200.891 L248.9,201.391 L248.6,201.691 L248.2,201.991 L248,202.091 L247.7,202.091 L247.6,201.991 L247.6,201.191 L247.4,199.591 L247.1,198.991 L246.4,198.491 L245.9,198.491 L246.2,199.091 L246.5,199.291 L246.7,199.391 L247.1,199.891 L247.3,200.791 L247.1,201.791 L246.8,201.991 L246.5,201.691 L246.1,201.491 L246.2,201.991 L247,202.891 L247.6,203.291 L248,203.791 L248.3,205.691 L247.9,206.591 L247.7,206.591 L247.1,206.291 L246.8,207.391 L246.1,210.191 L245.3,210.491 L245.5,210.191 L245.3,210.091 L244.3,210.691 L244.3,211.091 L243.7,211.591 L243.1,211.591 L242.8,211.391 L242.9,210.991 L242.6,210.491 L242.3,210.191 L241,208.891 L240.5,208.891 L241.1,209.791 L241.6,210.191 L241.6,211.091 L240.8,211.991 L240.1,212.591 L239.3,213.491 L238.7,214.891 L238.7,214.991 L237.4,216.491 L236.3,217.291 L236.2,217.391 L235.9,217.391 L235.4,217.891 L234.4,219.491 L234.1,219.691 L233.6,219.991 L233.5,220.091 L233.5,220.591 L233.2,221.191 L231.7,222.991 L230.8,223.291 L229.4,224.191 L229.4,224.591 L229.1,225.391 L228.7,225.091 L228.4,225.791 L226.9,226.091 L225.8,226.291 L224.5,226.591 L224.2,226.991 L223.6,227.191 L223.4,227.191 L223,227.191 L221.9,226.991 L221,226.591 L220.9,226.391 L220.3,226.391 L219.5,226.891 L219.4,227.191 L218.9,227.291 L218.5,226.391 L218.2,226.091 L217.1,225.191 L216.8,225.091 L216.7,225.991 L215.6,225.791 L215.3,225.391 L215.3,224.891 L215.6,224.491 L215.8,223.991 L216.4,223.591 L217.1,222.991 L215.9,222.691 L213.8,222.391 L213.7,222.391 L213.2,221.791 L212.6,221.491 L212,221.191 L211,220.391 L210.8,220.291 L210.7,219.991 L210.7,219.491 L210.7,218.891 L210.4,218.791 L210.1,218.791 L209.8,218.791 L209.2,218.491 L208.9,218.491 L208.1,217.391 L208,217.291 L207.1,215.291 L206.8,213.991 L207.4,212.591 L207.5,211.891 L207.7,211.291 L207.7,210.391 L207.7,209.891 L207.8,209.291 L209,210.191 L209,210.791 L209.3,211.091 L209.6,211.091 L209.9,210.991 L210.1,210.491 L210.4,210.691 L210.8,211.091 L211.4,211.891 L211.9,212.291 L212.2,212.791 L212.3,212.791 L212.6,212.891 L213.1,212.791 L212.9,212.591 L212.6,212.591 L212.5,212.591 L212.2,212.291 L211.9,211.991 L211.9,211.691 L212.2,211.091 L212.3,210.691 L212.9,210.391 L213.2,210.191 L213.5,210.191 L214.7,209.791 L215.5,209.591 L216.2,209.491 L216.5,209.291 L215.6,209.291 L214.7,209.491 L214.6,209.591 L213.2,209.891 L212.8,210.091 L212.5,210.391 L212.2,210.491 L211.6,211.591 L211.1,210.491 L211.1,209.791 L211,209.791 L210.4,208.891 L210.5,208.391 L210.7,208.291 L211.1,207.991 L211.6,207.491 L212.2,206.591 L212.8,205.891 L213.1,205.691 L214.3,204.991 L214.4,204.791 L214.7,204.791 L215,204.791 L215.2,204.791 L215.5,204.791 L215,204.691 L214.7,204.691 L214.3,204.691 L214,204.791 L213.7,205.291 L212.6,205.691 L211.7,204.391 L212,203.791 L212.3,203.291 L212.6,203.191 L213.5,202.091 L213.7,201.691 L215,201.091 L215.3,200.891 L215.5,200.891 L215.6,200.791 L215.3,200.591 L214,200.491 L213.7,201.091 L213.2,202.091 L213.1,202.391 L212.9,202.691 L212.6,202.891 L212.5,202.991 L211.3,204.091 L210.8,202.991 L210.8,202.591 L211,202.391 L211.4,202.591 L211.7,202.391 L213.1,201.991 L212.9,201.791 L211,201.991 L210.2,201.991 L209.5,202.591 L209.2,202.991 L209.3,202.891 L209.6,202.691 L209.9,202.691 L210.1,202.691 L210.7,203.491 L210.5,204.091 L209.2,204.691 L208.7,204.191 L208.6,203.891 L208.6,203.591 L208.4,203.491 L208.3,204.391 L208,204.991 L207.8,205.091 L207.5,205.091 L207.4,204.991 L206.8,204.791 L205.9,203.791 L205.4,202.391 L205.3,201.391 L205.3,201.091 L206.3,199.091 L207.5,197.891 L208,197.491 L208.1,197.891 L208.1,198.491 L207.8,199.591 L207.5,200.491 L207.5,201.091 L207.8,200.791 L208,200.591 L208.1,200.491 L208.3,199.991 L208.1,199.391 L208.3,198.691 L208.6,198.391 L209.5,198.691 L209.9,198.491 L210.5,197.791 L211.3,197.491 L211.6,197.591 L212.6,197.491 L214.6,195.991 L213.8,196.091 L213.5,196.291 L213.2,196.591 L212.9,196.891 L212.5,197.191 L211.9,197.291 L210.8,196.991 L210.5,196.691 L209.8,195.791 L209.8,195.391 L210.1,194.591 L210.4,194.291 L210.8,194.191 L211.3,193.991 L211.4,193.991 L211.9,193.991 L212.2,193.691 L211.9,193.091 L212.2,192.691 L212.3,192.391 L212.6,192.091 L213.2,191.491 L213.1,190.291 L214.1,188.291 L215.2,187.391 L216.4,186.391 L216.7,186.191 L216.8,186.191 L217.1,186.191 L217.4,186.391 L217.7,186.691 L217.4,187.091 L217.3,187.591 L216.7,189.091 L216.5,190.891 L216.4,191.591 L216.5,192.091 L216.5,191.291 L216.5,190.991 L216.7,190.591 L217.1,189.191 L217.4,187.991 L217.7,187.291 L218.5,186.191 L218.8,185.791 L218.9,185.591 L219.2,185.591 L220.1,185.491 L220.4,185.491 L220.7,185.591 L221,185.591 L221.2,185.591 L221.3,185.291 L220.4,184.991 L220.4,184.391 L220.7,183.791 L220.4,183.791 L220.3,183.991 L219.8,184.391 L219.7,184.591 L219.7,184.891 L219.1,185.291 L218.2,186.091 L217.9,186.191 L217.6,186.191 L217.4,185.891 L217.1,185.791 L216.4,185.891 L215.6,186.391 L215.3,186.491 L215,186.791 L214.9,186.791 L214.6,186.691 L214.4,186.491 L214.1,187.391 L213.8,188.791 L213.5,189.191 L212.3,189.191 L211.6,190.591 L211.4,192.391 L211.3,192.791 L210.8,193.091 L210.4,193.291 L210.2,193.291 L209.9,192.991 L209.8,192.391 L209.6,190.591 L209.3,190.691 L209,190.691 L208.9,190.591 L209.6,187.891 L210.1,186.991 L210.4,186.991 L210.5,186.691 L209.6,187.091 L208.9,188.591 L208.1,189.991 L207.8,190.691 L207.7,190.691 L207.4,190.391 L206.9,189.691 L206.3,189.391 L207.1,188.491 L206,188.191 L205.9,186.791 L206.5,186.191 L206.8,185.791 L206.8,184.891 L206.9,184.391 L207.2,184.091 L207.4,184.091 L207.7,184.391 L207.8,184.691 L208,184.891 L208.4,185.591 L208.7,185.891 L209,186.091 L209.6,186.091 L209.8,186.091 L210.4,185.291 L210.5,184.891 L210.7,181.891 L210.5,181.391 L210.2,181.091 L210.1,181.091 L209.5,181.391 L209.2,182.291 L207.8,183.491 L207.5,183.491 L207.1,183.691 L206.9,183.491 L206.6,183.191 L205.9,181.891 L206.2,181.691 L206.5,182.291 L206.8,182.491 L206.2,180.991 L206,180.691 L205.9,180.491 L205.4,180.391 L204.7,179.291 L205.3,179.291 L206,179.891 L206.9,180.491 L207.4,180.791 L207.5,181.291 L207.7,182.191 L207.8,182.291 L208.4,182.491 L208.4,181.891 L208.3,181.291 L208,180.691 L207.7,180.491 L207.2,180.191 L207.1,179.891 L208,178.691 L208.1,178.591 L208.7,178.391 L209,178.591 L209.2,178.591 L209.5,178.391 L208.9,177.991 L208,178.291 L207.8,178.591 L207.7,178.991 L207.2,179.291 L206.3,179.291 L206.2,179.191 L206.2,178.891 L206,178.891 L205.9,178.891 L205.6,178.691 L205.3,176.791 L205.4,175.991 L205.6,175.391 L206,174.991 L206.3,174.791 L206.5,174.791 L206.8,174.991 L207.4,175.291 L207.5,175.591 L207.8,175.691 L208.7,175.891 L209,175.591 L209.2,175.291 L210.4,174.791 L211.1,174.691 L211.7,174.691 L212,174.691 L212.6,174.391 L214.1,174.491 L215.2,174.991 L215.3,175.091 L215.8,175.591 L216.1,175.591 L216.4,175.591 L217.3,175.091 L217.9,174.191 L218.3,174.191 L219.7,174.391 L219.8,174.491 L220.6,175.591 L221,176.591 L221.9,178.291 L221.8,178.891 L221.6,179.191 L221.8,179.191 L221.9,178.991 L222.1,178.691 L222.2,178.291 L222.1,177.791 L221.6,177.491 L221.5,177.191 L221,176.191 L221,175.391 L221.2,175.091 L221.5,175.091 L221.6,175.091 L222.4,175.091 L223.4,174.791 L224.3,173.891 L224.2,173.791 L223.9,173.591 L223.7,173.291 L223.4,172.091 L223.9,170.791 L224.6,169.891 L224.8,169.691 L225.2,169.391 L225.5,169.091 L224.6,169.591 L224.5,169.691 L223.7,170.591 L223.6,170.891 L223.3,171.491 L223.1,172.291 L223.4,172.691 L223.7,173.791 L223.1,174.191 L222.2,174.491 L220.7,174.991 L220.4,174.791 L220.4,174.491 L220.3,174.091 L219.8,173.891 L219.7,173.791 L219.2,173.791 L218.9,173.791 L217.9,173.191 L217.7,172.891 L217.9,172.591 L218.2,172.291 L218.3,172.091 L218.8,171.091 L218.9,170.191 L218,172.291 L217.4,172.591 L217.6,173.291 L217.1,174.491 L216.5,174.791 L215.9,174.791 L215.8,174.691 L215.2,174.391 L213.1,173.891 L211.4,173.791 L209.9,174.091 L209.6,174.391 L209.5,174.491 L209.2,174.791 L208.7,174.991 L208.6,175.091 L208.1,174.491 L207.7,174.391 L206.8,173.891 L206.5,173.791 L206,173.291 L206.3,172.891 L206.6,172.991 L206.9,173.191 L207.2,173.291 L207.4,173.491 L207.5,173.191 L207.2,172.691 L206.8,172.391 L206.6,172.291 L206.3,172.391 L205.9,172.391 L205.6,172.391 L205.4,171.691 L207.1,170.491 L209,169.991 L209.3,169.991 L209.6,169.991 L209.9,170.191 L210.2,170.291 L210.7,170.291 L210.4,170.191 L209.3,169.991 L209,169.891 L207.8,169.991 L207.1,170.191 L206.9,170.291 L206.8,170.491 L206.5,170.591 L206.2,170.791 L205.9,170.191 L205.6,169.091 L205.7,168.991 L206.5,168.691 L207.4,168.491 L208.6,168.691 L210.1,169.091 L210.7,168.791 L211.9,168.791 L212,168.991 L211.9,168.391 L211.6,168.191 L211.4,168.091 L211.1,168.091 L211,168.091 L210.7,168.191 L210.4,168.491 L210.2,168.691 L209.5,168.691 L207.4,167.791 L207.1,167.491 L207.2,166.891 L208,166.991 L208.1,166.891 L208,166.691 L207.7,166.591 L207.2,166.291 L207.7,166.091 L208.1,166.091 L208.6,166.291 L208.3,166.291 L208.7,166.391 L208.7,166.291 L208.6,166.291 L208.4,166.091 L208.3,166.091 L208,165.991 L207.7,165.991 L207.1,165.991 L208,165.691 L207.7,165.691 L207.1,165.691 L206.2,165.491 L205.9,165.491 L205.7,164.791 L206,163.991 L206.2,163.691 L206.8,163.291 L208.6,161.891 L209.2,161.191 L209.6,160.991 L211,161.291 L211.6,161.591 L211.7,161.891 L212,162.391 L213.8,162.691 L214.4,162.691 L215.6,162.691 L215.8,162.691 L216.2,162.791 L216.4,162.991 L216.5,163.091 L217,163.291 L217.4,163.291 L217.7,163.291 L218,162.991 L218,162.491 L218.3,162.191 L218.6,162.191 L218.9,162.191 L219.1,162.191 L219.4,162.391 L219.5,162.391 L219.7,162.191 L219.1,162.091 L218.9,161.891 L218.5,161.891 L218.2,162.091 L218,162.091 L217.9,162.391 L217.7,162.791 L217.1,162.791 L216.8,162.691 L216.5,162.691 L215.6,162.391 L213.5,161.891 L213.2,162.091 L212.5,162.091 L212.2,161.891 L211.9,161.591 L212.2,161.491 L212.5,161.291 L212.8,161.291 L213.1,161.291 L212.8,161.191 L212.3,161.191 L210.5,160.891 L209.8,160.591 L209.5,160.691 L208.9,160.991 L208.6,160.991 L207.7,161.191 L207.2,160.891 L207.7,159.991 L208,160.091 L208.1,160.091 L209.6,159.191 L208.7,158.291 L208.3,157.891 L208.1,157.691 L207.5,157.691 L207.4,157.591 L207.2,156.791 L207.4,156.491 L208,155.891 L208.3,156.091 L208.6,156.691 L209.9,158.591 L210.1,158.891 L210.1,159.391 L210.1,159.491 L210.4,159.191 L210.7,158.291 L210.5,158.191 L210.1,157.991 L209.8,157.891 L209.6,157.591 L209.9,156.691 L210.2,156.491 L210.4,156.491 L211.9,156.791 L213.1,156.491 L213.4,156.491 L213.5,156.791 L213.7,157.091 L213.5,157.891 L213.8,157.991 L214.4,158.191 L216.1,158.591 L216.4,158.891 L216.8,158.891 L216.1,158.491 L215.5,158.291 L215,158.191 L214.9,158.191 L213.7,156.391 L214,155.591 L214.1,155.291 L214.4,154.891 L214.7,154.691 L216.5,153.791 L216.8,153.791 L217.7,155.891 L218.3,157.291 L218.3,157.691 L218.2,158.191 L218.6,157.691 L218.5,157.291 L217.9,155.591 L217.6,155.191 L217.4,154.891 L217.3,154.091 L217.3,153.691 L217.6,153.491 L219.7,152.591 L220.9,153.191 L220.9,153.791 L220.9,154.291 L221.3,154.991 L221.5,155.291 L221.6,155.491 L221.8,155.791 L221.8,156.991 L221.5,157.391 L221.2,157.891 L221.2,158.291 L221.5,158.591 L221.6,158.791 L221.8,158.791 L221.9,158.791 L222.1,158.591 L222.2,158.491 L222.1,158.491 L221.9,158.491 L221.8,158.491 L221.5,158.291 L221.5,157.991 L221.6,157.691 L221.9,157.391 L221.9,157.091 L221.9,156.491 L221.9,155.791 L222.5,155.591 L224,155.591 L224.2,155.791 L224.5,156.091 L224.6,156.391 L224.8,156.391 L224.6,156.091 L224.5,155.591 L224.3,155.491 L224.2,155.491 L223.9,155.491 L223.6,155.491 L223.3,155.591 L223.1,155.591 L221.5,154.891 L221.2,154.091 L221.6,153.991 L221.2,153.191 L220.7,152.591 L220.3,152.191 L219.5,152.191 L219.4,152.291 L218.5,152.791 L218.3,152.791 L217.3,152.891 L216.4,152.291 L217.3,151.891 L217.7,151.691 L218.2,151.691 L218.9,151.891 L219.1,151.891 L219.2,151.691 L219.2,151.591 L218.6,151.091 L218.2,151.091 L217.9,151.091 L216.8,151.291 L216.5,151.091 L216.4,150.191 L216.8,149.891 L217,149.791 L218.6,149.791 L219.1,150.391 L219.8,149.491 L220,149.291 L220.3,149.191 L221.8,149.291 L222.7,149.291 L224.6,150.491 L225.7,151.291 L225.8,151.991 L226.3,151.091 L227,151.091 L227.6,150.791 L227.3,150.691 L226.4,150.791 L226.3,150.791 L226,150.991 L225.8,150.991 L225.7,150.991 L225.4,150.791 L225.2,150.691 L225.1,150.391 L225.1,149.891 L225.8,149.191 L226.4,148.691 L226.7,148.691 L227.8,148.291 L228.1,148.291 L228.4,148.091 L229.4,148.091 L230,148.591 L230.2,148.891 L230.5,148.891 L230.3,148.391 L229.7,147.791 L229.4,147.691 L227.2,148.091 L227,148.291 L226.1,148.691 L226,148.891 L225.5,148.991 L224.9,148.891 L224.8,148.091 L225.4,147.691 L225.7,147.491 L226,147.391 L226.4,147.391 L226.9,147.191 L227,147.191 L226.7,147.091 L226.6,147.091 L225.4,147.391 L225.2,147.491 L225.1,147.691 L224.5,147.791 L223.6,147.991 L221.9,148.091 L221.8,148.091 L221.9,146.891 L222.1,145.891 L221.8,145.091 L221.8,144.691 L222.5,144.091 L222.8,143.791 L223,143.791 L224.2,143.491 L224.5,143.591 L224.9,144.391 L225.4,145.091 L225.5,145.091 L226,144.991 L226.4,144.791 L226.6,144.391 L226.9,144.191 L227.2,144.091 L227.5,144.091 L227.6,144.091 L227.9,144.391 L227.6,144.691 L227.3,144.791 L227,145.091 L227.5,145.091 L228.7,144.491 L229.1,144.191 L229.3,144.191 L229.4,144.191 L229.6,144.391 L229.9,144.491 L230.2,144.791 L230.3,145.391 L230.5,146.791 L230.8,147.091 L231.1,147.191 L231.5,147.391 L231.7,147.491 L233,148.591 L233.3,148.991 L233.3,149.191 L233.5,149.591 L233.6,149.191 L233.5,148.691 L231.8,147.091 L231.7,146.891 L231.2,146.891 L230.8,146.291 L230.8,145.591 L230.6,144.691 L229.6,143.791 L229.3,143.591 L229.1,143.791 L228.8,143.791 L228.7,143.791 L229.4,142.391 L229.9,142.091 L230,141.991 L230.3,142.091 L230.5,142.591 L230.5,142.991 L231.7,144.791 L232,145.591 L232.1,145.891 L233,146.491 L233.3,146.291 L233.2,145.991 L232.6,144.691 L232.7,144.491 L232.9,144.491 L233.3,144.491 L233.6,144.491 L233.9,144.491 L234.4,144.391 L233.3,144.091 L232.7,144.191 L232.3,144.391 L231.2,143.291 L230.8,141.791 L231.4,141.391 L231.8,141.391 L233.5,141.491 L233.8,141.491 L233.8,141.091 L234.2,140.791 L234.8,140.791 L235.1,140.591 L235.4,140.591 L236.5,140.491 L235.9,140.491 L235.6,140.491 L234.1,140.491 L233.2,138.991 L233.6,138.691 L233.9,138.691 L234.2,138.691 L234.4,138.691 L234.5,138.491 L235.1,138.191 L234.8,138.091 L234.4,137.291 L234.5,136.991 L235,136.991 L235.1,136.891 L236.6,136.591 L236.9,136.291 L237.4,136.591 L237.7,136.991 L238,137.791 L238.6,138.091 L239.6,137.791 L239.9,137.791 L240.2,137.291 L239.8,137.591 L238.4,137.791 L238.1,137.491 L238,135.791 L238.7,135.091 L239.3,134.891 L239.9,135.091 L240.4,134.491 L240.5,134.191 L240.8,133.891 L241.6,133.591 L242,133.591 L243.8,136.691 L243.7,137.491 L244,138.091 L244.4,138.191 L245.2,138.691 L245.9,139.091 L246.1,139.591 L246.1,138.691 L246.1,138.391 L245.8,138.191 L245.3,138.191 L245,138.191 L244.7,137.891 L244.4,137.591 L244.6,136.991 L244.7,136.891 L245,136.691 L245.2,136.591 L246.1,136.291 L246.2,136.291 L247.3,136.391 L247.9,136.691 L248,136.691 L248.3,136.691 L249.4,136.691 L250.3,136.591 L250.6,136.591 L250.7,136.291 L250.4,136.091 L250,135.991 L249.7,135.991 L249.5,135.491 L249.7,135.091 L250,134.891 L250.6,134.891 L250.7,134.791 L250.7,133.991 L250.4,133.891 L249.4,134.591 L249.1,134.891 L248.9,134.891 L249.2,133.891 L249.4,133.691 L250.7,132.491 L251,132.191 L251.6,132.091 L251.8,132.391 L252.4,132.191 L252.5,132.091 L252.8,131.591 L253.1,131.191 L253.3,130.991 L253.7,130.991 L254.3,130.891 L254.5,130.591 L254.3,129.991 L253.3,129.491 L253.1,129.491 L252.8,129.491 L252.5,129.791 L252.2,129.991 L251.9,129.791 L251.9,129.191 L253.1,127.991 L253.7,127.691 L254.2,127.691 L254.6,127.091 L254.2,126.791 L253.4,126.791 L253.7,125.491 L253.4,125.291 L252.7,126.491 L252.7,126.991 L252.5,127.091 L252.1,127.591 L251.9,127.691 L251.6,127.891 L251.3,127.991 L250.9,128.491 L250.6,128.791 L249.8,129.391 L249.5,129.491 L249.4,129.491 L249.1,129.691 L248.2,130.591 L248.6,130.391 L249.5,129.991 L250.3,129.391 L250.6,129.091 L251.3,129.391 L251.8,129.991 L250.9,131.591 L250.7,131.791 L250.4,131.891 L250.1,131.891 L249.8,132.091 L248.6,132.991 L248.5,133.291 L248,133.691 L247,134.491 L246.4,134.791 L245.9,134.791 L245.6,134.791 L245.3,135.191 L244.7,135.691 L244.4,135.691 L244.1,135.691 L243.5,135.491 L242.8,133.591 L242.6,132.991 L242.8,132.491 L243.1,132.491 L243.5,132.391 L244.1,132.091 L244.6,131.591 L244.7,131.291 L244.1,131.191 L243.4,131.491 L242.2,132.391 L241,132.991 L240.8,132.991 L240.8,131.191 L241.1,130.891 L241.4,130.591 L242,130.291 L242.9,129.691 L243.1,129.191 L245,128.291 L245.3,128.491 L245.5,128.491 L245.3,128.191 L245,127.591 L244.6,127.691 L244,127.591 L244.3,126.191 L245.3,124.291 L245.9,123.691 L246.5,122.891 L247.3,121.991 L247.4,121.691 L247.4,121.591 L247.7,121.291 L248,121.391 L248.3,121.691 L248.6,121.591 L248,120.991 L247.6,120.791 L247.3,120.691 L247.6,120.391 L247.6,120.391 Z M283.7,51.531 L283,51.531 L282.8,51.531 L282.2,51.681 L282.1,51.831 L281.6,52.281 L281.3,52.581 L281.3,52.881 L281.2,53.181 L280.7,54.531 L280.6,54.831 L280.4,54.831 L280.3,54.831 L280.1,54.831 L280.1,54.381 L280,53.781 L279.7,54.531 L279.1,55.281 L278.5,55.881 L278.2,55.581 L278,55.581 L277.4,55.581 L277.1,55.731 L277,55.731 L276.8,55.431 L277.3,54.831 L277.6,54.531 L277.9,54.231 L277.9,54.081 L278.2,53.481 L278.3,53.181 L278.2,52.881 L278.2,52.731 L278,52.731 L278,53.031 L278.2,53.331 L277.9,53.781 L277.4,54.231 L277.4,54.381 L277,54.681 L276.4,55.131 L276.2,55.581 L276.1,55.881 L275.6,56.481 L275.6,56.631 L275.2,57.081 L275,57.081 L274.9,57.081 L274.9,56.931 L274.9,56.331 L275.3,55.281 L276.2,53.481 L276.7,53.181 L276.2,52.731 L276.2,52.581 L276.1,52.581 L275.8,52.731 L275.9,52.131 L275.9,51.981 L276.7,51.531 L276.8,51.531 L277.3,50.331 L277.3,50.031 L277.1,49.881 L277.1,49.581 L277.1,49.281 L277.3,49.131 L278,49.131 L278.2,49.131 L278.3,49.281 L278.5,49.431 L278.6,49.581 L278.8,49.581 L278.5,49.131 L278.3,48.981 L278.2,48.981 L277.9,48.981 L277.7,48.981 L277.6,49.131 L277.4,49.131 L277.3,48.831 L277.1,48.831 L277.1,48.081 L278,45.681 L278.2,45.531 L278.3,45.531 L279.4,45.381 L279.5,45.381 L279.7,45.381 L279.8,46.431 L279.7,48.081 L280.1,48.081 L280.3,48.231 L280.4,48.531 L280.3,49.281 L280.3,49.581 L280.1,49.731 L279.8,50.331 L279.7,50.481 L279.5,50.481 L279.4,50.481 L279.2,50.631 L279.2,50.931 L279.2,52.281 L279.5,51.981 L279.5,51.831 L279.7,51.681 L279.5,51.381 L279.5,51.231 L279.5,50.931 L279.7,50.781 L280.4,50.031 L281,48.831 L281.2,48.081 L281,47.931 L281,47.781 L280.9,47.631 L281,47.481 L281.2,47.331 L281.5,47.031 L281.6,46.881 L282.5,46.731 L283,46.881 L283.1,46.881 L283.4,47.481 L283.7,48.231 L284,49.281 L284,50.031 L284,50.181 L283.9,50.331 L283.9,50.481 L283.7,50.631 L283.7,50.781 L283.6,50.931 L283.7,51.531 L283.7,51.531 Z M285.1,40.731 L285.2,40.731 L285.4,40.581 L285.5,40.581 L285.8,40.431 L286.1,40.581 L286.3,40.581 L286.4,40.581 L286.6,40.431 L286.7,40.131 L286.1,39.831 L286,39.831 L285.2,39.531 L285.1,39.531 L285.1,39.381 L285.2,39.231 L285.8,39.231 L286.3,39.081 L286.3,38.781 L286.1,38.631 L286,38.631 L285.8,38.631 L285.8,38.781 L285.5,38.631 L285.4,38.631 L285.1,38.631 L284.9,38.631 L285.2,38.031 L285.8,37.881 L286.7,37.731 L287.3,37.581 L287.9,37.431 L288.4,37.281 L288.5,37.131 L288.4,37.131 L288.2,36.981 L287.9,36.981 L287.8,37.131 L287.5,37.131 L287,36.981 L286.9,36.831 L286.6,36.231 L286.7,36.081 L286.7,36.231 L287,36.381 L287.2,36.681 L287.3,36.681 L287.6,36.381 L287.5,36.081 L287.2,35.781 L287.3,35.631 L287.9,35.781 L288.1,35.781 L288.7,36.231 L288.8,36.531 L289,36.681 L289.1,36.381 L288.7,35.781 L288.5,35.481 L288.4,35.481 L288.2,35.481 L288.2,35.331 L288.1,34.881 L288.1,34.431 L288.4,34.581 L288.5,34.731 L288.5,34.881 L288.7,34.881 L288.8,35.181 L289,35.481 L289.1,35.631 L289.4,35.781 L289.6,35.631 L289.3,35.181 L289.1,34.431 L290.3,34.431 L291.1,35.331 L291.8,36.681 L292,36.981 L292.1,37.881 L292.1,38.031 L292,38.031 L291.4,38.181 L291.1,38.481 L291.1,38.631 L291.1,39.831 L291.5,40.431 L291.7,40.431 L291.8,40.431 L291.8,40.581 L291.2,41.031 L291.1,41.031 L289.4,41.331 L289,40.881 L288.4,41.331 L287.3,42.681 L287.2,42.831 L287.2,42.981 L287,43.131 L287,43.431 L287.2,43.431 L287.3,43.431 L287.3,43.581 L287.2,43.881 L286.7,44.031 L286.4,44.031 L286.4,43.881 L286.6,43.281 L286.9,43.131 L286.9,42.981 L286.9,42.831 L286.7,42.831 L285.8,43.131 L285.5,43.431 L285.4,43.431 L284.9,43.431 L284.8,43.281 L284.6,42.831 L284.6,42.681 L284.8,42.531 L284.9,42.381 L285.5,42.231 L286,42.081 L286.7,41.331 L286.9,41.181 L286.9,41.031 L286.6,41.181 L286.4,41.331 L286.3,41.331 L286.1,41.331 L285.5,41.181 L285.1,40.731 L285.1,40.731 Z M271.6,51.681 L271.3,51.681 L271.1,51.531 L271,51.381 L270.8,50.781 L270.7,50.331 L271,49.131 L271.3,48.681 L271.4,48.531 L271.6,48.381 L272.2,48.081 L272.2,47.931 L272.3,47.931 L272.5,48.081 L272.5,48.381 L273.7,49.131 L273.8,48.981 L274,48.531 L274.1,48.381 L274.1,48.231 L274,48.081 L273.8,47.781 L274,47.481 L274,47.331 L274.6,47.481 L274.7,47.481 L274.9,47.631 L275,47.781 L275,47.931 L275.2,48.081 L275.3,48.081 L275.3,47.781 L275.2,47.631 L274.7,46.731 L274.4,46.281 L274.3,46.131 L274.3,45.831 L274.3,45.531 L274.3,45.381 L274.4,45.231 L274.7,44.931 L275,44.931 L275.2,45.231 L275.2,45.381 L275.5,46.581 L276.1,46.881 L276.7,47.331 L277,49.581 L277,49.731 L277,50.031 L276.8,50.181 L276.7,50.331 L276.5,50.631 L275,51.831 L274.9,51.981 L274,51.831 L273.8,51.831 L273.7,51.831 L273.4,51.381 L273.5,50.931 L273.7,50.781 L274,50.631 L274.9,50.181 L275.3,49.881 L275.5,49.881 L275.3,48.981 L274.7,48.981 L274.4,48.831 L274.4,48.981 L274.7,49.131 L274.9,49.281 L274.7,49.581 L274.4,49.881 L274,50.331 L273.8,50.331 L273.4,50.481 L272.9,50.631 L272.5,50.631 L271.9,51.381 L271.6,51.681 L271.6,51.681 Z M313.3,17.481 L313.1,17.331 L313.1,16.731 L313.1,16.581 L313.4,16.281 L313.6,15.981 L313.6,15.381 L313.3,15.381 L312.8,15.531 L312.7,15.381 L312.5,15.531 L312.1,15.381 L311.6,14.931 L311.6,14.781 L311.8,14.631 L312.8,14.631 L313,14.631 L313.1,14.631 L313.4,14.481 L314,14.031 L313.9,13.731 L314,13.581 L314,13.431 L314.8,13.281 L314.9,13.281 L315.2,13.581 L315.5,13.731 L315.4,14.031 L315.2,14.181 L315.4,14.331 L315.5,14.481 L316,14.331 L316.4,14.181 L316.6,14.181 L316.6,14.031 L316.3,13.431 L316.1,13.131 L315.8,12.981 L315.7,12.681 L316.1,12.381 L316.6,12.681 L316.9,13.281 L317.2,13.581 L317.3,13.731 L317.5,13.731 L317.5,13.581 L317.9,12.381 L318.1,11.481 L318.8,11.631 L319.1,11.331 L319,11.181 L318.8,11.031 L318.7,10.281 L318.8,10.281 L319,10.281 L319.1,10.281 L319.6,10.881 L319.7,11.331 L319.6,12.081 L319.4,12.081 L319.1,12.681 L318.5,13.581 L318.2,14.781 L317.3,15.681 L316.7,15.981 L316.6,15.981 L316.6,15.681 L316.4,15.531 L316.3,15.531 L315.7,15.531 L315.8,15.831 L315.8,16.131 L315.8,16.281 L314.9,16.731 L314.3,16.881 L314.2,16.881 L314,16.881 L313.7,16.731 L313.3,17.481 L313.3,17.481 Z M292.9,32.331 L293.3,32.331 L294.5,32.331 L294.7,32.331 L294.5,32.181 L294.1,32.031 L293.8,32.031 L293.5,32.031 L293,32.031 L293,31.881 L292.7,31.281 L292.7,31.131 L292.9,30.981 L293,30.831 L293.2,30.831 L293.8,31.281 L294.5,31.131 L294.7,31.731 L294.8,31.881 L295,32.031 L295.1,32.331 L295.3,32.331 L295.4,32.331 L295.4,30.981 L295.3,30.531 L295.1,30.381 L294.8,30.081 L294.5,29.631 L294.5,29.331 L294.7,29.181 L295.4,29.181 L295.6,29.181 L296.6,29.931 L296.8,30.081 L296.9,30.231 L297.1,30.531 L297.1,30.831 L297.1,30.981 L296.9,31.131 L296.9,31.281 L296.5,31.881 L296.3,32.031 L296.2,32.031 L295.7,32.481 L295.6,32.781 L295.6,33.081 L295.7,33.081 L295.9,33.081 L295.9,33.231 L296.2,33.531 L295.9,34.131 L295.7,34.281 L295.6,34.281 L295.4,34.281 L294.8,34.281 L294.4,34.431 L293.6,34.731 L293.3,34.881 L292.7,35.031 L292.6,35.031 L292.4,35.031 L292.3,35.031 L291.5,34.581 L291.4,34.581 L291.2,34.281 L291.4,33.681 L292,33.381 L292.1,33.381 L292.7,33.681 L292.7,33.381 L292.1,32.331 L292.7,32.331 L292.9,32.331 L292.9,32.331 Z M297.5,30.381 L297.4,30.381 L297.2,30.381 L296.9,29.931 L296.8,29.781 L296.8,29.631 L296.3,29.331 L296.2,29.181 L295.9,29.031 L295.6,29.031 L295.1,28.731 L295,28.731 L294.8,28.581 L294.8,28.281 L295.3,27.231 L295.4,27.081 L295.6,26.931 L295.9,26.781 L296.3,26.781 L296.6,26.781 L296.8,26.181 L297.1,25.731 L297.4,25.581 L298,26.031 L297.8,26.331 L298,26.481 L298.1,26.781 L298.4,26.931 L298.6,27.081 L298.7,27.081 L298.6,26.781 L298.7,26.631 L298.9,26.331 L299,26.181 L299,26.031 L299.2,26.031 L299.3,26.031 L299.5,26.031 L299.9,26.481 L300.1,26.481 L300.2,26.631 L300.2,26.781 L300.2,27.081 L299.5,28.431 L299,29.481 L298.9,29.631 L298.6,29.781 L298.3,30.081 L297.7,30.381 L297.5,30.381 L297.5,30.381 Z M319.4,19.431 L319.3,19.431 L319,19.281 L317.3,17.781 L317.5,17.031 L318.8,15.231 L319,15.231 L319.1,15.231 L319.3,15.381 L320,14.931 L319.9,14.181 L319.9,14.031 L319.9,13.881 L320.2,13.731 L320.3,13.881 L320.6,13.881 L321.1,14.331 L321.7,15.531 L321.7,15.981 L321.8,16.281 L321.7,16.431 L321.2,17.331 L320.5,18.681 L319.9,19.281 L319.7,19.431 L319.4,19.431 L319.4,19.431 Z M270.2,59.031 L270.1,58.881 L270.1,58.131 L270.7,56.481 L270.7,56.331 L270.8,56.181 L271,56.181 L271,56.331 L271.3,56.631 L271.7,56.481 L271.9,56.331 L271.6,55.881 L271.4,55.581 L271.7,55.131 L272,54.831 L272.3,54.531 L272.5,54.381 L272.6,54.381 L273.2,54.381 L273.4,54.381 L273.5,54.381 L273.5,54.531 L273.7,54.831 L273.5,54.981 L273.5,55.131 L273.4,55.281 L273.4,55.581 L273.5,55.281 L274,54.981 L274,54.831 L274.1,54.231 L274.3,54.231 L275.6,53.781 L275.8,53.781 L275.8,53.931 L275.5,54.531 L275,55.281 L274,56.631 L273.8,56.781 L273.7,56.931 L273.5,57.081 L272.2,57.981 L272,58.131 L271.3,58.431 L270.4,58.881 L270.2,59.031 L270.2,59.031 Z M277.1,46.881 L277,46.881 L276.8,46.581 L276.7,45.381 L277.4,43.281 L277.7,42.981 L277.9,42.831 L278.2,42.681 L278.5,42.531 L278.6,42.531 L278.6,42.381 L278.8,42.381 L278.8,41.931 L278.9,41.181 L279.1,41.031 L279.7,40.281 L279.8,40.131 L280.4,39.681 L280.6,39.681 L280.7,40.131 L280.7,40.281 L280.7,40.431 L280.4,42.231 L280.4,42.381 L280.1,42.681 L280,42.831 L279.8,42.981 L279.7,43.281 L279.4,43.881 L279.4,44.181 L279.4,44.331 L279.2,44.331 L278.6,44.781 L278.5,44.931 L278,45.081 L277.4,46.431 L277.1,46.881 L277.1,46.881 Z M233,136.691 L232.7,136.691 L231.8,136.591 L231.7,136.391 L231.7,136.091 L231.8,135.791 L231.8,135.491 L232.1,135.191 L232.4,135.091 L232.9,134.591 L233,134.491 L233.3,134.491 L234.2,134.491 L234.2,133.691 L235.6,133.291 L236.6,133.091 L236.8,133.091 L238.1,134.591 L238.1,134.791 L237.5,135.191 L237.2,135.391 L236.6,135.691 L236.5,135.791 L236,135.791 L235.4,135.991 L235.3,135.991 L234.8,135.991 L234.5,136.091 L234.1,136.291 L233.8,136.291 L233.6,136.591 L233.5,136.591 L233.3,136.691 L233,136.691 L233,136.691 Z M331.1,6.991 L331,6.991 L330.8,6.991 L330.7,6.841 L329.9,6.241 L330.1,6.091 L330.5,5.791 L330.7,5.791 L330.7,5.641 L330.5,5.641 L330.5,5.491 L330.1,5.491 L329.9,5.641 L329.8,5.791 L329.6,5.791 L329.5,5.941 L329.3,5.941 L329.2,5.791 L329.2,5.491 L329.2,5.041 L329.2,4.891 L329.5,4.741 L330.2,4.441 L330.5,4.291 L330.7,4.141 L330.8,3.541 L331.4,3.241 L331.6,3.241 L331.6,3.691 L331.9,3.991 L332.2,3.991 L332.3,3.991 L332.5,3.691 L332.6,3.541 L332.8,3.391 L332.9,3.541 L332.9,3.691 L333.1,3.841 L333.1,3.991 L333.1,4.141 L332.9,4.141 L332.8,4.441 L332.5,4.591 L332.8,5.341 L332.9,5.341 L333.2,5.341 L333.4,5.341 L333.5,5.191 L333.5,4.891 L333.7,4.891 L333.7,4.741 L333.8,4.591 L334,4.441 L334.1,4.441 L334.3,4.891 L334.3,5.041 L334.1,5.041 L333.7,5.641 L332.8,5.941 L332.3,6.091 L331.7,6.241 L331.3,6.841 L331.1,6.991 L331.1,6.991 Z M266,60.991 L265.9,60.991 L265.7,60.841 L265.6,60.541 L265.6,60.241 L266,59.641 L266,58.291 L265.9,57.991 L265.9,57.841 L266.2,57.391 L266.6,56.941 L266.8,56.941 L267.5,57.241 L268.1,57.391 L268.3,57.541 L268.6,57.691 L268.9,57.691 L269,57.541 L269,57.241 L269.2,57.241 L269.3,57.241 L269.6,57.391 L269.6,57.691 L269.2,58.591 L269,58.591 L268.9,58.591 L268.4,58.741 L268,58.891 L267.8,59.341 L268,59.491 L268,59.791 L267.1,60.541 L266.8,60.541 L266.6,60.241 L266.2,60.391 L266,60.991 L266,60.991 Z M322.6,15.091 L322.4,15.091 L322.3,15.091 L322.1,15.091 L322,14.941 L321.8,14.641 L320.9,12.541 L321.1,11.791 L321.2,11.641 L321.4,11.641 L321.8,11.641 L322,11.641 L322.9,12.091 L323.2,12.241 L323.3,12.241 L323.9,13.141 L323.9,13.441 L323.9,13.591 L323.9,13.741 L323.2,14.791 L323.2,14.941 L323,15.091 L322.7,15.091 L322.6,15.091 L322.6,15.091 Z M258.2,107.301 L258.2,106.901 L258.4,106.601 L258.5,106.101 L258.5,105.801 L258.8,104.001 L259,103.001 L259.1,101.801 L259.3,101.301 L259.3,101.201 L259.4,101.201 L259.6,101.301 L260.3,102.401 L260.6,103.001 L261.1,104.201 L260.9,104.301 L260.2,105.101 L259.4,106.101 L259,106.701 L258.8,106.901 L258.4,107.201 L258.2,107.201 L258.2,107.301 L258.2,107.301 Z M305.5,25.291 L305.2,24.841 L304.9,25.141 L304.7,25.141 L304.6,25.141 L304.4,25.141 L304.3,25.141 L304.1,24.991 L304.1,24.841 L304,24.541 L304,23.941 L304,23.641 L304.1,23.341 L304.7,22.591 L304.9,22.441 L305.5,22.291 L305.6,22.291 L305.9,22.291 L306.1,22.291 L306.2,22.441 L306.2,22.591 L306.4,22.741 L306.5,24.991 L306.4,24.991 L306.2,24.991 L305.6,25.291 L305.5,25.291 L305.5,25.291 Z M318.5,20.041 L318.2,20.041 L317.9,20.041 L317.8,20.191 L317.5,20.191 L317.3,20.191 L316.6,20.191 L316.1,20.041 L315.5,19.891 L315.4,19.891 L315.2,19.741 L314.8,19.291 L314.8,19.141 L315.2,18.541 L315.4,18.541 L316.3,18.091 L316.4,18.091 L316.6,18.391 L316.6,18.541 L317.5,18.841 L317.8,18.991 L317.9,18.991 L318.1,18.991 L318.7,19.591 L318.7,19.891 L318.7,20.041 L318.5,20.041 L318.5,20.041 Z M209,185.841 L208.9,185.841 L208.6,185.641 L208.6,185.341 L208.4,185.241 L207.8,184.141 L208.1,183.741 L208.6,183.441 L209.2,182.941 L209.5,182.841 L209.6,182.541 L209.6,182.241 L209.6,182.041 L209.8,181.741 L209.9,181.641 L209.9,181.441 L210.1,181.641 L210.4,181.741 L210.5,181.741 L210.5,182.341 L210.2,185.241 L209.6,185.841 L209.2,185.841 L209,185.841 L209,185.841 Z M261.7,64.941 L261.5,64.941 L262.1,62.541 L262.4,61.791 L263,60.141 L263.2,60.141 L263.3,60.291 L263.6,60.441 L263.6,62.541 L262.9,63.741 L262,64.941 L261.7,64.941 L261.7,64.941 Z M301.6,25.791 L301.4,25.791 L301,25.641 L300.8,25.791 L300.7,25.791 L300.5,25.641 L300.4,25.491 L300.4,25.191 L300.4,24.891 L300.4,24.741 L299.9,23.991 L299.8,23.841 L299.6,23.541 L299.5,23.541 L299.5,23.391 L299.2,23.391 L299,23.241 L298.9,23.091 L299,22.641 L299.2,22.641 L299.6,22.341 L300.4,23.541 L300.5,23.691 L300.8,23.991 L301.7,24.291 L302.2,24.591 L302.5,24.591 L302.5,24.891 L302,25.491 L301.9,25.641 L301.6,25.791 L301.6,25.791 Z M229.6,138.791 L229.6,138.191 L229.6,137.991 L229.1,137.891 L228.8,137.891 L228.2,137.891 L228.2,137.691 L228.1,137.391 L228.1,137.091 L229.6,136.091 L229.9,136.091 L230.3,136.091 L230.5,136.191 L230.9,137.291 L231.1,137.391 L230.8,137.891 L230.6,138.191 L230.3,138.491 L229.6,138.791 L229.6,138.791 Z M207.2,197.091 L207.1,197.091 L206.9,197.091 L206.6,196.491 L206.3,194.991 L206.3,194.391 L206.5,193.491 L206.6,193.491 L206.9,193.491 L207.5,193.991 L207.7,194.091 L207.8,194.291 L208,194.891 L208.1,195.491 L208.1,195.791 L208.1,196.091 L208.1,196.391 L208.1,196.491 L207.8,196.791 L207.5,197.091 L207.4,197.291 L207.2,197.091 L207.2,197.091 Z M281.8,54.591 L281.6,54.591 L281.5,54.291 L281.8,52.941 L281.9,52.641 L282.1,52.341 L282.2,52.191 L282.8,52.041 L283,52.041 L283.1,52.041 L283.3,52.191 L283.3,52.341 L283.7,53.091 L283.4,53.991 L283.3,53.991 L283.1,53.991 L282.8,53.991 L282.5,53.991 L282.2,54.141 L282.1,54.291 L281.8,54.591 L281.8,54.591 Z M226,144.751 L225.7,144.451 L225.5,144.251 L225.2,144.251 L225.2,144.151 L224.9,143.951 L224.9,143.851 L225.2,142.751 L226.7,142.151 L227,142.351 L227.5,143.851 L227.3,143.851 L226.1,144.551 L226,144.751 L226,144.751 Z M205.1,199.951 L204.8,198.851 L204.7,196.451 L205.1,195.151 L205.1,194.951 L205.3,194.951 L205.4,194.951 L206.2,196.351 L206.6,197.051 L206.6,197.351 L206.8,197.951 L206.5,198.151 L206.3,198.251 L206.2,198.251 L206.3,198.151 L206.5,197.951 L206.5,197.251 L205.9,197.051 L205.6,197.351 L205.4,198.151 L205.4,198.451 L205.6,198.551 L205.6,199.051 L205.6,199.451 L205.4,199.651 L205.3,199.751 L205.1,199.951 L205.1,199.951 Z M259.4,94.151 L259.7,93.101 L260.5,92.201 L260.2,91.601 L260.5,91.151 L260.9,90.701 L261.1,90.701 L261.4,91.151 L261.7,92.651 L261.7,92.801 L260.9,93.401 L260.5,93.701 L260.2,93.701 L259.7,94.001 L259.4,94.151 L259.4,94.151 Z M208.3,194.851 L207.2,193.151 L208,192.251 L208.4,192.151 L208.6,192.151 L209.6,191.851 L209.6,192.151 L209.6,192.751 L209.6,192.851 L209.6,193.151 L209,194.251 L208.4,194.851 L208.3,194.851 L208.3,194.851 Z M232.1,132.851 L232,132.851 L231.8,132.551 L231.8,132.451 L232.1,132.451 L232.3,132.251 L232.4,132.251 L232.7,132.251 L233,132.151 L233.6,131.951 L234.7,131.351 L234.7,131.251 L235.1,130.651 L235.4,130.451 L235.6,130.451 L235.7,131.951 L235.7,132.151 L235.7,132.251 L235.6,132.451 L235.4,132.451 L235.1,132.551 L234.5,132.751 L233.2,132.851 L233,132.851 L233,132.751 L232.4,132.751 L232.3,132.851 L232.1,132.851 L232.1,132.851 Z M254,119.551 L253.9,119.551 L253.1,118.951 L253,118.951 L252.8,118.951 L252.7,118.951 L252.5,119.051 L252.4,119.051 L251.3,117.451 L251.3,117.251 L251.3,116.951 L251.6,116.651 L252.8,117.451 L254.2,118.751 L254,119.551 L254,119.551 Z M258.7,109.951 L257.9,109.651 L257.8,109.451 L258.4,107.851 L258.8,107.351 L259,107.351 L259.1,107.351 L259.1,107.551 L259.4,107.851 L259.6,107.951 L259.9,109.051 L259.9,109.151 L259.7,109.351 L259.6,109.451 L259.3,109.651 L259.1,109.751 L258.8,109.951 L258.7,109.951 L258.7,109.951 Z M204.7,207.251 L204.7,207.151 L204.5,206.251 L204.5,205.951 L204.7,205.151 L205.1,202.751 L205.3,202.751 L205.4,202.751 L205.4,202.951 L205.9,204.251 L205.9,205.351 L205.9,205.651 L205.9,206.051 L205.6,207.251 L205.3,207.151 L205,207.151 L204.7,207.251 L204.7,207.251 Z M299.3,29.351 L299.2,29.351 L299.5,28.601 L299.6,28.451 L300.8,26.651 L301,26.651 L301.1,26.651 L301.3,26.801 L301.6,27.101 L301.1,28.751 L301,28.751 L300.7,28.901 L299.8,29.201 L299.3,29.351 L299.3,29.351 Z M287.9,47.351 L287.8,47.351 L287.6,47.351 L286.9,45.701 L286.9,45.551 L286.9,45.401 L288.1,45.251 L288.2,45.401 L288.4,45.401 L288.5,45.401 L289,46.001 L289,46.151 L289,46.451 L288.4,47.051 L288.1,47.351 L287.9,47.351 L287.9,47.351 Z M260.5,96.551 L260.6,96.101 L260.5,95.951 L260.3,95.951 L260.2,96.101 L260.3,95.501 L260.5,94.751 L260.6,94.601 L260.8,94.451 L260.9,94.301 L261.1,94.151 L261.2,94.151 L261.4,94.001 L261.5,94.001 L261.7,94.001 L263.2,93.851 L263.3,93.851 L263.3,94.001 L263.3,94.151 L263,94.301 L262.9,94.451 L262.7,94.451 L262,94.901 L261.4,95.501 L261.2,95.801 L261.1,95.951 L261.1,96.101 L260.8,96.401 L260.6,96.401 L260.5,96.551 L260.5,96.551 Z M205.7,163.111 L205.4,162.811 L205,161.911 L205.4,161.211 L205.6,161.211 L205.9,161.011 L206,161.011 L208,161.911 L208,162.111 L207.7,162.411 L206.3,163.011 L205.9,163.111 L205.7,163.111 L205.7,163.111 Z M322.7,8.811 L322.6,8.811 L321.8,8.361 L321.5,7.761 L321.7,7.311 L322,7.161 L322.4,7.011 L322.6,7.011 L323.3,7.311 L323.6,7.911 L323.3,8.511 L322.9,8.811 L322.7,8.811 L322.7,8.811 Z M358.9,19.161 L358.4,19.311 L358.3,19.161 L358.4,18.561 L358.6,18.111 L358.4,17.511 L358.4,16.911 L358.4,16.761 L358.6,16.761 L358.7,16.761 L359.3,16.911 L359.5,16.911 L359.9,17.661 L359.9,17.961 L359.6,18.411 L359,19.011 L359,19.161 L358.9,19.161 L358.9,19.161 Z M205.4,189.761 L204.5,189.161 L204.4,188.861 L204.2,188.661 L204.1,187.961 L204.4,185.661 L204.7,185.361 L205.3,187.061 L205.4,187.361 L205.4,187.761 L205.4,187.961 L205.4,189.261 L205.4,189.561 L205.4,189.761 L205.4,189.761 Z M264.2,61.961 L264.2,61.511 L264.1,61.211 L263.9,61.211 L263.9,61.511 L263.9,61.661 L263.8,61.511 L263.8,61.061 L264.5,59.411 L264.7,59.261 L265,59.261 L265.1,59.411 L265.3,59.561 L265.4,59.861 L265.1,61.211 L264.8,61.511 L264.4,61.961 L264.2,61.961 L264.2,61.961 Z M232.4,141.271 L232.3,141.271 L232.1,141.171 L231.5,140.071 L231.5,139.471 L232.7,139.171 L232.9,139.171 L232.9,139.371 L233.6,140.371 L233.8,140.571 L233.8,140.871 L233.8,140.971 L233.6,141.171 L233.3,141.171 L233.2,141.271 L232.4,141.271 L232.4,141.271 Z M211.3,156.571 L210.8,156.571 L210.5,155.971 L210.7,155.571 L211,155.071 L211.1,154.971 L212,154.771 L212.9,155.271 L212.6,156.271 L212.5,156.471 L212.3,156.471 L212,156.571 L211.6,156.571 L211.3,156.571 L211.3,156.571 Z M212.9,155.871 L213.2,155.271 L213.1,154.371 L212.9,154.171 L212.9,153.771 L213.1,153.271 L213.2,152.971 L213.4,152.871 L213.7,152.871 L213.8,152.671 L214,152.671 L214.1,152.871 L214.3,152.971 L214.6,154.071 L214.6,154.471 L213.8,155.071 L213.8,155.271 L213.5,155.571 L213.2,155.671 L213.1,155.871 L212.9,155.871 L212.9,155.871 Z M294.7,27.571 L294.5,27.571 L294.4,27.421 L294.2,26.821 L294.4,25.471 L294.5,25.321 L294.7,25.471 L294.8,25.621 L295,25.771 L295.7,25.471 L296.2,25.921 L296.2,26.071 L296,26.371 L295.9,26.371 L295.6,26.371 L295.4,26.521 L295.3,26.671 L295,26.971 L295,27.271 L294.8,27.421 L294.8,27.571 L294.7,27.571 L294.7,27.571 Z M283.4,46.321 L283.3,46.321 L282.8,46.171 L282.5,46.021 L281.8,45.271 L281.8,45.121 L281.9,44.821 L281.9,44.671 L282.1,44.671 L282.2,44.671 L283.6,44.971 L283.7,45.121 L283.9,45.271 L283.9,45.421 L283.9,46.171 L283.7,46.321 L283.6,46.321 L283.4,46.321 L283.4,46.321 Z M251.9,113.631 L251.5,113.331 L250.7,113.031 L250.4,113.331 L250.3,113.331 L250,113.531 L249.8,113.331 L250,113.231 L250.4,112.731 L251.8,111.731 L252.8,112.731 L252.5,113.231 L252.2,113.331 L251.9,113.631 L251.9,113.631 Z M285.5,48.721 L285.4,48.721 L285.5,47.971 L286.3,46.771 L286.3,46.621 L286.4,46.471 L287.3,47.821 L287.2,48.121 L287,48.271 L286.7,48.271 L286.6,48.271 L286.3,48.271 L286.1,48.421 L285.5,48.721 L285.5,48.721 Z M296.9,25.321 L296.2,24.721 L296.6,23.371 L296.9,23.071 L297.1,23.071 L297.2,23.221 L297.4,24.271 L297.4,24.871 L297.4,25.021 L297.2,25.171 L297.1,25.171 L296.9,25.321 L296.9,25.321 Z M307.3,26.821 L307,26.821 L306.8,26.671 L306.5,26.371 L306.4,26.071 L306.4,25.921 L306.5,25.621 L306.5,25.321 L306.5,25.171 L306.7,25.171 L306.8,25.171 L307.1,25.321 L307.4,25.771 L308,25.621 L308.3,25.471 L307.6,26.671 L307.3,26.821 L307.3,26.821 Z M256.9,101.231 L256.9,100.931 L256.7,100.731 L256.3,100.731 L256.1,100.931 L256,100.731 L256,100.431 L256.1,100.131 L256.1,99.871 L256.3,99.721 L256.3,99.571 L256.4,99.421 L256.9,99.271 L257.5,99.421 L257.6,99.721 L257.5,100.431 L256.9,101.231 L256.9,101.231 Z M271,77.521 L270.8,77.071 L270.7,76.771 L270.4,76.471 L270.2,76.471 L270.1,76.471 L269.9,76.471 L269.8,76.471 L269.8,76.321 L270.1,75.721 L271.1,75.271 L271.4,75.421 L271.1,77.521 L271,77.521 L271,77.521 Z M204.1,175.131 L203.9,175.031 L204.1,173.531 L204.5,172.931 L205.1,172.931 L205.3,172.931 L205.4,173.231 L205.4,174.231 L205.4,174.531 L205.3,174.531 L205.1,174.731 L204.8,174.831 L204.5,174.531 L204.5,174.431 L204.4,174.431 L204.1,174.831 L204.1,175.131 L204.1,175.131 Z M229.6,141.431 L229.4,141.431 L229.1,140.931 L229.1,140.831 L230,140.031 L230,139.931 L230.2,139.931 L230.3,139.931 L230.5,139.931 L230.6,140.231 L230.8,140.631 L230.9,141.231 L230.9,141.431 L230.6,141.431 L230.2,141.431 L230,141.431 L229.6,141.431 L229.6,141.431 Z M305.9,29.231 L305.8,29.231 L305.6,29.081 L305.6,28.331 L305.6,27.731 L305.8,27.581 L306.5,27.431 L306.7,28.781 L306.5,28.781 L306.4,28.931 L305.9,29.231 L305.9,29.231 Z M206.2,183.231 L205.6,182.831 L205.1,182.331 L205,182.331 L204.5,181.431 L204.4,181.331 L204.2,180.831 L204.1,180.431 L204.2,180.431 L204.8,180.731 L205,180.831 L206,182.531 L206.2,182.631 L206.2,183.131 L206.2,183.231 L206.2,183.231 Z M249.2,113.331 L249.2,113.231 L249.2,112.631 L249.4,112.431 L249.5,112.331 L250.1,112.131 L250.7,111.731 L251,111.531 L251.2,111.431 L251.2,111.231 L251.3,111.131 L251.6,111.131 L251.8,111.231 L251.8,111.431 L249.7,113.231 L249.4,113.331 L249.2,113.331 L249.2,113.331 Z M219.7,149.231 L219.5,149.231 L219.4,148.731 L219.7,148.031 L219.8,148.031 L219.8,147.831 L221.2,147.731 L221.3,147.831 L221.3,148.031 L221.5,148.431 L221.3,148.631 L221.2,148.731 L221,148.731 L220.4,148.931 L220.1,148.931 L220.1,149.031 L219.7,149.231 L219.7,149.231 Z M276.2,62.671 L275.3,62.671 L275.2,62.671 L275,62.671 L274.9,62.371 L275,61.921 L275.5,61.771 L275.8,61.771 L277.1,62.371 L277,62.521 L276.7,62.521 L276.5,62.671 L276.2,62.671 L276.2,62.671 Z M279.1,61.321 L278.5,61.171 L278.3,61.021 L278.5,60.871 L278.6,60.721 L278.9,60.571 L279.1,60.571 L279.2,60.571 L279.7,60.571 L279.8,60.571 L280.4,60.571 L280.6,60.571 L280.9,60.721 L281,60.871 L280.9,61.021 L280.6,61.171 L279.4,61.171 L279.1,61.321 L279.1,61.321 Z M205.9,186.221 L205.7,185.821 L205.1,184.621 L205,183.821 L205.6,184.121 L206.2,184.621 L206.3,184.721 L206.3,184.921 L206.5,185.221 L206.5,185.821 L206.3,185.921 L205.9,186.221 L205.9,186.221 Z M311.5,20.921 L311.3,20.921 L311.2,20.921 L311.2,20.621 L311,20.471 L311,20.171 L310.9,19.871 L310.9,19.121 L311,18.971 L311.2,19.121 L311.8,19.421 L311.8,19.571 L311.8,19.721 L311.8,20.021 L311.6,20.771 L311.5,20.921 L311.5,20.921 Z M299.5,25.271 L299.2,25.271 L299,25.271 L298.1,24.971 L298.1,24.821 L298.1,24.671 L298.3,24.221 L298.3,24.071 L298.4,24.071 L298.4,24.221 L299.5,24.671 L299.5,24.821 L299.6,24.971 L299.6,25.121 L299.5,25.271 L299.5,25.271 Z M227.9,143.471 L227.8,143.271 L227.5,142.971 L227.3,142.871 L227.2,142.671 L227.5,142.271 L227.6,142.271 L228.2,142.071 L228.4,142.071 L228.8,142.271 L229,142.371 L228.8,142.871 L228.7,142.871 L228.4,143.171 L228.1,143.271 L227.9,143.471 L227.9,143.471 Z M326.3,6.371 L326.2,6.221 L325.7,6.071 L325.6,6.071 L325.4,5.921 L325.4,5.771 L325.9,5.171 L326,5.021 L326.5,5.171 L326.6,5.471 L326.5,6.071 L326.5,6.221 L326.3,6.371 L326.3,6.371 Z M233.8,138.471 L233.3,138.471 L233,138.471 L232.9,138.371 L233.2,137.571 L233.3,137.471 L233.5,137.471 L233.6,137.471 L233.9,137.471 L234.2,137.571 L234.5,138.071 L234.5,138.371 L234.4,138.371 L234.2,138.471 L233.8,138.471 L233.8,138.471 Z M216.1,153.371 L215.9,153.371 L215.5,153.371 L215.3,153.371 L215.2,153.171 L215,153.171 L214.9,153.071 L214.6,152.571 L215.8,152.471 L216.8,152.871 L216.8,153.071 L216.7,153.171 L216.5,153.371 L216.2,153.371 L216.1,153.371 L216.1,153.371 Z M206.3,184.371 L205.7,183.771 L205.6,183.671 L205.1,183.671 L204.8,183.371 L204.5,182.571 L205.1,182.771 L205.9,183.071 L206,183.071 L206.3,183.471 L206.5,183.671 L206.5,183.971 L206.5,184.271 L206.3,184.371 L206.3,184.371 Z M288.4,44.171 L288.4,44.021 L288.2,43.571 L288.2,43.421 L288.4,43.121 L288.5,42.821 L289.4,42.371 L289.3,43.121 L288.8,43.721 L288.7,44.021 L288.4,44.171 L288.4,44.171 Z M269.9,57.521 L269.8,57.521 L269,56.771 L269,56.621 L269.2,56.321 L269.5,56.321 L269.6,56.321 L270.1,56.471 L270.2,56.621 L270.2,56.921 L270.2,57.071 L270.1,57.521 L269.9,57.521 L269.9,57.521 Z M296.5,33.071 L296.5,32.171 L296.9,31.721 L296.6,32.921 L296.5,33.071 L296.5,33.071 Z M296.5,33.071" id="no" stroke="#FFFFFF" fill="#DCDCDC"></path>
    </g>
</svg>