<?xml version="1.0" encoding="UTF-8" standalone="no"?>
<svg width="612px" height="612px" viewBox="0 0 612 612" version="1.1" xmlns="http://www.w3.org/2000/svg" xmlns:xlink="http://www.w3.org/1999/xlink" xmlns:sketch="http://www.bohemiancoding.com/sketch/ns">
    <title>al</title>
    <description>Created with Sketch (http://www.bohemiancoding.com/sketch)</description>
    <defs></defs>
    <g id="Page 1" stroke="none" stroke-width="1" fill="none" fill-rule="evenodd">
        <path d="M373.6,358.9 L373.6,359 L373.4,359.8 L374,361 L374.6,361.7 L375.2,363.5 L375.1,364.7 L374.9,365.6 L375.8,365.8 L376.6,366.4 L376.9,366.7 L376.9,367.3 L377.3,368 L377,368 L375.7,367.6 L374,367.1 L373.7,367.1 L373.7,367.3 L373.4,367.3 L371.5,366.7 L371.2,366.8 L370.1,366.7 L367.9,365.9 L367.9,365.5 L367.7,365 L366.8,364 L365.5,363.5 L363.1,362.9 L362.3,363.2 L362,363.4 L361.6,363.7 L361.4,363.7 L361,363.4 L359.8,363.1 L357.7,364 L357.5,364.3 L357.4,365.2 L357.1,366.1 L356.8,366.2 L356.3,366.4 L355.3,365.9 L354.4,365 L352.9,365.2 L350.5,365.5 L350.2,365.8 L349,366.7 L348.4,367.1 L348.2,368.3 L348.2,369.1 L348.1,369.5 L347.6,369.4 L347.5,369.2 L347.2,368.9 L346.9,368.8 L346.4,368.8 L346.3,368.9 L345.8,369.5 L345.7,369.5 L344.9,369.5 L344.8,369.4 L344.8,368.9 L345.1,368.6 L345.2,368.2 L344.9,366.8 L344.5,366.1 L343.9,366.4 L343.3,366.2 L342.4,365.5 L341.8,364.3 L341.5,363.7 L341,363.2 L340.7,363.2 L339.1,364.7 L338.8,365.2 L338.5,366.4 L338.5,366.7 L338.2,367 L336.8,367.3 L336.2,367.1 L336.1,366.2 L336.1,365.9 L334.9,365.5 L334.9,365.2 L334.7,364.7 L334.6,364.1 L334.1,362.8 L333.8,362.8 L332.2,362 L331.4,360.7 L331.3,359.2 L331,359 L328.9,358.9 L328.1,358.7 L326.2,357.5 L325.7,357.2 L325.3,358.1 L324.5,358.7 L324.1,358.7 L323.6,358.6 L321.7,356.8 L321.1,356 L321.4,355.7 L321.8,355.6 L322.6,355 L322.4,354.7 L322.3,353.6 L322,353.2 L321.7,353.2 L321.7,353.6 L321.4,354.1 L321.1,354.2 L319.1,354.4 L318.5,354.2 L317.5,353.6 L316.9,353.3 L316.7,353 L315.7,352.6 L315.1,352.3 L313.9,352 L313.6,352 L313.4,352 L313.3,352.6 L314,353.6 L314.5,354.1 L314.8,355.6 L314.5,355.6 L313.9,355.6 L313.3,356 L313,356.5 L313,356.6 L312.8,357.1 L312.1,357.8 L311.3,357.8 L311,357.7 L310.7,357.4 L310.6,356.8 L310.4,356.2 L310.3,355.9 L309.2,354.7 L309.1,354.5 L308.3,353.8 L307.6,353.6 L307.1,353.3 L306.7,353 L306.5,352.6 L307.6,351.4 L308,351.5 L308.5,351.1 L308.8,350 L308.5,349.7 L307.9,349 L307.4,348.7 L306.5,348.7 L305.5,349 L305.3,349 L304.9,349.4 L304.4,349.6 L303.5,348.7 L301.9,347.8 L300.1,347.5 L298.9,347.3 L297.8,347.5 L297.5,346.6 L297.1,346.3 L296.8,345.7 L296.6,345.2 L296.8,344.8 L296.6,344.3 L296.2,344 L295.6,343.7 L293.9,344.5 L294.1,344.9 L293.9,346.3 L293.6,346.4 L292.3,346.4 L292.1,346.1 L292.9,344.8 L293.2,344 L293.3,343.3 L293.5,342.8 L293.6,342.1 L293.8,340 L293.8,339.2 L293.5,338.8 L293.3,338.5 L293.2,338 L293.2,337.9 L293,336.7 L292.9,336.2 L292.4,336.1 L291.7,335.8 L290.6,335.3 L290.3,334.9 L290.8,334 L290.6,333.1 L290.3,332.6 L290,332.5 L289.7,332.2 L289,330.5 L289.1,330.1 L289.4,329.8 L289.7,329.2 L290,328.4 L290.3,326.2 L289.6,323.3 L289.4,323.2 L289.1,323 L288.5,322.9 L288.4,322.7 L287.8,320.9 L287.8,320.5 L288.1,320.2 L288.2,320 L288.7,319.3 L288.7,317.8 L288.1,317.3 L287.8,317 L287.3,316.7 L287,316.6 L286.7,316.3 L286,315.4 L285.7,315.1 L284.2,313.9 L283.6,313.3 L283.6,311.6 L283.7,311.3 L284,311.2 L284.2,311 L284.9,310.6 L285.4,310 L285.5,308.9 L285.7,308.3 L285.7,305.6 L285.7,305 L284.5,301.4 L284,299 L284.9,299 L285.4,299.3 L286.4,299.6 L286.7,299.3 L287.2,297.7 L287,296.9 L286.7,296.3 L286.4,296.2 L285.8,296.2 L285.2,296.3 L284.5,297.2 L284,296.9 L283.9,296.8 L283.4,296.2 L283.3,295.7 L283.4,295.3 L283.6,295.3 L284.3,295.4 L284.5,295.4 L284.8,295.4 L285.2,295.3 L285.7,294.8 L286,294.5 L286.4,294.2 L288.1,293.2 L288.7,293 L290.2,292.4 L292.4,291.2 L293.2,290.9 L293.6,290.8 L293.9,290.6 L294.2,290.6 L294.8,290.5 L296.3,289.9 L297.2,289.4 L297.5,289.3 L298,289 L298.3,288.8 L299.8,288.5 L300.1,288.5 L300.7,288.5 L301,288.4 L301.4,288.1 L302.3,286.7 L302,286.4 L302.2,286.1 L302.9,284.8 L303.2,284.2 L303.5,283.9 L303.7,283.6 L304,283.3 L304.3,283.3 L304.9,283 L305,282.8 L305.3,282.8 L306.2,282.7 L307,282.4 L307.3,282.1 L307.4,281.9 L308.2,281.2 L308.3,281 L308.5,280.7 L310.1,279.7 L311.2,279.2 L311.8,279.1 L312.7,278.8 L313.1,278.6 L314,278.3 L314.8,277.9 L315.8,277.4 L316,277.4 L317.2,277.1 L319.7,276.8 L320.2,277.1 L320.9,277.6 L321.7,277.9 L322.1,278.2 L322.4,278.3 L323.3,278.8 L323.8,278.9 L324.1,279.2 L324.7,280 L324.7,280.4 L324.2,280 L324.1,279.8 L323.9,279.4 L323.6,279.1 L323.3,278.9 L322.1,278.3 L321.4,278 L321.2,278 L321.1,278.3 L320.6,278.5 L321.2,279.5 L321.7,280.1 L322.1,280.9 L322.4,281.5 L322.6,282.7 L322.7,283.1 L322.9,283.4 L324.1,284 L324.5,284.2 L325.3,284.5 L325.7,284.5 L326,284.5 L326.3,284.3 L326.5,284.5 L326.9,284.5 L327.2,284.3 L328,284.2 L328.7,284 L330.1,283.6 L330.5,283.3 L330.7,283.3 L331.3,282.8 L331.7,282.4 L332.2,281.9 L332.2,281.8 L332.5,281.8 L332.3,282.1 L331.4,283 L330.7,283.6 L330.5,283.7 L330.2,283.9 L329.3,284 L328.9,284.3 L329.2,285.2 L330.2,285.2 L331.1,284.3 L332,283.7 L332.5,283.6 L333.2,283 L333.8,281.9 L334.4,281.9 L335.8,282.1 L336.5,281.9 L337.1,281.9 L338.5,282.1 L338.8,282.1 L339.2,282.1 L339.7,282.1 L342.5,282.1 L344,281.9 L346.1,281.9 L346.7,281.9 L347.2,281.9 L347.6,281.9 L348.4,281.8 L348.8,281.8 L349.1,281.8 L349.9,281.6 L350.2,281.5 L350.3,281.5 L350.8,281.3 L351.7,281.2 L352.9,281 L353.9,280.9 L355.6,280.6 L356.5,280.3 L356.8,280.3 L358,280 L358.3,280 L359.8,279.7 L360.1,279.5 L361,279.2 L361.1,279.1 L361.3,278.5 L361.6,278.3 L361.7,278.3 L363.1,278.5 L364.3,279.5 L365.2,279.7 L366.5,280.3 L366.7,280.4 L367.9,281.2 L368.2,281.8 L368.3,282.1 L368.8,283.4 L368.9,284.6 L368.9,284.9 L369.1,285.4 L369.1,285.7 L369.5,286.6 L370.3,288.4 L370.4,289 L370.6,289.1 L370.9,289.9 L371,290.3 L371.3,291.1 L371.8,292.1 L372.2,292.7 L373.4,295 L374.5,296.8 L375.7,299.8 L375.8,300.8 L376.1,302.3 L376.4,303.7 L376.6,303.7 L376.6,304.1 L376.6,304.6 L376.4,305 L376.3,305.3 L375.2,306.7 L374.9,306.7 L374.6,306.7 L374.3,306.8 L374.2,307 L373.9,307.1 L373.1,307.7 L373,307.9 L372.4,308.6 L372.2,308.9 L372.1,309.2 L371.2,311.5 L370.7,313.1 L371,313.9 L371.3,314 L372.1,314 L372.7,314 L375.2,315.2 L375.8,315.7 L376.1,316.9 L376,317.8 L376,318.5 L376,321.2 L376.1,322.4 L376.3,322.7 L376,323 L376.3,323.9 L376.7,324.8 L377,325 L377.3,325.4 L377.6,325.6 L378.4,326.8 L378.4,327.4 L378.5,328.7 L379.3,329.9 L379.6,330.1 L380.2,330.5 L381.4,332 L381.8,333.2 L382.3,333.8 L382.6,334.1 L383.2,334.6 L383.5,334.7 L383.8,334.7 L384.4,335 L384.4,335.5 L383.8,335.6 L383.6,335.6 L383.3,335.8 L382.9,335.8 L382.7,336.1 L382.7,336.5 L383.5,337.3 L384.2,337.9 L384.7,338.8 L384.7,338.9 L385,340 L384.4,342.7 L384.2,342.8 L383.6,343 L383.2,343 L382.9,343.1 L382.6,343.1 L382.3,343.3 L382,343.4 L381.7,343.7 L381.5,344 L381.4,344.6 L380.8,345.8 L380.5,346.1 L380.3,346.3 L379.9,346.7 L379,348.2 L378.7,348.7 L378.5,348.8 L378.4,349.1 L377.8,350.2 L377.2,351.4 L376.9,351.8 L374.3,357.1 L373.9,358.4 L373.6,358.9 L373.6,358.9 Z M373.6,358.9" id="pl" stroke="#FFFFFF" fill="#DCDCDC"></path>
    </g>
</svg>