<?xml version="1.0" encoding="UTF-8" standalone="no"?>
<svg width="612px" height="612px" viewBox="0 0 612 612" version="1.1" xmlns="http://www.w3.org/2000/svg" xmlns:xlink="http://www.w3.org/1999/xlink" xmlns:sketch="http://www.bohemiancoding.com/sketch/ns">
    <title>al</title>
    <description>Created with Sketch (http://www.bohemiancoding.com/sketch)</description>
    <defs></defs>
    <g id="Page 1" stroke="none" stroke-width="1" fill="none" fill-rule="evenodd">
        <path d="M20.18,485 L20.18,484.6 L20.02,481.3 L20.18,478.1 L20.48,477.5 L20.48,477.2 L20.62,475.9 L20.62,475 L20.32,473 L20.48,472.6 L20.78,471.2 L21.08,470.9 L21.82,470.3 L22.12,470.2 L22.58,470 L22.72,469.7 L22.88,469.6 L24.38,468.5 L24.68,468.5 L25.88,468.4 L26.48,468.4 L26.78,468.5 L28.42,468.5 L29.18,468.2 L29.92,468.1 L30.82,469.9 L30.68,470.5 L30.52,470.6 L30.08,470.8 L29.62,471.1 L28.88,471.7 L28.72,472 L28.88,472.6 L29.18,472.9 L29.02,473.5 L29.02,473.6 L29.32,473.8 L29.78,473.9 L30.08,473.9 L30.22,473.9 L30.52,473.8 L32.02,473.3 L32.48,473.8 L32.78,473.8 L33.98,473.5 L34.88,473.5 L35.78,474.4 L35.48,474.8 L37.72,475.6 L38.78,475.4 L39.52,475.3 L40.42,475.1 L40.72,475 L40.88,474.5 L41.02,473.8 L41.62,473.6 L42.08,473.8 L42.22,474.2 L42.38,474.5 L42.98,474.5 L43.28,474.4 L43.72,474.8 L44.02,475 L46.58,475.7 L47.62,475.7 L48.22,476.3 L48.08,477.7 L47.62,478.9 L47.32,480.1 L47.78,480.7 L48.38,480.5 L48.68,480.5 L49.58,480.8 L50.18,481.1 L50.62,481.6 L51.22,482.8 L50.78,483.4 L49.42,484.7 L48.52,485.5 L47.32,486.4 L46.28,487 L45.68,487.3 L45.22,487.1 L44.92,487 L44.62,487 L44.02,487.4 L42.98,488.5 L42.82,488.9 L42.52,489.4 L42.08,489.8 L41.48,490 L40.58,489.7 L40.42,490 L40.72,490.7 L41.02,491.2 L41.32,492.8 L40.72,494.8 L40.28,498.2 L39.52,500.3 L39.08,501.4 L38.48,502.1 L38.32,502.1 L37.88,502.1 L37.42,502 L36.68,502.4 L36.22,503 L36.22,503.9 L36.52,504.2 L36.98,504.4 L37.12,504.7 L37.42,505.7 L37.58,506.2 L35.02,510.5 L34.58,511.3 L33.98,511.3 L32.78,511.1 L32.18,510.8 L31.58,510.7 L30.98,510.7 L30.52,510.8 L29.62,510.5 L28.28,509.9 L28.28,510.4 L28.42,511 L29.48,513.1 L29.78,515 L29.78,515.8 L30.08,518 L30.98,519.8 L31.12,520.1 L31.42,520.1 L32.02,520 L32.48,520.3 L32.78,520.7 L32.92,521.3 L32.92,521.9 L30.98,524.2 L30.68,524.5 L29.48,525.1 L28.88,525.5 L28.12,525.8 L27.98,526.1 L26.32,530 L26.48,530.3 L26.78,530.6 L27.38,532.4 L27.52,533 L27.68,533.8 L27.82,534.1 L28.12,534.8 L28.28,535 L29.18,535 L29.48,534.8 L30.08,534.8 L30.22,535 L29.92,535.6 L29.78,536 L28.72,537.5 L27.08,537.5 L26.02,537.5 L25.42,537.7 L25.42,538 L25.28,538.4 L24.68,539.5 L23.92,540.1 L23.02,540.7 L22.42,541 L21.98,541.6 L20.48,543.7 L20.48,544.1 L20.62,544.3 L20.78,544.7 L20.92,545 L20.92,545.5 L20.92,546.1 L20.92,547 L20.48,548.8 L20.48,550 L20.02,549.8 L19.72,549.8 L18.52,550 L18.22,550 L17.62,550.4 L15.52,551.3 L13.72,551.2 L12.82,551 L12.38,550.7 L11.92,550.3 L11.78,550 L11.32,549.5 L10.58,549.1 L8.02,548.3 L7.58,548.3 L7.12,548.3 L6.38,547.9 L4.58,547.3 L2.325,547.4 L0.825,547.9 L0.075,547.6 L0.225,547.1 L0.825,546.5 L1.275,546.1 L1.575,545.8 L2.625,544.1 L3.375,542.5 L4.12,541.6 L4.58,540.4 L5.32,537.2 L5.32,536.5 L5.62,535.6 L5.78,535.4 L5.92,534.1 L5.92,533.8 L5.78,532.4 L6.52,531.4 L6.82,530.9 L6.98,530.6 L7.28,530 L7.42,529.4 L7.58,528.8 L7.72,528.1 L7.72,527.6 L7.72,527.2 L7.72,526.7 L8.92,526.4 L9.52,526.6 L8.78,524.6 L7.12,524.2 L6.82,524.3 L5.78,524.8 L4.72,524.9 L4.58,524.9 L3.225,524.9 L3.225,524.3 L3.525,524 L3.675,523.4 L3.675,523 L3.675,522.1 L3.675,521.6 L3.375,521.2 L3.075,520.6 L3.975,520.7 L4.58,520.9 L5.48,521.9 L6.22,520.9 L6.52,520.4 L7.58,520.1 L7.88,520.3 L7.88,520.1 L7.88,519.7 L7.72,518.9 L7.42,518.6 L7.58,517.9 L7.72,517.1 L6.52,518.3 L6.22,518.6 L5.92,519.1 L5.78,519.5 L5.62,520 L5.18,520.4 L3.975,520.4 L2.625,520.4 L1.275,519.8 L0.825,519.4 L0.975,518 L1.575,517.3 L1.875,517 L2.325,516.2 L2.625,515.8 L2.775,515 L2.775,514.7 L3.075,513.7 L3.525,513.1 L4.12,512.5 L4.58,511.6 L4.88,511 L4.88,510.5 L4.88,509.5 L5.92,509 L6.82,508.6 L8.18,507.4 L9.38,506.2 L9.52,505.7 L10.28,504.4 L10.72,503.8 L11.48,502.7 L12.52,501.1 L13.28,499.9 L13.42,499.7 L13.72,499.1 L14.18,498.5 L14.32,496.7 L14.92,495.8 L15.22,495.4 L16.12,493.4 L16.42,492.8 L16.58,492.7 L16.72,492.4 L16.88,492.1 L17.62,490.9 L18.22,490.6 L18.68,490.3 L18.82,488.8 L18.38,489.7 L17.92,490.1 L18.08,489.5 L18.22,489.1 L18.82,488.3 L19.28,487.4 L19.42,486.8 L20.18,485.3 L20.18,485 L20.18,485 Z M20.18,485" id="pt" stroke="#FFFFFF" fill="#DCDCDC"></path>
    </g>
</svg>