<?xml version="1.0" encoding="UTF-8" standalone="no"?>
<svg width="612px" height="612px" viewBox="0 0 612 612" version="1.1" xmlns="http://www.w3.org/2000/svg" xmlns:xlink="http://www.w3.org/1999/xlink" xmlns:sketch="http://www.bohemiancoding.com/sketch/ns">
    <title>al</title>
    <description>Created with Sketch (http://www.bohemiancoding.com/sketch)</description>
    <defs></defs>
    <g id="Page 1" stroke="none" stroke-width="1" fill="none" fill-rule="evenodd">
        <path d="M408.5,452.6 L408.4,452.6 L408.1,452.8 L407.8,452.8 L407.5,452.9 L407,453.1 L406.7,453.1 L406.1,453.1 L405.5,452.8 L404.6,452.6 L402.1,452.3 L400.4,452.5 L400.1,452.5 L399.7,452.5 L399.2,452.3 L398.9,452 L398.2,452 L397.9,451.9 L396.2,452.3 L396.1,452.3 L395.6,452.6 L395.3,452.8 L395,453.1 L394.9,453.2 L394,453.5 L392.8,453.5 L391.9,453.2 L391.6,453.2 L391.4,452.9 L391.1,452.5 L391.4,450.8 L391.7,450.5 L392.2,450.2 L392.5,450.2 L392.9,449.5 L392.9,449.2 L392.5,448.7 L392.3,448.7 L391.7,448.7 L391.4,448.7 L388.6,447.5 L388.4,447.4 L388.4,446.5 L388.1,446.3 L387.8,446.3 L387.5,446.2 L387.1,446.2 L386.6,445.9 L386.3,445.6 L385.3,443.8 L385.3,443.5 L386.5,442.1 L386.8,442.1 L387.1,442.1 L387.5,442.3 L387.8,442.4 L388.3,442.1 L388.4,441.8 L387.7,441.1 L387.2,440.9 L386.9,440.9 L386.5,440.9 L386,440.8 L385.7,440.5 L385.3,440.2 L385,439.9 L384.7,439.7 L384.2,439.7 L383,440.9 L383,441.2 L382.9,441.8 L382.7,442.1 L382,444.1 L381.7,444.1 L381.1,443.9 L380.3,443 L380.2,442.6 L380,442.4 L379.6,441.8 L378.7,441.7 L377.2,441.8 L376.6,442 L375.7,442 L375.2,441.7 L375.2,441.2 L374.8,440.5 L374.5,440.3 L374,440.3 L373.4,440.3 L373.1,440.5 L372.5,440.5 L372.1,439.7 L372.1,439.1 L372.4,438.8 L373,438.8 L373.3,438.8 L373.4,438.7 L374,438.4 L374,437.9 L373.7,437.6 L373,437.3 L372.7,437.3 L372.5,437.5 L372.2,437.3 L371.8,436.7 L372.4,435.8 L373,434.3 L372.5,433.7 L372.4,433.6 L371.6,433.3 L370.9,433.3 L370,433.3 L367.4,432.2 L366.5,431.8 L364.3,429.8 L364.1,429.4 L363.5,427.7 L363.5,427.4 L363.8,427 L363.5,425.3 L363.2,425.2 L363.1,425.5 L362.6,425.6 L361.9,424.9 L361.9,424.3 L360.8,423.2 L360.5,423.1 L360.1,423.1 L358.4,422.2 L358.1,421.7 L357.5,420.8 L356.8,420.2 L356.9,419.8 L357.5,419.3 L359.2,418.7 L359.6,418.9 L360.1,418.9 L360.2,419 L360.7,419.3 L361.4,419 L361.7,418.6 L361.7,418.4 L361.7,418.3 L361.9,417.4 L362.2,416.9 L362.3,416.9 L362.6,416.6 L362.8,416.6 L363.1,416.6 L364.4,416.8 L365.2,416.9 L365.5,416.8 L366.4,415.7 L366.4,415.3 L366.4,414.5 L366.4,414.1 L366.5,413.8 L367.1,412.9 L367.1,411.7 L367.1,410.6 L367.3,410.2 L368.5,408.8 L368.8,408.8 L369.1,408.1 L368.6,407.6 L368.9,406.4 L369.7,405.4 L370,404 L370.1,403.1 L369.7,403 L369.7,402.8 L370.1,401.9 L370.4,401.6 L370.9,401.2 L371.3,399.7 L371.2,399.2 L371.3,398 L371.8,397 L372.1,396.7 L372.5,396.5 L372.5,396.2 L372.5,395.6 L372.5,395.3 L372.2,394.9 L372.2,394.3 L372.5,393.8 L373.1,392.9 L373.7,392.8 L373.9,392.5 L373.9,392 L374,391.1 L374.5,390.2 L374.9,389.8 L376.1,388.9 L376.4,388.7 L376.7,388.9 L377.3,389.2 L377.8,389 L378.1,388.9 L378.2,388.7 L379.4,387.5 L380.3,385.4 L380.6,385.3 L381.8,384.5 L382.1,384.1 L382.3,383.8 L382.3,383.2 L382.4,382.7 L382.6,382.4 L382.9,382.4 L383.8,382.4 L383.9,382.7 L384.2,383.2 L385,383.5 L385.6,383.8 L386.6,383.8 L386.8,383.6 L387.2,383.5 L389.9,383.5 L391.6,383.3 L392.2,383.3 L392.9,383.5 L393.4,383.8 L394.6,383.6 L395.3,383.2 L396.2,382.4 L396.7,382.4 L397.7,382.3 L397.9,382.3 L398,382.3 L398.3,382.4 L399.1,383 L399.2,383.5 L399.5,383.8 L399.7,383.8 L400.3,384.1 L400.7,384.1 L400.9,384.1 L401.5,384.8 L402.1,385.4 L402.4,385.4 L402.7,385.3 L403.1,385.1 L403.4,385 L403.6,384.8 L403.9,384.7 L404.2,384.4 L404.5,383.8 L404.6,383.2 L404.9,382.1 L405.1,382 L406,381.2 L407.6,380.6 L407.8,380.6 L408.2,380.5 L408.5,380.5 L409.1,380.3 L410.5,380 L410.8,379.6 L410.9,379.4 L411.8,379 L413,378.7 L413.6,378.5 L413.8,378.5 L414.2,378.4 L414.5,377.9 L415.1,376.6 L415.3,374.9 L416.6,373.9 L417.1,373.9 L417.2,373.9 L417.7,373.6 L418.1,372.8 L418.9,372.5 L420.1,372.5 L421.7,373.3 L422.3,373.6 L424.6,376 L425.3,377.3 L425.6,378.2 L426.2,379.1 L427,380.5 L427.3,381.1 L427.7,381.4 L428,381.5 L429.1,382.3 L429.7,383.5 L431.3,385.1 L432.1,386 L432.7,386 L433.1,386.2 L433.4,386.5 L434,387.4 L434.5,388.1 L435.2,388.7 L436.4,389.5 L437,389.6 L437.5,389.8 L438.1,390.2 L438.5,391.1 L438.8,391.6 L439,392.2 L439,392.3 L440,393.8 L440.5,394.4 L440.9,394.9 L441.2,395.8 L442,398.8 L441.8,400.4 L441.8,403 L441.8,404.5 L441.7,404.9 L442.1,406.3 L442.3,406.6 L442.7,407.3 L443.9,410.5 L444.2,411.4 L444.2,412 L444.1,412.1 L443.5,413 L445,414.5 L445.4,414.7 L445.6,414.8 L445.7,414.7 L446.3,415 L446.5,415.4 L446.8,415.9 L447.1,416.3 L447.5,416.6 L447.8,416.8 L450.2,417.1 L451.7,417.2 L452.8,416.6 L453.1,415.4 L454.3,414.8 L456.5,412.4 L457.6,412 L458.5,411.7 L459.7,411.8 L460.6,412 L460.9,412.1 L461.5,412.6 L461.6,412.7 L461.9,413.3 L462.1,413.6 L462.2,414.7 L461.8,414.7 L462.1,415.3 L462.7,416.2 L463,418.4 L463.1,420.7 L462.7,421.3 L461.6,421.7 L461,422 L460.4,422.2 L459.5,422.5 L459.1,422.6 L457.4,422.6 L457.1,422.2 L456.7,421 L456.8,420.5 L457.1,420.2 L456.4,419.8 L455.6,419.9 L454.9,420.7 L454.7,421.3 L454.9,422.2 L455.3,422.5 L456.1,422.9 L456.1,423.7 L455.8,424.1 L455.5,424.3 L454.9,425 L454.7,425.5 L454.9,425.9 L455,426.2 L455.2,426.2 L455.6,426.1 L456.2,425.2 L456.1,424.9 L456.4,424.9 L456.7,424.9 L457.1,425 L457,425.8 L456.8,426.1 L457,425.3 L456.7,425 L455.5,426.7 L455.2,426.4 L454.9,426.7 L455.2,428.3 L455.8,428 L456.7,426.2 L456.7,426.8 L456.4,427.7 L456.2,428.5 L456.1,428.8 L455.9,429.2 L455.5,429.8 L454.7,431.8 L454.7,432.4 L454.7,432.7 L455.3,434.5 L456.4,437.5 L456.2,437.8 L456.2,439.1 L456.2,439.9 L456.2,440.5 L456.2,441.1 L456.4,441.4 L455.3,441.7 L454.4,441.8 L452.6,442 L452.3,442 L451.7,441.8 L451.1,441.7 L449.9,441.4 L449.3,441.1 L448.6,439.9 L448.4,439.4 L448,439 L447.4,439.6 L447.1,439.7 L446.9,439.9 L446.2,440.2 L445.9,440 L445.6,439.7 L445.1,439.1 L444.8,439.1 L444.5,439.4 L442.9,439.9 L442.1,440 L440.6,439.3 L440.5,439 L440.2,438.5 L440,438.8 L439.9,438.8 L439.4,439 L439.1,438.8 L438.4,438.8 L437.5,439 L436.3,439.4 L436,439.6 L435.5,440 L435.1,440.5 L433.7,441.1 L431.6,442 L431.2,442.1 L430.9,442.1 L430.6,442.3 L429.7,442.7 L428,443.9 L427.9,444.1 L427.6,444.5 L426.4,446.5 L425.9,447.5 L425,449 L424.9,449.3 L424.6,449.5 L424,449.6 L423.2,450.4 L422.5,450.8 L421.6,451 L421.3,451.3 L420.7,451.4 L420.4,451.4 L419.9,451.1 L419.3,451 L418.7,450.8 L416.5,450.8 L414.8,451.1 L413.8,451.4 L412.9,451.6 L412.6,451.6 L411.5,451.1 L411.1,451.1 L410.6,451.1 L410.3,451.3 L409.9,451.6 L409.7,451.7 L409.4,452.2 L408.8,452.6 L408.5,452.6 L408.5,452.6 Z M408.5,452.6" id="ro" stroke="#FFFFFF" fill="#DCDCDC"></path>
    </g>
</svg>