<?xml version="1.0" encoding="UTF-8" standalone="no"?>
<svg width="612px" height="612px" viewBox="0 0 612 612" version="1.1" xmlns="http://www.w3.org/2000/svg" xmlns:xlink="http://www.w3.org/1999/xlink" xmlns:sketch="http://www.bohemiancoding.com/sketch/ns">
    <title>al</title>
    <description>Created with Sketch (http://www.bohemiancoding.com/sketch)</description>
    <defs></defs>
    <g id="Page 1" stroke="none" stroke-width="1" fill="none" fill-rule="evenodd">
        <path d="M381.1,481.6 L379.7,481.7 L378.4,483.1 L377.9,483.8 L377,484.1 L375.8,483.4 L375.5,483.4 L373.4,485 L372.1,485.9 L371.9,486.5 L371.9,487.6 L372.2,488.3 L371.9,489.5 L371.6,489.7 L370.6,489.8 L370.1,489.5 L370,488.9 L370.3,488.6 L370.4,488.2 L369.8,486.8 L368.6,484.1 L368.5,484 L367.7,483.2 L366.8,482.9 L366.4,482.8 L365.2,482.8 L365,482.2 L364.6,481.1 L363.7,479.9 L362.9,479.6 L362.6,479.2 L362.6,477.5 L362.3,477.4 L362,477.2 L361.6,477.2 L361.1,476.9 L361.1,476.6 L361.4,476.2 L361.7,475.9 L362,475.7 L362.5,475.7 L364,475.6 L365.5,474.1 L365,473.3 L364.3,472.7 L364,472.6 L362.8,472.3 L362.6,472.3 L361.4,471.8 L361.1,471.4 L360.2,470.6 L359.6,470.5 L358,469.9 L356.8,469.7 L356.5,469.7 L356.3,469.6 L355.4,468.8 L355.1,468.2 L354.5,467.5 L353.6,466.7 L351.5,465.7 L351.2,465.5 L350.8,464.8 L351.4,464.2 L352.7,463.3 L353.6,463.4 L353.6,463.1 L353.6,461.5 L353.6,461 L353.5,460.6 L353.3,460.3 L353,460.1 L352.6,459.7 L351.7,458.8 L350.2,457.3 L349.9,456.5 L350.8,456.7 L351.4,457 L352.1,457 L352.9,457 L353.3,457 L354.2,455.8 L354.1,455.3 L353.9,455.2 L352.4,454.3 L350.9,453.1 L349.4,452.3 L348.5,452 L348.1,451.6 L347.6,451 L347.6,450.7 L347.6,448.1 L348.2,447.5 L349.4,445 L349.6,444.2 L349.6,443.8 L349.7,442.1 L349.6,441.8 L348.8,441.5 L347.3,441.5 L346.7,442 L346,442.7 L345.8,442.4 L345.5,442 L345.8,441.5 L346.4,439.7 L346.3,438.7 L346.7,436.7 L346.9,436.6 L347.2,436.7 L347.6,437 L348.8,437 L349.6,436.9 L349.6,436.3 L349.3,436 L349.1,436 L348.7,436.1 L348.4,436 L347.9,436 L347.6,436 L346.9,435.7 L346.3,435.5 L346,435.4 L344.3,434.2 L344.3,432.4 L344.5,432.2 L344.9,432.2 L345.4,432.1 L345.4,431.6 L344.2,431.2 L343.9,431.5 L343.6,431.6 L343.4,431.5 L343,431 L343,430.3 L343.3,430.1 L343.6,429.5 L343.3,427.6 L342.7,427 L342.4,426.8 L341.6,426.1 L341.5,425.5 L341.6,425.5 L341.9,425.5 L343.4,424.6 L344.3,423.4 L344.6,423.4 L344.9,423.8 L346.4,423.7 L348.2,422 L348.7,421.1 L348.5,420.8 L349.1,420.2 L350.2,419.9 L350.6,419.9 L351.1,420.1 L352.3,420.2 L353.5,419.6 L355.1,419.5 L356.2,419.6 L356.8,420.1 L356.8,420.2 L357.5,420.8 L358.1,421.7 L358.4,422.2 L360.1,423.1 L360.5,423.1 L360.8,423.2 L361.9,424.3 L362,424.9 L362.6,425.6 L363.1,425.5 L363.2,425.2 L363.5,425.3 L363.8,427 L363.5,427.4 L363.5,427.7 L364.1,429.4 L364.3,429.8 L366.5,431.8 L367.4,432.2 L370,433.3 L371,433.3 L371.6,433.3 L372.4,433.6 L372.5,433.7 L373,434.3 L372.4,435.8 L371.8,436.6 L372.2,437.3 L372.5,437.5 L372.7,437.3 L373,437.3 L373.7,437.6 L374,437.9 L374,438.4 L373.4,438.7 L373.3,438.8 L373,438.8 L372.4,438.8 L372.1,439.1 L372.1,439.7 L372.5,440.5 L373.1,440.5 L373.4,440.3 L374,440.3 L374.5,440.3 L374.8,440.5 L375.2,441.2 L375.2,441.7 L375.7,442 L376.6,442 L377.2,441.8 L378.7,441.7 L379.6,441.8 L380,442.4 L380.2,442.6 L380.3,443 L381.1,443.9 L381.7,444.1 L382,443.9 L382.7,442.1 L382.9,441.8 L383,441.2 L383,440.9 L384.2,439.7 L384.7,439.7 L385,439.9 L385.3,440.2 L385.7,440.5 L386,440.8 L386.5,440.9 L386.9,440.9 L387.2,440.9 L387.7,441.1 L388.4,441.8 L388.3,442.1 L387.8,442.4 L387.5,442.3 L387.1,442.1 L386.8,442.1 L386.5,442.1 L385.3,443.5 L385.3,443.8 L386.3,445.6 L386.6,445.9 L387.1,446.2 L387.5,446.2 L387.8,446.3 L388.1,446.3 L388.4,446.5 L388.4,447.4 L388.1,447.5 L387.8,448.3 L388,449.2 L387.4,450.2 L386,451.4 L385.9,454.4 L386.8,456.2 L388.9,459.8 L389.9,460.4 L390.5,460.6 L391.1,460.7 L391.7,460.9 L392.6,461.6 L392.9,462.4 L393.7,463.3 L394.1,463.4 L395,463.6 L395,464.6 L394.7,465.2 L392.8,469.1 L391.9,469.4 L391.3,469.3 L391.1,469.3 L390.2,469.7 L389.5,470.8 L390.2,474.4 L390.5,475 L391.3,475.4 L391.6,475.7 L391.7,476.2 L391.7,477.1 L391.6,477.5 L391,478.3 L390.5,478.9 L389.9,479 L389.3,478.6 L388.1,479.2 L388,479.5 L386.6,480.1 L386,479.9 L383.9,479.9 L383.5,480.5 L383.3,481.1 L382.7,481.7 L382.4,481.9 L382.1,481.7 L381.4,481.6 Z M381.1,481.6" id="rs" stroke="#FFFFFF" fill="#DCDCDC"></path>
    </g>
</svg>