<?xml version="1.0" encoding="UTF-8" standalone="no"?>
<svg width="612px" height="612px" viewBox="0 0 612 612" version="1.1" xmlns="http://www.w3.org/2000/svg" xmlns:xlink="http://www.w3.org/1999/xlink" xmlns:sketch="http://www.bohemiancoding.com/sketch/ns">
    <title>al</title>
    <description>Created with Sketch (http://www.bohemiancoding.com/sketch)</description>
    <defs></defs>
    <g id="Page 1" stroke="none" stroke-width="1" fill="none" fill-rule="evenodd">
        <path d="M342.2,266.3 L342.7,266.5 L342.1,267.4 L341.9,268 L341.6,268.7 L340.6,270.4 L340.4,270.7 L340.1,271.1 L339.7,271.6 L339.2,272.2 L339.7,272.6 L339.8,272.6 L340.4,272.5 L341.3,272.3 L341.6,272.3 L342.4,272.9 L343.6,272.9 L344.5,272.6 L345.5,271.9 L345.7,271.4 L345.5,271 L345.4,270.5 L344.8,268.3 L344.9,267.4 L345.2,267.4 L345.4,266.9 L345.2,266.5 L345.5,266.3 L345.7,266.2 L346,265.7 L346.6,266.3 L347.9,267.1 L348.7,267.2 L349.6,267.8 L352.9,269.2 L353.2,269 L353.3,268.9 L353.5,268.6 L353.9,268.4 L354.5,268.3 L354.7,268.1 L356.8,267.8 L357.7,268.1 L358.3,269.3 L358.6,269.3 L358.9,269.3 L360.1,270.1 L360.4,270.4 L360.5,271.1 L360.7,271.6 L360.5,272.2 L360.2,272.3 L359.8,273.4 L359.6,273.7 L359.9,276.5 L359.9,277.1 L360.1,277.6 L360.2,277.9 L360.5,278.2 L361.1,278.9 L361.1,279.1 L361,279.2 L360.1,279.5 L359.8,279.7 L358.3,280 L358,280 L356.8,280.3 L356.5,280.3 L355.6,280.6 L353.9,280.9 L352.9,281 L351.7,281.2 L350.8,281.3 L350.3,281.5 L350.2,281.5 L349.9,281.6 L349.1,281.8 L348.8,281.8 L348.4,281.8 L347.6,281.9 L347.2,281.9 L346.7,281.9 L346.1,281.9 L344,281.9 L342.5,282.1 L339.7,282.1 L339.2,282.1 L338.8,282.1 L338.5,282.1 L337.1,281.9 L336.5,281.9 L335.8,282.1 L334.4,281.9 L333.8,281.9 L334,281.5 L335.8,279.5 L336.4,279.2 L337.3,278.6 L337.6,278.5 L338.8,277.3 L336.8,277.1 L335.2,277 L334.9,277.3 L334.7,277.4 L334.7,278 L334.9,278.3 L334.6,278.6 L334.4,278.6 L334.1,278.5 L334.3,277.6 L334.4,277.1 L334.6,276.2 L334.6,275.8 L334.3,275 L334.1,274.7 L334,274.1 L334.1,273.5 L334.4,273.1 L334.9,273.2 L337.9,272.8 L338.3,272.6 L339.4,271.7 L339.8,271.1 L340,271 L340.3,270.4 L340.6,270.1 L341.5,268.1 L341.9,267.1 L342.2,266.5 L342.2,266.3 L342.2,266.3 Z M332.5,281.8 L332.2,281.8 L332.8,281 L333.1,280.6 L333.4,280.1 L333.8,279.2 L333.8,279.7 L333.2,280.7 L332.8,281.3 L332.5,281.8 L332.5,281.8 Z M611.8,396.7 L610.9,396.7 L610.4,396.7 L610,397 L609.8,397 L608.9,397.4 L608,397.9 L607.9,398 L607.4,398.8 L606.7,399.4 L601.9,400.9 L601.4,400.9 L599.6,400.6 L596.6,400.3 L596.5,400.3 L596.2,400.4 L595.7,400.6 L595.1,401 L594.8,401.2 L594.5,401 L593.6,400.7 L592.7,400.4 L592.3,400.4 L592,400.4 L591.7,400.4 L590.8,400.4 L590.5,400.4 L590,400.1 L589.9,400.1 L589.6,400.4 L589.3,400.7 L589,401.2 L588.7,401.3 L588.4,401.5 L588.1,401.5 L586.3,401.5 L586,401.5 L585.5,401.5 L585.1,401.5 L584.6,401.6 L584.2,401.9 L583.9,402.2 L583.6,402.5 L583.4,402.8 L583.6,404.8 L583.6,405.2 L583.7,405.8 L583,405.8 L582.5,405.7 L581.9,404.9 L581.6,404.6 L581.2,404.5 L579.1,403.7 L577.4,403.1 L575.6,402.2 L575.3,402.2 L574.7,401.8 L574.3,401.3 L574,401.2 L572.6,400.4 L569.2,399.1 L567.8,398.5 L567.4,398.5 L567.1,398.5 L566.8,398.5 L566.3,398.3 L565.9,398 L565.1,397.6 L564.8,397.4 L562.9,397.1 L562.4,397.3 L560.8,397.6 L560,397.9 L559.7,397.9 L558.5,397.9 L558.2,397.9 L557.9,397.9 L557.6,397.6 L557.3,397.3 L557,397 L556.7,396.7 L552.8,394.6 L551.8,394.4 L552.2,394.9 L552.5,395.2 L552.7,395.6 L552.1,395.9 L549.8,396.4 L548.9,396.4 L547.4,395.8 L545.9,394.1 L545.8,394 L545.8,393.7 L545.2,393.2 L544.1,392.6 L540.2,392.3 L538.3,392.8 L537.2,392.6 L536.3,391.7 L537.2,391.3 L537.7,391.1 L537.8,391 L538.9,390.2 L539.3,389.8 L539.9,388.9 L539.8,388.4 L537.2,388 L536.8,388.6 L536.8,389 L536.5,389.2 L536.5,388.7 L536.8,388 L536.9,387.7 L537.5,387.1 L538.4,386.9 L541,387.5 L541.1,389 L541.7,389 L542.2,388.9 L542.8,388.4 L543.5,387.7 L542.3,387.7 L542.2,387.2 L543.4,386.9 L544.3,386.6 L544.6,386.5 L544.7,386.2 L545,385.9 L545.3,385.4 L546.2,385.7 L547.7,385.7 L547.9,385.6 L547.4,384.2 L545.9,381.7 L545.2,381.5 L545.2,381.8 L545.6,382.4 L546.1,383.6 L546.1,384.1 L545.8,384.2 L545.5,384.2 L544.4,381.1 L544.4,380.6 L544.7,380.3 L545,380.8 L545.3,380.9 L545.6,380.6 L545,380.2 L545.2,379.9 L545.3,379.6 L546.1,378.4 L546.2,377.9 L546.2,377.6 L546.2,377 L546.1,376.6 L546.1,376 L545.8,375.2 L545.6,374.2 L545.6,373.7 L545.8,373.3 L546.7,372.5 L546.8,372.4 L547.1,372.4 L547.4,374 L547.7,374 L547.4,371.3 L547.6,371 L547.7,370.7 L547.9,370.6 L548.3,370.4 L549.1,370.9 L549.7,371 L550.3,371.3 L550.9,371.3 L551.9,371 L551.9,370.7 L551.8,369.8 L550.9,369.5 L549.8,369.2 L548.8,369.1 L548.2,369.1 L547.9,368.6 L547.6,368.3 L545.9,367.6 L545,367.1 L544.7,367.1 L544,367.6 L544.3,367.9 L544.3,368.2 L542.9,367.6 L541.7,366.8 L539.8,364.3 L540.2,364.3 L540.7,364.4 L541.1,364.4 L541.4,364.4 L542.8,364 L542.9,363.8 L543.2,363.5 L543.4,362.8 L543.5,362.5 L544.9,361.3 L545.2,361.4 L545.5,361.9 L546.5,361.9 L547.3,361.7 L548.5,361 L548.2,360.4 L547.9,360.2 L546.8,360.2 L546.2,360.4 L546.1,360.5 L546.1,361 L545.6,360.5 L545.6,359 L545.9,358.4 L546.2,358.3 L547.7,357.7 L548,357.5 L548.3,357.4 L548.9,356.8 L549.2,356.5 L550,355.3 L550.6,354.4 L550.7,354.1 L551,353.3 L552.2,353 L553.1,352.9 L553.3,352.6 L553,351.7 L551.8,349.3 L551.6,349.1 L551.3,349 L549.7,349.3 L549.5,349.4 L548.5,350.2 L548.5,350.9 L547.6,352.3 L547.1,352.4 L546.2,353.3 L545.3,354.1 L545,354.1 L544.6,354.1 L544.6,353.5 L544.7,352.4 L545,352.1 L545.8,351.7 L546.4,351.2 L546.7,350.9 L545.8,351.4 L545,351.8 L544.9,352 L544.6,352.4 L544.4,352.7 L544.3,353.3 L544.1,354.1 L543.2,354.7 L543.1,354.8 L542.8,354.8 L542.2,355.3 L541.9,355.1 L541.4,354.2 L541.4,353.8 L541.6,353.5 L541.6,352.1 L540.7,351.8 L540.2,349 L540.1,348.1 L540.2,347 L541.1,346.4 L541.6,346.3 L542,346.1 L542.3,345.8 L542.6,345.5 L543.8,344.2 L543.7,343.7 L543.5,342.7 L543.5,341.6 L543.7,341.3 L543.8,341 L544.1,340.9 L544.4,340.7 L545.5,340.4 L546.5,340.6 L546.7,340.4 L547.1,340.1 L547.7,339.7 L548.6,339.4 L549.1,339.4 L549.4,339.4 L549.5,339.4 L550,339.1 L551.3,338.5 L551.6,338.5 L552.1,338.5 L552.7,338.3 L552.8,338 L553,337.7 L553,337.3 L552.5,335.6 L552.1,335.2 L551.8,335 L551.9,332 L552.1,331.7 L552.1,331.3 L552.2,329.8 L551,329 L549.5,327.2 L549.1,326.5 L548.6,326.2 L548.3,326.2 L548,326.3 L547.7,326.5 L547,326.5 L546.7,324.5 L546.5,323.8 L546.8,322.9 L547,322.4 L547.1,322.3 L547.4,322.3 L549.1,321.8 L549.2,321.5 L549.2,320.9 L549.2,320.5 L548.9,320.3 L548.6,320.5 L548,321.2 L546.1,321.4 L544.9,320.5 L544.7,319.9 L544.6,319.6 L545.6,318.8 L546.5,318.5 L546.7,318.2 L546.5,317.8 L546.5,317.5 L546.5,317.2 L546.7,316.6 L547.1,316 L547.3,315.7 L547.6,314.3 L547.3,313 L547,312.8 L546.7,312.5 L546.1,312.2 L545.8,311.9 L545.2,311.3 L545,310.9 L545,310.4 L545.2,310.1 L545.3,309.8 L545.3,309.4 L545.2,309.1 L544.4,309.1 L544.1,309.2 L543.7,309.4 L543.5,309.7 L543.5,310.1 L543.4,310.4 L543.1,310.6 L542.8,310.9 L542.3,311.2 L540.5,310.9 L540.1,310.6 L539.6,310 L539.2,309.4 L537.8,309.2 L537.5,309.4 L537.4,309.7 L537.1,309.8 L536.9,310 L536.6,310.1 L536.2,310.1 L535.9,310 L535.6,309.8 L535.3,309.4 L534.5,308.5 L534.2,308.3 L533.9,309.1 L533.8,309.5 L533.6,309.8 L532.7,310.3 L532.4,310.4 L532.1,310.1 L531.7,309.8 L531.4,309.7 L530.9,309.7 L529.3,309.4 L528.8,309.2 L528.4,309.2 L528.1,309.4 L527.8,309.7 L527.5,309.8 L526.1,309.7 L525.8,309.5 L525.5,309.2 L525.4,308.9 L525.1,308.6 L524.8,308.6 L523.7,309.2 L523.7,311.5 L523.1,312.4 L522.8,311.9 L522.4,311.5 L521.5,310.9 L520.3,310.6 L520,310.6 L519.5,310.6 L517.9,309.2 L514.6,305.9 L514.3,306.1 L513.4,306.7 L513.2,307 L513.1,307.3 L512.9,307.6 L512.8,307.9 L512,308.5 L511.4,308.9 L511,308.9 L510.5,309.1 L509.8,309.5 L509.2,310.3 L508.6,311.2 L508.4,311.5 L508.3,311.8 L508.3,312.2 L507.8,312.5 L507.5,312.5 L507.2,312.4 L507.1,311.8 L506.2,311.6 L505.6,311.6 L505.1,311.9 L505,312.2 L504.8,312.4 L504.5,312.4 L504.2,312.4 L503.3,311.6 L503,311.3 L502.9,311 L502.3,310.7 L501.7,310.9 L501.4,310.9 L500.9,311 L500.6,311 L500.2,311.3 L499.9,311.5 L499.6,311.6 L499.3,311.8 L498.7,312.7 L498.4,313.4 L498.2,313.6 L497.9,313.6 L497.3,313.4 L495.4,312.1 L495.1,311.6 L494,309.8 L494.6,308.9 L493.9,307.6 L492.1,305.3 L491.3,305 L491.3,304.6 L491.5,304.1 L491.6,303.8 L491.5,303.5 L490.7,303.4 L490.3,303.8 L490.1,303.8 L489.8,304 L489.5,303.8 L489.2,303.7 L488.6,302.5 L488.5,302.2 L488.3,301.7 L487.7,301.6 L486.8,301.9 L486.5,302 L486.4,302.5 L485.6,303.1 L485.5,303.2 L485.2,303.4 L484.9,303.4 L484.6,303.5 L484.3,303.5 L482.8,303.1 L481.3,303.1 L481,303.1 L478.9,300.8 L478.6,299.8 L478.1,299 L477.1,298.1 L476.3,297.8 L476.3,297.4 L477.1,296.8 L477.5,296.5 L478.7,295.9 L479,295.6 L479,295 L478.6,294.4 L478,293.8 L477.5,293.8 L476.3,293.2 L474.8,292.3 L474.2,291.5 L473.9,291.2 L473.6,290.3 L473.8,289.9 L473.2,289.1 L470.2,287.2 L469.6,287.2 L468.8,287.6 L468.4,288.1 L468.2,288.4 L467.5,288.7 L466.4,288.5 L466,288.4 L464.3,288.7 L463.1,290.3 L462.7,291.1 L462.5,291.5 L462.4,291.7 L460.9,292 L460.6,292 L460.3,292 L459.5,291.8 L459.2,291.7 L458.9,291.5 L458.6,291.5 L458.3,291.5 L457.3,291.7 L457,291.7 L456.8,292.1 L457.3,294.5 L457.3,295.6 L456.8,296.3 L455.9,297.2 L454.7,297.4 L453.8,297.4 L453.7,296.9 L453.2,296.9 L452.9,296.9 L452.5,297.1 L452.5,296.8 L452.3,296.3 L452,296 L451.3,295.4 L449.8,294.2 L449.8,293.9 L449.8,293.3 L449,291.4 L448.4,289.7 L447.2,288.4 L447.5,288.1 L447.8,287.3 L447.5,286.7 L447.4,286.3 L446.8,285.7 L446.5,285.7 L446.2,285.7 L445.7,285.5 L445.4,285.4 L445.1,285.1 L443.5,283.6 L443.8,283 L444.2,281.9 L443.9,281.8 L443.9,281.2 L443.9,280.6 L444.1,280.1 L445.7,279.5 L447.2,279.5 L447.5,279.8 L447.8,280.4 L449,280.7 L449.5,280.6 L450.8,280.3 L451.1,280.3 L451.7,279.7 L452.3,279.1 L453.1,277.7 L453.2,277.4 L454.3,275.3 L455,274.3 L454.7,272.9 L454.7,272.6 L453.8,272.2 L453.7,272.2 L453.4,272.3 L451.9,271.9 L451.4,271.6 L451.1,271.1 L451,270.4 L451.4,269.6 L451.1,269.2 L450.8,269.2 L449.5,268.9 L447.4,268.4 L446.3,269 L446.2,269.2 L445.9,269.5 L445.6,269.8 L444.2,269.6 L444.2,269 L444.4,268.7 L444.5,268.1 L444.4,266.8 L444.2,266.2 L443.8,265.3 L442.7,264.8 L442.6,264.8 L442.1,265 L440.8,264.7 L440.5,264.7 L438.4,263.6 L437.9,262.7 L437.8,262.1 L436.4,260.5 L436.1,260.5 L435.5,260.3 L435.1,260.2 L434.9,259.9 L434.9,259.3 L435.1,258.7 L434.5,257.8 L433.4,256.9 L432.4,256.4 L431.9,256.3 L431.5,256.1 L431,256 L430.9,255.2 L430.9,253.9 L431,253.4 L431.3,253.1 L431.6,253 L431.9,251.3 L431,249.8 L430.6,249.2 L430.3,249.1 L428.9,247.7 L428.9,247.3 L429.1,246.8 L429.2,246.4 L429.5,246.2 L429.5,245.9 L429.2,244.3 L428.6,242.9 L428.5,242.6 L428.5,242.5 L428.2,242.5 L427.9,242.6 L427.4,243.1 L427.1,243.1 L425.9,242.3 L425.3,241.4 L424,240.5 L423.7,240.4 L421.6,240.1 L419.2,240.7 L418.9,240.8 L418.7,241 L416.9,242.9 L416,244.4 L415.7,244.6 L414.5,243.7 L414.2,243.1 L414.2,241.3 L414.5,240.8 L413.9,240.4 L411.7,239.9 L411.4,239.9 L410.6,239.9 L410.5,240.1 L410.2,240.1 L409.3,241.3 L409.1,241.7 L408.2,241.9 L408.1,241.7 L407.8,241.1 L407.6,240.7 L406.9,239.8 L406.6,239.8 L405.8,239.8 L404.6,240.4 L404.5,241 L404.2,241.1 L402.8,240.1 L402.5,239.9 L402.7,239.6 L402.7,239.3 L402.7,237.7 L401.6,235.6 L401.2,234.7 L400.6,233.9 L399.2,232 L398.3,230.9 L398,229.9 L398,229.3 L397.1,228.7 L396.8,228.7 L396.5,228.7 L396.2,228.8 L396.1,229 L395.6,228.2 L395.6,225.8 L395.8,223.6 L395.6,222.2 L395.3,221.6 L395,221.3 L393.7,220.7 L392.9,220.3 L392.6,220.3 L392.2,220 L392,219.1 L391.9,218.3 L391.3,218.6 L391.1,218.6 L391,218.6 L390.5,218.8 L390.4,218.6 L390.1,217.9 L390.2,216.2 L390.8,213.8 L391.1,213.7 L391.4,213.4 L391.9,213.4 L392,213.2 L392.3,213.1 L392.6,212.8 L392.9,212.5 L392.8,212.2 L392.5,212 L391.4,211.1 L390.8,209.3 L390.5,209 L390.2,208.9 L389.9,208.7 L389.6,208.6 L388.7,207.4 L388.3,206 L388.4,205.6 L388.6,205.1 L388.7,204.8 L388.6,204.4 L388.6,204.1 L388.3,203.5 L388,202.6 L387.7,201.8 L387.5,201.5 L386.8,199.7 L386.2,198.2 L386,197.6 L386,197.3 L386.2,197 L386.3,196.4 L386.6,196 L386.9,195.4 L387.5,194.5 L387.7,194.3 L388,193 L388,192.4 L388,191.3 L388.1,190.1 L388.1,189.2 L388.4,188.9 L388.7,188.9 L389,188.9 L389.2,188.9 L389.5,188.8 L389.9,188.5 L390.1,188.3 L390.1,187.9 L389.9,187.1 L389.8,186.8 L389,186.2 L388.7,186.1 L388.3,185.8 L388.1,185.8 L388.1,185.6 L388.3,185.3 L388.3,184.6 L388.3,184.1 L388,183.5 L387.5,182.9 L387.2,182.6 L387.1,182.3 L386.9,181.1 L387.4,180.4 L387.5,180.4 L388.3,180.7 L388.4,181 L388.7,181.4 L388.9,181.9 L389.2,182 L390.2,182 L390.4,181.9 L390.4,181.7 L390.4,181.3 L390.4,180.8 L390.2,180.4 L390.1,179.9 L390.1,179.3 L390.4,178.6 L390.5,178.6 L391.9,179 L392.2,179.3 L392.5,179.5 L393.2,179.2 L394.1,178.3 L394.3,178.1 L394.4,177.4 L394.4,176.9 L394.3,176.3 L394.3,175.7 L394.6,175.3 L395.2,174.8 L397.6,174.8 L399.8,174.8 L400.1,174.8 L401.3,175 L401.9,175.3 L402.2,175.3 L402.5,175.3 L403.1,175.1 L403.4,175 L403.6,174.5 L403.4,173.3 L403.3,173 L402.7,173 L401.9,173 L401.6,173.2 L401.2,173 L400.9,173 L400.1,172 L400.1,171.5 L399.8,171.2 L399.5,171.1 L399.4,170.9 L398.6,170.8 L398.5,170.8 L398,170.8 L397.3,170.9 L397.1,171.1 L396.8,171.1 L396.5,171.4 L396.4,171.7 L396.1,172 L394.3,172.3 L393.4,172.3 L393.1,172.3 L392.9,172.1 L392.8,172 L391.6,170.9 L391.3,170.6 L390.7,170.3 L390.4,170.3 L390.1,170.2 L389.5,170 L389,169.9 L387.2,167.5 L387.7,167.3 L388,167.8 L388.3,168.1 L388.4,168.2 L389.2,168.5 L389.5,168.5 L389.6,168.4 L388.7,166.6 L388.4,166.4 L388.3,166.7 L388,166.6 L387.8,166.3 L387.8,165.8 L388.1,165.8 L388.3,166 L388.7,166 L388.9,164.8 L388.7,164.2 L388.3,164 L387.2,165.2 L386.5,165.7 L386.3,166 L386.5,166.4 L386.3,166.9 L385,168.4 L384.1,168.5 L382.6,169 L382.4,168.7 L382.7,167.8 L383.9,165.5 L384.7,163.9 L384.8,163.6 L385,163.3 L385.1,163 L385.3,162.7 L385.4,162.1 L385.9,161.3 L386.2,160.7 L386.6,160.6 L386.9,160.4 L387.1,160.3 L387.1,159.7 L387.2,158.9 L387.8,157.7 L388.7,156.5 L389.3,155.8 L389.9,155 L390.1,154.6 L390.2,154.1 L390.4,153.8 L390.4,153.7 L390.5,153.4 L390.7,152.9 L390.7,152.6 L391.4,151.1 L392.3,149.5 L392.5,149.2 L392.9,147.8 L393.8,145.3 L394.4,143.2 L394.4,143 L394.7,142.4 L395.2,141.1 L395.5,140 L396.5,137 L397,136.3 L397.3,135.4 L397.6,134.9 L398.2,133.6 L398.8,132.2 L399.5,130.3 L399.5,129.8 L399.5,129.4 L399.5,128.8 L399.5,128.5 L399.5,125.9 L399.7,125 L399.7,124.6 L399.8,124.3 L400,123.4 L399.2,122.2 L397.9,121.1 L396.2,119.3 L395.9,119 L395.6,118.9 L393.2,117.5 L391.6,116.8 L391,116.6 L389.6,116.3 L389.5,116 L388.9,115.4 L388.4,115.3 L388.1,115.1 L387.5,115 L387.2,114.7 L385.3,113.2 L385.1,113 L385.3,112.9 L385.4,112.7 L385.6,112.6 L385.9,112.3 L386,112.3 L386.5,111.7 L386.8,111.2 L387.2,109.3 L387.5,108.5 L387.7,107.9 L387.8,107.6 L388,107 L388,106.7 L388,106.3 L387.1,104.3 L386.9,104 L385.4,103.3 L385.1,103.1 L385,103.1 L383.9,103 L383.8,103 L383.5,102.8 L382.9,102.4 L382.7,101.5 L382.7,101.2 L382.4,100.9 L382.3,100.9 L382,100.7 L381.7,100.1 L381.5,99.84 L381.8,99.39 L382,99.24 L382.4,98.79 L382.6,98.64 L382.7,98.04 L381.8,96.39 L381.5,96.24 L381.2,96.24 L381.1,96.24 L380.5,96.39 L380.2,96.39 L380,96.54 L379.7,96.54 L379.4,96.69 L379.1,96.39 L379,96.24 L378.8,96.09 L378.5,95.94 L378.2,95.34 L377.9,95.19 L377.8,94.89 L377.2,93.69 L377.2,92.94 L377.2,92.49 L377.3,92.34 L377.6,92.04 L377.9,91.89 L378.2,91.74 L378.4,91.59 L378.5,91.29 L378.1,90.09 L377.9,89.79 L377.8,89.79 L377.5,89.79 L377.2,89.94 L376.7,90.09 L376.4,90.09 L376.3,89.79 L376.1,89.34 L376.4,88.74 L376.6,88.44 L376.7,87.99 L376.4,86.94 L376.3,86.19 L376.1,85.89 L376,85.29 L376.1,85.14 L376.3,84.84 L376.3,83.94 L376,83.04 L376.9,82.14 L377.2,81.99 L377.5,82.14 L377.8,82.29 L377.8,81.54 L377,79.89 L376.9,79.59 L376.1,78.39 L375.1,76.44 L374.6,75.54 L374.5,75.24 L374.2,75.09 L374,74.94 L373.7,74.79 L373.6,74.49 L373.3,74.34 L371.9,72.69 L371.3,71.79 L371.2,71.64 L371,71.19 L370.9,70.59 L369.4,68.79 L369.1,68.34 L368.6,67.59 L368.3,67.29 L367.9,66.84 L367.7,66.69 L367.4,66.39 L366.7,65.79 L366.4,65.34 L366.1,64.89 L366.1,64.44 L365.9,63.69 L365.8,63.39 L365.9,62.64 L366.1,62.34 L367.3,57.69 L368,55.44 L368.6,54.09 L368.8,53.94 L368.8,53.49 L368.9,53.19 L368.9,52.59 L368.6,50.64 L367.7,50.04 L366.4,49.44 L366.1,49.29 L364.7,47.64 L363.2,45.84 L363.1,45.69 L361.7,45.39 L359.5,45.09 L358.6,44.94 L358.3,44.19 L357.1,42.09 L355.9,39.99 L356,39.09 L356.5,37.44 L356.8,36.39 L356.8,36.09 L356.8,35.19 L356.8,34.59 L356.6,34.44 L356.2,34.29 L356,34.29 L355.1,34.59 L354.8,34.59 L354.7,34.74 L354.4,34.59 L354.4,34.29 L354.4,33.99 L355.7,32.34 L356.3,31.74 L356.3,31.59 L356.6,31.44 L356.8,31.29 L357.1,31.44 L357.2,31.44 L357.5,31.44 L357.7,31.29 L357.8,30.99 L358,30.54 L358.1,30.39 L358.3,29.94 L358.3,29.79 L358.3,28.59 L358.1,27.69 L358,27.39 L357.8,26.94 L357.8,26.64 L358.3,26.19 L358.7,26.04 L359,25.74 L359.2,25.59 L359.3,25.59 L359.6,25.14 L360.7,23.94 L361.4,22.89 L361.6,22.59 L361.7,21.24 L361.3,20.64 L361,20.64 L360.8,20.49 L361,20.04 L361.1,20.04 L361.3,19.89 L361.4,19.89 L362.2,20.34 L362.5,20.49 L362.6,20.64 L362.9,20.79 L363.4,21.09 L363.8,21.24 L364,21.24 L365.3,21.09 L365.5,21.09 L365.6,20.94 L365.8,20.79 L366.1,20.64 L366.1,20.19 L365.9,19.59 L365.8,18.99 L365.6,18.39 L365.2,17.79 L364.6,17.04 L365,16.89 L367,16.89 L368,17.19 L368.9,17.34 L370,17.34 L370.3,17.19 L370.4,17.04 L370.1,16.74 L369.8,16.74 L369.7,16.59 L369.4,15.09 L369.5,14.64 L369.7,14.64 L369.8,14.49 L370,14.49 L370.1,14.64 L370.7,14.94 L371,15.09 L371.5,15.39 L371.6,14.94 L371,14.34 L370.9,14.19 L370.7,14.04 L370,13.29 L370,12.69 L370.4,12.54 L370.6,12.54 L370.9,12.54 L371.8,13.14 L372.7,13.29 L372.8,13.29 L373.4,13.44 L373.9,14.04 L374.3,14.34 L374.6,14.34 L374.8,14.19 L374.9,14.19 L375.1,13.89 L376.3,13.74 L376.4,13.74 L377.5,13.89 L377.6,14.04 L377.8,14.19 L377.9,15.39 L377.9,15.84 L377.8,15.99 L377.2,16.59 L377,16.74 L376.9,16.89 L376.7,16.89 L375.4,16.74 L374.5,16.74 L373.6,16.89 L372.7,16.89 L372.2,16.74 L371.9,17.49 L372.2,17.79 L372.5,17.94 L373.1,17.79 L374.2,17.79 L374.3,17.79 L374.5,17.79 L375.2,18.69 L374.2,20.04 L373.9,20.34 L374,20.34 L374.3,20.19 L374.6,19.59 L374.9,19.14 L375.2,18.84 L376.1,18.39 L377.2,18.39 L378.4,18.24 L378.4,18.84 L378.1,19.29 L378.1,19.59 L377.8,20.49 L377.9,20.64 L377.9,21.24 L378.4,20.94 L378.4,20.34 L378.4,19.89 L378.4,19.59 L379.4,18.84 L380.2,18.09 L380.9,17.94 L381.4,18.09 L381.4,19.29 L381.1,20.19 L380.8,20.34 L380.5,20.94 L380.6,20.94 L381.2,20.49 L381.4,20.34 L381.8,20.34 L382.6,21.39 L382.4,21.69 L381.7,23.04 L381.5,23.34 L381.2,23.49 L381.1,23.64 L380.6,23.79 L380.5,24.09 L380.3,24.24 L380.3,24.54 L380.6,25.89 L380.8,25.89 L380.6,25.44 L380.5,24.69 L380.6,24.39 L380.6,24.24 L381.7,23.64 L382.3,23.19 L382.4,23.04 L382.7,21.54 L382.7,21.24 L382.3,20.19 L382.3,19.74 L382.4,19.44 L382.6,19.29 L382.9,19.14 L383.8,18.84 L384.5,18.69 L385.6,18.39 L386.6,18.09 L387.1,18.24 L387.2,18.54 L388.6,18.54 L389.5,18.54 L390.4,18.39 L391,18.39 L391.1,18.24 L391.3,18.24 L391.6,18.24 L391.7,18.54 L392,18.69 L392.2,17.94 L391.4,17.49 L391.4,17.19 L392.2,17.04 L393.1,17.04 L393.7,17.04 L395.6,17.04 L396.5,17.19 L398.6,18.09 L400,18.24 L400.6,18.24 L400.9,18.24 L403.7,19.29 L404.9,19.59 L406,20.04 L407.5,20.64 L408.5,20.64 L408.8,20.64 L409.4,20.94 L409.7,21.09 L410.9,21.69 L411.7,22.29 L413.9,23.19 L414.5,23.79 L415.1,24.39 L415.9,24.39 L416.2,24.24 L415.6,24.09 L415.4,23.94 L415.7,23.34 L416,23.34 L418.1,23.79 L418.3,23.94 L419.8,24.84 L420.8,25.14 L422.5,25.74 L422.8,25.89 L422.9,25.89 L423.2,26.04 L424.4,25.74 L425,25.59 L424.1,24.54 L424,24.39 L423.5,24.24 L423.7,23.94 L423.8,23.94 L424.1,24.09 L424.7,24.39 L425,24.39 L425.2,24.69 L425.9,25.44 L426.1,25.59 L427.3,26.19 L427.6,26.34 L428.2,26.34 L428.8,26.49 L429.4,26.94 L429.4,27.24 L428.9,27.39 L429.7,27.99 L430.3,28.44 L430.4,28.44 L430.7,28.44 L431.6,27.54 L432.5,27.99 L432.7,27.99 L432.8,27.69 L433,27.54 L433.3,27.54 L433.6,27.69 L434.3,28.44 L434.5,28.74 L434.6,29.04 L434.6,29.49 L435.5,31.29 L435.7,31.14 L435.8,31.29 L436,31.29 L436.4,31.74 L436.9,32.64 L437,33.39 L437.3,34.29 L437.5,34.44 L437.8,34.59 L438.2,34.59 L438.4,34.44 L438.4,34.14 L438.7,34.14 L438.8,34.14 L439.1,34.44 L439.7,35.49 L440.3,38.34 L440.5,38.79 L440.5,39.09 L440.5,39.54 L440.6,40.14 L440.5,40.89 L440.5,41.34 L440.3,41.64 L440.2,41.94 L440,42.69 L439.3,45.09 L439.3,45.39 L439.4,45.84 L439.1,47.49 L438.8,48.39 L438.7,48.69 L438.5,48.84 L438.2,49.14 L438.1,49.29 L438.1,49.44 L437.5,50.34 L437.3,50.64 L437.3,51.24 L437.2,51.54 L436,52.89 L434.8,53.94 L433.9,55.14 L433.7,55.44 L433.6,55.59 L433.4,55.89 L432.4,56.49 L431.9,56.79 L431,57.54 L430.7,57.69 L429.7,58.44 L429.4,58.59 L428.9,58.74 L427,59.19 L425.6,59.64 L425.5,59.64 L425.2,59.64 L423.5,59.64 L422,59.34 L421.4,59.19 L421.3,59.19 L420.5,59.04 L420.4,58.89 L419.5,58.89 L418.6,58.89 L418.3,59.04 L417.8,59.04 L416.9,59.34 L416.6,59.34 L416.2,59.49 L416,59.49 L415.4,59.79 L414.5,59.94 L413.9,59.94 L413.3,59.94 L411.2,60.09 L410,60.24 L409,60.39 L408.8,60.39 L408.5,60.54 L408.1,60.39 L407.8,60.39 L407.6,60.39 L406,59.64 L405.2,59.49 L404.8,59.19 L404.3,58.89 L403.6,58.59 L403.3,58.59 L402.8,58.59 L402.7,58.74 L402.5,59.19 L402.5,59.34 L402.4,59.49 L401.8,60.24 L401.6,60.39 L401.5,60.39 L401.2,60.24 L400.3,59.34 L400.3,59.04 L400.4,58.89 L400.6,58.74 L399.7,58.74 L399.2,58.74 L398.8,58.89 L397.3,59.19 L396.7,59.19 L396.5,59.04 L396.2,58.74 L395.9,58.29 L395.6,58.14 L394.6,57.69 L394.1,57.99 L394.3,58.44 L394.6,58.59 L394.9,58.74 L395,58.89 L394.6,59.49 L394.3,59.49 L392.5,58.74 L392,58.59 L391.7,58.44 L391.1,58.14 L389.9,57.39 L389.6,57.09 L389,56.79 L388.9,56.49 L388.6,56.04 L388.4,55.74 L388.3,55.14 L387.5,54.99 L387.4,54.84 L386.9,54.84 L386.6,54.84 L386.5,54.99 L386.2,55.14 L386,55.14 L385.7,54.99 L385.3,54.84 L385.1,54.84 L384.5,55.29 L383.6,55.74 L383.3,55.89 L383,55.74 L382.6,55.59 L382.3,55.74 L382.3,55.89 L382.7,56.19 L383.8,56.04 L383.9,56.04 L384.1,55.89 L384.1,55.74 L384.4,55.59 L384.5,55.59 L384.8,55.59 L385.6,56.19 L386.8,56.64 L386.9,56.79 L387.1,56.94 L387.4,57.24 L387.2,57.84 L387.5,58.89 L388.7,59.34 L390.1,59.79 L390.5,59.79 L390.8,60.39 L390.2,60.69 L390.1,60.69 L391,60.99 L391.3,60.99 L391.9,60.99 L392.2,60.84 L392.5,60.69 L392.6,60.69 L392.9,60.69 L393.7,60.99 L393.7,61.44 L392.9,61.29 L392.6,61.29 L392.5,61.29 L392.5,61.89 L392.3,62.19 L392.2,62.49 L392,62.49 L391.7,62.49 L391.6,62.49 L391.3,62.49 L391.1,62.64 L391.1,62.79 L391.1,62.94 L392.3,62.49 L392.5,62.49 L392.8,62.04 L393.2,61.59 L393.5,61.59 L394.4,61.59 L394.6,61.59 L395.5,62.34 L395.3,62.64 L394.9,62.49 L394.6,62.49 L394.3,62.49 L394,62.49 L393.2,62.49 L393.2,62.64 L393.2,62.79 L392.9,62.79 L392.9,62.94 L392.6,62.94 L392,63.54 L392.5,63.69 L392.8,63.69 L393.1,63.54 L393.2,63.39 L393.2,63.09 L393.5,62.94 L393.8,62.94 L394.3,63.24 L394.6,63.54 L395,63.54 L395.3,63.54 L395.9,63.24 L395.9,62.94 L396.2,62.79 L396.4,62.94 L397.3,63.69 L397,63.84 L396.4,64.44 L395.9,65.49 L395.3,65.79 L395.3,66.09 L396.4,65.79 L396.7,65.49 L397.3,65.49 L398,65.64 L398.3,65.64 L399.1,65.79 L400.6,65.49 L401,65.94 L402.5,66.54 L403.1,66.69 L403.7,66.99 L404,67.14 L404.3,67.29 L405.7,68.34 L407,69.39 L407.2,69.69 L408.7,71.94 L408.5,72.39 L408.2,72.39 L407.8,72.09 L407.6,71.79 L407,71.49 L406.6,71.34 L406.6,71.64 L406.9,72.54 L407.8,73.74 L408.1,74.19 L408.2,76.74 L407.9,77.04 L407.3,77.04 L407,77.19 L406.7,77.79 L406.7,78.39 L407.8,79.89 L408.5,80.19 L408.7,80.04 L408.8,80.04 L409.1,80.04 L409.7,80.94 L410,82.14 L410.8,82.74 L411.2,83.19 L411.4,84.09 L412.1,84.69 L413.2,85.74 L414.2,88.59 L413.8,89.94 L413.8,90.24 L413.6,90.54 L414.4,90.84 L415,90.69 L415.1,90.99 L415.3,91.59 L416.9,92.34 L418.4,92.79 L419,92.79 L419,92.64 L419.6,91.89 L419.6,91.14 L419.8,90.99 L420.1,90.99 L421.6,91.44 L422.2,91.89 L422.5,92.19 L422.6,92.64 L423.5,93.39 L423.7,93.24 L424.1,92.49 L425.8,93.39 L426.1,94.44 L426.4,95.34 L426.5,95.49 L428,95.64 L428.2,95.64 L428.3,95.64 L428.6,95.49 L428.9,95.49 L430.4,95.49 L430.7,95.79 L431.8,95.49 L432.5,95.34 L432.8,95.19 L433.1,95.19 L433.4,95.34 L433.9,95.64 L434.2,95.94 L434.5,96.09 L434.9,96.09 L435.1,95.94 L435.2,95.94 L435.8,95.49 L436,95.34 L436.1,94.89 L436,94.29 L436.1,93.54 L436.4,93.39 L436.9,93.39 L437.2,93.39 L437.3,93.24 L437.6,93.09 L438.1,92.49 L438.2,92.19 L438.2,91.89 L438.4,91.44 L438.4,91.14 L438.4,90.84 L438.2,90.39 L437.8,89.49 L437.5,89.04 L437.2,88.89 L437,88.74 L436.7,88.59 L436.3,88.29 L436,88.14 L436,87.84 L436,86.64 L435.4,86.34 L434.5,85.89 L434.2,85.44 L433.4,85.74 L432.8,86.64 L431.9,87.54 L431.8,87.54 L431.5,87.69 L430.4,87.39 L430.1,87.39 L430,87.24 L429.8,87.09 L428.5,86.19 L428.2,85.89 L427.9,85.59 L427.6,85.29 L427,84.69 L425.8,83.64 L425.5,83.49 L425.3,83.34 L425,83.34 L424.6,83.34 L424.3,83.49 L422.8,81.54 L422.3,80.79 L422.5,80.49 L422.8,80.34 L423.1,80.49 L423.2,80.64 L423.5,80.64 L423.8,80.49 L424.6,78.99 L424.4,77.64 L424.1,76.89 L423.8,76.59 L423.7,76.44 L423.7,75.99 L424.4,75.24 L424.7,75.24 L425.3,75.24 L427.1,75.24 L428,75.39 L429.8,75.99 L430.1,76.14 L430.4,76.74 L430.6,77.19 L430.9,77.34 L432.4,77.94 L432.7,77.94 L432.8,78.09 L433.1,78.09 L433.4,78.09 L433.7,78.09 L434,77.94 L434.3,77.79 L434.6,77.79 L435.1,77.34 L435.2,77.19 L435.5,77.34 L435.5,78.09 L435.1,78.84 L434.9,78.84 L434.6,78.84 L434.5,78.99 L433.9,79.29 L433.7,79.59 L434.5,81.39 L434.6,81.39 L435.1,80.64 L434.9,80.34 L434.9,79.89 L435.7,78.99 L435.8,78.84 L436.6,78.54 L436.7,77.79 L437,77.79 L437.6,77.79 L437.9,77.79 L438.4,77.79 L438.5,77.79 L439,77.64 L439.1,77.64 L439.6,77.64 L442,78.09 L443.3,78.54 L444.2,78.69 L444.7,78.84 L445.1,78.69 L445.9,78.39 L446.8,77.04 L446.5,77.04 L446.3,77.19 L446.3,77.49 L446,77.64 L445.9,77.19 L445.7,76.59 L446,76.44 L447.2,76.44 L447.5,76.59 L447.8,76.59 L448.3,76.89 L448.6,77.19 L449,77.19 L450.7,76.74 L451,76.74 L451.1,76.59 L451,76.14 L450.7,75.69 L450.4,75.54 L450.2,75.39 L449.2,74.04 L449,73.59 L449.2,73.29 L449,72.99 L448.6,72.54 L448.4,72.24 L448.3,71.94 L447.7,71.19 L446.5,69.99 L446.2,69.84 L446,69.84 L445.7,69.84 L445.4,69.84 L445,69.39 L444.5,69.09 L443.9,68.49 L443.2,67.89 L442.7,67.44 L442.1,67.14 L442,66.99 L441.8,66.84 L441.4,66.69 L441.1,66.39 L440.6,65.94 L440.5,65.64 L440.3,65.19 L440,64.74 L439.9,63.99 L439.9,63.24 L439.9,62.94 L439.9,62.49 L440,62.04 L440.2,61.74 L440.3,61.59 L440.5,61.44 L440.6,61.14 L440.8,60.84 L441.7,59.64 L442.4,58.29 L442.4,58.14 L442.6,57.99 L442.7,57.54 L442.7,56.64 L442.9,55.89 L442.9,55.59 L442.9,55.14 L442.9,54.84 L443,54.69 L443,54.54 L443.2,54.24 L443.3,54.09 L443.8,53.79 L444.1,53.64 L444.4,53.49 L444.7,53.19 L445.7,52.14 L446.2,51.69 L446.5,51.39 L446.6,50.79 L447.4,48.69 L447.8,47.49 L447.8,47.19 L448,46.74 L448,45.84 L448.1,44.19 L448.1,43.59 L448.1,43.29 L448.3,42.54 L448.3,42.24 L448.4,42.09 L448.7,42.09 L449.5,42.09 L449.8,42.09 L451,42.09 L451.1,42.09 L451.7,42.24 L451.9,42.54 L452.2,42.84 L452.6,42.69 L453.1,42.39 L453.2,42.09 L453.7,41.79 L454,41.49 L454.4,41.34 L455.3,40.74 L455.6,40.74 L455.9,40.89 L456.2,41.19 L457.3,41.49 L457.6,41.49 L457.7,41.49 L458,41.49 L458.8,41.79 L458.9,41.94 L459.2,42.09 L459.4,42.39 L459.4,42.69 L459.2,42.99 L459.1,43.14 L458.8,43.44 L458.6,43.74 L458.5,44.19 L458,45.69 L458.6,46.29 L460.1,46.74 L460,46.29 L459.7,45.84 L459.2,45.69 L458.9,45.84 L458.6,45.69 L458.8,44.79 L458.8,44.64 L458.9,44.34 L459.8,43.29 L459.8,43.14 L460.7,42.84 L461.5,43.14 L462.5,43.74 L462.8,44.04 L462.8,44.64 L463.1,44.94 L464.8,46.29 L463.4,43.89 L462.5,42.84 L462.2,42.39 L461.9,41.79 L461.5,40.59 L461.3,39.99 L461.3,39.69 L461.2,39.24 L461.2,39.09 L461.2,38.79 L461.2,38.49 L461.3,38.34 L461.2,38.34 L461.2,37.74 L461.2,37.44 L461.2,37.14 L461.3,36.84 L461.5,36.54 L460.9,35.04 L460.9,34.74 L460.9,34.44 L461,34.14 L460.9,33.69 L460.6,33.39 L459.5,32.49 L459.4,32.19 L459.7,31.89 L459.8,31.59 L459.8,31.29 L459.4,30.24 L458.9,29.64 L458.2,29.04 L457.6,28.89 L457.3,28.74 L456.5,28.14 L455.8,27.54 L455.5,27.54 L455.2,27.39 L455,27.54 L454.7,27.54 L454.6,27.69 L454.4,27.84 L454.3,28.14 L454.1,28.29 L454,28.29 L453.2,27.99 L452.9,27.84 L452.6,27.24 L452.3,26.79 L452.2,26.49 L452,25.89 L451.9,25.14 L451.9,24.84 L451.7,24.54 L451.7,23.79 L451.6,22.14 L451.4,20.49 L451.4,20.19 L451.6,20.19 L451.6,19.74 L451.1,18.54 L451,18.24 L450.5,17.79 L450.2,17.34 L450.2,17.04 L450.5,16.89 L450.8,16.74 L450.8,16.14 L450.5,15.99 L450.4,16.14 L450.4,16.44 L450.1,16.44 L449.6,15.39 L449.2,13.74 L448.9,12.69 L448.7,12.09 L448.4,11.19 L448.1,10.89 L447.8,10.74 L447.7,10.74 L447.2,10.44 L446.6,10.14 L446.2,9.991 L445.4,9.841 L445,9.841 L444.5,9.841 L444.1,9.691 L443.9,9.691 L443.6,9.691 L443.5,9.541 L442.9,9.391 L441.2,8.791 L440.9,8.641 L440.8,8.641 L440.5,8.341 L440.2,8.041 L440.3,7.591 L440.6,7.441 L440.8,7.441 L440.9,7.291 L441.2,7.291 L441.4,7.291 L442.7,7.441 L443.5,7.591 L443.9,7.741 L444.5,7.741 L444.8,7.741 L445.4,7.741 L445.6,7.741 L445.9,7.741 L446,7.591 L446.2,7.591 L446.3,7.441 L447.7,6.391 L448.9,5.641 L449.2,5.341 L449.3,5.341 L449.8,5.041 L450.1,4.891 L451.1,4.291 L451.9,3.991 L452,3.991 L452.6,3.841 L453.4,3.841 L455.9,3.541 L456.5,3.991 L456.5,4.141 L456.8,4.441 L457.7,5.491 L460.1,6.391 L460.3,6.391 L460.4,6.241 L460.7,6.241 L461.6,6.541 L461.9,6.691 L462.4,7.441 L462.5,7.891 L463,8.341 L463.1,8.641 L464.2,9.241 L464.6,9.241 L465.2,10.44 L465.4,10.74 L465.2,11.04 L464.9,11.19 L463.6,11.49 L463,11.94 L462.8,12.24 L462.5,12.54 L462.4,12.69 L460.7,13.89 L460.3,14.34 L459.8,14.49 L459.7,14.64 L459.2,14.94 L459.1,15.09 L458.8,15.39 L458.6,15.54 L458.5,15.69 L458.3,16.14 L458.3,16.44 L458.6,16.59 L458.9,17.04 L459.1,17.34 L459.1,17.79 L459.1,18.24 L458.9,18.24 L458.8,18.39 L458.6,18.39 L458.3,18.69 L458.2,18.99 L458,19.44 L458,19.89 L458,20.04 L457.9,20.64 L458,21.09 L458,21.39 L458.5,22.44 L458.8,22.59 L459.2,22.89 L460.3,23.04 L460.6,23.04 L462.1,23.19 L462.4,23.19 L462.8,23.19 L463.3,23.19 L463.6,23.19 L463.9,23.34 L464.3,23.64 L464.5,24.09 L464.8,24.54 L465.5,24.99 L465.7,25.29 L467,26.64 L467.3,26.64 L468.8,27.09 L470,26.34 L470.2,26.19 L470.5,25.89 L470.8,25.44 L470.9,25.29 L471.1,24.99 L471.2,24.84 L471.4,24.84 L471.5,24.84 L471.8,24.84 L472,25.14 L471.7,25.74 L471.5,27.24 L472,26.49 L472,25.89 L472,25.74 L472.1,25.44 L472.4,25.29 L473,24.84 L473.8,24.09 L474.5,23.19 L475.1,22.44 L475.3,22.29 L475.4,21.99 L475.6,21.84 L475.7,21.69 L475.9,21.54 L476.2,21.39 L476.3,21.39 L476.6,21.39 L476.9,20.64 L477.2,19.74 L477.2,19.29 L477.1,18.84 L476.5,17.64 L476.2,17.49 L475.9,17.19 L475.6,16.89 L475,13.74 L475.1,13.29 L475.1,12.84 L475,12.39 L474.7,12.09 L474.5,11.79 L474.2,11.64 L473.9,11.49 L473.3,11.04 L473.3,10.59 L473.3,10.29 L473.8,9.391 L474.4,9.241 L474.7,9.241 L475,8.341 L475,8.191 L475.4,7.741 L475.6,7.741 L476,7.891 L476.2,7.891 L476.6,7.591 L476.8,7.141 L476.8,6.691 L476.9,6.541 L478.1,6.091 L478.7,6.091 L479.2,6.391 L479.3,6.541 L479.8,6.391 L479.9,6.241 L479.3,5.941 L478,5.641 L476.8,4.441 L476.5,4.291 L476.2,4.141 L475.9,3.991 L475.3,3.841 L475.1,3.841 L474.8,3.541 L475.1,3.391 L475.3,3.391 L475.6,3.391 L476,3.691 L476.3,3.691 L476.5,3.841 L476.9,3.841 L477.2,3.841 L477.4,3.691 L477.5,3.541 L478,3.241 L478.1,3.241 L478.6,2.641 L478.7,2.491 L480.1,0.241 L611.6,0.241 L611.8,396.741 L611.8,396.7 Z M416.9,78.441 L417.2,78.591 L417.4,78.741 L418,80.091 L418.1,80.691 L418.3,80.991 L418.3,81.141 L418.3,81.291 L418.3,81.441 L418.1,81.591 L418,81.741 L417.8,82.041 L417.7,81.891 L416,80.691 L415.9,80.541 L415.7,80.241 L415.4,79.941 L415.3,79.641 L415.3,79.491 L415.3,79.341 L415.4,79.191 L415.4,79.041 L416.2,78.591 L416.6,78.441 L416.8,78.441 L416.9,78.441 L416.9,78.441 Z M448.7,37.341 L448.9,37.341 L449.2,37.341 L449.3,37.341 L449.5,37.341 L449.6,37.341 L449.8,37.641 L450.2,37.941 L450.4,38.241 L450.4,38.391 L450.4,38.541 L450.2,38.691 L449.9,38.691 L449.8,38.691 L449.6,38.691 L448.9,38.391 L448.4,38.241 L448.3,38.091 L448.3,37.941 L448.3,37.791 L448.4,37.641 L448.4,37.491 L448.6,37.491 L448.7,37.341 L448.7,37.341 Z M448.6,73.791 L449.6,75.141 L450.2,75.741 L450.5,76.191 L450.5,76.341 L450.4,76.491 L450.2,76.491 L449.9,76.341 L449.8,76.341 L449.6,76.191 L449.5,76.341 L449.3,76.341 L449.3,76.491 L449,76.641 L448.9,76.641 L448.7,76.641 L448.4,76.491 L448.3,76.341 L447.4,76.041 L447.2,76.041 L447.1,76.041 L446.8,76.041 L446.6,75.891 L446.6,75.741 L446.8,75.591 L447.1,75.441 L447.2,75.441 L447.8,75.591 L448,75.741 L448.1,75.891 L448.3,75.891 L448.4,75.891 L448.6,75.891 L448.7,75.891 L448.7,75.741 L448.9,75.741 L448.9,75.591 L448.9,75.441 L448.7,75.141 L448.4,74.841 L448.3,74.691 L448.1,74.691 L447.8,74.541 L447.4,74.391 L448,73.941 L448.1,73.791 L448.3,73.791 L448.4,73.641 L448.6,73.791 L448.6,73.791 Z M448.6,73.791" id="ru" stroke="#FFFFFF" fill="#DCDCDC"></path>
    </g>
</svg>