<?xml version="1.0" encoding="UTF-8" standalone="no"?>
<svg width="612px" height="612px" viewBox="0 0 612 612" version="1.1" xmlns="http://www.w3.org/2000/svg" xmlns:xlink="http://www.w3.org/1999/xlink" xmlns:sketch="http://www.bohemiancoding.com/sketch/ns">
    <title>al</title>
    <description>Created with Sketch (http://www.bohemiancoding.com/sketch)</description>
    <defs></defs>
    <g id="Page 1" stroke="none" stroke-width="1" fill="none" fill-rule="evenodd">
        <path d="M303.2,203.6 L303.8,203.8 L304,203.6 L303.8,203.3 L303.7,203 L303.7,202.6 L304.1,202.7 L304.4,202.7 L304.6,202.9 L305.6,203 L306.8,203.2 L307.7,203.2 L308.2,202.6 L308.3,202.1 L308.6,201.8 L308.8,201.8 L309.1,202 L309.2,202.1 L309.4,202 L310,202 L310.4,201.7 L310.7,201.4 L311,201.1 L311.5,200.9 L311.9,200.9 L312.4,201.2 L312.5,201.5 L312.7,201.4 L312.5,200.9 L312.4,200.5 L312.1,199.9 L312.5,199.7 L312.7,199.7 L312.8,199.9 L313.7,200.6 L314,201.5 L313.6,201.8 L313.1,202 L311.9,202 L311.6,202 L311.5,201.7 L311,202 L311,202.7 L311.5,203.5 L311.6,205 L311,205.3 L310.4,205.7 L309.5,206.6 L308.6,209 L308.8,209.6 L308.8,209.8 L307.7,208.6 L307.4,207.2 L307.4,206 L307.3,205.6 L306.4,204.8 L306.2,206.5 L306.2,207.2 L306.2,208.1 L306.1,208.6 L306.2,208.7 L306.5,209.2 L306.2,210.4 L304.6,212 L303.8,212.3 L303.5,212.5 L302.9,212.6 L302.3,212.2 L301.9,212.5 L302.3,212.8 L302.9,213.2 L302.2,214.3 L301.1,214.7 L300.1,214.7 L299.6,214.6 L299.2,214.6 L297.4,214.4 L297.2,214.3 L296.9,214.3 L296,214.3 L295.6,214.4 L295.3,215 L296,215.2 L296.6,215.3 L297.1,215.2 L297.2,214.6 L299,214.9 L299.6,215 L300.1,215.3 L301.6,216.8 L300.7,217.7 L300.1,218 L298.9,217.7 L298.6,217.7 L298.3,217.6 L298,217.4 L297.7,217.3 L297.2,217.4 L298.6,218 L299.6,218.3 L300.4,218.9 L300.5,219.7 L301,221.8 L301.1,222.1 L301,222.8 L300.7,223 L300.5,223.7 L300.5,224.3 L300.7,224.9 L299.8,225.4 L299.6,225.5 L299.9,225.5 L300.1,225.5 L300.7,225.7 L300.7,226 L301,226.4 L301,227.2 L300.8,227.3 L300.1,227.2 L299.8,227 L299.6,226.4 L298.7,225.5 L299,227.3 L299.3,227.8 L300.5,229.3 L300.7,229.6 L299.9,229 L299.8,228.7 L299.3,228.2 L298.1,227.2 L298.6,227.9 L299.8,229.1 L300.4,229.6 L300.7,229.9 L300.8,230.2 L300.2,231.7 L300.4,232.7 L301,233.9 L300.8,235.1 L300.7,235.3 L300.7,235.6 L300.4,235.7 L299.9,235.7 L299.3,237.2 L299.3,237.5 L299.3,238.7 L299.5,239.3 L300.1,240.1 L300.2,240.1 L300.5,240.5 L300.7,241.3 L299.9,241.4 L299.8,242.9 L299.6,244 L299.6,244.7 L299.5,245.6 L299.3,246.8 L299.5,247.9 L298.9,248 L298.7,248 L298.4,248.2 L298.1,248.9 L297.5,251.5 L297.4,252.1 L297.4,252.5 L297.1,254 L297.1,254.8 L296.8,255.7 L295.7,257.8 L295.1,257.5 L295,256.9 L293.9,256.4 L293.3,256.3 L291.4,257.3 L290,257.2 L288.8,257.2 L286.7,257.3 L285.7,257.3 L285.4,257.5 L285.4,258.1 L285.7,258.4 L286,259 L286.1,259.4 L286,259.9 L285.8,260 L285.1,260 L284.9,259.6 L284.8,259.3 L284.3,259.1 L284.2,259.3 L283.9,259.6 L282.7,260.9 L282.4,261.4 L281.9,262.3 L281.6,262.7 L281.5,263.2 L281.5,263.6 L281.3,264.2 L281.3,265 L281.6,265.4 L282.2,266.2 L282.8,267.4 L283.1,268 L282.8,268.7 L282.7,268.9 L281.8,270.7 L281.5,270.8 L281,270.8 L280.6,270.7 L280.3,270.7 L280,270.4 L279.7,270.2 L279.4,270.1 L279.2,270.1 L278.9,270.1 L277.6,270.2 L277.4,270.2 L276.7,270.4 L275.5,271.1 L275.2,271.3 L274.9,271.6 L274.4,271.9 L274.1,271.9 L273.7,271.9 L270.8,271 L270.2,268.6 L270.2,268.1 L270.5,267.7 L270.7,267.5 L271.3,267.1 L271.4,266.2 L270.1,263.8 L269.9,263.6 L267.8,259.9 L267.7,259.6 L267.2,259.1 L266.8,258.5 L265.7,256 L267.2,256.6 L268,257.2 L268.7,257 L269,256.6 L268.1,254.9 L267.5,254.5 L267.1,254.3 L267.1,253.9 L267.1,253.6 L267.5,253.1 L268,253 L268.6,253.3 L268.9,253.4 L269,253.4 L269.2,253.4 L269.3,253.3 L269.5,253.1 L269.6,252.8 L269.6,252.4 L269.6,251.8 L269.5,251.2 L269.2,250 L268.6,249.8 L268.3,250.1 L268.1,250.1 L267.8,250.1 L267.4,249.5 L266.8,248.3 L266.6,247.7 L266.6,247.3 L266.5,247 L265.6,246.1 L265,245.9 L264.4,245.6 L264.4,244.7 L263.8,243.7 L263.5,243.2 L262.6,241.1 L262.1,240.1 L262.4,239.5 L262.4,239 L262,237.1 L261.5,236.5 L261.2,237.1 L261.1,238.4 L260.6,238 L260.5,237.5 L260.3,237.1 L260.3,235.6 L260.3,235.4 L260.3,235.3 L260.5,234.8 L260.3,233.9 L259.9,234.1 L259.6,233.2 L259.9,232.9 L260,232.6 L258.8,232.7 L258.5,232.6 L258.7,230.8 L258.2,230 L258.4,229.4 L258.8,229.3 L259.1,227.3 L259.1,226.9 L259,226.6 L259,226.4 L259.1,225.8 L259.4,224.9 L259.9,224 L259.1,222.1 L258.5,221.9 L257.6,222.8 L257.5,223.1 L256.9,223.6 L256.6,223.6 L255.8,223.1 L255.7,222.2 L254.5,221.8 L254,220.9 L254.3,219.1 L254.5,218.2 L254.6,217.9 L254.5,216.8 L254.5,216.5 L254,216.1 L253.9,215.6 L253.9,215.2 L254,214.6 L254.2,214.3 L254.2,213.4 L253.9,212.2 L253.7,212 L253.3,211.7 L253.3,210.7 L253.3,210.4 L253.7,209.6 L253.9,209.5 L254.5,209.2 L254.9,209 L255.1,209.2 L255.4,209.9 L255.5,210.5 L255.8,211 L255.8,212 L255.8,212.5 L256.1,212.6 L256.4,212.6 L257.2,212.5 L257.2,212.3 L257.5,212.2 L258.4,209 L258.4,208.6 L258.4,207.7 L258.4,207.2 L258.5,207.1 L258.7,206.6 L258.7,206.2 L258.7,205.6 L258.5,205.3 L258.2,203.5 L257.5,200.8 L258.2,199.9 L258.7,199.7 L259.3,198.8 L259.4,198.4 L259.3,197.6 L259.3,197.5 L259.1,197.2 L258.7,196.4 L259,196.1 L259.1,196 L259.7,195.5 L260,195.7 L260.3,195.7 L260.9,195.7 L261.1,195.7 L261.4,195.5 L261.5,195.2 L262.6,194.2 L263.8,192.5 L263.9,191.8 L263.9,191.3 L263.9,190.7 L263.9,190.3 L264.1,188 L264.4,187.4 L264.5,187 L264.5,186.4 L264.5,185.8 L264.4,185 L263.8,183.2 L263,181.9 L262.7,181.1 L262.6,180.7 L262.4,180.4 L262.3,179.8 L262,178.9 L261.7,178 L261.4,177.4 L261.2,177.1 L261.5,176.8 L261.8,176.5 L262.6,176.2 L262.7,176 L262.9,176 L263,176 L263.5,176.2 L263.9,176.2 L264.2,176.2 L264.4,176 L264.5,176 L264.7,175.4 L265.4,173.5 L265.6,172.9 L265.9,171.7 L266,170.8 L265.3,170 L263.3,167.5 L262.9,167.5 L262.7,167.5 L262.4,167.3 L260.3,165.1 L260.2,164.9 L260.5,163 L260.5,162.4 L260.6,161.8 L260.6,161 L260.8,160.3 L261.1,158 L261.2,156.1 L261.2,155.9 L261.1,155.2 L260.9,154.9 L260.8,154.7 L260.5,153.7 L260.3,153.2 L260,152.8 L259.6,151.6 L259.3,150.5 L259.3,149.3 L259.4,148.4 L259.4,148 L259.3,147.1 L259.1,146.5 L259,145.6 L259.1,145.1 L259.6,144.2 L259.9,143.8 L259.9,143.5 L259.7,143 L259,140.9 L258.8,140.8 L258.1,139.3 L258.5,138.4 L259.1,137.3 L259.6,136.4 L259.9,135.7 L259.7,135.2 L259.6,134 L260.9,131.6 L261.7,129.8 L262.1,129.2 L262.7,128 L263.2,127.6 L263.9,127 L264.2,126.5 L264.8,126.1 L265.3,125.9 L265.6,125.8 L266.3,125.6 L266.6,125.5 L266.9,125.3 L267.4,125.5 L272.3,126.4 L273.4,123.7 L273.2,121 L272.8,118.9 L272.2,118.6 L271.3,118.3 L270.7,118 L269.6,117.2 L269.6,116.8 L269.8,116.3 L269.9,116 L270.7,114.7 L271,113.9 L271.4,112.9 L272.2,110.9 L273.1,109.3 L273.5,108.4 L273.5,108.2 L273.7,107.9 L273.7,107.6 L273.8,106.6 L273.8,106 L274.6,104.9 L274.6,104 L274.6,102.7 L274.4,101.5 L274.4,100.4 L274.6,98.49 L274.7,97.89 L274.9,97.59 L274.9,97.29 L275,96.84 L275,96.54 L274.9,95.64 L274.6,94.74 L274.6,94.44 L274.3,93.39 L274.1,92.34 L274,91.59 L275.3,91.29 L277.1,90.99 L277.4,90.99 L280.1,88.59 L280,87.99 L279.5,86.64 L279.2,85.74 L279.2,85.44 L280.1,84.09 L280.7,83.34 L281.3,81.99 L283,78.54 L284.9,76.29 L285.1,73.74 L284.6,72.69 L284.5,72.39 L284,71.64 L283.6,71.19 L283.3,70.89 L283.1,70.74 L282.8,70.44 L282.7,70.14 L283.3,68.49 L284.5,68.19 L284.6,68.04 L285.1,66.69 L285.5,65.79 L285.5,65.49 L285.7,64.59 L286,62.94 L286.1,61.89 L288.8,59.49 L289,59.04 L289.1,58.74 L289.1,58.44 L291.2,59.34 L291.7,59.49 L291.8,59.64 L292.3,59.94 L292.7,60.24 L292.9,60.39 L293,60.39 L293.2,60.39 L293.5,59.64 L294.4,57.09 L294.5,56.79 L293.9,54.99 L293.8,54.39 L293.6,53.79 L293.5,53.04 L293.5,52.44 L293.5,51.54 L293.6,51.39 L293.9,51.24 L295.1,50.64 L296.8,51.54 L298.9,51.09 L301.7,51.84 L302.6,51.99 L303.7,52.29 L304.6,52.59 L304.9,52.74 L305,52.74 L305.2,52.59 L305.3,52.44 L305.5,51.99 L305.6,51.69 L305.8,51.39 L306.4,50.79 L306.5,50.34 L305.6,50.04 L304.7,49.44 L305.3,48.69 L305.9,47.64 L306.1,47.34 L306.2,46.89 L306.5,45.84 L306.7,45.24 L306.1,42.99 L305.6,42.54 L304.6,41.49 L307.1,40.89 L307.4,40.74 L307.6,40.89 L307.9,40.89 L308.5,41.04 L308.8,41.19 L309.1,41.34 L309.4,41.49 L309.5,41.64 L309.7,41.94 L309.8,42.24 L309.5,42.69 L309.7,43.14 L310.1,43.29 L310.3,43.29 L310.4,43.29 L310.7,43.29 L310.9,43.44 L311.8,44.04 L313.3,45.39 L313.6,45.84 L313.7,46.14 L314.2,46.14 L314.5,46.29 L314.6,46.29 L314.8,46.44 L315.2,46.74 L315.4,47.19 L315.7,47.34 L316,47.34 L316.3,47.34 L316.4,47.34 L316.7,47.49 L316.9,47.64 L317.2,47.94 L317.5,48.24 L317.6,48.54 L318.4,48.69 L319.6,48.54 L320,48.69 L320.5,48.84 L320.9,48.84 L321.5,48.84 L322.6,49.29 L322.9,49.74 L323.2,50.19 L323.5,50.19 L323.6,50.19 L324.2,50.64 L326.6,53.49 L326.8,53.94 L326.9,54.09 L328,54.84 L328.7,55.14 L328.9,55.44 L328.9,55.74 L328.7,56.19 L328.3,56.34 L328.1,56.49 L328,56.79 L328.1,57.54 L328.4,59.19 L328.7,59.94 L328.9,61.74 L328.7,63.09 L329,63.39 L329.2,63.54 L329.3,63.69 L329.5,63.54 L329.6,63.39 L329.8,63.39 L330.8,63.54 L331,63.69 L331.4,65.04 L331.3,65.79 L331.1,65.94 L331,65.94 L330.7,66.24 L330.5,66.24 L330.5,66.69 L330.5,68.04 L331.6,69.69 L332,70.14 L332.2,70.44 L332.5,70.59 L333.1,71.34 L333.7,71.94 L334.3,73.14 L334,73.44 L333.8,74.19 L334,74.79 L334.1,75.24 L334.3,76.89 L334.3,77.34 L334,77.49 L333.8,77.64 L333.4,78.24 L333.1,79.14 L333.1,79.44 L333.5,81.39 L333.8,82.14 L334.3,83.19 L334.6,83.34 L335,83.49 L335.3,83.64 L335.5,83.64 L335.8,83.79 L335.9,84.09 L336.1,84.39 L336.2,84.84 L336.8,85.59 L338.3,88.44 L338.3,88.74 L338.3,89.04 L338,89.04 L337.9,89.04 L337.6,89.04 L337.3,89.34 L337.1,89.64 L337,89.94 L335.8,89.64 L335,89.49 L334.1,89.79 L333.7,90.54 L333.4,90.54 L332.3,90.09 L332.3,90.69 L331.9,91.59 L331.6,91.89 L330.8,91.14 L329.5,90.24 L329.2,89.79 L328.7,89.34 L328.3,89.19 L328.1,89.19 L328.4,89.49 L328.7,90.69 L328.7,91.44 L328.6,91.44 L328.1,90.84 L327.1,90.09 L326.9,90.09 L326.8,90.09 L326.3,90.09 L326.2,90.69 L326,92.94 L326.2,93.99 L326.5,93.99 L326.6,93.99 L326.3,93.39 L326.6,93.39 L327.1,93.84 L327.5,95.19 L327.5,95.34 L327.2,95.19 L326.3,94.89 L326,94.89 L325.1,94.59 L323.5,93.69 L323.2,93.24 L322.7,93.09 L323.3,93.84 L323.5,93.99 L324.8,94.74 L325,94.89 L325.4,94.89 L326,95.49 L325.9,95.64 L325.1,95.94 L324.8,96.09 L324.2,96.09 L324.1,95.94 L323.9,96.09 L324.2,96.54 L324.4,96.69 L324.5,96.69 L324.4,96.24 L324.8,96.54 L325.1,96.99 L325.1,97.59 L324.7,98.04 L323,98.49 L322.9,98.49 L322.7,98.34 L322.4,98.19 L322.1,98.34 L321.7,98.79 L322,99.24 L322.3,99.69 L322.6,99.69 L322.7,99.54 L323.5,100.1 L323.2,100.9 L322.7,101 L322.6,101.2 L322.4,100.9 L322,100.3 L321.8,99.99 L320.8,99.09 L320.3,99.69 L320.8,99.99 L321.5,100.1 L322.1,100.9 L322.6,101.5 L323.2,102.4 L323.2,103.9 L322.9,104 L322.6,104 L322.4,104.3 L322.6,104.9 L322,105.5 L321.5,106 L321.2,106.1 L321.1,107 L321.1,107.5 L321.1,108.1 L320.6,108.4 L320.5,108.2 L320.2,107.8 L320,107.9 L320,108.4 L320.5,109 L320.8,109 L320.9,109 L321.4,108.8 L321.7,108.8 L322,109 L322.3,110.6 L322,110.6 L321.8,110.3 L321.1,109.9 L320.9,109.9 L320.8,109.9 L320.9,110.5 L322.1,111.5 L322.9,111.7 L323.6,112 L324.2,112.6 L324.7,114.1 L324.1,115.4 L323.6,115.9 L323.2,116.5 L322.9,116.6 L322.7,116.5 L321.2,119.5 L320.9,121.1 L321.1,121.9 L320.6,123.8 L320.5,124.1 L320.2,124.6 L319.6,125.2 L319,125.5 L318.7,125.2 L318.4,126.2 L318.4,127.4 L318.1,127.7 L317.8,128 L317.6,128.3 L317.3,128 L316.1,128.3 L315.7,128.8 L314.8,129.2 L314.2,130.6 L314,131 L314.3,131.8 L313.9,132.4 L313.6,132.4 L313.3,132.2 L313.3,131.8 L313.1,131.5 L312.2,130.6 L311.9,130.4 L311.6,130.7 L312.2,132.2 L311.9,132.4 L311.3,132.7 L311,132.4 L311,132.2 L310.9,132.4 L310.9,133 L310.7,134.5 L310.1,134.8 L309.5,136.1 L309.7,136.4 L309.8,136.4 L310,136.6 L309.8,137.2 L309.7,137.2 L308.9,136.4 L308.3,135.7 L307.7,136.1 L308,136.4 L308.3,136.4 L308.6,136.7 L308.5,137 L307.7,137.6 L307.6,137.2 L307.7,137 L307.3,136.9 L307.4,137.5 L306.8,138.1 L306.2,138.5 L305,139.7 L304.6,140.8 L304.9,140.8 L305,140.8 L305.3,140.8 L306.2,140.8 L306.5,140.8 L306.7,141.1 L306.1,142.9 L304.3,144.4 L303.7,144.7 L303.4,144.5 L303.5,144.1 L303.7,143.9 L303.2,143.5 L302.9,143.5 L302.6,143.9 L302.2,143.6 L301.6,142.3 L301.3,141.7 L301.1,141.1 L300.2,141.2 L300.5,141.5 L300.7,141.8 L301,141.8 L301.3,142.1 L301.7,142.9 L302.8,145.4 L302.9,145.9 L302.9,146.6 L302.8,146.6 L302.6,146.3 L302,146.6 L302.8,146.9 L303.4,147.1 L303.4,147.5 L303.1,148.3 L302.2,149.5 L302,149.6 L301.7,149.3 L301.3,149.3 L301,149.5 L300.8,149.9 L301,150.4 L300.5,150.5 L300.1,150.4 L299.9,150.2 L299.6,149.8 L299.3,149.5 L299,149 L298.9,149 L298.4,149.9 L298.7,152 L298.9,152.5 L299.8,153.4 L299.9,153.5 L300.4,153.7 L300.5,153.7 L301,153.8 L301.1,153.8 L300.8,154.3 L300.4,154.4 L300.5,154 L300.4,154 L300.1,154 L300.1,154.4 L300.1,155.8 L300.1,157.7 L299.9,158 L299.8,158 L299.3,158.9 L299.5,161 L299.9,161.9 L300.4,162.4 L300.7,162.4 L300.8,162.4 L301.1,162.8 L301,163.9 L300.5,164 L300.4,163.9 L300.1,163.1 L299.8,162.8 L299.6,162.7 L298.7,162.7 L298.3,162.8 L298.6,163 L298.7,163 L299.2,163.3 L298.6,164.2 L298.4,164.2 L298.3,164.2 L298,164.8 L298.3,165.5 L298.6,166 L299.2,167.5 L298.7,167.6 L298.4,168.1 L298.7,168.8 L299.3,169.3 L299.3,170 L299.3,171.5 L299.3,173.9 L299.5,175.7 L299.9,176 L300.2,176.5 L300.5,177.2 L300.7,178.4 L300.8,179 L300.8,180.1 L301.6,180.5 L301.7,180.8 L301.9,180.7 L302.8,180.4 L303.1,180.4 L303.2,180.4 L303.5,180.5 L303.7,180.7 L303.8,181 L303.5,181.3 L303.7,181.7 L303.8,182.3 L304.1,182.6 L304.3,182.6 L304.7,182.6 L304.6,182 L304.9,181.4 L305.3,181 L305.8,180.8 L306.1,180.8 L306.2,180.8 L306.7,181.4 L307.6,183.1 L308.8,184.9 L308.9,185 L309.2,184.7 L309.5,184.6 L310.4,184.7 L310.7,185.3 L311.8,186.1 L311.9,186.2 L311.6,186.5 L311.5,186.5 L310.9,186.4 L310.7,186.2 L310.1,185.9 L310,185.6 L309.5,185.3 L310.4,187 L310.6,187.3 L311.3,187.7 L311.6,187.7 L312.4,187.7 L313,188 L313.6,188.2 L313.9,188.3 L314,188.8 L314.8,190.6 L314.9,190.9 L315.1,191.2 L315.4,191.2 L315.8,191.3 L316.1,191.5 L316.3,191.6 L316.4,192.5 L316.1,192.7 L315.5,192.1 L315.2,192.1 L314.9,193.3 L315.5,193.4 L315.7,193.4 L316.6,193.6 L316.6,194.2 L316.4,194.5 L316,194.6 L315.7,194.5 L314.8,194.8 L314.2,195.2 L313.9,195.5 L313.9,196 L314.2,196 L313.7,196.9 L313.6,197.2 L311.6,199.3 L311.2,199.3 L310.7,199.3 L310.7,199.7 L311,200.3 L311.3,200.5 L310,200.3 L310.1,200.2 L310.1,199.7 L309.5,199.7 L309.4,200 L309.2,200.8 L309.5,201.2 L309.5,201.7 L308.8,201.7 L308.3,201.8 L308,201.7 L307.6,201.5 L307.4,201.4 L307.1,201.4 L307,201.1 L306.7,200.6 L306.8,199.3 L307,199 L307.3,198.7 L307,197.8 L306.4,197.3 L306.2,196.6 L305.9,196 L305.9,196.3 L305.9,196.4 L306.1,196.6 L306.1,197.2 L305.5,197 L305,196.9 L305,196.7 L305.3,196.6 L305.5,196.3 L305.3,195.7 L305,194.6 L304.7,194.3 L304.7,194.8 L304.4,195.2 L304.3,195.4 L303.7,195.5 L303.8,196.6 L304.6,198.1 L304.7,198.2 L304.6,197.8 L304.4,197.6 L304.4,197 L304.3,196.1 L304.4,195.5 L304.9,195.4 L305,195.5 L305.2,196.1 L304.7,196.6 L305,197 L305.9,197.5 L306.2,197.8 L306.5,197.9 L306.7,198.7 L306.5,200.2 L304.9,199.6 L304.7,199.3 L304.9,198.8 L304.4,198.8 L304,198.5 L303.4,197.6 L303.4,197 L303.1,197.6 L303.4,198.2 L303.7,198.7 L303.8,199.7 L303.8,200 L303.1,199.7 L302.6,199.6 L301.9,199.1 L301.4,199 L301,199.1 L300.7,199.3 L299.9,199.1 L299.3,198.5 L299,198.5 L298.7,199 L297.7,199.3 L297.4,198.7 L296.8,198.4 L296.6,198.4 L296.3,198.7 L296.5,199 L296.8,199.3 L296.3,200.2 L295.1,200.8 L293.9,200.9 L293.3,200.9 L293,200.8 L292.7,200.6 L293,201.2 L293.3,201.4 L293.9,201.4 L294.8,201.2 L295,201.1 L295.3,201.1 L297.8,200.5 L298,200.6 L298.6,201.2 L299.2,201.8 L299.6,202 L299.8,201.7 L299.5,201.5 L299,201.2 L298.4,200.8 L298.1,200.6 L299.2,200.2 L299.8,200.5 L300.1,200.8 L300.2,201.1 L301.6,201.8 L302,201.8 L302.9,202 L303.2,202.1 L303.2,202.6 L302.9,203.2 L302.9,203.6 L303.2,203.6 L303.2,203.6 Z M319.7,224.9 L320.2,226.1 L319.4,227.6 L318.8,228.1 L318.5,228.4 L318.4,229.1 L318.4,231.7 L318.5,232.3 L318.8,232.6 L318.5,236.2 L318.1,236.6 L317.3,237.4 L316.9,237.7 L316.4,237.8 L316.3,238.1 L316,238.3 L315.7,239.3 L315.8,240.4 L315.5,241.7 L314.9,242.2 L314.5,242.2 L314.3,242.2 L314.3,241.7 L314.8,240.8 L315.1,240.1 L314.9,239.3 L314.2,238.3 L313.7,236.8 L313.7,235.4 L313.4,233.9 L313,232.7 L313,232.3 L313,232 L313.1,231.5 L313.4,230.8 L313.7,230.5 L313.9,230.3 L314.2,230 L314.3,229.7 L314.6,229.1 L314.6,228.8 L314.9,228.5 L314.9,228.1 L315.1,227.8 L315.4,226.9 L317,224.9 L317.3,224.8 L318.7,224.6 L318.8,224.6 L319.7,224.8 L319.7,224.9 L319.7,224.9 Z M300.5,255.4 L300.4,255.2 L300.2,254.3 L299.9,251.2 L299.8,250 L299.9,249.1 L300.7,245.8 L301.3,244.1 L301.3,244 L301.4,244 L302.3,242.9 L302.9,240.8 L303.2,239.5 L303.7,238 L303.7,237.7 L303.7,237.4 L303.5,237.1 L303.7,236.8 L303.7,236.6 L303.7,236.5 L303.8,236.3 L304,236 L304,235.9 L304.1,235.7 L304.3,235.7 L304.7,235.7 L304.9,236.2 L304.4,238.6 L304.3,239.5 L303.8,240.5 L303.7,241.1 L303.4,242.9 L303.2,244.4 L303.2,244.7 L303.1,244.7 L302.9,244.9 L302.8,245.2 L302.6,245.3 L302.5,247 L301.9,250.1 L301.6,252.1 L301.6,252.2 L301.6,252.5 L301.6,252.7 L301.6,252.8 L301.4,253.4 L301.1,254.9 L301,255.1 L301,255.2 L300.7,255.4 L300.5,255.4 L300.5,255.4 Z M256.4,226.4 L256.3,226.3 L255.8,225.2 L256,225.1 L258.1,222.7 L258.4,222.7 L258.5,222.7 L259,223.3 L259.3,223.9 L259.3,224.6 L259.3,224.9 L259.3,225.2 L259.3,225.5 L258.5,225.8 L258.2,225.8 L257.8,225.7 L257.6,225.5 L257.3,225.5 L257.2,225.5 L256.4,225.8 L256.4,226.3 L256.4,226.4 L256.4,226.4 Z M256.9,227.8 L256.7,227.6 L256.7,227.3 L256.7,226.9 L256.9,226.7 L258.7,226.7 L258.7,227 L258.7,227.5 L258.7,227.6 L258.1,228.2 L257.9,228.4 L257.5,228.7 L257.3,228.7 L256.9,228.4 L256.9,227.8 L256.9,227.8 Z M320.9,225.7 L320.6,225.5 L320.5,225.5 L320,224.8 L320,224.6 L320.3,223.6 L320.5,223.6 L322,223.3 L322.1,223.3 L322.4,223.6 L322,223.9 L321.8,223.9 L321.7,223.7 L321.5,223.9 L321.1,224.2 L320.9,224.5 L320.9,224.6 L320.9,225.7 L320.9,225.7 Z M311.5,185.2 L311.2,185 L310.1,184.3 L310.1,184.1 L309.8,183.4 L309.7,182.2 L309.8,182 L310,182 L310.1,182.2 L310.4,183.2 L311,184.4 L311.2,184.6 L311.6,185 L311.5,185.2 L311.5,185.2 Z M302.8,201.8 L302.5,201.7 L301.9,201.7 L301.1,200.5 L301.3,200.5 L301.7,200.5 L302.5,200.5 L302.6,200.5 L302.8,200.6 L303.2,201.2 L303.2,201.4 L302.8,201.7 L302.8,201.8 L302.8,201.8 Z M307.1,202.4 L306.8,202.4 L306.5,202.4 L306.2,202.1 L306.1,202 L305.6,201.1 L305.5,200.8 L305.6,200.6 L305.8,200.6 L306.7,201.1 L307,201.4 L307.1,202.3 L307.1,202.4 L307.1,202.4 Z M299.6,151.9 L299.5,151.9 L299.3,151.7 L299.2,151.6 L298.7,150.1 L299.5,150.2 L299.8,151 L300.1,151.7 L299.9,151.7 L299.6,151.9 L299.6,151.9 Z M299.6,151.9" id="se" stroke="#FFFFFF" fill="#DCDCDC"></path>
    </g>
</svg>