<?xml version="1.0" encoding="UTF-8" standalone="no"?>
<svg width="612px" height="612px" viewBox="0 0 612 612" version="1.1" xmlns="http://www.w3.org/2000/svg" xmlns:xlink="http://www.w3.org/1999/xlink" xmlns:sketch="http://www.bohemiancoding.com/sketch/ns">
    <title>al</title>
    <description>Created with Sketch (http://www.bohemiancoding.com/sketch)</description>
    <defs></defs>
    <g id="Page 1" stroke="none" stroke-width="1" fill="none" fill-rule="evenodd">
        <path d="M303.1,433.9 L303.1,434.5 L303.2,435.4 L302.9,436.6 L301.9,437.3 L301.7,437.3 L300.8,436.6 L299.6,436.3 L298.9,436.6 L298.4,436.9 L298,436.9 L296.8,436 L295.6,434.6 L295.4,434.3 L295.3,433.7 L294.8,433.7 L294.5,434.6 L294.2,435.8 L293.3,436.7 L293,436.9 L290.3,437.2 L288.7,437.5 L288.2,437.6 L287.8,437.8 L285.4,437.9 L285.1,437.9 L284.8,437.9 L284.3,437.6 L284.2,437.5 L284.2,436.9 L284.9,436.4 L285.8,436.3 L285.5,435.4 L286.4,435.5 L286.7,435.5 L287,435.5 L287.6,434.6 L286.7,433.3 L286.1,432.8 L285.1,432.4 L284,431.9 L283.7,431.3 L283.9,430.6 L284,430.3 L284.3,429.7 L284.3,429.1 L283.7,428.9 L283.6,429.1 L283.3,429.4 L282.8,429.1 L282.5,428.6 L283,427.7 L283.1,427.4 L283.3,427.3 L283.7,427 L284.3,426.4 L284.5,425.8 L283.1,425.2 L282.4,424.9 L282.1,425.2 L281.6,425.3 L281.2,424 L281.8,423.1 L282.5,422.3 L284.2,421.3 L284.5,421.1 L284.6,420.5 L284.8,420.1 L284.8,419.9 L285.4,419.9 L286.1,419.9 L287.2,419.9 L288.7,420.4 L289.1,420.5 L289.3,420.7 L289.6,421.1 L293.2,421.3 L293.9,421.4 L296.6,419.5 L296.8,419 L296.9,418.4 L297.2,417.7 L299.2,416.9 L299.3,417.1 L299.6,416.8 L300.1,416.8 L302.9,416.6 L305,416 L307.3,415.3 L307.6,415.1 L307.9,415.1 L309.2,414.5 L309.1,413.2 L309.4,413.2 L310.4,412.4 L310.7,412.6 L311.2,412.6 L311.6,412.3 L312.1,412.3 L312.4,412.3 L313,412.7 L312.8,413.3 L312.7,413.6 L312.8,414.2 L313.3,414.8 L313.4,414.7 L313.6,415 L313.9,415.7 L315.4,418.1 L316.3,418.6 L316.1,418.6 L315.8,418.6 L315.4,418.4 L315.1,418.3 L314.6,418 L313.7,417.8 L313.3,417.8 L312.8,418 L312.5,418.3 L312.4,418.6 L312.7,419.9 L311.3,420.2 L310.6,420.7 L310.7,421.1 L310.7,421.4 L310.1,422.2 L307.7,423.4 L306.5,423.5 L306.2,423.7 L305.8,424.6 L305.8,425 L305.8,425.5 L306.2,425.9 L306.5,426.2 L307.1,426.4 L307.4,428.3 L307.1,430 L306.7,430.3 L306.4,430.1 L306.2,430 L305,430.3 L303.2,431.5 L303.1,431.8 L302.8,432.1 L302.8,432.7 L303.5,432.4 L303.5,433.4 L303.1,433.9 L303.1,433.9 Z M303.1,433.9" id="si" stroke="#FFFFFF" fill="#DCDCDC"></path>
    </g>
</svg>