<?xml version="1.0" encoding="UTF-8" standalone="no"?>
<svg width="612px" height="612px" viewBox="0 0 612 612" version="1.1" xmlns="http://www.w3.org/2000/svg" xmlns:xlink="http://www.w3.org/1999/xlink" xmlns:sketch="http://www.bohemiancoding.com/sketch/ns">
    <title>al</title>
    <description>Created with Sketch (http://www.bohemiancoding.com/sketch)</description>
    <defs></defs>
    <g id="Page 1" stroke="none" stroke-width="1" fill="none" fill-rule="evenodd">
        <path d="M339.2,389.5 L339.1,389.5 L338.8,389.6 L338.2,389.8 L337.6,389.9 L337.4,390.2 L337,391.4 L337,392.3 L337.3,392.9 L337.7,393.2 L338.2,393.5 L338.2,393.8 L337.4,393.8 L337.1,394 L336.8,394.3 L336.4,394.9 L336.2,395 L335.9,395 L335.5,395 L334.9,395 L334,395.2 L333.7,395.3 L333.2,395.5 L332.8,395.6 L332.5,395.8 L331.3,395.8 L330.5,395.6 L330.1,395.6 L329,395.8 L328.3,395.9 L328.1,396.1 L326.9,396.2 L326.2,395.9 L323.6,394.3 L323.3,394.1 L323,393.8 L322.7,393.2 L321.8,392.5 L321.5,392.5 L321.1,392.3 L320.9,392.2 L320.8,392.2 L320.2,392.2 L320,392.3 L319.4,392 L319,391.3 L318.8,390.4 L318.4,390.4 L317.9,389.9 L317.6,389.6 L317.3,388.6 L317.3,388.1 L317,388.1 L316.1,386.9 L316,385.4 L316.1,385.1 L316.4,384.4 L316.7,383.9 L316.7,383.2 L316.7,382.4 L317,381.4 L317.3,380.3 L317.5,379.9 L318.1,378.7 L318.8,378.1 L319.4,377.9 L320.3,378.2 L320.9,378.5 L321.2,378.5 L322.1,378.2 L323.6,377.9 L323.9,377.8 L324.4,377.8 L324.8,377.3 L325.6,376.4 L326.2,375.4 L327.7,374.2 L328.1,373.6 L328.4,372.8 L328.3,372.4 L328.4,372.1 L328.4,371.3 L328.4,370.7 L328.7,370 L329.3,369.7 L329.6,369.5 L330.4,369.1 L331.7,366.7 L331.9,366.1 L332.8,365.9 L334.3,365.5 L334.9,365.5 L336.1,365.9 L336.1,366.2 L336.2,367.1 L336.8,367.3 L338.2,367 L338.5,366.7 L338.5,366.4 L338.8,365.2 L339.1,364.7 L340.7,363.2 L341,363.2 L341.5,363.7 L341.8,364.3 L342.4,365.5 L343.3,366.2 L343.9,366.4 L344.5,366.1 L344.9,366.8 L345.2,368.2 L345.1,368.6 L344.8,368.9 L344.8,369.4 L344.9,369.5 L345.7,369.5 L345.8,369.5 L346.3,368.9 L346.4,368.8 L346.9,368.8 L347.2,368.9 L347.5,369.2 L347.6,369.4 L348.1,369.5 L348.2,369.1 L348.2,368.3 L348.4,367.1 L349,366.7 L350.2,365.8 L350.5,365.5 L352.9,365.2 L354.4,365 L355.3,365.9 L356.3,366.4 L356.8,366.2 L357.1,366.1 L357.4,365.2 L357.5,364.3 L357.7,364 L359.8,363.1 L361,363.4 L361.4,363.7 L361.6,363.7 L362,363.4 L362.3,363.2 L363.1,362.9 L365.5,363.5 L366.8,364 L367.7,365 L367.9,365.5 L367.9,365.9 L370.1,366.7 L371.2,366.8 L371.5,366.7 L373.4,367.3 L373.7,367.3 L373.7,368 L373.7,368.8 L373.1,369.7 L372.8,370.7 L372.7,372.2 L372.4,374.2 L371.6,375.4 L371,376.1 L371,376.3 L371.3,379.1 L370.9,379.7 L370.6,379.7 L370.1,379.7 L369.5,379.9 L369.2,380 L368.3,380.5 L368.2,380.8 L367.7,380.9 L367,380.8 L365.8,379.1 L365.6,378.7 L364.3,377.9 L363.5,377.5 L362.2,378.2 L361.7,378.7 L360.7,379.1 L359.9,379.1 L358.6,379.1 L357.7,378.8 L357.4,378.5 L357.1,378.5 L356,378.7 L355.4,379 L354.2,379.6 L353.9,380.2 L353.9,380.5 L353.6,381.1 L353.5,381.4 L353.3,382 L353.3,382.7 L353,383.6 L352.7,383.9 L352.6,384.4 L352.3,384.5 L351.7,384.4 L350.8,385.3 L350.3,385.9 L350,386.2 L349.6,386.3 L349.1,386.8 L349,387.1 L348.7,387.2 L347.2,386.2 L346.9,386 L345.7,385.9 L345.5,385.9 L344.5,386.3 L344.3,387.1 L344.3,387.7 L344.2,388.4 L341.5,389.3 L340.7,389.3 L339.7,389.3 L339.2,389.5 L339.2,389.5 Z M339.2,389.5" id="sk" stroke="#FFFFFF" fill="#DCDCDC"></path>
    </g>
</svg>