<?xml version="1.0" encoding="UTF-8" standalone="no"?>
<svg width="612px" height="612px" viewBox="0 0 612 612" version="1.1" xmlns="http://www.w3.org/2000/svg" xmlns:xlink="http://www.w3.org/1999/xlink" xmlns:sketch="http://www.bohemiancoding.com/sketch/ns">
    <title>al</title>
    <description>Created with Sketch (http://www.bohemiancoding.com/sketch)</description>
    <defs></defs>
    <g id="Page 1" stroke="none" stroke-width="1" fill="none" fill-rule="evenodd">
        <path d="M449.9,514.1 L449.8,514.1 L448.9,514.7 L448.4,514.9 L444.5,516.8 L443.8,517.1 L443.5,517.1 L442.9,516.8 L442.9,515.2 L443.2,514.7 L443.3,514.3 L443.3,513.8 L443.3,513.4 L442.7,511.1 L442.4,509.8 L442.3,509.2 L442.4,508.6 L442.6,508.1 L443,508.1 L443.3,508.3 L443.8,507.8 L444.2,507.5 L444.5,506 L444.5,505.4 L444.8,504.5 L445.7,503.9 L446.6,502.6 L447.2,501.4 L447.4,500.8 L448.6,500.2 L449.5,500 L450.5,500 L451.3,499.7 L451.4,499.1 L451.7,498.7 L452,498.5 L453.8,497.9 L454.4,498.7 L454.6,499 L455.8,499.6 L456.2,499.7 L456.8,499.7 L457.3,499.7 L457.9,499.6 L458,499.4 L459.4,499.3 L460.1,499 L460.6,498.8 L461.5,497.6 L460.9,497.3 L460.4,497.6 L458.8,496.3 L459.1,495.7 L459.4,495.5 L460.6,495.2 L462.7,495.4 L462.8,495.8 L462.7,496.1 L461.9,496.9 L461.6,497.3 L462.1,497.6 L462.4,497.6 L463.3,497.2 L463.7,497 L464.2,496.7 L464.6,496.4 L465.1,496.4 L465.2,496.4 L465.7,496.1 L468.5,495.5 L468.8,495.4 L470.9,495.5 L471.8,494.8 L472.3,494.6 L472.7,494.5 L473.5,494.6 L473.9,494.8 L474.1,494.8 L474.7,494.6 L475.6,494.3 L476.2,492.8 L475.3,492.4 L474.7,492.5 L474.2,493 L473.5,493.1 L473.2,493 L471.5,492.5 L471.8,491.9 L472.3,491.5 L472.7,491.2 L472.9,491 L473.3,490.4 L473.5,490.1 L473.8,490 L475.4,489.4 L476.6,488.9 L478.1,487.9 L478.6,488 L479,487.3 L479.3,487.1 L479.8,487.4 L480.1,487.6 L481.7,486.8 L484.1,486.1 L484.4,485.9 L484.3,485.3 L484,485.3 L481.7,485.8 L480.2,486.1 L479.8,486.2 L479.3,486.4 L478.1,486.7 L477.1,486.4 L476.3,485.9 L475.9,485.6 L474.4,485.5 L474.1,485.3 L472.9,484.6 L472.4,483.7 L472.6,483.4 L472.9,482.2 L472.7,481.9 L472.4,481.6 L472.6,481.3 L473,480.5 L473.2,480.2 L473.9,479.9 L474.7,479.8 L476.9,479.8 L478.4,479.8 L478.9,479.6 L480.4,479.5 L481.7,479.3 L481.9,479.3 L483.2,479 L485.3,478.4 L485.6,478.3 L486.2,477.4 L486.4,477.1 L487,476.9 L487.4,477.1 L487.7,477.2 L488.3,477.2 L489.1,477.4 L489.4,477.4 L490.6,477.2 L492.5,477.4 L494,477.2 L494.6,477.1 L494.8,476.9 L495.1,476.9 L496.3,476.5 L498.1,475.9 L498.7,475.3 L499,474.7 L499.3,474.1 L499.6,473.3 L499.3,472.1 L500.5,470.5 L501.1,469.9 L502.4,468.7 L502.9,468.1 L504.7,466.1 L506.3,464.5 L506.5,464 L507.2,462.2 L509.6,460 L510.4,459.4 L511.3,459.1 L511.3,458.9 L511.6,458.6 L512.2,458.3 L512.5,458.3 L512.8,458.2 L513.7,457.6 L514.1,457.3 L514.4,456.8 L515.2,456.1 L516.7,454.9 L517.9,453.8 L518.5,453.7 L520.3,453.4 L520.6,453.4 L520.9,453.4 L521.3,453.2 L522.5,452.9 L523,452.9 L523.7,452.8 L524.6,452.5 L525.4,452 L526.7,451.7 L527.9,451.6 L528.5,451.6 L529.3,451.4 L529.9,451.3 L532,450.5 L532.7,450.4 L533,450.2 L533.8,449.9 L534.1,449.8 L534.7,449.5 L535,449 L535.1,448.9 L535.4,448.3 L535.6,447.7 L535.7,446.8 L536,446.6 L536.3,446.6 L536.6,446.6 L536.9,446.8 L538.4,446.9 L538,447.5 L538,448.1 L538.3,448.9 L539,449.6 L540.4,450.7 L541.1,451.3 L541.4,451.3 L543.7,451.6 L544,451.6 L544.3,451.6 L544.4,451.6 L544.9,451.6 L545.2,451.6 L545.6,451.3 L545.9,451.1 L547.3,450.1 L548.2,449.2 L548.6,448.9 L548.8,448.6 L548.9,448.4 L549.2,448.3 L550.3,448.7 L550.6,448.9 L551.3,449.3 L551.8,449.8 L552.1,450.7 L552.1,451.3 L552.2,451.7 L553.1,452.5 L554.3,453.1 L555.8,453.8 L556.7,454 L557,454.1 L557.5,454 L557.8,453.8 L558.1,453.2 L558.4,452.6 L558.5,451.7 L559,451.3 L559.6,451 L559.9,451 L560.8,450.8 L561.4,450.7 L562.3,450.8 L563.3,451.1 L563.8,451.4 L563.9,451.9 L564.2,452.3 L564.5,452.6 L565.6,452.6 L565.9,452.6 L566.8,452.3 L567.5,452.2 L569.2,452.5 L570.4,452.8 L570.8,452.8 L571.3,452.5 L571.6,452.2 L571.6,451.6 L571.7,450.8 L571.9,450.5 L572.8,450.5 L573.2,450.7 L573.4,451.1 L573.7,451.4 L574,451.6 L575.2,452 L575.6,451.7 L576.2,451.4 L577.6,451.4 L577.9,451.4 L578.3,451.3 L580.4,451 L580.9,451.1 L581.2,450.8 L581.6,450.7 L582.7,450.2 L584.6,448.9 L584.8,448.6 L585.1,448.1 L585.1,447.8 L585.4,447.5 L586.6,446.5 L587.5,446.3 L587.9,445.9 L588.4,445.6 L588.7,445.4 L588.8,445.1 L588.8,445 L589,444.8 L589.4,444.7 L589.9,444.8 L590.2,444.8 L590.5,444.7 L590.8,444.4 L591.1,444.1 L591.4,443.6 L591.5,443.3 L592.4,443 L593.5,443.5 L595.3,443.6 L595.6,443.3 L598.1,443.3 L600.2,443 L600.5,443 L600.8,442.9 L601,442.7 L602,441.7 L602.8,440.9 L602.9,440.6 L602.9,440.5 L603.1,440.2 L603.7,439.4 L604,439.3 L604.9,438.7 L605.5,438.1 L606.1,436.7 L606.4,436.1 L607,435.2 L607.4,435.2 L607.9,435.1 L608.9,433.7 L610,432.4 L610.3,431.8 L610.4,431.5 L611.6,430.3 L611.6,513.2 L610.4,513.7 L609.8,513.5 L608.8,513.1 L607.3,512.3 L606.8,512.3 L605.8,512.2 L605.2,512.3 L603.2,512.8 L602.6,513.1 L601.7,514 L601.4,514.6 L601.1,515 L600.8,515.2 L600.4,515.6 L600.1,516.1 L599.8,516.4 L598.6,517.4 L598.1,517.6 L597.8,517.7 L597.4,518 L596.3,519.2 L596,519.7 L594.2,520.7 L592.9,521 L592.6,521.2 L591.2,521.8 L589.7,521.2 L588.8,520.9 L588.1,520.9 L585.1,521 L584.5,521.2 L584.6,521.5 L584.8,524.8 L585.1,527 L585.7,527.9 L586,528.2 L587.3,529.1 L587.9,529.4 L588.1,530.3 L587.3,530.8 L586.7,530.8 L586.3,530.9 L586,531.1 L584.6,531.8 L584.6,532.6 L585.1,533.8 L585.5,534.7 L585.5,535.3 L584.8,536 L583.9,536.5 L583.7,537.4 L583.9,538 L584,538.3 L584,538.9 L583.9,539 L583.6,538.7 L583.3,538.6 L583,538.6 L581.6,538.4 L580.3,538.3 L580.6,536.9 L580,536 L579.7,535.7 L577.9,534.2 L576.7,533.3 L576.5,533 L576.7,532.3 L577.6,530.3 L578.5,528.5 L579.7,527.2 L580,526.9 L580,525.8 L579.2,524.2 L578.9,523.9 L578.5,523.4 L577.7,523.1 L576.8,522.7 L576.1,522.7 L575.5,523.3 L575.3,523.7 L575.2,524.3 L574.6,525.7 L574.1,526 L573.1,526.6 L572.5,526.9 L572,527.3 L571.9,528.1 L572.3,528.1 L572.8,528.1 L572.9,528.7 L573.1,529.1 L572.9,529.4 L572.3,529.9 L572,529.9 L571.4,529.7 L570.5,530.5 L569.9,531.4 L567.4,530.9 L565,530.3 L564.4,530.2 L563.8,530.3 L563.6,530.5 L563.5,530.6 L563.2,530.2 L562.9,530 L562.3,529.7 L561.4,529.7 L560.9,529.7 L560.5,529.9 L560,530.2 L559.7,530.6 L559,531.1 L558.2,532.6 L557,534.1 L556.7,534.5 L556.6,535.1 L556.3,535.6 L556.1,536 L556,536.5 L555.5,537.7 L555.2,538 L554.8,538.9 L554.9,539.5 L554.8,540.5 L554.3,541.1 L553.6,541.3 L552.7,541.1 L552.2,542.2 L551.6,543.2 L551.3,543.8 L550.6,543.8 L550.1,544.1 L549.4,545 L547.1,545.8 L546.4,546.4 L543.4,547.9 L542,548.2 L541.3,548.9 L540.8,549.7 L540.2,549.8 L538.9,550.1 L537.7,549.8 L537.4,549.7 L536.9,549.8 L536.5,549.8 L534.5,549.1 L532.9,548 L531.7,547.1 L531.4,546.8 L531.1,546.4 L530.6,545.9 L529.9,545.5 L529.1,544.9 L528.2,544.7 L525.7,544.7 L524.5,544.3 L522.2,543.8 L519.2,543.2 L518.8,543.1 L518,543.1 L514.9,543.4 L514.1,543.5 L513.8,543.7 L512.8,544 L512,544.3 L511.3,544.6 L510.8,544.4 L510.2,544.1 L509.8,544.4 L509.5,545 L509.3,545.3 L509.2,546.1 L509.2,547.1 L509.6,548.8 L509.8,550.9 L509.5,552.1 L509.6,552.7 L509.9,553 L510.2,553.3 L510.2,553.6 L509.8,555.4 L509.5,555.8 L509.2,555.4 L508.7,555.1 L507.5,554.8 L507.2,554.8 L506.6,554.9 L506.3,555.1 L505.9,555.4 L506,555.8 L505.4,556.4 L504.1,557.2 L501.7,558.8 L501.1,558.8 L500.6,559.3 L500.6,559.6 L499.7,559 L499,558.7 L498.1,558.8 L496,559 L495.5,558.8 L494.9,558.5 L494.6,558.2 L493.4,557.9 L493,557.8 L492.4,557.3 L491.8,556 L491.9,555.1 L491.9,554.9 L491.6,554.6 L491.2,554.6 L490.9,554.9 L490.6,555.1 L490.4,554.5 L490.4,554 L491,553.6 L490.4,552.8 L488.6,552.2 L488,553.3 L487.9,553.9 L487.1,553.9 L485.3,553.6 L484.6,552.8 L484.3,552.4 L482,551.6 L481.3,552.1 L481.3,552.4 L481.9,552.5 L481.6,553.3 L480.4,552.8 L480.1,552.7 L479.8,552.7 L479.6,553 L479.6,553.4 L479.9,554 L480.2,554.5 L479.9,555.2 L478.3,557.3 L477.4,558.2 L477.1,557.9 L476.9,557.6 L477.1,557.5 L477.5,557.5 L478,557.3 L478.1,556.9 L478.3,556.6 L477.8,556.1 L477.5,556.1 L477.2,556.3 L476.9,556.3 L476.6,556.1 L477.1,555.8 L477.4,555.7 L478.1,555.5 L478.4,555.1 L478.1,553.9 L477.8,554 L477.5,554.2 L477.2,554.6 L476.9,554.9 L476.6,555.1 L475.7,555.4 L474.4,555.5 L473.3,555.8 L473.2,556 L473,556.6 L472.9,557 L470.8,557.8 L470.6,558.1 L470.5,558.2 L469.1,557.9 L468.8,557.6 L470,556.6 L470.5,556.6 L473.3,555.4 L475.6,554.6 L476.8,553.9 L476.9,551.9 L478.4,550.9 L479.8,549.5 L479.2,549.5 L478.3,549.8 L476.2,550.6 L473.9,551.3 L471.7,552.1 L469.7,552.7 L468.5,552.4 L467.5,553 L467.3,553.4 L467,553.7 L466.7,554 L466.6,553.9 L466,552.7 L465.8,552.2 L466.7,550.7 L467.3,550.6 L467.9,550.9 L468.4,551 L469.7,550.3 L469.9,548.6 L469.3,548 L468.8,548.3 L468.4,548.3 L467.2,548 L466.9,547.6 L467,546.4 L466.9,546.4 L466.4,546.5 L466.4,547.1 L466.1,547.4 L466,547.7 L465.1,548 L464.3,547.9 L464.5,546.8 L464.3,545.9 L463.7,544.1 L463.4,543.8 L463.4,542 L463.6,541.6 L463.6,540.5 L463.3,539.2 L463.3,539 L463.3,538.6 L463.1,538.1 L462.7,537.8 L459.1,537.1 L458.6,537.2 L458.3,537.4 L456.8,536.2 L455.9,535.4 L454.9,535.7 L454.4,536.8 L454.3,537.5 L454.1,537.7 L453.5,537.5 L453.1,537.2 L452.6,536.8 L451.7,536.3 L450.8,536.3 L450.5,536.3 L450.2,536.3 L449.6,535.9 L449.5,535.6 L449.5,534.5 L449.5,534.2 L449.8,534.1 L449.9,534.5 L450.4,534.8 L450.7,535 L451.6,534.1 L451.7,533.8 L451.9,533 L452,532.7 L451.4,532.4 L450.7,532.3 L450.4,532.6 L449.6,530.8 L449.3,529.9 L449.3,529.4 L449.8,529.1 L450.1,529 L450.8,528.8 L451.4,529.3 L452,529.7 L452.9,530.8 L453.4,531.8 L452.9,532 L454,533.8 L454.6,533.9 L455.8,533 L456.2,532.7 L457,532.4 L459.4,531.4 L459.5,531.2 L459.8,530.5 L458.5,530.6 L457.9,530.9 L457.3,531.2 L456.2,530.5 L454.3,528.8 L454,528.5 L453.5,527.3 L454.7,526.6 L455.3,525.4 L456.7,524.3 L457.1,524 L456.8,523.1 L455.6,523.3 L455.2,523.4 L454.9,523.7 L454.6,523.9 L453.7,523.4 L453.5,523 L453.4,522.2 L454.3,521.3 L454,520.9 L453.7,520.4 L453.1,520.1 L452.3,520 L451.9,519.4 L450.7,518.9 L450.8,518.2 L452.2,516.2 L452.9,514.7 L453.4,514.6 L453.4,513.4 L453.1,513.1 L452.5,513.2 L451.7,513.7 L451,513.8 L450.2,514 L449.9,514.1 L449.9,514.1 Z M438.7,480.2 L438.5,480.1 L438.1,479.6 L438.2,479 L438.5,478.3 L439.3,478.1 L439.6,478.1 L440.2,477.8 L440.5,477.4 L440.5,477.1 L440.5,476.6 L440.2,476 L440.8,475.3 L444.2,473.9 L444.5,473.9 L445.1,472.4 L445.6,472.1 L447.4,471.4 L448,471.4 L448.3,471.5 L449,471.8 L449.2,472.1 L449.6,472.6 L449.8,472.9 L450.2,473 L452,473.8 L452.2,473.3 L452.5,472.9 L453.2,472.3 L454.7,471.5 L455,471.4 L455.5,471.5 L456.4,471.5 L456.8,471.4 L457.1,472.1 L457.4,472.6 L457,472.9 L456.8,473.5 L457,473.9 L458.9,476.6 L459.1,476.8 L459.7,477.2 L460.7,478 L461,478.1 L461.3,478.4 L461.6,478.4 L462.1,478.6 L462.5,478.7 L464.2,479.2 L468.7,480.2 L469.1,480.2 L470.5,480.4 L471.7,480.4 L471.8,480.1 L472.3,480.1 L472.6,480.4 L472.4,481.3 L472.1,481.7 L472.6,482.2 L472.6,482.8 L472.4,483.4 L471.2,485 L470.5,485.5 L468.1,486.1 L467.6,485.8 L467.5,485.3 L467.2,484.9 L466.9,484.4 L466.4,484.4 L466.7,484.7 L467,485.2 L466.9,485.8 L466.7,485.9 L466,485.6 L465.7,485.3 L465.4,485.3 L464.8,485.3 L463,485.3 L462.7,485.3 L462.1,485.5 L461.8,485.6 L461.6,485.8 L461.2,486.1 L460.3,486.8 L460.3,487.3 L460,487.9 L459.2,488 L458.9,488 L458.5,487.9 L457.9,487.7 L457.3,487.7 L456.8,488 L454.7,488.9 L454.6,489.2 L454.4,490.1 L454.4,490.4 L454.4,491.2 L453.2,494 L452.2,495.4 L451.7,495.8 L450.4,496.4 L449.9,497.2 L448.9,497.8 L447.2,499.1 L446.9,499.7 L446.9,500 L446.5,501.4 L446.2,502 L445.9,502.3 L444.7,503.8 L443.9,505.6 L443.8,506.2 L442.7,507.4 L442.1,507.5 L442.6,505.3 L442.7,504.8 L442.7,504.5 L442.6,503.9 L442,503.3 L441.7,503 L442,502.6 L443.8,500.8 L445.1,499.6 L445.7,499 L446,498.8 L446.2,498.8 L446.6,498.7 L447.7,497.8 L447.8,497.5 L448.1,497 L447.5,496.1 L447.2,496.1 L447.1,496.1 L446.3,496.6 L446,496.7 L445.7,496.9 L445,497 L443.3,497.6 L442.4,498.1 L442,498.4 L441.7,498.4 L440,498.8 L439.6,498.8 L439.1,498.7 L438.7,498.1 L438.2,496.7 L438.4,496.7 L438.8,496.6 L439.1,496.3 L439.6,495.1 L439.7,494 L440.2,493.7 L440.6,493.4 L441.2,492.4 L441.1,491.2 L440.3,490.3 L439.9,488 L440.3,487.6 L440.8,487.3 L442.9,485.6 L443,485.5 L443,485 L442.9,484.3 L442,482.2 L441.4,481.3 L440.8,481 L439.1,480.4 L438.7,480.2 L438.7,480.2 Z M436.7,508 L435.8,507.5 L435.8,507.1 L436,506.8 L436.3,506.5 L436.9,505.9 L438.7,505 L439.9,506.2 L439.7,506.6 L439.3,506.9 L437.8,507.5 L436.7,508 L436.7,508 Z M457.4,495.2 L456.8,495.1 L456.4,494.9 L456.2,494.3 L456.2,494.2 L456.4,494 L457,493.9 L457.3,493.7 L457.7,493.7 L457.9,493.7 L458.3,493.7 L458.8,493.9 L458.8,494 L458.6,494.2 L457.7,495.1 L457.4,495.2 L457.4,495.2 Z M457.4,495.2" id="tr" stroke="#FFFFFF" fill="#DCDCDC"></path>
    </g>
</svg>