<?xml version="1.0" encoding="UTF-8" standalone="no"?>
<svg width="612px" height="612px" viewBox="0 0 612 612" version="1.1" xmlns="http://www.w3.org/2000/svg" xmlns:xlink="http://www.w3.org/1999/xlink" xmlns:sketch="http://www.bohemiancoding.com/sketch/ns">
    <title>al</title>
    <description>Created with Sketch (http://www.bohemiancoding.com/sketch)</description>
    <defs></defs>
    <g id="Page 1" stroke="none" stroke-width="1" fill="none" fill-rule="evenodd">
        <path d="M445.6,414.8 L445.4,414.5 L445.6,413.9 L445.6,413.6 L445.9,413.5 L446,413.3 L446.3,413.2 L446.6,413.2 L446.9,413.2 L447.2,413.2 L448.3,413.2 L448.6,412.9 L448.6,412.6 L448.1,410.8 L447.7,410.5 L447.8,409.7 L448.4,408.5 L449.2,408.1 L449.8,406.6 L449.5,405.5 L449.3,404.9 L449.8,404.6 L450.1,404.5 L450.7,404.2 L451.4,403.7 L451.4,400.4 L451.1,400.1 L450.1,399.2 L449.3,397 L449.6,396.2 L449.8,395.9 L450.1,395.5 L451.4,394.4 L451.7,394.3 L452,394.7 L452.2,395.2 L452.5,396.5 L452.3,397 L452.6,397.1 L452.8,397.1 L453.4,396.4 L453.2,395.9 L453.5,395.2 L455,394.4 L455.2,395.2 L456.7,395.9 L457,395.9 L457.3,395.8 L457.7,394.6 L459.1,395.5 L459.5,395.6 L460,395 L460.4,394.9 L460.7,394.9 L461.3,394.7 L461.9,394.4 L462.1,394 L461.8,393.7 L461.6,393.7 L461.3,393.7 L460.9,393.7 L460.6,393.5 L459.5,392.9 L459.1,392.6 L459.2,392.2 L459.7,391.9 L458.9,389 L458.3,387.8 L457.3,387.4 L455.8,387.2 L453.8,386.8 L453.8,385.4 L453.1,383.6 L452.8,381.4 L452.5,380.8 L452.2,380.5 L451.4,380.5 L451.4,380.8 L451.4,381.4 L450.8,381.7 L450.2,381.1 L450.1,380.6 L449.8,380.3 L449,379.9 L448.3,379.4 L448.1,379.6 L447.8,379.9 L447.1,378.8 L446.8,378.2 L446.9,377.6 L447.2,377 L447.1,374.3 L445.6,371.5 L445.1,371.2 L444.7,371.2 L444.4,371.5 L444.4,371.8 L444.2,372.2 L443.9,372.2 L443.6,372.2 L443.3,372.2 L442.6,371.6 L442.3,371.5 L442.3,371.3 L441.2,369.8 L441.1,369.7 L440.3,369.7 L439.3,369.7 L438.4,369.7 L437.9,370.3 L437.2,370.3 L436.6,370.1 L436.3,369.7 L436.1,369.2 L435.8,368.9 L435.2,369.2 L435.1,369.5 L434.8,369.8 L434.6,369.8 L433.1,369.5 L433,368.8 L432.8,368.5 L432.1,368.6 L431.5,368.5 L431.2,368.5 L431,368.3 L430.7,368 L430.4,367.9 L430.3,367.6 L429.1,367 L426.8,367.3 L426.5,367.3 L425.9,367.9 L424,369.5 L421.4,370.4 L419.6,371.2 L418.6,371.3 L418.1,372.1 L418.1,372.5 L418.1,372.8 L417.7,373.6 L417.2,373.9 L417.1,373.9 L416.6,373.9 L415.3,374.9 L415.1,376.6 L414.5,377.9 L414.2,378.4 L413.8,378.5 L413.6,378.5 L413,378.7 L411.8,379 L410.9,379.4 L410.8,379.6 L410.5,380 L409.1,380.3 L408.5,380.5 L408.2,380.5 L407.8,380.6 L407.6,380.6 L406,381.2 L405.1,382 L404.9,382.1 L404.6,383.2 L404.5,383.8 L404.2,384.4 L403.9,384.7 L403.6,384.8 L403.4,385 L403.1,385.1 L402.7,385.3 L402.4,385.4 L402.1,385.4 L401.5,384.8 L400.9,384.1 L400.7,384.1 L400.3,384.1 L399.7,383.8 L399.5,383.8 L399.2,383.5 L399.1,383 L398.3,382.4 L398,382.3 L397.9,382.3 L397.7,382.3 L396.7,382.4 L396.2,382.4 L395.3,383.2 L394.6,383.6 L393.4,383.8 L392.9,383.5 L392.2,383.3 L391.6,383.3 L389.9,383.5 L387.2,383.5 L386.8,383.6 L386.6,383.8 L385.6,383.8 L385,383.5 L384.2,383.2 L383.9,382.7 L383.8,382.4 L382.9,382.4 L382.6,382.4 L382.4,382.7 L382.3,383.2 L382.3,383.8 L382.1,384.1 L381.8,384.5 L380.6,385.3 L380.3,385.4 L379.9,384.8 L380,384.1 L379.4,383.3 L378.8,382.9 L378.2,383 L377.6,383.5 L377.3,383.5 L377.2,383.5 L376.9,383.2 L376.7,382.7 L376.3,382.1 L375.4,381.2 L374.9,381.4 L374.2,381.5 L373.7,381.1 L372.7,379.7 L372.5,379.1 L371.9,379 L371.5,379.1 L371.3,379.1 L371,376.3 L371,376.1 L371.6,375.4 L372.4,374.2 L372.7,372.2 L372.8,370.7 L373.1,369.7 L373.7,368.8 L373.7,368 L373.7,367.3 L373.7,367.1 L374,367.1 L375.7,367.6 L377,368 L377.3,368 L376.9,367.3 L376.9,366.7 L376.6,366.4 L375.8,365.8 L374.9,365.6 L375.1,364.7 L375.2,363.5 L374.6,361.7 L374,361 L373.4,359.8 L373.6,359 L373.6,358.9 L373.9,358.4 L374.3,357.1 L376.9,351.8 L377.2,351.4 L377.8,350.2 L378.4,349.1 L378.5,348.8 L378.7,348.7 L379,348.2 L379.9,346.7 L380.3,346.3 L380.5,346.1 L380.8,345.8 L381.4,344.6 L381.5,344 L381.7,343.7 L382,343.4 L382.3,343.3 L382.6,343.1 L382.9,343.1 L383.2,343 L383.6,343 L384.2,342.8 L384.4,342.7 L385,340 L384.7,338.9 L384.7,338.8 L384.2,337.9 L383.5,337.3 L382.7,336.5 L382.7,336.1 L382.9,335.8 L383.3,335.8 L383.6,335.6 L383.8,335.6 L384.4,335.5 L384.4,335 L383.8,334.7 L383.5,334.7 L383.2,334.6 L382.6,334.1 L382.3,333.8 L381.8,333.2 L381.4,332 L380.2,330.5 L379.6,330.1 L379.3,329.9 L378.5,328.7 L378.4,327.4 L378.4,326.8 L377.6,325.6 L377.3,325.4 L377,325 L377.5,325 L377.2,324.1 L376.9,323.6 L377.2,323 L378.1,322.6 L379.6,322.6 L379.9,322.9 L380.2,323.2 L380.3,323.3 L380.6,323.2 L381.1,322.7 L381.2,322.4 L383,320.2 L383,319.7 L383,319.1 L383,318.7 L383.6,317.6 L386.5,316.9 L386.9,316.9 L388.3,316.4 L389.2,316 L389.8,315.5 L390.1,315.4 L390.8,314.9 L391.4,314.8 L391.7,314.8 L392.2,314.9 L392.6,315.1 L393.5,314.9 L394.4,314.8 L394.6,314.8 L395,314.8 L395.8,314.5 L396.2,314.3 L396.5,314 L397,314 L399.1,314 L400.3,314.3 L400.7,314.5 L401,314.5 L401.9,314.5 L402.2,314.3 L402.5,314.2 L403.1,314 L403.3,314.6 L403.6,314.8 L403.9,314.6 L404.2,314.6 L404.6,314.5 L404.9,314.3 L405.2,314.2 L405.5,314.3 L406.1,314.3 L406.6,314.5 L407.2,314.6 L407.9,314.8 L408.2,314.8 L408.5,314.8 L408.7,314.6 L409.1,314.3 L409.6,314.2 L410.5,314 L410.9,314.2 L411.1,314.8 L411.1,315.4 L412.3,316.6 L413.5,316.3 L413.8,316 L414.2,315.5 L415.1,315.5 L416,315.5 L416.5,315.8 L416.5,316.3 L416.5,317.3 L417.2,317.6 L417.5,316.4 L417.4,315.8 L417.4,315.4 L417.4,315.1 L417.7,314.8 L418,314.9 L418.4,315.2 L418.7,315.4 L419,315.5 L419.3,315.5 L419.9,315.2 L420.2,315.1 L420.4,314.8 L420.5,314.3 L420.7,313.9 L420.8,313.4 L421.3,313.3 L422.2,314.3 L423.4,314.5 L423.7,314.2 L423.8,314 L425.2,314 L425.3,314.3 L425.5,314.8 L425.8,315.5 L426.1,315.8 L427,316.1 L427,315.5 L426.8,315.1 L427,314.3 L427.1,314 L427.3,313.7 L428.9,311.9 L429.2,311.6 L429.5,311.6 L430,311.6 L430.3,311.8 L431.2,312.8 L431.3,313.4 L432.4,315.2 L432.8,315.4 L433.3,314.8 L434.9,312.8 L435.4,312.5 L435.8,312.5 L436.3,313 L436.6,313.3 L437.2,313 L437.6,312.7 L437.8,312.4 L438.4,311.9 L438.7,311.8 L439,311.8 L440,311.3 L440.3,311.3 L440.6,311.3 L442.3,312.4 L442.4,313.1 L443.8,313.7 L444.8,314.3 L444.8,313.4 L445.1,313 L445.4,312.7 L445.3,312.1 L444.1,310.3 L443.6,309.5 L443.2,307.9 L443.5,306.7 L443.5,305 L443.3,304.7 L443.8,303.2 L444.4,302.2 L444.8,301.6 L445.3,301 L445,300.5 L444.8,300.1 L445,299.8 L446.3,299.2 L446.5,299.2 L448.1,298.7 L448.3,298.4 L448.4,298.1 L448.6,298 L449,297.8 L449.9,297.7 L450.1,297.7 L451,297.5 L452,297.2 L452.5,297.1 L452.9,296.9 L453.2,296.9 L453.7,296.9 L453.8,297.4 L454.7,297.4 L455.9,297.2 L456.8,296.3 L457.3,295.6 L457.3,294.5 L456.8,292.1 L457,291.7 L457.3,291.7 L458.3,291.5 L458.6,291.5 L458.9,291.5 L459.2,291.7 L459.5,291.8 L460.3,292 L460.6,292 L460.9,292 L462.4,291.7 L462.5,291.5 L462.7,291.1 L463.1,290.3 L464.3,288.7 L466,288.4 L466.4,288.5 L467.5,288.7 L468.2,288.4 L468.4,288.1 L468.8,287.6 L469.6,287.2 L470.2,287.2 L473.2,289.1 L473.8,289.9 L473.6,290.3 L473.9,291.2 L474.2,291.5 L474.8,292.3 L476.3,293.2 L477.5,293.8 L478,293.8 L478.6,294.4 L479,295 L479,295.6 L478.7,295.9 L477.5,296.5 L477.1,296.8 L476.3,297.4 L476.3,297.8 L477.1,298.1 L478.1,299 L478.6,299.8 L478.9,300.8 L481,303.1 L481.3,303.1 L482.8,303.1 L484.3,303.5 L484.6,303.5 L484.9,303.4 L485.2,303.4 L485.5,303.2 L485.6,303.1 L486.4,302.5 L486.5,302 L486.8,301.9 L487.7,301.6 L488.3,301.7 L488.5,302.2 L488.6,302.5 L489.2,303.7 L489.5,303.8 L489.8,304 L490.1,303.8 L490.3,303.8 L490.7,303.4 L491.5,303.5 L491.6,303.8 L491.5,304.1 L491.3,304.6 L491.3,305 L492.1,305.3 L493.9,307.6 L494.6,308.9 L494,309.8 L495.1,311.6 L495.4,312.1 L497.3,313.4 L497.9,313.6 L498.2,313.6 L498.4,313.4 L498.7,312.7 L499.3,311.8 L499.6,311.6 L499.9,311.5 L500.2,311.3 L500.6,311 L500.9,311 L501.4,310.9 L501.7,310.9 L502.3,310.7 L502.9,311 L503,311.3 L503.3,311.6 L504.2,312.4 L504.5,312.4 L504.8,312.4 L505,312.2 L505.1,311.9 L505.6,311.6 L506.2,311.6 L507.1,311.8 L507.2,312.4 L507.5,312.5 L507.8,312.5 L508.3,312.2 L508.3,311.8 L508.4,311.5 L508.6,311.2 L509.2,310.3 L509.8,309.5 L510.5,309.1 L511,308.9 L511.4,308.9 L512,308.5 L512.8,307.9 L512.9,307.6 L513.1,307.3 L513.2,307 L513.4,306.7 L514.3,306.1 L514.6,305.9 L517.9,309.2 L519.5,310.6 L520,310.6 L520.3,310.6 L521.5,310.9 L522.4,311.5 L522.8,311.9 L523.1,312.4 L523.7,311.5 L523.7,309.2 L524.8,308.6 L525.1,308.6 L525.4,308.9 L525.5,309.2 L525.8,309.5 L526.1,309.7 L527.5,309.8 L527.8,309.7 L528.1,309.4 L528.4,309.2 L528.8,309.2 L529.3,309.4 L530.9,309.7 L531.4,309.7 L531.7,309.8 L532.1,310.1 L532.4,310.4 L532.7,310.3 L533.6,309.8 L533.8,309.5 L533.9,309.1 L534.2,308.3 L534.5,308.5 L535.3,309.4 L535.6,309.8 L535.9,310 L536.2,310.1 L536.6,310.1 L536.9,310 L537.1,309.8 L537.4,309.7 L537.5,309.4 L537.8,309.2 L539.2,309.4 L539.6,310 L540.1,310.6 L540.5,310.9 L542.3,311.2 L542.8,310.9 L543.1,310.6 L543.4,310.4 L543.5,310.1 L543.5,309.7 L543.7,309.4 L544.1,309.2 L544.4,309.1 L545.2,309.1 L545.3,309.4 L545.3,309.8 L545.2,310.1 L545,310.4 L545,310.9 L545.2,311.3 L545.8,311.9 L546.1,312.2 L546.7,312.5 L547,312.8 L547.3,313 L547.6,314.3 L547.3,315.7 L547.1,316 L546.7,316.6 L546.5,317.2 L546.5,317.5 L546.5,317.8 L546.7,318.2 L546.5,318.5 L545.6,318.8 L544.6,319.6 L544.7,319.9 L544.9,320.5 L546.1,321.4 L548,321.2 L548.6,320.5 L548.9,320.3 L549.2,320.5 L549.2,320.9 L549.2,321.5 L549.1,321.8 L547.4,322.3 L547.1,322.3 L547,322.4 L546.8,322.9 L546.5,323.8 L546.7,324.5 L547,326.5 L547.7,326.5 L548,326.3 L548.3,326.2 L548.6,326.2 L549.1,326.5 L549.5,327.2 L551,329 L552.2,329.8 L552.1,331.3 L552.1,331.7 L551.9,332 L551.8,335 L552.1,335.2 L552.5,335.6 L553,337.3 L553,337.7 L552.8,338 L552.7,338.3 L552.1,338.5 L551.6,338.5 L551.3,338.5 L550,339.1 L549.5,339.4 L549.4,339.4 L549.1,339.4 L548.6,339.4 L547.7,339.7 L547.1,340.1 L546.7,340.4 L546.5,340.6 L545.5,340.4 L544.4,340.7 L544.1,340.9 L543.8,341 L543.7,341.3 L543.5,341.6 L543.5,342.7 L543.7,343.7 L543.8,344.2 L542.6,345.5 L542.3,345.8 L542,346.1 L541.6,346.3 L541.1,346.4 L540.2,347 L540.1,348.1 L540.2,349 L540.7,351.8 L541.6,352.1 L541.6,353.5 L541.4,353.8 L541.4,354.2 L541.9,355.1 L542.2,355.3 L541.4,356.5 L540.5,356.2 L538.7,356.8 L538.4,356.9 L538.3,357.2 L538,357.5 L537.5,357.8 L536.5,358.1 L536,358.1 L535.4,358.3 L535.3,358.6 L534.8,359.9 L534.5,361.1 L534.1,362.2 L533.2,361.9 L532.7,362.2 L531.8,363.2 L531.4,363.7 L531.1,364.1 L530.5,364.9 L530.2,365.6 L529.3,366.5 L529,366.5 L528.5,366.5 L527.6,366.8 L526.7,367.4 L526,368.3 L525.8,368.5 L525.7,368.6 L525.5,368.9 L524.6,370.4 L524.2,370.1 L524,370 L522.7,370.4 L521.2,371.3 L520.3,372.2 L520,372.8 L519.7,373.1 L519.5,373.7 L519.2,374.6 L519.1,374.9 L518.8,375.4 L518.5,375.7 L518.2,375.8 L517.9,376.1 L517.1,378.4 L516.8,379.9 L516.5,381.7 L516.2,382.3 L515.9,382.7 L514.9,383.8 L514.6,383.6 L515,382.4 L515.6,382 L515.9,381.7 L516.2,381.5 L516.4,381.2 L516.7,380.3 L516.7,379.9 L516.8,379.6 L517,378.5 L517,378.1 L514.9,377.2 L515.3,377.6 L515.3,378.1 L514.9,379.7 L514.9,379.9 L514.4,380.6 L514.3,380.8 L512.3,382.7 L511.3,383.2 L511,384.8 L511,386.3 L510.8,386.6 L510.5,386.8 L510.1,386.8 L509,386.8 L508.9,385.3 L509.2,385.3 L509.3,384.8 L509.6,385 L510.1,385.1 L510.2,384.8 L510.1,384.5 L510.1,383.9 L509.5,383.6 L509,384.2 L508.7,384.4 L507.4,384.5 L506.2,383.9 L505.6,383.5 L505.3,383.3 L505,383.3 L505.1,384.7 L505.3,385.4 L505.6,386 L504.5,386.2 L503.9,385.7 L503.5,385.3 L503.3,385.1 L501.1,385.1 L500.3,385.9 L500.2,386 L500.9,386.8 L501.2,386.9 L502,387.1 L502,386.8 L502,386.3 L502.4,386.3 L503.2,387.7 L503.6,388.1 L504.4,388.1 L504.5,388 L504.4,387.2 L503.8,387.2 L503.9,386.9 L504.4,386.8 L505.9,387.7 L506.2,388.4 L506.6,388.9 L506.8,388.7 L507.1,388.4 L506.9,387.8 L507.1,387.5 L506.5,387.2 L508.4,386.9 L508.9,387.2 L509.5,387.7 L509.3,388.1 L509.2,388.4 L509.2,389 L510.7,388.6 L511.1,387.5 L510.7,387.1 L511.6,387.1 L511.9,387.2 L511.9,387.5 L511.7,388.1 L511.4,389 L510.8,390.4 L512.8,389.5 L514.6,390.1 L516.2,390.5 L517.1,390.8 L518.5,391.7 L518.8,392 L519.2,393.1 L519.1,393.4 L518.8,393.7 L518.5,394 L519.4,394.7 L520.1,395 L520.3,395 L520.6,394.7 L522.7,394.9 L522.5,394.1 L520.7,392.9 L519.4,391.9 L518.5,391.1 L518,390.8 L517.1,390.1 L516.7,389.6 L516.2,389.2 L516.1,389 L515.3,388.1 L514.6,387.5 L514.3,387.1 L512.6,385.6 L512.2,385.4 L511.9,385.1 L511.3,384.7 L511.9,384.1 L512.8,384.2 L513.1,384.4 L513.7,385.4 L514.1,385.9 L514.9,387.1 L515.6,388 L516.4,388.9 L516.7,389.2 L517.7,390.2 L518,390.4 L520.9,392.8 L522.1,393.5 L522.5,393.8 L522.8,394 L523.9,394.3 L524.3,394.4 L524.9,394.1 L526.3,392.9 L527.6,391.1 L527.9,391.3 L528.5,391.4 L528.8,391.4 L529.3,391.4 L529.4,391.3 L529.6,391 L529.7,390.5 L529.7,390.1 L530.2,389.3 L531.8,388.6 L533.9,388.3 L535.3,388.1 L535.9,388.6 L536,389 L536,389.5 L535.6,389.6 L535.1,389.6 L534.7,389.8 L534.4,391.1 L534.5,392.3 L534.7,393.1 L535,393.4 L535.4,393.8 L535.7,394.1 L533.6,396.1 L532.6,396.2 L531.4,396.8 L531.2,397.1 L529.9,397.7 L529.6,397.7 L529.1,397.3 L528.7,397 L527.9,396.8 L527.3,396.7 L526.9,396.5 L526.3,396.7 L526,396.7 L525.7,397 L524.8,398 L524.8,398.2 L524.6,398.6 L523.6,400.4 L522.8,401.9 L522.8,402.2 L522.8,402.5 L522.8,403.1 L522.8,403.4 L522.7,403.7 L522.4,403.7 L521.5,403.3 L521.2,403.4 L518.8,404.8 L516.8,406.4 L516.4,407 L516.2,407.3 L516.1,408.4 L515.9,409 L515.9,409.4 L515.9,410.2 L514.3,412.7 L513.2,413.8 L512.6,414.2 L512.5,414.4 L511.3,414.4 L511,414.7 L509.9,414.8 L508.7,414.2 L508.4,413.9 L508,413.8 L507.7,414.1 L506.6,413.9 L505.6,413.3 L505.3,413 L506.2,412.4 L507.1,411.8 L506.6,411.1 L505.9,409.4 L506,409.1 L505.9,408.7 L506,408.2 L506.5,407.9 L506.3,406.9 L506,406.1 L504.8,404.3 L504.5,404 L504.1,403.9 L502.9,403.4 L502.6,403.4 L502.3,403.6 L502,403.7 L501.4,404.3 L500.2,404 L499.7,403.9 L499.4,403.6 L498.7,403.1 L497.9,402.8 L496.9,402.4 L496,402.4 L495.8,402.5 L494.6,403 L494.2,403.4 L494,403.9 L493.1,404 L492.4,403.9 L491.8,403.1 L491.8,402.5 L491.9,401.9 L492.4,401.3 L492.8,400.7 L494.5,398.6 L494.9,397.7 L495.2,397.4 L496.1,396.7 L497.5,395.3 L498.1,395 L498.2,394.9 L498.7,394.4 L499.1,394 L499.3,393.7 L499.4,393.2 L499.6,392.9 L500.2,392.5 L500.9,392 L501.5,391.6 L502.7,390.4 L502.4,390.1 L501.5,390.2 L501.2,390.1 L500.9,389.6 L500.6,388.6 L500.2,387.7 L500,387.4 L499.7,387.2 L499.3,388.1 L499.3,388.7 L499.1,389 L499,389.3 L498.5,389.6 L497.9,389 L497,388.7 L496.4,388.6 L495.5,388.6 L494.9,389.2 L492.7,390.2 L492.1,390.2 L491.6,390.2 L491.3,390.4 L491,390.5 L489.8,391.1 L489.4,391.6 L489.1,392 L488.6,392.2 L487.6,392.2 L486.8,392.2 L485.9,392 L485.5,391.4 L482.8,390.7 L481.6,390.7 L481.3,390.7 L480.7,391 L480.4,391 L480.2,391 L479.8,390.7 L480.2,390.1 L480.5,389.9 L480.8,389.8 L481.3,389.8 L481.4,389.6 L481.7,389.3 L482.5,388.4 L481.7,387.7 L481.3,387.8 L479.5,387.7 L479,387.7 L478.3,388 L477.8,388.4 L477.2,388.1 L476.2,387.4 L475.9,387.1 L476.2,387.4 L476.5,387.5 L476.8,387.5 L477.2,387.4 L477.7,387.2 L478,387.1 L478.4,386.8 L478.6,386.8 L479.5,386.9 L479.6,386.9 L480.2,386.9 L482.3,386.5 L483.2,386.5 L484.4,386.5 L484.9,386.5 L485.2,386.5 L485.8,385.6 L485.5,385.1 L485.8,384.7 L486.1,384.1 L486.7,383.6 L487.1,383.3 L487.3,383.2 L487.4,382.6 L486.2,383.5 L485.8,384.1 L485.5,384.5 L485.2,384.7 L485,384.8 L484.6,385 L484.1,385 L484,384.8 L483.4,384.5 L482.9,385 L482.5,385.4 L480.8,384.7 L480.5,384.4 L480.1,383.9 L479.9,383.3 L479.6,383.2 L479.5,382.9 L479.3,382.4 L479.3,382 L479.5,381.4 L479.5,380.9 L479.5,380.3 L479.5,380 L478.7,378.8 L476.5,376.4 L475.1,375.5 L475,376 L475.4,376.4 L476,376.4 L476.2,376.6 L477.2,377.9 L477.1,378.7 L477.2,379.1 L478.4,380.3 L478.7,380.3 L478.9,380.2 L479.2,380.8 L479,381.4 L478.6,382 L478.4,382.1 L478.6,382.6 L478.7,383 L479,383.2 L479.3,383.5 L479.6,384.7 L479.3,385.3 L478.9,385.6 L478,385.7 L477.7,385.6 L477.4,385.6 L476.9,385.6 L476.6,385.7 L476.5,386 L476.3,386.5 L475.3,386.3 L475.3,386 L475.4,385.7 L475.6,384.8 L475.7,383.3 L475.1,384.5 L475.1,385 L475,385.9 L474.7,386.6 L473.9,387.2 L473.2,387.4 L472.9,387.4 L472.3,387.4 L472.1,387.4 L472,387.5 L471.1,387.8 L470.9,388 L470.5,388.3 L469.9,388.7 L468.8,389.6 L468.7,390.8 L469,391.4 L469,392.6 L468.4,394.9 L467.5,397.9 L465.7,402.2 L464.9,403.1 L464.8,403.4 L464,404 L463.7,403.9 L463.6,403.6 L463,403.4 L462.5,404 L461.5,405.8 L461.5,406.1 L461.9,406.4 L462.4,406.6 L462.1,407.2 L461.8,407.5 L461.3,407.8 L460.3,406.7 L460.1,406 L460.1,405.5 L459.8,404.9 L459.4,404.9 L459.5,407.2 L460,409.3 L460.6,410.3 L461.3,410.5 L461.9,410.2 L462.2,410.5 L462.8,412.6 L463,414.2 L462.7,414.5 L462.2,414.7 L462.1,413.6 L461.9,413.3 L461.6,412.7 L461.5,412.6 L460.9,412.1 L460.6,412 L459.7,411.8 L458.5,411.7 L457.6,412 L456.5,412.4 L454.3,414.8 L453.1,415.4 L452.8,416.6 L451.7,417.2 L450.2,417.1 L447.8,416.8 L447.5,416.6 L447.1,416.3 L446.8,415.9 L446.5,415.4 L446.3,415 L445.7,414.7 L445.6,414.8 L445.6,414.8 Z M445.6,414.8" id="ua" stroke="#FFFFFF" fill="#DCDCDC"></path>
    </g>
</svg>