<?xml version="1.0" encoding="UTF-8" standalone="no"?>
<svg width="612px" height="612px" viewBox="0 0 612 612" version="1.1" xmlns="http://www.w3.org/2000/svg" xmlns:xlink="http://www.w3.org/1999/xlink" xmlns:sketch="http://www.bohemiancoding.com/sketch/ns">
    <title>al</title>
    <description>Created with Sketch (http://www.bohemiancoding.com/sketch)</description>
    <defs></defs>
    <g id="Page 1" stroke="none" stroke-width="1" fill="none" fill-rule="evenodd">
        <path d="M109.1,271.3 L108.7,271 L108.5,270.8 L108.4,270.7 L108.4,270.2 L108.5,270.1 L108.5,269.5 L108.2,268.9 L108.1,268.4 L107.8,268 L107.6,267.7 L107.5,267.5 L107.5,267.2 L107.3,267.1 L107.2,266.5 L107.2,266.2 L107.2,265.9 L107.3,265.6 L107.5,264.8 L107.6,264.5 L107.8,264.5 L107.8,264.4 L108.2,264.4 L108.8,264.1 L109.4,262.7 L109.6,262.6 L109.9,262.4 L110.3,262.1 L111.1,261.4 L111.4,260.8 L111.7,259.9 L112.7,258.5 L112.9,258.4 L113,258.4 L113.3,258.2 L113.6,258.2 L113.8,258.2 L114.1,257.5 L114.1,257 L113.9,256.1 L113.8,255.5 L113.8,255.4 L113.6,255.2 L113.5,255.2 L113.2,254.9 L112.9,254.5 L112.6,254 L112.4,253.9 L112.3,253.7 L112.1,253.4 L113.3,249.7 L113.8,249.5 L114.1,249.5 L114.4,249.7 L114.7,250 L115.9,250.4 L116.3,250.6 L116.6,250.4 L116.5,250.4 L115.4,249.8 L114.2,249.1 L113.9,249.1 L113.6,248.8 L113.6,248 L113.9,247.4 L114.1,247.1 L114.2,246.8 L113.9,246.8 L113.6,247.4 L113.2,248.8 L113,249.2 L112.9,249.5 L112.3,250.4 L112.1,250.6 L111.8,250.6 L111.8,250.4 L111.1,249.8 L110.6,249.2 L110.3,249.2 L110.2,249.5 L110,250 L110,250.6 L110,250.9 L109.4,250.4 L109.3,250.3 L109.1,249.4 L109.3,248.9 L109.7,247.7 L110,247.3 L110.2,247.1 L111.1,246.1 L112.4,245.2 L113.5,244.6 L113.6,244.3 L113.9,244 L112.9,244.4 L111.1,245.8 L110.8,245.9 L110.5,246.1 L110.2,246.5 L110,246.7 L109.9,246.8 L109.6,247.1 L109.4,247.3 L109,247.7 L108.7,247.4 L108.5,249.2 L108.2,251.8 L108.1,252.1 L107.6,252.4 L107.5,252.7 L107.3,252.8 L107.2,253 L107,253.4 L105.7,257 L105.7,257.3 L105.8,257.9 L105.7,258.1 L105.5,258.4 L105.2,258.7 L104.9,258.8 L103.6,258.7 L103.4,258.7 L103.3,258.7 L103.3,258.5 L103.1,258.4 L103.3,257.5 L103.3,257.3 L103.4,257 L103.4,256.9 L103.9,256.6 L104.2,256.4 L104.3,256.3 L104.5,255.1 L104.9,253.9 L105.5,252.8 L106.3,251.3 L106.1,250.9 L106,250.4 L106.1,249.1 L106.1,248.8 L106.3,248.6 L106.4,248.5 L106.9,247.9 L107.5,247.1 L107.5,246.7 L107.3,246.8 L107,247 L106.6,247.4 L106.4,247.6 L106.6,247.3 L107,246.5 L107.2,246.4 L107.5,246.1 L107.9,245.5 L108.5,244.7 L108.5,244.4 L108.4,244.4 L108.1,244.6 L107.9,244.7 L107.8,244.7 L108.1,243.1 L108.5,241.9 L109.1,241.3 L109.1,241.1 L110,240.7 L110.2,240.5 L111.1,240.5 L111.2,240.7 L111.8,240.7 L112,240.8 L112.1,240.7 L112.3,240.7 L112.9,240.1 L113,239.9 L113.2,239.8 L113.6,239 L113.5,239 L113.3,239.2 L113.3,239.5 L113.2,239.6 L112.3,240.4 L112.1,240.5 L112,240.5 L110.8,239.9 L110.6,239.8 L110.9,239 L110.9,239.2 L111.2,239.2 L112.1,238.7 L111.5,238.6 L111.4,238.7 L111.2,238.7 L111.1,238.4 L111.1,238.1 L111.8,236.9 L112.7,236.2 L113.5,235.4 L113.9,235 L114.1,234.7 L113.8,234.8 L113.3,235.1 L112.9,235.7 L111.5,236.8 L109.4,238.4 L109.1,238.7 L109,238.7 L108.2,239 L108.2,238.7 L107.5,238.1 L107.2,238 L106.7,237.7 L106.6,237.5 L106.3,237.4 L106.3,237.2 L106,236.5 L105.8,236.3 L105.8,236.2 L106,235.9 L106.1,235.9 L106.3,235.9 L107,236 L108.7,235.9 L109.1,236 L109.4,236 L110,236 L108.5,235.3 L108.2,235.3 L108.1,235.3 L107.9,235.4 L107.6,235.4 L107.5,235.6 L106.9,235.6 L104.5,235 L104.3,235 L104.3,234.7 L104.3,234.4 L104.8,233.9 L105.2,233.8 L106.7,233.8 L106.9,233.8 L107,233.9 L107.2,234.2 L107.5,234.5 L107.6,234.5 L108.2,233.9 L107.9,233.6 L107.8,233.5 L107.9,233.2 L108.5,233.2 L108.8,233.2 L109,233.2 L109.1,233.2 L109.7,232.9 L109.6,232.7 L109.1,232.3 L108.8,232.3 L108.4,232.3 L107.9,232.3 L107.8,232.3 L107.5,232.1 L108.7,230.3 L109,230.2 L109.3,230.3 L109.4,230.3 L109.6,230.5 L109.6,230.6 L109.7,230.8 L110,231.1 L110.2,231.2 L110.3,231.2 L110.8,231.2 L110.9,231.1 L111.1,231.1 L111.2,230.9 L111.1,230.9 L110.9,231.1 L110.5,231.1 L110.3,230.9 L110.2,230.8 L109.3,229.7 L109.3,229.6 L109.3,229.3 L109.4,229.1 L110,228.7 L110.2,228.8 L110.6,228.8 L110.8,229 L110.9,229.1 L111.2,229.3 L111.5,229.4 L111.7,229.4 L112.7,229.3 L112.6,229.1 L112.4,229.1 L112.3,229.1 L112,229.1 L111.5,229 L110.8,228.1 L111.1,226.9 L111.4,226.7 L111.8,226.7 L112,226.7 L112,226.9 L112.3,227 L112.4,227.2 L112.7,227.5 L112.9,227.5 L113,227.3 L112.3,226.4 L111.8,226.1 L111.8,225.4 L112,225.4 L112.6,225.1 L112.9,224.9 L113.2,224.6 L113.2,224.5 L113.3,224.2 L113.2,224.2 L112.9,224.3 L111.7,224.6 L110.5,224.9 L110.3,224.9 L110.2,224.8 L110,224.5 L110,223 L110,222.7 L110,222.4 L110,222.2 L110.5,221.3 L110.6,220.9 L110.8,220.9 L111.1,221 L111.2,221.5 L112,222.4 L112.3,222.1 L113,222.2 L113.2,222.2 L113.2,221.9 L113,221.8 L112.1,221.6 L112,221.6 L111.8,221.5 L111.1,219.8 L111.7,217 L111.8,216.4 L112.3,216.2 L112.6,216.2 L112.7,216.5 L112.9,216.7 L112.9,217.7 L112.9,218 L113.2,218.2 L113.6,217.3 L113.6,217.1 L113.5,216.8 L113.3,216.7 L113.3,216.5 L113.3,216.2 L113.3,215.9 L113.5,215.8 L113.8,215.5 L114.7,216.8 L115.1,216.2 L115.9,216.1 L116.9,216.5 L117.5,217.3 L117.7,217.4 L117.7,217.6 L117.7,217.3 L117.2,215.8 L116.8,215.3 L115.9,214.1 L115.7,214 L115.6,213.4 L115.7,213.1 L115.9,212.9 L115.9,213.1 L116.2,213.2 L116.2,213.4 L116.6,213.7 L116.8,213.7 L116.9,213.5 L117.1,212.9 L117.2,212.5 L117.1,212.3 L116.6,210.5 L116.6,210.4 L116.8,210.4 L118.1,210.8 L119.3,210.8 L119.2,210.7 L118.9,210.4 L118.7,209.6 L118.7,209.2 L118.9,209 L119.8,206.8 L121,205 L122.8,205.7 L123.2,206.6 L123.4,207.2 L123.1,207.4 L122.9,207.5 L122.5,208.3 L122.6,208.3 L123.2,207.8 L124,207.2 L124,206.9 L124.1,206.6 L124.3,206.5 L124.4,206.5 L124.9,206.8 L125,206.9 L125.3,207.1 L125.5,207.4 L126.7,207.7 L128.3,207.5 L129.7,207.8 L130.1,207.8 L130.7,207.8 L131.2,207.5 L131.5,207.4 L131.9,207.1 L132.5,207.2 L132.7,207.5 L134.2,208 L134.3,208 L134.3,207.7 L134.3,207.4 L134.5,206.9 L136,207.4 L137.2,207.7 L137.2,207.8 L136.3,210.8 L135.7,211.9 L135.5,212 L134.6,212.9 L133.6,213.2 L133.3,213.2 L133.1,213.4 L132.7,213.7 L132.5,214 L132.4,214.3 L132.1,214.6 L131.8,214.9 L131.2,215.2 L130.1,215.9 L128.6,216.8 L127.1,217.7 L127,218 L127,218.5 L126.7,219.1 L125.9,219.2 L125.8,219.2 L124.9,218.6 L124,218 L123.8,217.9 L123.7,217.9 L124,218.6 L124.3,218.9 L124.4,219.1 L125.5,219.5 L126.4,219.8 L127.3,220.1 L127.7,220.1 L127.9,220.1 L128,220 L128.2,219.7 L128.5,219.5 L128.6,219.5 L128.6,219.7 L128.6,219.8 L128.2,220.4 L127.6,220.9 L126.8,221.6 L126.5,221.9 L126.4,221.9 L126.2,221.9 L126.2,221.8 L126.2,221.6 L126.2,221.3 L125.6,221.3 L123.8,221.8 L122.5,222.8 L122.3,223.3 L122.5,223.3 L122.8,223.1 L123.2,222.8 L123.4,222.7 L123.5,222.5 L124,222.2 L124.1,222.1 L124.3,222.1 L124.6,222.1 L125.5,222.4 L125.8,222.7 L125,223.4 L124.4,223.9 L124,224.2 L123.8,224.6 L123.7,224.9 L123.8,224.9 L123.8,225.1 L124,225.1 L124.1,225.1 L124.4,224.9 L125.5,224.2 L128.2,223.4 L129.1,223.4 L129.2,223.6 L129.5,223.6 L130.1,223.1 L130.4,223 L130.4,222.8 L130.6,222.5 L131.9,222.5 L132.4,222.5 L132.4,222.7 L132.5,222.8 L132.5,223 L132.8,223.1 L133.6,223.6 L133.9,223.9 L134.2,223.9 L134.3,223.9 L134.6,223.7 L134.9,223.7 L135.1,223.6 L135.2,223.6 L135.5,223.4 L135.8,223.4 L136.4,223.6 L137.6,224 L138.2,224.3 L138.7,224.5 L139.1,224.6 L139.6,224.8 L141.4,225.1 L141.5,224.9 L141.8,224.6 L142,224.6 L142.4,224.6 L142.7,224.8 L143.5,225.2 L143.6,225.4 L143.9,226.3 L144.2,227 L144.4,228.2 L144.4,228.5 L144.2,229.1 L143.5,229.9 L142.4,230.9 L142.1,231.1 L141.2,232.7 L141.2,232.9 L141.1,233.2 L140.9,233.8 L140.9,234.1 L140.5,235.1 L139.7,236.2 L139.4,236.5 L139.4,236.8 L139.3,237.1 L139.4,237.2 L139.4,237.5 L139.3,237.7 L139,238.3 L137.9,239.3 L137.6,239.5 L137.2,239.6 L137,239.8 L136.3,240.5 L136.4,240.8 L136,242.2 L135.5,242.6 L135.2,242.9 L134.3,243.4 L133.6,243.8 L132.1,244 L131.5,244.1 L130.7,244 L130.6,244 L130.4,244 L128.5,245.2 L128.5,245.5 L128.6,245.5 L129.2,245.3 L131,244.7 L131.6,244.3 L131.8,244.3 L131.9,244.3 L132.1,244.3 L132.2,244.3 L132.7,244.6 L132.7,244.7 L132.7,245 L132.5,245.3 L132.4,245.6 L132.4,245.8 L132.5,246.1 L132.7,246.4 L133.1,246.5 L133.3,246.7 L133.6,246.7 L133.9,246.8 L134.2,247.4 L134.2,247.7 L133.1,248.5 L132.2,248.8 L131.9,248.8 L131.8,248.8 L131.6,248.8 L131.6,248.6 L131.5,248.5 L131.3,248.3 L131,248.3 L130.7,248.3 L130.6,248.3 L128.9,249.5 L128.8,249.8 L126.8,250.7 L126.4,250.9 L126.2,250.7 L126.1,250.6 L125.6,250.3 L125,249.8 L124.9,249.8 L123.7,249.5 L123.5,249.5 L123.5,250 L124,250.4 L124.1,250.6 L125.8,251 L127.4,251.6 L128.9,252.4 L129.1,252.4 L129.2,252.4 L129.5,252.4 L130.3,252.2 L130.4,252.2 L130.6,252.1 L130.7,251.9 L131,251.3 L131.3,251 L131.5,250.9 L131.8,250.9 L131.9,250.9 L133,251 L133.1,251.2 L133.4,251.5 L134.2,252.2 L135.1,253.3 L136,254 L137,254.8 L137.5,255.1 L137.5,255.4 L137.5,255.7 L137.8,256.3 L137.8,256.4 L137.9,256.7 L138.1,257.2 L139,259 L139.1,259.4 L139.3,259.4 L139.4,259.4 L139.7,259.6 L140.2,260 L140.6,260.5 L140.8,262.3 L140.8,263.3 L140.6,263.6 L140.5,263.8 L140.5,265.6 L140.6,267.7 L140.6,267.8 L140.8,269 L141.1,270.5 L141.4,271 L141.4,271.7 L141.4,272.8 L141.5,274.4 L141.5,274.6 L142.4,276.7 L143.3,277.4 L143.5,277.4 L145,278.3 L147.5,280.3 L147.8,280.9 L148.3,282.2 L148.4,282.7 L148.4,283 L148.6,284 L148.7,284.3 L149.6,285.8 L150.1,286.3 L150.5,286.4 L150.8,286.7 L151.1,287 L150.8,287.2 L150.5,287.3 L150.4,287.3 L150.2,287.5 L149.8,287.9 L149.6,288.2 L149.6,288.4 L149.6,288.7 L149.8,290.2 L150.1,291.1 L150.2,291.4 L150.4,291.5 L150.7,292.3 L151,292.9 L151.6,294.1 L152,295.1 L152,295.4 L152.2,295.7 L152.2,295.9 L152,296 L152,296.2 L151.7,296.5 L151.7,296.3 L152,296 L151.9,295.7 L151.7,295.6 L151.6,295.4 L151.4,295.3 L151.1,295.1 L151,295.1 L150.8,295.1 L150.4,295.3 L150.2,295.3 L150.1,295.3 L149.9,295.3 L149.8,295.1 L149.6,294.8 L149.5,294.7 L149.3,294.2 L148.9,293.3 L148.7,293.2 L148.4,293.2 L148.3,293 L147.7,293 L147.5,293.2 L147.1,293.2 L145.9,293.3 L145.7,293.2 L145.6,292.9 L145.4,292.7 L145.3,292.7 L145.1,292.7 L145,292.7 L144.7,292.9 L144.2,293.2 L144.5,293.5 L146,293.6 L146.2,293.6 L146.6,293.5 L147.4,293.5 L148.1,293.5 L148.3,293.5 L148.4,293.9 L148.6,294.2 L148.7,294.5 L148.7,294.7 L148.9,295 L149.6,295.9 L149.8,296 L150.8,297.2 L151.3,297.7 L151.6,298 L151.7,298 L152,298.3 L152.3,299 L152.5,299.3 L152.5,299.6 L152.6,299.9 L152.6,300.2 L153.1,302.2 L153.1,303.1 L153.1,303.2 L153.1,303.5 L153.1,303.8 L152.8,304.6 L152.6,304.7 L152.2,305 L151.4,305.5 L151,305.8 L149.5,307.1 L149.2,307.7 L149.3,307.7 L149.6,307.7 L149.8,307.7 L149.9,307.7 L150.2,308 L150.5,308.2 L150.7,308.3 L150.7,308.5 L150.8,308.6 L151,309.2 L151.3,309.5 L152.3,309.8 L152.5,309.8 L153.1,309.2 L153.1,309.1 L153.2,308.9 L153.2,308.5 L153.8,307.4 L154.4,307 L155.6,307 L157.7,307.4 L157.7,307.6 L157.9,307.6 L158.2,307.7 L158.5,307.7 L158.6,307.7 L158.8,307.7 L160.4,308.2 L161.3,308.5 L161.5,308.6 L161.9,308.8 L162.1,308.9 L162.4,309.1 L162.7,309.5 L163,309.8 L163.3,310.3 L163.4,310.3 L163.4,310.4 L164.5,311.5 L164.6,311.6 L164.8,311.9 L164.8,312.1 L164.9,312.5 L164.9,312.7 L165.1,313.1 L165.2,314.2 L165.1,315.7 L164.9,316.9 L164.6,317.6 L164.6,317.9 L164.5,318.1 L164,319 L163.3,321.1 L163.3,321.4 L162.7,322.9 L162.5,323 L160.6,324.7 L159.8,325.3 L159.8,325 L159.5,324.2 L159.4,324.1 L158.5,323.5 L158.8,324.7 L159.4,326 L159.4,326.2 L159.2,326.5 L159.1,326.6 L158.6,327.1 L158.3,327.4 L158.2,327.4 L157.7,327.5 L157.4,327.7 L157.3,327.7 L156.8,327.5 L156.7,327.5 L156.4,326.9 L156.4,326.6 L155.8,326.9 L155,327.4 L153.7,328 L153.4,328.1 L153.8,328.6 L154.9,328.4 L155,328.3 L155.3,328 L155.6,328 L155.8,328.3 L155.6,330.2 L155.2,330.5 L154.7,330.8 L154.1,331.3 L154,331.3 L153.8,331.4 L153.7,331.4 L153.5,331.4 L152.8,331.1 L152.5,331 L150.7,331.4 L150.5,331.4 L149.8,332.2 L149.9,332.2 L150.4,332.2 L150.5,331.9 L150.7,331.7 L150.8,331.7 L151.3,331.7 L151.4,331.7 L151.9,331.7 L152.8,332.2 L152.9,332.3 L153.1,332.5 L152.9,332.8 L152.6,332.8 L152.5,332.6 L152.2,332.6 L151.3,333.1 L151.6,333.4 L151.9,333.5 L152.6,333.8 L154.6,334.6 L155.3,334.6 L155.5,334.6 L155.6,334.6 L155.9,334.4 L156.1,334.3 L156.2,334.3 L157.4,334.3 L159.4,334.4 L159.7,335.3 L159.2,337.6 L159.2,337.9 L159.1,338.2 L158.9,338.3 L158.8,338.6 L158.6,338.8 L157.6,339.1 L157.3,339.1 L155.9,339.4 L155.8,339.4 L155.3,339.7 L155.2,339.8 L154.9,340.1 L154.7,340.3 L154.6,340.4 L154.6,340.7 L154.4,340.9 L154.4,341.3 L154.4,341.5 L153.2,341.5 L152.9,341.3 L152.6,341.3 L151.9,341.6 L151.7,341.8 L151.4,342.1 L151.3,342.2 L150.2,342.5 L149.5,342.5 L149,342.5 L148.9,342.5 L148.6,342.7 L148.3,342.7 L148,342.8 L147.5,343.3 L147.4,343.4 L147.2,343.4 L147.1,343.7 L147.1,343.9 L146.9,343.9 L146.8,343.9 L146.6,343.9 L146.5,343.7 L145.7,343.4 L145.4,343.3 L145.1,343 L143.6,342.2 L143.2,342.1 L143,341.9 L142.7,341.9 L142.6,341.8 L142.1,341.8 L138.8,341.8 L138.2,341.9 L137.8,341.9 L137.5,342.1 L137,342.1 L136.9,342.4 L136.7,342.5 L136.6,342.7 L136.4,342.7 L135.5,341.8 L135.7,341.5 L136,341.3 L136,341.2 L135.4,340.6 L133.9,340.3 L133.1,340.3 L133.3,340.4 L133.6,340.9 L133.3,341.3 L133.1,341.3 L131.3,340.9 L130.6,341 L128.6,341.6 L128.3,341.5 L127.9,341.2 L127.7,341.2 L127.6,341.2 L126.4,341.2 L125.2,341.2 L124.4,341 L124.3,341 L124.3,340.7 L123.8,341 L123.7,341.3 L124.7,341.9 L124.9,341.9 L125,342.4 L124.6,343.1 L123.7,343.1 L123.1,342.7 L122.9,342.5 L122.3,342.2 L120.5,341.6 L120.1,341.8 L119.9,341.8 L119.6,342.4 L119.6,342.5 L119.6,342.7 L119.9,343 L119.8,343.3 L119.6,343.1 L119.6,342.8 L119.3,342.2 L118.7,341.6 L117.8,340.7 L117.5,340.4 L117.4,340.3 L116.9,340 L116.5,339.7 L116,339.5 L115.9,339.4 L115.6,339.4 L115.4,339.4 L115.3,339.4 L115.1,339.5 L114.8,339.7 L113.6,339.7 L112.9,339.5 L112.1,339.7 L112,339.7 L110.3,340.4 L110,340.6 L109.7,340.7 L109.3,341.3 L109.3,341.6 L108.4,343.1 L108.4,343.3 L106.7,346.3 L106.6,346.4 L106.1,346.6 L106,346.6 L105.4,346.4 L105.2,346.3 L105.1,346.3 L104.9,346 L104.9,345.8 L104.9,345.7 L104.8,345.1 L104.2,344.5 L104,344.3 L103.9,344.3 L103.7,344.5 L103.4,344.5 L103.4,344.6 L103.3,344.6 L103,344.5 L102.5,343.9 L102.1,343.1 L102.1,343 L100,342.8 L99.4,343 L99.2,343.1 L99.1,343.3 L98.8,343.3 L98.6,343.3 L98.2,343.1 L97.3,343 L96.8,342.8 L96.1,343 L94.9,344 L93.68,344.5 L92.78,344.6 L92.48,345.2 L92.18,346.1 L92.32,346.6 L92.18,346.7 L92.18,346.9 L91.88,347 L91.12,347.2 L90.82,347.6 L90.52,347.9 L90.22,347.6 L90.22,347.5 L90.08,347 L90.22,346.7 L90.08,346.1 L89.92,345.8 L89.62,345.4 L88.42,344.6 L88.28,344.5 L88.12,344.5 L87.98,344.5 L87.68,344.6 L87.68,344.8 L87.52,345.1 L87.52,345.4 L87.38,345.5 L87.22,345.7 L87.08,345.7 L86.18,345.7 L86.02,345.5 L85.88,345.5 L85.72,345.2 L86.02,344 L86.32,343.6 L87.98,343.1 L88.28,343 L88.42,343 L88.58,343.1 L88.58,343.4 L89.02,343.6 L90.82,342.5 L92.32,341.6 L93.52,340.4 L93.98,339.8 L93.82,339.4 L94.3,338.6 L95.3,338.2 L95.6,338.2 L95.8,338.3 L96.5,338.3 L96.7,338.2 L96.8,338.2 L97,337.9 L97.1,337.4 L97.4,337.1 L97.9,336.8 L98.5,336.5 L99.5,335.6 L99.7,335.5 L99.7,335.2 L99.8,334.9 L100,334.3 L100.1,333.2 L100.7,331.7 L101.2,331.9 L101.6,332 L101.6,332.2 L101.9,332.5 L102.2,332.5 L102.4,332.5 L102.5,332.5 L102.7,332.3 L103.6,331.7 L103.9,331.4 L103.9,330.7 L104,329.5 L104.3,329.3 L105.2,329.2 L105.7,329.3 L106.6,329.3 L107.5,329.5 L108.5,329.3 L109.3,329.6 L109.9,330.1 L110,330.1 L110.3,330.1 L110.6,329.9 L111.2,330.1 L111.8,330.5 L112,330.8 L112,331 L112.1,331 L112.4,331.1 L113,331.1 L115.7,331.3 L116,330.4 L116.2,330.2 L116.3,329.6 L116.9,328.6 L118.1,327.5 L119.2,326.9 L120.5,325.9 L120.7,325.7 L121.7,324.5 L122.6,323.5 L122.8,323.5 L123.1,323.5 L123.4,323.3 L123.5,323.3 L123.7,323 L123.5,322.9 L122.8,323.2 L121.4,324.1 L121,324.7 L120.5,325.1 L120.4,325.1 L120.1,325.4 L119.9,325.6 L118.6,325.9 L118.1,325.9 L117.8,325.9 L117.5,325.9 L117.4,325.7 L116.8,326 L115.7,326.5 L115.6,326.5 L115.3,326.9 L115.1,327.2 L115.1,327.7 L114.8,327.8 L113.9,328 L113.2,327.8 L113,327.8 L112.7,327.7 L112.6,327.7 L112.3,327.5 L111.8,327.4 L111.4,327.2 L111.2,327.1 L110.3,325.7 L109.7,324.7 L109.7,324.4 L109.6,323.9 L109.1,323 L108.1,322.9 L107.9,322.9 L105.4,323.8 L105.2,323.8 L105.1,323.6 L104.8,323.2 L104.8,322.4 L105.2,322.1 L105.4,322.1 L105.5,322.3 L106,322.3 L106.6,322.3 L107,322.1 L107.2,321.8 L107,321.7 L105.8,321.4 L105.2,321.2 L103.7,320 L102.4,319.7 L101.9,319.7 L101.8,319.7 L101.5,319.7 L101.3,320 L101.2,320.3 L101.2,320.6 L100.9,320.9 L100,321.1 L99.8,320.9 L99.7,320.8 L99.4,320.8 L99.1,320.9 L98.5,321.4 L97.9,321.1 L97.6,320.8 L97.4,320.8 L97.9,320 L98.5,320 L99.1,319.7 L99.2,319.7 L99.7,319.6 L99.5,319.4 L99.5,319 L99.4,319.3 L99.2,319.4 L98.2,319.4 L97.6,319.3 L96.4,319 L96.1,318.7 L95.9,318.5 L97,318.2 L97.3,318.2 L97.4,318.2 L97.6,318.1 L97.6,317 L97.6,316.9 L97.4,316.7 L97,316.4 L96.8,316.3 L96.4,316.1 L96.7,315.5 L98.2,315.1 L98.3,314.8 L98.5,314.5 L100.7,314.6 L100.9,314.6 L101.6,313.9 L101.8,313.7 L101.9,313.6 L102.1,313.3 L102.2,313.3 L102.8,313 L103.1,313 L103.3,313 L103.6,313.1 L104.2,313.3 L104.5,313.3 L106.7,312.2 L107.3,311.9 L107.8,311.5 L108.4,310.9 L108.5,310.6 L109,309.8 L109.1,309.7 L109.7,308.2 L109.7,307.9 L109.7,307.1 L109.4,306.2 L109.7,305.5 L110.5,304.4 L110.5,304.3 L109.9,303.2 L109.9,302.9 L110.2,301.6 L110.3,301.4 L110.5,301.3 L110.3,301 L109.4,300.8 L108.7,300.8 L107.6,301 L107.3,301.1 L106.9,301.4 L106.6,301.7 L106.1,302.3 L104.3,302.2 L104.2,302.2 L104,302 L104.2,301.7 L104.3,301.4 L104.6,301.3 L105.4,300.5 L105.8,300.2 L106.1,300.1 L106.4,300.1 L106.6,300.1 L106.7,299.9 L107,299.8 L107.5,299.5 L108.5,298.7 L108.7,298.6 L108.8,298.1 L109.1,297.4 L110.6,296 L111.1,295.7 L111.4,295.7 L111.5,295.9 L112,295.9 L112.4,295.9 L112.6,295.7 L114.1,295.3 L115.3,295.4 L115.6,295.6 L116.3,295.9 L116.5,295.9 L117.8,295.4 L118.6,295.1 L118.9,295.1 L119,295.1 L119.2,295.1 L120.1,296.2 L120.8,297.1 L121,297.2 L121.1,297.1 L121.3,296.9 L121,295.9 L120.8,295.4 L120.7,295.3 L120.7,295.1 L120.5,294.8 L120.5,294.7 L120.7,294.5 L120.8,294.5 L121.7,294.5 L121.9,294.5 L122,294.7 L122,295.1 L122.3,295.4 L122.6,296.5 L122.8,296.6 L122.9,296.8 L123.1,296.9 L123.2,296.9 L124.1,296.9 L124.4,296.8 L124.9,296.2 L124.9,296 L124.3,296.2 L124.3,296.3 L123.4,296.3 L123.2,296.3 L122.6,295.6 L122.6,295.4 L122.3,294.5 L122.3,294.4 L121.9,292 L122,291.7 L122.2,291.4 L123.4,290 L123.8,289.7 L124.3,289.6 L124.1,289.4 L124,289.4 L123.8,289.4 L123.7,289.3 L123.4,289.3 L123.2,289.3 L123.1,289.1 L123.1,289 L122.9,288.7 L122.9,288.4 L122.9,288.1 L123.4,286.3 L123.4,286.1 L123.7,286 L124.6,285.8 L125,285.1 L125.8,283.7 L126.1,282.8 L126.4,281.5 L125.2,282.4 L122.9,283.3 L122.3,283 L122.3,282.8 L121.3,280.1 L121.1,279.5 L121.1,279.4 L121.1,278.3 L121,277.9 L120.8,277.4 L120.5,277 L120.4,276.5 L119.9,275.8 L119.8,275.3 L120.8,273.2 L122.6,270.7 L123.1,269.6 L123.2,269.5 L124.1,268.7 L124.3,268.7 L124.9,268.7 L125,268.9 L125.2,268.9 L125.5,269.2 L125.8,269.2 L126.5,269 L126.7,268.6 L126.5,268.4 L126.4,268.4 L126.2,268.6 L125.5,268.6 L123.7,268.1 L123.5,268.1 L123.4,268 L122.9,267.7 L121.9,267.5 L121.7,267.8 L121.1,269.3 L121,269.3 L120.4,269 L119.2,269.5 L118.6,270.1 L117.7,270.5 L117.5,270.5 L116.5,270.4 L116,270.1 L114.4,268.4 L114.2,268 L114.2,267.8 L114.2,267.5 L113.9,267.8 L113.8,268.1 L113.8,268.9 L114.1,269.8 L114.1,270.8 L113.9,271 L113.9,271.1 L113.8,271.3 L113.6,271.3 L113.5,271.3 L112.6,270.8 L112.6,270.7 L112.3,270.1 L112.3,269.8 L112,269.2 L111.4,268.7 L110.8,268.3 L110.5,267.7 L110.3,267.5 L110.2,267.5 L110,267.4 L109.6,267.5 L109.3,267.7 L109.1,267.8 L108.8,268.3 L108.8,268.9 L109,269.8 L109,270.1 L109.1,270.1 L109.3,270.4 L109.1,271.3 L109.1,271.3 Z M91.42,277.7 L91.28,277.7 L91.12,277.7 L90.98,277.3 L90.68,275.2 L90.08,273.1 L90.08,272.2 L89.78,271.6 L89.32,271 L89.02,270.7 L88.72,270.7 L87.52,271.7 L87.22,272.5 L87.38,273.1 L87.22,273.5 L85.58,275 L85.28,275 L85.12,275 L83.02,274.3 L82.72,274 L82.58,273.8 L82.58,273.7 L82.12,272.8 L81.68,272.8 L81.08,272.6 L80.78,272.3 L80.78,272.2 L80.78,272 L80.78,271.6 L80.92,271.1 L80.62,270.8 L80.32,270.7 L79.72,269.6 L79.58,269.5 L79.58,269.3 L79.58,269.2 L78.98,268 L78.98,267.5 L80.18,267.1 L81.22,266.9 L82.28,266.8 L83.18,266.3 L83.02,265.7 L82.42,265.4 L82.12,264.8 L81.98,264.7 L81.98,264.1 L82.88,263.8 L83.02,263.8 L83.78,264.4 L85.58,263.9 L86.48,263 L86.78,262.6 L87.08,262.1 L87.68,261.1 L88.72,259.7 L89.48,259.4 L89.32,259.9 L90.68,260.3 L90.98,260.3 L91.12,260.3 L91.42,260 L91.42,259.9 L91.88,259.3 L92.32,258.7 L92.92,258.5 L93.52,258.7 L94.4,258.7 L95.6,258.5 L96.5,258.2 L97.7,258.4 L98,258.5 L98.8,259.1 L99.5,259.1 L99.7,259.1 L100.1,259.4 L100.4,259.7 L100.4,260.5 L100.3,261.4 L100.1,261.5 L100.1,262.1 L101.3,265.1 L101.6,265.9 L101.8,265.9 L101.9,266 L102.1,266 L102.2,266.5 L102.4,266.8 L102.2,267.5 L102.1,267.8 L101.9,268 L101.5,268.1 L101.3,268.1 L101.2,268.1 L100.9,268.3 L100.3,268.4 L100.3,268.6 L100.1,268.7 L99.7,269.3 L99.7,269.8 L100,269.8 L100,269.6 L100.3,269.3 L100.7,269.2 L100.9,269 L101.5,269 L102.4,269 L102.7,269.2 L103,269.2 L103.1,269.8 L103.1,270.1 L103.3,271.7 L103.6,272.6 L103.4,273.1 L103,274.3 L102.5,274.4 L102.4,274.4 L102.2,273.8 L102.2,273.5 L102.4,273.4 L102.4,273.1 L102.5,272.6 L102.5,272.2 L102.5,271.9 L102.4,271.7 L102.2,271.4 L101.9,271 L101.8,270.8 L101.6,270.7 L101.5,270.7 L101.3,271.3 L101.5,271.6 L101.6,272.2 L101.9,274.1 L101.9,274.3 L101.9,274.7 L101.8,275.6 L101.6,275.8 L101.3,275.9 L101.2,276.2 L100.6,276.5 L100.6,276.4 L100.4,276.1 L100,276.1 L99.8,275.9 L99.2,275.9 L98.8,276.1 L98.6,276.4 L98.6,276.5 L98.6,276.8 L98.5,277.1 L98.2,277.9 L98,278.2 L97.7,278.3 L97.3,278.6 L96.4,278.9 L96.2,278.9 L96.1,278.9 L95.9,278.8 L95.5,278 L95.3,277.7 L95.3,277.6 L94.7,277.4 L94.6,277.3 L94.4,277.3 L94.1,277 L93.98,277 L93.82,277.1 L92.92,277.7 L91.72,277.6 L91.42,277.7 L91.42,277.7 Z M106.7,213.7 L106,214 L105.7,214.1 L105.4,213.8 L105.1,213.8 L105.1,213.7 L104.9,213.1 L104.9,212.9 L104.9,212.6 L104.9,212.3 L105.1,212 L105.5,211.7 L105.8,211.7 L106.1,211.7 L106,211.6 L105.5,211.4 L105.4,211.4 L104.5,212.3 L104.6,213.1 L104.8,213.2 L104.9,213.5 L104.9,214.1 L104.9,214.4 L104,215.2 L101.8,216.4 L100.9,214.6 L100.9,214.3 L101.2,214.3 L101.2,214.4 L101.2,214.6 L101.3,214.6 L101.8,214.6 L103.6,213.7 L103.3,213.1 L103,212.8 L102.8,212.6 L102.5,212.5 L102.2,212.6 L102.1,212.5 L101.8,212.3 L101.6,211.9 L101.9,211.6 L102.2,211.4 L102.2,211.1 L102.1,210.5 L102.1,209.5 L102.5,208.6 L103,208.1 L103.1,207.8 L103.4,208 L104,208.4 L104.2,208.6 L104,208.6 L103.7,208.9 L104,210.2 L104,210.4 L104.3,209.2 L104.9,209 L105.2,209.2 L105.4,209 L105.2,208.4 L105.1,208 L105.1,207.5 L105.4,207.2 L106.6,206.6 L106.7,206.8 L107.5,206.8 L107.6,206.6 L109.4,205.4 L109.9,205.1 L110.2,205.1 L110.3,204.8 L110.5,204.7 L110.5,204.8 L110.6,205 L110.6,205.1 L110.9,206.3 L110.3,207.4 L110,208 L109.4,208.4 L109.1,208.7 L109,209.2 L109.3,209.5 L109.4,209.5 L109.7,209.3 L109.9,209.3 L110.3,209 L110.5,209.2 L110.2,209.8 L110.2,209.9 L109.6,210.2 L109.3,210.2 L108.7,210.1 L108.4,210.4 L108.2,210.8 L107,211.1 L106.6,211.1 L106.1,211.1 L106,211.1 L106.1,211.3 L107,211.3 L107.6,211.1 L107.8,211.1 L107.9,211.3 L107.9,212.5 L107.6,212.8 L106.9,213.4 L106.7,213.7 L106.7,213.7 Z M109,228.7 L108.8,228.8 L108.4,229.3 L108.1,229.6 L107.9,229.6 L107.5,229.7 L107.3,229.7 L107.2,229.7 L107.2,229.1 L107.8,228.2 L107.9,227.9 L107.6,227.2 L107,227.9 L106.9,227.8 L106.4,227 L105.2,226.9 L104.5,224.9 L104.3,224.2 L104.9,223.9 L105.1,224 L105.2,224.2 L105.4,224.5 L105.5,224.6 L105.7,224.6 L104.3,222.4 L103.9,222.8 L103.7,223.3 L103.7,223.6 L103.6,223.6 L103.3,223.3 L102.8,222.8 L102.7,222.8 L102.7,222.7 L102.5,222.5 L102.7,222.1 L102.4,221.6 L102.4,221.3 L102.8,220.6 L104.2,218.9 L104.3,219.1 L104.5,219.4 L104.5,219.5 L104.6,219.7 L104.5,220 L105.2,220.9 L105.5,221 L106,220.7 L106.1,219.4 L106,218.8 L106.1,218.6 L106.9,218.2 L107.2,218.2 L107.3,218.5 L107.9,219.7 L108.1,220 L108.1,220.4 L107.8,221.9 L107.5,223 L107.5,223.1 L107.2,224.6 L107.3,224.8 L109,226.3 L109.1,226.3 L109.6,226.3 L110.2,226 L110.3,226 L111.1,226.4 L110.8,227.3 L109.3,228.5 L109.1,228.5 L109.1,228.7 L109,228.7 L109,228.7 Z M152.3,183.2 L152.3,183.1 L152.2,182.9 L152.2,182.2 L152.5,182 L152.5,181.9 L152.8,181.9 L153.1,182 L154,182 L154.3,181.9 L154.4,181.9 L155,181.7 L155.3,181.4 L154.6,179.6 L154.1,179.3 L153.7,179.2 L153.4,179.2 L153.5,178.6 L154,178.3 L155.2,177.2 L156.1,176.9 L156.2,177.2 L155.8,179.3 L155.8,179.6 L156.7,180.1 L157.7,180.4 L157.3,181.7 L156.8,183.1 L156.2,183.2 L156.1,183.1 L155.9,183.2 L156.1,183.7 L156.1,183.8 L156.1,184.3 L156.2,185.2 L156.1,185.3 L155.9,185.3 L155.8,185.5 L155.5,185.8 L155.2,187.1 L154.6,189.8 L154.4,190 L154.1,189.8 L153.7,189.1 L153.7,188.9 L154.3,187.3 L154.4,187.3 L155,185.9 L155.2,185.6 L155.2,185.3 L155.2,183.8 L155.2,183.4 L154.3,183.1 L154.4,183.4 L154.6,183.5 L154.7,183.8 L154.6,184.1 L153.7,184.7 L153.5,184.4 L153.2,184 L153.4,183.8 L152.8,183.5 L152.3,183.2 L152.3,183.2 Z M105.1,235.6 L105.4,235.9 L105.5,236 L105.7,236.2 L105.8,236.9 L106,237.5 L106.9,238.3 L107.3,238.4 L107.3,238.6 L107.9,239.2 L108.4,239.8 L108.4,239.9 L108.1,240.7 L107.6,241.1 L107.5,241.3 L106.6,241.7 L106.1,241.7 L106,241.7 L106,241.6 L106.1,241.4 L106.3,241.1 L106.1,241 L106,241 L105.8,241 L105.1,241.4 L104.6,241.6 L102.4,241.9 L101.9,241.6 L101.8,241.4 L101.8,241.3 L101.8,240.8 L101.8,240.5 L101.9,240.4 L102.1,240.4 L102.4,240.4 L102.5,240.5 L102.5,240.7 L102.8,241 L104.5,240.7 L104.8,240.5 L104.9,240.4 L104.8,240.2 L104.3,240.4 L104.2,240.4 L104,240.4 L103.6,240.4 L103.4,240.4 L103.4,240.2 L103.4,239.9 L104,239.3 L104.6,239.2 L104.8,239 L105.1,238.9 L105.2,238.9 L105.4,238.7 L105.5,238.4 L105.4,238.4 L104.6,238.4 L104.5,238.6 L104.3,238.6 L102.8,237.1 L102.8,236.9 L103.1,236 L104.5,235.6 L104.9,235.6 L105.1,235.6 L105.1,235.6 Z M109,297.1 L108.5,297.1 L107.9,296 L107.8,295.7 L107.5,294.2 L107.8,292.3 L107.9,292.3 L108.8,292 L109.3,292 L110.2,292.4 L110.5,292.6 L110.5,292.7 L110.5,292.9 L110.8,294.1 L111.7,294.4 L111.8,294.4 L112.3,294.7 L111.8,295.4 L111.7,295.6 L110.5,296.2 L109.3,296.8 L109,297.1 L109,297.1 Z M99.8,253.1 L99.7,253 L99.5,252.8 L99.7,252.2 L100.3,250.9 L100.7,250 L100.7,249.8 L100.1,249.5 L100,249.7 L99.8,249.7 L99.8,250 L99.7,250.1 L99.5,250.4 L99.4,250.6 L99.1,250.7 L98.8,251 L98.6,251 L98.5,251.2 L98.3,251.2 L98.2,251 L98.2,250.7 L98.5,250.3 L98.5,250 L99.4,248.2 L100.1,248 L100.6,248.2 L101.8,247.6 L102.1,247.4 L102.4,247.4 L102.5,247.6 L102.4,248 L102.2,248.3 L102.2,249.5 L102.2,249.8 L102.2,250 L102.4,250.1 L102.5,250.3 L102.5,251.2 L102.4,251.8 L102.2,251.9 L101.9,252.2 L100.3,252.8 L99.8,253.1 L99.8,253.1 Z M139.4,204.1 L139.1,203.8 L138.4,202.9 L138.1,202.7 L137.8,202.7 L137.3,202.9 L137.2,202.9 L136.7,203 L136.6,203 L135.8,202.3 L135.7,202.1 L135.5,201.8 L135.4,201.4 L135.4,201.1 L135.8,199.6 L136.1,199.3 L136.6,199.1 L136.9,199 L137,199 L137.2,199.1 L138.1,199.7 L138.5,200.6 L138.5,200.9 L138.8,201.8 L139.4,202.4 L139.9,202.9 L140,203.5 L139.4,204.1 L139.4,204.1 Z M109,257.5 L108.5,257.3 L108.1,257 L108.1,256.9 L107.6,256.4 L107.6,256 L107.6,254.2 L107.6,254 L107.8,253.9 L108.1,253.1 L108.5,252.7 L108.8,252.5 L109.1,252.5 L109.3,252.7 L109.4,252.7 L109.4,252.8 L109.7,253 L109.7,253.1 L109.9,253.3 L110,253.4 L110.2,255.5 L110,257.2 L109.7,257.5 L109.6,257.5 L109,257.5 L109,257.5 Z M103.3,250.1 L102.8,250 L102.5,249.8 L102.5,249.7 L102.5,249.5 L102.5,249.2 L102.5,248.5 L102.7,248.2 L102.7,248 L104.2,246.2 L104.8,245.8 L105.8,245.2 L106.3,244.9 L106.4,244.7 L106.7,244.6 L106.9,244.7 L106.9,245.2 L106.7,245.3 L106.6,245.5 L106.6,245.6 L106.4,245.8 L106.1,246.1 L104.9,247.7 L104.2,248.6 L103.6,249.5 L103.3,250.1 L103.3,250.1 Z M131.3,344.5 L130.6,343.7 L129.7,342.8 L129.4,342.7 L129.2,342.7 L129.1,342.7 L128.9,342.7 L128.6,342.7 L128.9,342.4 L129.2,342.1 L131.5,341.2 L131.6,341.2 L133.3,342.1 L133.6,342.4 L133.7,343 L132.5,344.2 L132.2,344.3 L131.9,344.5 L131.8,344.5 L131.3,344.5 L131.3,344.5 Z M98.8,219.5 L98,219.4 L98,218.9 L98.2,218.6 L98,218.5 L97.6,218.2 L97.1,218.2 L97,218.2 L97,218 L96.5,217.6 L97.3,216.7 L97.4,216.5 L97.7,216.7 L99.1,217 L99.4,216.7 L99.8,216.5 L100.7,217.6 L99.5,219.5 L99.4,219.5 L98.8,219.5 L98.8,219.5 Z M97.4,226 L97.3,226.3 L97,226 L96.8,226 L96.7,226 L96.4,226 L96.2,226 L96.1,225.7 L96.1,225.4 L96.1,224.5 L96.1,223.9 L96.8,221.2 L96.8,221 L97.3,220.9 L97.6,221 L97.9,221.5 L98,221.6 L98.2,222.2 L98.2,222.4 L98,222.4 L97.7,222.2 L97.6,222.4 L97.3,225.2 L97.4,226 L97.4,226 Z M157.3,179.6 L157.1,179.5 L157,179.5 L156.8,178.9 L157,177.7 L157,177.2 L157.1,177.1 L157.9,175.6 L158,175.6 L158.2,175.6 L158.6,175.7 L158.6,176.9 L158,179.2 L157.9,179.5 L157.3,179.6 L157.3,179.6 Z M135.8,205.1 L135.4,205.1 L134.5,203.2 L134.8,202.7 L134.9,202.6 L135.4,202.6 L136.1,203.3 L136.3,203.6 L136.7,204.8 L136.6,205.1 L136.4,205.1 L136.3,205.1 L135.8,205.1 L135.8,205.1 Z M159.8,176.8 L159.1,176.6 L158.9,176.5 L158.9,176 L159.2,174.7 L159.8,173.9 L160.4,174.1 L160.7,174.2 L160.7,174.5 L160.6,174.8 L160,176.5 L159.8,176.8 L159.8,176.8 Z M111.2,253 L111.2,252.8 L110.6,251.8 L110.3,250.1 L110.3,249.7 L110.6,249.4 L110.8,249.5 L111.4,250.3 L111.5,251 L111.7,251.9 L111.5,252.2 L111.4,252.8 L111.4,253 L111.2,253 L111.2,253 Z M104.3,230.6 L104,230.3 L103.4,229.3 L103.9,228.8 L104.2,228.7 L104.2,228.5 L104.5,228.5 L104.8,228.7 L105.1,228.8 L105.2,229 L105.2,229.3 L105.2,229.7 L104.9,230.2 L104.8,230.5 L104.5,230.6 L104.3,230.6 L104.3,230.6 Z M98,221.2 L97.7,221 L97.3,220.6 L97.1,220.1 L97.3,219.8 L97.7,219.5 L98.2,219.7 L98.3,219.8 L98.6,220 L98.9,220.3 L98.8,221 L98.3,221.2 L98,221.2 L98,221.2 Z M141.4,199.1 L141.4,199 L141.4,198.7 L141.5,198.5 L142.4,197.5 L142.7,197.3 L142.9,197.3 L143.9,197.5 L144.1,197.6 L144.1,197.9 L143,198.4 L142.4,198.4 L142,198.4 L141.5,199 L141.4,199.1 L141.4,199.1 Z M107.9,224.6 L107.8,224.2 L107.9,223.4 L108.2,222.8 L108.4,222.5 L108.7,221.9 L109,221.6 L109.1,222.1 L108.5,224.5 L108.4,224.6 L108.2,224.6 L107.9,224.6 L107.9,224.6 Z M97.7,237.7 L97.4,237.5 L97,237.4 L97.1,236.5 L97.3,236.3 L97.4,236.3 L99.2,236.2 L99.4,236.6 L99.2,236.6 L99.1,236.6 L98.9,236.6 L98.8,236.6 L97.9,237.2 L97.7,237.7 L97.7,237.7 Z M100,236.2 L99.8,236.2 L99.8,235.9 L99.8,235.7 L100.7,235 L101.2,234.7 L101.5,234.5 L101.8,234.4 L101.9,234.4 L102.2,234.5 L101.9,235.1 L101.8,235.3 L100.9,235.9 L100.7,235.9 L100,236.2 L100,236.2 Z M154.6,334.3 L154.4,334.3 L153.5,334 L153.2,333.8 L153.1,333.5 L153.1,333.4 L153.2,332.9 L153.2,332.8 L153.4,332.8 L153.7,332.8 L154.6,333.2 L154.7,333.4 L155,333.7 L155,334 L155,334.1 L154.6,334.3 L154.6,334.3 Z M94.7,228.4 L94.6,228.2 L94.3,228.2 L94.1,228.1 L93.98,227.9 L93.98,227.8 L94.1,227.8 L95.3,226.4 L95.5,226.7 L95.6,227.8 L95,228.4 L94.7,228.4 L94.7,228.4 Z M138.1,206.3 L137.9,206.2 L137.8,206 L137.6,204.7 L137.8,204.5 L138.1,204.5 L138.5,204.5 L138.7,204.7 L138.8,204.7 L138.8,205 L138.2,206.3 L138.1,206.3 Z M138.1,206.3" id="uk" stroke="#FFFFFF" fill="#DCDCDC"></path>
    </g>
</svg>